<svg width="18" height="18" viewBox="0 0 18 18" fill="none" xmlns="http://www.w3.org/2000/svg">
<path d="M4.00159 4.99609H10.0063V4H4.00159V4.99609ZM4.00159 6.98827H5V5.99218H4.00159V6.98827Z" fill="white"/>
<path d="M16.0047 1H1V14.0039H4.00469V13.0078H2.00625V2.00704H15.0094V5.00938H16.0047V1Z" fill="white"/>
<g clip-path="url(#clip0_94_5326)">
<path d="M14.375 17.325H7.625C7.10783 17.325 6.61184 17.1195 6.24614 16.7538C5.88045 16.3881 5.675 15.8922 5.675 15.375V13.5H6.575V15.375C6.575 15.6535 6.68562 15.9205 6.88254 16.1174C7.07945 16.3144 7.34652 16.425 7.625 16.425H14.375C14.6535 16.425 14.9205 16.3144 15.1175 16.1174C15.3144 15.9205 15.425 15.6535 15.425 15.375V13.875H16.325V15.375C16.325 15.8922 16.1196 16.3881 15.7539 16.7538C15.3882 17.1195 14.8922 17.325 14.375 17.325ZM6.575 10.425H5.675V8.62499C5.675 8.10782 5.88045 7.61183 6.24614 7.24613C6.61184 6.88043 7.10783 6.67499 7.625 6.67499H14.375C14.8922 6.67499 15.3882 6.88043 15.7539 7.24613C16.1196 7.61183 16.325 8.10782 16.325 8.62499V11.25H15.425V8.62499C15.425 8.34651 15.3144 8.07944 15.1175 7.88253C14.9205 7.68561 14.6535 7.57499 14.375 7.57499H7.625C7.34652 7.57499 7.07945 7.68561 6.88254 7.88253C6.68562 8.07944 6.575 8.34651 6.575 8.62499V10.425Z" fill="white"/>
<path d="M11 14.6625C10.9379 14.6622 10.8766 14.6479 10.8207 14.6207C10.7649 14.5934 10.7159 14.5539 10.6775 14.505L8.99 12.3825L8.375 13.68C8.34092 13.7503 8.28758 13.8094 8.2212 13.8506C8.15481 13.8918 8.07811 13.9132 8 13.9125H6.0875C5.9781 13.9125 5.87318 13.869 5.79582 13.7917C5.71846 13.7143 5.675 13.6094 5.675 13.5C5.675 13.3906 5.71846 13.2857 5.79582 13.2083C5.87318 13.131 5.9781 13.0875 6.0875 13.0875H7.7375L8.5325 11.43C8.56231 11.3672 8.60751 11.313 8.66389 11.2723C8.72027 11.2317 8.78601 11.2059 8.855 11.1975C8.92398 11.1889 8.99402 11.1981 9.05839 11.2244C9.12275 11.2507 9.17927 11.2931 9.2225 11.3475L10.8275 13.365L12.11 8.865C12.1298 8.79619 12.1672 8.73373 12.2185 8.68376C12.2698 8.63379 12.3332 8.59803 12.4025 8.58C12.4721 8.56043 12.5457 8.55985 12.6156 8.57831C12.6855 8.59677 12.7491 8.63361 12.8 8.685L14.93 10.815H15.92C16.0294 10.815 16.1343 10.8585 16.2117 10.9358C16.289 11.0132 16.3325 11.1181 16.3325 11.2275C16.3325 11.3369 16.289 11.4418 16.2117 11.5192C16.1343 11.5965 16.0294 11.64 15.92 11.64H14.75C14.6957 11.6402 14.642 11.6297 14.5918 11.6091C14.5416 11.5885 14.496 11.5583 14.4575 11.52L12.7025 9.75L11.3975 14.325C11.377 14.398 11.3367 14.4639 11.2811 14.5155C11.2255 14.5671 11.1568 14.6024 11.0825 14.6175L11 14.6625Z" fill="white"/>
</g>
<defs>
<clipPath id="clip0_94_5326">
<rect width="12" height="12" fill="white" transform="translate(5 6)"/>
</clipPath>
</defs>
</svg>
