<svg width="18" height="18" viewBox="0 0 18 18" fill="none" xmlns="http://www.w3.org/2000/svg">
<path d="M4.00156 6.00625H10.0062V5.01016H4.00156V6.00625ZM4.00156 7.99843H4.99998V7.00234H4.00156V7.99843Z" fill="white"/>
<path d="M16.0047 1H1V14.0039H4.00469V13.0078H2.00625V2.00704H15.0094V7.00938H16.0047V1Z" fill="white"/>
<path d="M16.9726 9.35689C16.9708 9.36163 16.969 9.36633 16.9671 9.37098C16.953 9.40786 16.8638 9.64574 16.7518 9.94465C16.4948 10.6304 16.0646 11.7781 15.692 12.7621C15.4855 13.3076 15.3223 13.7351 15.2069 14.0326C15.1405 14.204 15.0883 14.3365 15.0518 14.4265C15.0358 14.4662 15.0193 14.5057 15.0021 14.545C14.8831 14.8143 14.6737 14.855 14.5595 14.8552H14.5584C14.4537 14.8552 14.3522 14.8205 14.2701 14.7565C13.6588 14.2825 12.9462 13.9508 12.1858 13.7863L11.8991 14.609C12.1442 14.8186 12.3067 15.1063 12.3581 15.4217C12.4094 15.737 12.3465 16.0602 12.1802 16.3346C12.0139 16.609 11.7549 16.8173 11.4483 16.9231C11.1417 17.0289 10.807 17.0254 10.5027 16.9134C10.1984 16.8014 9.94381 16.5878 9.78337 16.3101C9.62293 16.0323 9.56683 15.708 9.62488 15.3937C9.68292 15.0794 9.85142 14.7952 10.101 14.5906C10.3505 14.386 10.6652 14.274 10.9901 14.2743C11.0061 14.2743 11.0219 14.275 11.0377 14.2755L11.251 13.6638C10.0031 13.6071 8.73715 13.97 7.73354 14.7506C7.65352 14.8129 7.55481 14.8475 7.45276 14.8489C7.33697 14.8502 7.12359 14.8126 7.00215 14.539C6.98491 14.4996 6.96825 14.4599 6.95217 14.42C6.91535 14.3296 6.86273 14.1964 6.79579 14.0242C6.67951 13.7251 6.51508 13.2958 6.30713 12.748C5.93196 11.7602 5.50112 10.6139 5.24364 9.92904C5.13572 9.64178 5.04941 9.41233 5.03363 9.37123C5.02849 9.35884 5.02394 9.34621 5.01998 9.33335C4.99154 9.24139 4.99351 9.14294 5.02561 9.05216C5.05771 8.96138 5.11829 8.88296 5.19862 8.82817C8.5533 6.38928 13.4577 6.39128 16.8021 8.83014C16.8855 8.88726 16.9474 8.96983 16.9783 9.06507C17.0091 9.16031 17.0071 9.26288 16.9726 9.35689ZM10.5276 15.6383C10.5276 15.7282 10.5547 15.8161 10.6056 15.8909C10.6564 15.9656 10.7286 16.0239 10.8131 16.0583C10.8976 16.0927 10.9906 16.1017 11.0804 16.0842C11.1701 16.0666 11.2525 16.0233 11.3172 15.9598C11.3819 15.8962 11.4259 15.8152 11.4438 15.727C11.4616 15.6388 11.4525 15.5473 11.4175 15.4643C11.3824 15.3812 11.3232 15.3102 11.2471 15.2602C11.171 15.2103 11.0816 15.1836 10.9901 15.1836C10.8675 15.1837 10.7499 15.2317 10.6632 15.3169C10.5765 15.4022 10.5277 15.5177 10.5276 15.6383ZM6.02051 9.36987L6.1125 9.61457C6.43137 10.4628 7.26664 12.6847 7.6571 13.6908C8.82506 12.9628 10.2098 12.657 11.5611 12.7744L12.711 9.47517L13.5854 9.77087L12.4868 12.923C13.146 13.0779 13.7746 13.3391 14.347 13.6959C14.7359 12.6906 15.5657 10.4767 15.8826 9.63104C15.9215 9.52726 15.9536 9.44178 15.9801 9.37118C13.0607 7.42221 8.95012 7.42008 6.02051 9.36987Z" fill="white"/>
</svg>
