<svg width="18" height="18" viewBox="0 0 18 18" fill="none" xmlns="http://www.w3.org/2000/svg">
<g clip-path="url(#clip0_52_1366)">
<path d="M7.49007 16.8791C7.8078 17.0403 8.19324 17.0403 8.50993 16.8791L9.56038 16.3782L9.75727 16.2781C9.90219 16.2044 10.0092 16.081 10.0547 15.9351C10.1002 15.7891 10.0805 15.6326 10 15.5C9.91946 15.3674 9.78466 15.2694 9.62524 15.2278C9.46582 15.1861 9.29485 15.2041 9.14994 15.2778L8.95409 15.3779C8.4478 15.6354 9.1704 15.2333 7.90364 15.8789L7.99948 15.8293L2.25009 12.9048V5.09403L7.99948 2.17146L13.7499 5.09498V6.73145C13.7499 6.86713 13.8026 6.99839 13.8986 7.10179C13.9946 7.20519 14.1276 7.274 14.2739 7.29594L14.375 7.30357C14.5407 7.30357 14.6997 7.24329 14.8169 7.136C14.9341 7.0287 15 6.88318 15 6.73145V4.98628C15 4.63729 14.7937 4.315 14.4604 4.14527L8.50993 1.12068C8.35407 1.04153 8.17876 1 8.00052 1C7.82228 1 7.64697 1.04153 7.49111 1.12068L1.54067 4.14717C1.20835 4.31595 1 4.63824 1 4.98723V13.0135C1 13.3625 1.20835 13.6839 1.54067 13.8526L7.49111 16.8791H7.49007Z" fill="white"/>
<path d="M13.1599 4.0717C13.2248 4.03535 13.2962 4.01224 13.37 4.00371C13.4438 3.99518 13.5185 4.00139 13.5899 4.02198C13.6613 4.04257 13.728 4.07715 13.7862 4.12373C13.8443 4.17031 13.8928 4.22798 13.9289 4.29346C13.9649 4.35894 13.9879 4.43093 13.9963 4.50534C14.0048 4.57974 13.9986 4.6551 13.9782 4.72711C13.9578 4.79911 13.9235 4.86636 13.8773 4.925C13.8311 4.98365 13.7739 5.03254 13.709 5.0689L8.55526 7.95413V16.4302C8.5555 16.5653 8.50808 16.6962 8.42147 16.7994C8.33486 16.9025 8.21471 16.9713 8.08246 16.9934L7.9911 17C7.84123 17 7.6975 16.94 7.59152 16.8331C7.48554 16.7262 7.426 16.5813 7.426 16.4302L7.42506 7.95413L2.29113 5.07745C2.1739 5.01192 2.08358 4.90651 2.03631 4.78003C1.98904 4.65356 1.98789 4.51426 2.03307 4.38701L2.07074 4.30248C2.10679 4.23706 2.15526 4.17944 2.2134 4.13292C2.27153 4.08639 2.33819 4.05187 2.40955 4.03132C2.48092 4.01077 2.5556 4.0046 2.62933 4.01316C2.70307 4.02171 2.77441 4.04484 2.83928 4.0812L7.9911 6.96738L13.1618 4.0717H13.1599Z" fill="white"/>
<path d="M16.8542 11.9167H14.0833V9.14583C14.0833 9.06562 14.0177 9 13.9375 9H13.0625C12.9823 9 12.9167 9.06562 12.9167 9.14583V11.9167H10.1458C10.0656 11.9167 10 11.9823 10 12.0625V12.9375C10 13.0177 10.0656 13.0833 10.1458 13.0833H12.9167V15.8542C12.9167 15.9344 12.9823 16 13.0625 16H13.9375C14.0177 16 14.0833 15.9344 14.0833 15.8542V13.0833H16.8542C16.9344 13.0833 17 13.0177 17 12.9375V12.0625C17 11.9823 16.9344 11.9167 16.8542 11.9167Z" fill="white"/>
</g>
<defs>
<clipPath id="clip0_52_1366">
<rect width="18" height="18" fill="white"/>
</clipPath>
</defs>
</svg>
