<svg width="18" height="18" viewBox="0 0 18 18" fill="none" xmlns="http://www.w3.org/2000/svg">
<g clip-path="url(#clip0_1_336)">
<path d="M7.49007 16.8791C7.8078 17.0403 8.19324 17.0403 8.50993 16.8791L9.56038 16.3782L9.75727 16.2781C9.90219 16.2044 10.0092 16.081 10.0547 15.9351C10.1002 15.7891 10.0805 15.6326 10 15.5C9.91946 15.3674 9.78466 15.2694 9.62524 15.2278C9.46582 15.1861 9.29485 15.2041 9.14994 15.2778L8.95409 15.3779C8.4478 15.6354 9.1704 15.2333 7.90364 15.8789L7.99948 15.8293L2.25009 12.9048V5.09403L7.99948 2.17146L13.7499 5.09498V6.73145C13.7499 6.86713 13.8026 6.99839 13.8986 7.10179C13.9946 7.20519 14.1276 7.274 14.2739 7.29594L14.375 7.30357C14.5407 7.30357 14.6997 7.24329 14.8169 7.136C14.9341 7.0287 15 6.88318 15 6.73145V4.98628C15 4.63729 14.7937 4.315 14.4604 4.14527L8.50993 1.12068C8.35407 1.04153 8.17876 1 8.00052 1C7.82228 1 7.64697 1.04153 7.49111 1.12068L1.54067 4.14717C1.20835 4.31595 1 4.63824 1 4.98723V13.0135C1 13.3625 1.20835 13.6839 1.54067 13.8526L7.49111 16.8791H7.49007Z" fill="white"/>
<path d="M13.1599 4.0717C13.2248 4.03535 13.2962 4.01224 13.37 4.00371C13.4438 3.99518 13.5185 4.00139 13.5899 4.02198C13.6613 4.04257 13.728 4.07715 13.7862 4.12373C13.8443 4.17031 13.8928 4.22798 13.9289 4.29346C13.9649 4.35894 13.9879 4.43093 13.9963 4.50534C14.0048 4.57974 13.9986 4.6551 13.9782 4.72711C13.9578 4.79911 13.9235 4.86636 13.8773 4.925C13.8311 4.98365 13.7739 5.03254 13.709 5.0689L8.55526 7.95413V16.4302C8.5555 16.5653 8.50808 16.6962 8.42147 16.7994C8.33486 16.9025 8.21471 16.9713 8.08246 16.9934L7.9911 17C7.84123 17 7.6975 16.94 7.59152 16.8331C7.48554 16.7262 7.426 16.5813 7.426 16.4302L7.42506 7.95413L2.29113 5.07745C2.1739 5.01192 2.08358 4.90651 2.03631 4.78003C1.98904 4.65356 1.98789 4.51426 2.03307 4.38701L2.07074 4.30248C2.10679 4.23706 2.15526 4.17944 2.2134 4.13292C2.27153 4.08639 2.33819 4.05187 2.40955 4.03132C2.48092 4.01077 2.5556 4.0046 2.62933 4.01316C2.70307 4.02171 2.77441 4.04484 2.83928 4.0812L7.9911 6.96738L13.1618 4.0717H13.1599Z" fill="white"/>
<path d="M13.8353 12.1995C13.4863 12.1995 13.1996 12.4904 13.1996 12.8395C13.1996 13.1968 13.4863 13.4794 13.8353 13.4794C14.1927 13.4794 14.4753 13.1968 14.4753 12.8395C14.4753 12.4904 14.1927 12.1995 13.8353 12.1995ZM17.0432 12.0915H16.6443C16.5778 11.8547 16.4864 11.6303 16.3701 11.4225L16.7316 11.061C16.9726 10.82 16.9726 10.4294 16.7316 10.1884L16.5113 9.97228C16.2745 9.7313 15.888 9.7313 15.647 9.97228L15.2897 10.3255C15.0736 10.1967 14.8409 10.097 14.5916 10.0305V9.61912C14.5916 9.27842 14.3173 9 13.9808 9H13.6774C13.3367 9 13.0624 9.2784 13.0624 9.61912V10.0305C12.8131 10.097 12.5804 10.1967 12.3643 10.3214L12.0153 9.97233C11.7702 9.73135 11.3837 9.73135 11.1427 9.97233L10.9266 10.1884C10.6856 10.4294 10.6856 10.82 10.9266 11.061L11.284 11.4184C11.1676 11.6303 11.0804 11.8547 11.018 12.0915H10.615C10.2784 12.0915 10 12.3658 10 12.7065V13.014C10 13.3548 10.2784 13.629 10.615 13.629H11.018C11.0845 13.87 11.1801 14.0944 11.3006 14.3105L10.9266 14.6844C10.6856 14.9255 10.6856 15.3161 10.9266 15.5529L11.1427 15.7732C11.3837 16.0141 11.7701 16.0141 12.0153 15.7732L12.3893 15.3909C12.5971 15.5155 12.8256 15.607 13.0624 15.6734V16.064C13.0623 16.1448 13.078 16.2249 13.1089 16.2996C13.1397 16.3743 13.185 16.4421 13.2422 16.4993C13.2993 16.5564 13.3672 16.6017 13.4419 16.6326C13.5166 16.6634 13.5966 16.6792 13.6774 16.679H13.9849C14.3215 16.679 14.5957 16.4048 14.5957 16.064V15.6734C14.8243 15.5736 15.0611 15.5155 15.2689 15.3908L15.647 15.7731C15.7039 15.8304 15.7716 15.8758 15.8461 15.9068C15.9206 15.9378 16.0005 15.9538 16.0813 15.9538C16.162 15.9538 16.2419 15.9378 16.3164 15.9068C16.391 15.8758 16.4586 15.8304 16.5155 15.7731L16.7316 15.5528C16.9726 15.316 16.9726 14.9254 16.7316 14.6844L16.3576 14.3104C16.4781 14.0943 16.5737 13.8699 16.6401 13.629H17.0432C17.124 13.6291 17.2041 13.6134 17.2788 13.5825C17.3535 13.5517 17.4213 13.5064 17.4785 13.4492C17.5356 13.3921 17.5809 13.3242 17.6117 13.2495C17.6426 13.1748 17.6584 13.0948 17.6582 13.014V12.7065C17.6584 12.6257 17.6426 12.5456 17.6117 12.4709C17.5809 12.3962 17.5356 12.3284 17.4785 12.2712C17.4213 12.2141 17.3535 12.1688 17.2788 12.1379C17.2041 12.1071 17.124 12.0913 17.0432 12.0915ZM13.827 14.5639C12.8963 14.5639 12.14 13.8035 12.14 12.8727C12.14 11.9336 12.8963 11.1774 13.827 11.1774C14.762 11.1774 15.5182 11.9336 15.5182 12.8727C15.5182 13.8035 14.762 14.5639 13.827 14.5639Z" fill="white"/>
</g>
<defs>
<clipPath id="clip0_1_336">
<rect width="18" height="18" fill="white"/>
</clipPath>
</defs>
</svg>
