<svg width="18" height="18" viewBox="0 0 18 18" fill="none" xmlns="http://www.w3.org/2000/svg">
<path d="M16.0047 1H1V14.0039H7.00469V13.0078H2.00625V2.00704H15.0094V7.00938H16.0047V1Z" fill="white"/>
<path d="M8.81719 7.8421V4.32535H6.49856V7.8421H4.17575L7.65787 11.3325L11.1441 7.8421H8.81719ZM13.3464 12.6899C12.9974 12.6899 12.7107 12.9807 12.7107 13.3298C12.7107 13.6871 12.9974 13.9697 13.3464 13.9697C13.7038 13.9697 13.9863 13.6871 13.9863 13.3298C13.9863 12.9807 13.7038 12.6899 13.3464 12.6899ZM16.5543 12.5818H16.1554C16.0889 12.345 15.9974 12.1206 15.8811 11.9128L16.2426 11.5513C16.4836 11.3103 16.4836 10.9197 16.2426 10.6787L16.0224 10.4626C15.7855 10.2216 15.3991 10.2216 15.1581 10.4626L14.8007 10.8158C14.5846 10.687 14.3519 10.5873 14.1026 10.5208V10.1094C14.1026 9.76874 13.8284 9.49031 13.4918 9.49031H13.1885C12.8477 9.49031 12.5735 9.76871 12.5735 10.1094V10.5208C12.3242 10.5873 12.0915 10.687 11.8754 10.8117L11.5264 10.4626C11.2812 10.2217 10.8948 10.2217 10.6538 10.4626L10.4377 10.6787C10.1966 10.9197 10.1966 11.3103 10.4377 11.5514L10.795 11.9087C10.6787 12.1206 10.5914 12.345 10.5291 12.5819H10.126C9.78944 12.5819 9.51104 12.8561 9.51104 13.1969V13.5043C9.51104 13.8451 9.78942 14.1193 10.126 14.1193H10.5291C10.5956 14.3603 10.6911 14.5847 10.8116 14.8008L10.4377 15.1748C10.1966 15.4158 10.1966 15.8064 10.4377 16.0432L10.6537 16.2635C10.8947 16.5044 11.2812 16.5044 11.5263 16.2635L11.9003 15.8812C12.1081 16.0059 12.3366 16.0973 12.5735 16.1637V16.5543C12.5733 16.6351 12.5891 16.7152 12.6199 16.7899C12.6508 16.8646 12.6961 16.9325 12.7532 16.9896C12.8103 17.0467 12.8782 17.092 12.9529 17.1229C13.0276 17.1537 13.1077 17.1695 13.1885 17.1693H13.496C13.8325 17.1693 14.1068 16.8951 14.1068 16.5543V16.1637C14.3353 16.064 14.5722 16.0058 14.78 15.8811L15.1581 16.2634C15.215 16.3207 15.2826 16.3661 15.3571 16.3971C15.4317 16.4282 15.5116 16.4441 15.5923 16.4441C15.673 16.4441 15.753 16.4282 15.8275 16.3971C15.902 16.3661 15.9697 16.3207 16.0265 16.2634L16.2426 16.0431C16.4836 15.8063 16.4836 15.4157 16.2426 15.1747L15.8686 14.8007C15.9891 14.5846 16.0847 14.3603 16.1512 14.1193H16.5542C16.6351 14.1195 16.7151 14.1037 16.7898 14.0728C16.8645 14.042 16.9324 13.9967 16.9895 13.9395C17.0467 13.8824 17.0919 13.8145 17.1228 13.7398C17.1536 13.6651 17.1694 13.5851 17.1692 13.5043V13.1968C17.1694 13.116 17.1536 13.0359 17.1228 12.9612C17.0919 12.8865 17.0467 12.8187 16.9895 12.7615C16.9324 12.7044 16.8645 12.6591 16.7898 12.6283C16.7151 12.5974 16.6351 12.5816 16.5543 12.5818ZM13.3381 15.0542C12.4073 15.0542 11.6511 14.2938 11.6511 13.363C11.6511 12.4239 12.4073 11.6677 13.3381 11.6677C14.273 11.6677 15.0293 12.4239 15.0293 13.363C15.0293 14.2938 14.273 15.0542 13.3381 15.0542Z" fill="white"/>
</svg>
