<svg width="836" height="800" viewBox="0 0 836 800" fill="none" xmlns="http://www.w3.org/2000/svg">
<g clip-path="url(#clip0_114_3361)">
<path d="M418.103 434.492C442.737 434.492 462.707 430.761 462.707 426.158C462.707 421.555 442.737 417.823 418.103 417.823C393.47 417.823 373.5 421.555 373.5 426.158C373.5 430.761 393.47 434.492 418.103 434.492Z" fill="#F5F5F7" fill-opacity="0.8"/>
<path fill-rule="evenodd" clip-rule="evenodd" d="M453.786 401.674L438.045 382.302C437.29 381.39 436.186 380.838 435.024 380.838H401.182C400.02 380.838 398.916 381.39 398.161 382.302L382.421 401.674V411.794H453.786V401.674H453.786Z" fill="#AEB8C2"/>
<path fill-rule="evenodd" clip-rule="evenodd" d="M395.757 355.835H440.449C441.147 355.835 441.817 356.113 442.31 356.606C442.804 357.1 443.081 357.769 443.081 358.467V419.878C443.081 420.575 442.804 421.245 442.31 421.738C441.817 422.232 441.147 422.509 440.449 422.509H395.757C395.059 422.509 394.389 422.232 393.896 421.738C393.402 421.245 393.125 420.575 393.125 419.878V358.467C393.125 357.769 393.402 357.1 393.896 356.606C394.389 356.113 395.059 355.835 395.757 355.835V355.835Z" fill="#F5F5F7"/>
<path fill-rule="evenodd" clip-rule="evenodd" d="M401.578 362.384H434.628C434.977 362.384 435.312 362.522 435.559 362.769C435.805 363.016 435.944 363.35 435.944 363.699V380.118C435.944 380.467 435.805 380.802 435.559 381.049C435.312 381.296 434.977 381.434 434.628 381.434H401.578C401.229 381.434 400.894 381.296 400.647 381.049C400.4 380.802 400.262 380.467 400.262 380.118V363.699C400.262 363.35 400.4 363.016 400.647 362.769C400.894 362.522 401.229 362.384 401.578 362.384ZM401.75 388.577H434.456C434.851 388.577 435.229 388.734 435.508 389.013C435.787 389.292 435.944 389.67 435.944 390.065C435.944 390.46 435.787 390.838 435.508 391.117C435.229 391.396 434.851 391.553 434.456 391.553H401.75C401.355 391.553 400.977 391.396 400.698 391.117C400.419 390.838 400.262 390.46 400.262 390.065C400.262 389.67 400.419 389.292 400.698 389.013C400.977 388.734 401.355 388.577 401.75 388.577ZM401.75 396.316H434.456C434.851 396.316 435.229 396.473 435.508 396.752C435.788 397.031 435.944 397.409 435.944 397.804C435.944 398.199 435.788 398.578 435.508 398.857C435.229 399.136 434.851 399.293 434.456 399.293H401.75C401.355 399.293 400.977 399.136 400.697 398.857C400.418 398.578 400.262 398.199 400.262 397.804C400.262 397.409 400.418 397.031 400.697 396.752C400.977 396.473 401.355 396.316 401.75 396.316ZM453.64 424.936C453.13 426.956 451.34 428.462 449.209 428.462H386.997C384.866 428.462 383.076 426.955 382.566 424.936C382.469 424.551 382.42 424.155 382.42 423.758V401.674H399.735C401.647 401.674 403.189 403.285 403.189 405.24V405.266C403.189 407.221 404.748 408.799 406.661 408.799H429.545C431.458 408.799 433.017 407.207 433.017 405.251V405.243C433.017 403.288 434.559 401.674 436.471 401.674H453.786V423.759C453.786 424.164 453.735 424.559 453.64 424.936Z" fill="#DCE0E6"/>
<path fill-rule="evenodd" clip-rule="evenodd" d="M455.816 356.903L451.323 358.646C451.208 358.691 451.082 358.702 450.96 358.679C450.839 358.656 450.726 358.598 450.636 358.514C450.545 358.429 450.48 358.321 450.449 358.201C450.417 358.081 450.42 357.955 450.457 357.837L451.731 353.753C450.028 351.816 449.028 349.455 449.028 346.906C449.028 340.33 455.684 335 463.896 335C472.106 335 478.763 340.33 478.763 346.906C478.763 353.482 472.107 358.812 463.895 358.812C460.916 358.812 458.143 358.111 455.816 356.903Z" fill="#DCE0E6"/>
<path d="M469.753 349.056C470.788 349.056 471.627 348.227 471.627 347.204C471.627 346.181 470.788 345.352 469.753 345.352C468.717 345.352 467.878 346.181 467.878 347.204C467.878 348.227 468.717 349.056 469.753 349.056Z" fill="white"/>
<path fill-rule="evenodd" clip-rule="evenodd" d="M459.913 348.825H456.164L458.071 345.584L459.913 348.825ZM462.256 345.584H465.535V348.825H462.256V345.584Z" fill="white"/>
<path d="M338.088 454.604V453.358L334.896 453.694L334.798 452.826C335.68 452.756 336.828 452.644 338.088 452.532V451.37H336.408C335.834 451.37 335.414 451.454 335.288 451.566C335.232 451.356 335.078 450.88 334.952 450.614C335.176 450.572 335.414 450.334 335.666 450.012C335.792 449.858 336.058 449.508 336.338 449.046H334.784V448.234H336.828C336.996 447.912 337.164 447.59 337.304 447.254L338.354 447.548C338.228 447.786 338.088 447.996 337.948 448.234H341.224V449.046H337.43C337.052 449.592 336.674 450.096 336.282 450.53H338.088V449.62H339.068V450.53H341.252V451.37H339.068V452.434C339.768 452.364 340.468 452.28 341.168 452.21L341.182 453.008L339.068 453.246V454.604H338.088ZM344.542 455.696H337.472V456.83H344.542V455.696ZM337.472 458.748H344.542V457.586H337.472V458.748ZM336.478 460.064V454.87H345.564V460.036H344.542V459.574H337.472V460.064H336.478ZM347.272 450.418V451.272H345.634V454.576H344.668V451.272H342.792C342.708 452.406 342.414 453.68 341.686 454.59C341.518 454.45 341.112 454.17 340.902 454.072C341.784 452.952 341.896 451.454 341.896 450.306V448.22C343.436 448.094 345.27 447.842 346.306 447.492L346.866 448.276C345.816 448.598 344.248 448.822 342.834 448.934V450.32V450.418H347.272ZM357.072 458.734H359.508C360.194 458.734 360.306 458.412 360.39 456.508C360.628 456.69 361.09 456.872 361.384 456.942C361.244 459.168 360.922 459.742 359.578 459.742H356.974C355.532 459.742 355.154 459.378 355.154 458.132V453.358H354.86C354.286 456.06 352.886 458.636 349.302 460.078C349.148 459.812 348.854 459.42 348.602 459.224C351.892 457.978 353.236 455.752 353.824 453.358H348.784V452.336H354.006C354.174 451.3 354.216 450.236 354.258 449.242H349.652V448.234H360.46V449.242H355.28C355.252 450.236 355.182 451.3 355.028 452.336H361.258V453.358H356.218V458.132C356.218 458.622 356.358 458.734 357.072 458.734ZM368.216 447.548L369.084 447.94C368.678 448.57 368.23 449.27 367.838 449.732L367.166 449.41C367.516 448.906 367.978 448.108 368.216 447.548ZM364.94 449.438L364.142 449.774C364.016 449.284 363.652 448.514 363.274 447.94L364.03 447.632C364.422 448.178 364.8 448.92 364.94 449.438ZM365.626 453.358V451.664C364.926 452.49 364.016 453.26 363.162 453.708C363.05 453.47 362.798 453.12 362.602 452.924C363.582 452.504 364.618 451.65 365.304 450.74H362.742V449.872H365.626V447.282H366.592V449.872H369.448V450.74H366.816C367.516 451.146 368.72 451.93 369.042 452.168L368.468 452.924C368.132 452.602 367.264 451.916 366.592 451.44V453.358H365.626ZM367.754 455.36H365.486C365.276 455.752 365.066 456.144 364.87 456.466C365.388 456.69 365.948 456.956 366.452 457.208C366.998 456.704 367.446 456.088 367.754 455.36ZM368.44 458.37L367.796 459.056C367.474 458.818 367.054 458.538 366.578 458.272C365.584 459.07 364.394 459.616 363.12 459.952C363.022 459.728 362.812 459.35 362.63 459.154C363.764 458.902 364.828 458.454 365.738 457.81C365.038 457.446 364.282 457.096 363.596 456.844C363.89 456.424 364.198 455.906 364.492 455.36H363.036V454.478H364.926C365.066 454.17 365.192 453.876 365.29 453.582L366.214 453.75C366.116 453.988 366.032 454.226 365.92 454.478H368.202L368.356 454.436L368.944 454.674C368.58 455.878 368.006 456.858 367.264 457.642C367.712 457.894 368.132 458.146 368.44 458.37ZM373.298 450.95H371.058C371.324 452.462 371.716 453.89 372.248 455.136C372.752 453.96 373.088 452.56 373.298 450.95ZM375.216 450.95H374.292C373.97 453.036 373.508 454.772 372.766 456.214C373.48 457.488 374.39 458.524 375.552 459.14C375.314 459.336 375.02 459.686 374.866 459.952C373.788 459.294 372.906 458.342 372.22 457.152C371.394 458.37 370.33 459.35 368.902 460.12C368.804 459.896 368.51 459.476 368.328 459.28C369.84 458.538 370.932 457.516 371.716 456.186C371.184 455.094 370.792 453.834 370.484 452.448C370.204 453.134 369.882 453.75 369.532 454.282C369.364 454.114 368.972 453.792 368.748 453.652C369.812 452.182 370.442 449.844 370.792 447.422L371.744 447.562C371.632 448.388 371.464 449.2 371.268 449.984H375.216V450.95ZM380.942 454.324L379.346 454.842V458.776C379.346 459.35 379.22 459.616 378.87 459.784C378.548 459.952 378.016 459.994 377.134 459.98C377.092 459.728 376.966 459.308 376.826 459.014C377.428 459.028 377.988 459.028 378.142 459.028C378.31 459.028 378.38 458.972 378.38 458.762V455.164C377.792 455.36 377.232 455.528 376.728 455.682L376.476 454.688C376.994 454.534 377.652 454.338 378.38 454.128V451.062H376.644V450.096H378.38V447.296H379.346V450.096H380.928V451.062H379.346V453.834L380.802 453.372L380.942 454.324ZM382.538 453.036H385.254V451.496H382.552V452.098C382.552 452.406 382.552 452.7 382.538 453.036ZM387.886 448.808H382.552V450.586H387.886V448.808ZM387.984 458.65V456.536H383.686V458.65H387.984ZM389.356 453.932H386.248V455.654H388.936V460.036H387.984V459.518H383.686V460.092H382.776V455.654H385.254V453.932H382.496C382.37 456.004 381.992 458.356 380.816 460.078C380.648 459.882 380.214 459.588 379.976 459.49C381.418 457.348 381.544 454.31 381.544 452.098V447.898H388.88V451.496H386.248V453.036H389.356V453.932ZM392.198 460.498L391.89 459.756C392.968 459.308 393.584 458.65 393.654 457.698C393.57 457.712 393.5 457.712 393.416 457.712C392.842 457.712 392.366 457.376 392.366 456.718C392.366 456.06 392.856 455.71 393.43 455.71C394.2 455.71 394.62 456.34 394.62 457.32C394.62 458.832 393.668 459.98 392.198 460.498ZM408.326 449.662L407.612 450.39C407.192 449.802 406.268 448.892 405.54 448.234L406.212 447.618C406.94 448.234 407.892 449.102 408.326 449.662ZM407.724 457.628L409.152 456.564C409.222 456.844 409.404 457.236 409.516 457.432C407.178 459.238 406.814 459.546 406.604 459.812C406.506 459.574 406.24 459.14 406.058 458.93C406.324 458.776 406.716 458.356 406.716 457.74V452.658H404.63V451.664H407.724V457.628ZM410.916 457.152H415.284V456.018H410.916V457.152ZM415.284 454.212H410.916V455.29H415.284V454.212ZM416.278 453.4V458.902C416.278 459.434 416.166 459.7 415.788 459.854C415.382 460.008 414.766 460.022 413.772 460.008C413.73 459.756 413.59 459.378 413.464 459.112C414.178 459.14 414.85 459.14 415.018 459.126C415.228 459.126 415.284 459.07 415.284 458.888V457.908H410.916V460.064H409.936V453.4H416.278ZM413.604 451.804H417.37V452.602H408.942V451.804H412.582V450.824H409.698V450.068H412.582V449.186H409.362V448.388H412.582V447.296H413.604V448.388H416.964V449.186H413.604V450.068H416.544V450.824H413.604V451.804ZM428.612 454.996V452.504H421.346V454.996H428.612ZM429.662 451.524V455.976H420.352V451.524H424.37V447.282H425.406V448.78H430.698V449.76H425.406V451.524H429.662ZM419.582 460.064L418.63 459.602C419.372 458.972 420.086 457.852 420.534 456.816L421.514 457.068C421.052 458.16 420.338 459.336 419.582 460.064ZM422.774 457.194L423.768 457.11C423.95 457.992 424.104 459.14 424.118 459.812L423.082 459.952C423.082 459.252 422.956 458.09 422.774 457.194ZM425.644 457.208L426.582 456.998C427.016 457.838 427.464 458.972 427.632 459.672L426.624 459.91C426.484 459.224 426.064 458.062 425.644 457.208ZM428.486 457.082L429.396 456.732C430.11 457.614 430.908 458.776 431.258 459.56L430.278 459.952C429.956 459.182 429.186 457.978 428.486 457.082ZM439.574 453.708V458.272H442.836V454.772H443.886V460.078H442.836V459.28H434.114V454.772H435.192V458.272H438.51V453.708H432.966V452.672H438.51V450.474H433.988V449.452H438.51V447.296H439.574V449.452H444.11V450.474H439.574V452.672H445.076V453.708H439.574ZM451.166 453.162H455.058V449.2H451.166V452.574C451.166 452.77 451.166 452.966 451.166 453.162ZM459.23 453.162V454.17H456.122V460.092H455.058V454.17H451.124C450.928 456.354 450.214 458.524 447.652 460.134C447.456 459.896 447.078 459.532 446.826 459.364C449.15 457.936 449.864 456.06 450.06 454.17H446.784V453.162H450.102C450.116 452.952 450.116 452.77 450.116 452.56V449.2H447.302V448.206H458.796V449.2H456.122V453.162H459.23ZM464.438 451.118H462.856C462.604 452.336 462.31 453.54 462.044 454.534C462.52 454.87 463.01 455.234 463.486 455.626C463.948 454.394 464.27 452.882 464.438 451.118ZM464.844 450.124L465.446 450.222C465.278 452.756 464.9 454.744 464.256 456.298C464.872 456.83 465.404 457.376 465.754 457.838L465.11 458.678C464.802 458.244 464.34 457.74 463.822 457.236C463.15 458.496 462.282 459.406 461.232 460.05C461.092 459.812 460.812 459.42 460.616 459.224C461.61 458.678 462.436 457.796 463.066 456.55C462.38 455.962 461.638 455.388 460.952 454.912C461.274 453.918 461.61 452.546 461.918 451.118H460.644V450.152H462.1C462.268 449.172 462.422 448.206 462.52 447.352L463.5 447.408C463.388 448.262 463.234 449.2 463.038 450.152H464.676L464.844 450.124ZM471.62 455.36H467.448V458.538H471.62V455.36ZM466.482 460.078V454.422H472.628V460.05H471.62V459.462H467.448V460.078H466.482ZM470.346 449.704L471.158 449.312C472.11 450.53 473.09 452.14 473.524 453.218L472.628 453.666C472.516 453.386 472.362 453.036 472.18 452.686C467.028 453.078 466.412 453.134 466.006 453.302C465.964 453.078 465.796 452.588 465.656 452.308C465.936 452.252 466.216 451.916 466.566 451.412C466.93 450.922 468.078 449.046 468.778 447.268L469.842 447.59C469.1 449.186 468.19 450.796 467.266 452.07L471.704 451.79C471.298 451.062 470.808 450.334 470.346 449.704ZM480.804 457.684L481.448 457.292C482.148 457.964 483.002 458.902 483.38 459.504L482.722 459.966C482.33 459.364 481.518 458.384 480.804 457.684ZM478.396 448.108H483.072V456.774H482.218V448.906H479.222V456.816H478.396V448.108ZM486.096 447.464H486.95V458.86C486.95 459.448 486.81 459.7 486.474 459.854C486.11 460.008 485.508 460.036 484.542 460.022C484.5 459.784 484.36 459.406 484.234 459.154C484.976 459.168 485.62 459.168 485.816 459.154C486.012 459.154 486.096 459.084 486.096 458.874V447.464ZM484.192 448.542H485.018V456.858H484.192V448.542ZM480.244 449.9H481.042V454.814C481.042 456.676 480.65 458.79 478.144 460.05C478.06 459.868 477.808 459.546 477.654 459.406C479.992 458.216 480.244 456.48 480.244 454.814V449.9ZM475.19 448.178L475.806 447.436C476.562 447.842 477.57 448.458 478.06 448.892L477.43 449.718C476.954 449.27 475.974 448.612 475.19 448.178ZM474.588 451.93L475.176 451.202C475.946 451.58 476.954 452.168 477.472 452.574L476.87 453.4C476.366 452.98 475.344 452.364 474.588 451.93ZM474.868 459.35C475.414 458.258 476.198 456.466 476.744 454.898L477.584 455.444C477.08 456.9 476.394 458.622 475.806 459.896L474.868 459.35ZM501.104 449.396L500.348 449.914C500.068 449.354 499.424 448.514 498.836 447.898L499.55 447.464C500.138 448.052 500.81 448.864 501.104 449.396ZM492.466 449.55L491.738 450.264C491.318 449.69 490.436 448.808 489.722 448.192L490.408 447.576C491.136 448.15 492.032 449.004 492.466 449.55ZM491.668 457.726L493.208 456.732C493.264 457.012 493.39 457.39 493.488 457.6C491.122 459.21 490.758 459.448 490.534 459.714C490.45 459.448 490.198 459.014 490.002 458.804C490.268 458.636 490.674 458.258 490.674 457.656V452.658H488.756V451.664H491.668V457.726ZM495.728 454.17V457.39C496.246 457.25 496.806 457.096 497.352 456.942L497.492 457.866C496.036 458.3 494.496 458.748 493.334 459.098L493.054 458.104C493.53 457.992 494.118 457.838 494.762 457.67V454.17H493.306V453.204H497.03V454.17H495.728ZM501.384 451.188H498.528C498.752 455.472 499.298 458.636 500.166 458.678C500.404 458.692 500.572 457.908 500.656 456.55C500.852 456.76 501.3 457.012 501.482 457.11C501.202 459.448 500.67 460.036 500.138 460.036C498.416 459.994 497.758 456.424 497.506 451.188H492.858V450.194H497.464C497.422 449.284 497.394 448.346 497.38 447.352H498.416C498.43 448.332 498.444 449.284 498.486 450.194H501.384V451.188Z" fill="black" fill-opacity="0.85"/>
</g>
<defs>
<clipPath id="clip0_114_3361">
<rect width="168" height="130" fill="white" transform="translate(334 335)"/>
</clipPath>
</defs>
</svg>
