<svg width="1688" height="464" viewBox="0 0 1688 464" fill="none" xmlns="http://www.w3.org/2000/svg">
<g clip-path="url(#clip0_64_2507)">
<path d="M844.103 266.492C868.737 266.492 888.707 262.761 888.707 258.158C888.707 253.555 868.737 249.823 844.103 249.823C819.47 249.823 799.5 253.555 799.5 258.158C799.5 262.761 819.47 266.492 844.103 266.492Z" fill="#F5F5F7" fill-opacity="0.8"/>
<path fill-rule="evenodd" clip-rule="evenodd" d="M879.785 233.674L864.045 214.302C863.29 213.39 862.186 212.838 861.024 212.838H827.182C826.02 212.838 824.916 213.39 824.16 214.302L808.421 233.674V243.794H879.786V233.674H879.785Z" fill="#AEB8C2"/>
<path fill-rule="evenodd" clip-rule="evenodd" d="M821.757 187.835H866.449C867.147 187.835 867.817 188.113 868.31 188.606C868.804 189.1 869.081 189.769 869.081 190.467V251.878C869.081 252.575 868.804 253.245 868.31 253.738C867.817 254.232 867.147 254.509 866.449 254.509H821.757C821.059 254.509 820.389 254.232 819.896 253.738C819.402 253.245 819.125 252.575 819.125 251.878V190.467C819.125 189.769 819.402 189.1 819.896 188.606C820.389 188.113 821.059 187.835 821.757 187.835V187.835Z" fill="#F5F5F7"/>
<path fill-rule="evenodd" clip-rule="evenodd" d="M827.578 194.384H860.628C860.977 194.384 861.312 194.522 861.559 194.769C861.805 195.016 861.944 195.35 861.944 195.699V212.118C861.944 212.467 861.805 212.802 861.559 213.049C861.312 213.296 860.977 213.434 860.628 213.434H827.578C827.229 213.434 826.894 213.296 826.647 213.049C826.4 212.802 826.262 212.467 826.262 212.118V195.699C826.262 195.35 826.4 195.016 826.647 194.769C826.894 194.522 827.229 194.384 827.578 194.384ZM827.75 220.577H860.456C860.851 220.577 861.229 220.734 861.508 221.013C861.787 221.292 861.944 221.67 861.944 222.065C861.944 222.46 861.787 222.838 861.508 223.117C861.229 223.396 860.851 223.553 860.456 223.553H827.75C827.355 223.553 826.977 223.396 826.698 223.117C826.419 222.838 826.262 222.46 826.262 222.065C826.262 221.67 826.419 221.292 826.698 221.013C826.977 220.734 827.355 220.577 827.75 220.577ZM827.75 228.316H860.456C860.851 228.316 861.229 228.473 861.508 228.752C861.788 229.031 861.944 229.409 861.944 229.804C861.944 230.199 861.788 230.578 861.508 230.857C861.229 231.136 860.851 231.293 860.456 231.293H827.75C827.355 231.293 826.977 231.136 826.697 230.857C826.418 230.578 826.262 230.199 826.262 229.804C826.262 229.409 826.418 229.031 826.697 228.752C826.977 228.473 827.355 228.316 827.75 228.316ZM879.64 256.936C879.13 258.956 877.34 260.462 875.209 260.462H812.997C810.866 260.462 809.076 258.955 808.566 256.936C808.469 256.551 808.42 256.155 808.42 255.758V233.674H825.735C827.647 233.674 829.189 235.285 829.189 237.24V237.266C829.189 239.221 830.748 240.799 832.661 240.799H855.545C857.458 240.799 859.017 239.207 859.017 237.251V237.243C859.017 235.288 860.559 233.674 862.471 233.674H879.786V255.759C879.786 256.164 879.735 256.559 879.64 256.936Z" fill="#DCE0E6"/>
<path fill-rule="evenodd" clip-rule="evenodd" d="M881.816 188.903L877.323 190.646C877.208 190.691 877.082 190.702 876.96 190.679C876.839 190.656 876.726 190.598 876.635 190.514C876.545 190.429 876.48 190.321 876.449 190.201C876.417 190.081 876.42 189.955 876.457 189.837L877.731 185.753C876.028 183.816 875.028 181.455 875.028 178.906C875.028 172.33 881.684 167 889.896 167C898.106 167 904.763 172.33 904.763 178.906C904.763 185.482 898.107 190.812 889.895 190.812C886.916 190.812 884.143 190.111 881.816 188.903Z" fill="#DCE0E6"/>
<path d="M895.753 181.056C896.788 181.056 897.627 180.227 897.627 179.204C897.627 178.181 896.788 177.352 895.753 177.352C894.717 177.352 893.878 178.181 893.878 179.204C893.878 180.227 894.717 181.056 895.753 181.056Z" fill="white"/>
<path fill-rule="evenodd" clip-rule="evenodd" d="M885.913 180.825H882.164L884.071 177.584L885.913 180.825ZM888.256 177.584H891.535V180.825H888.256V177.584Z" fill="white"/>
<path d="M764.088 286.604V285.358L760.896 285.694L760.798 284.826C761.68 284.756 762.828 284.644 764.088 284.532V283.37H762.408C761.834 283.37 761.414 283.454 761.288 283.566C761.232 283.356 761.078 282.88 760.952 282.614C761.176 282.572 761.414 282.334 761.666 282.012C761.792 281.858 762.058 281.508 762.338 281.046H760.784V280.234H762.828C762.996 279.912 763.164 279.59 763.304 279.254L764.354 279.548C764.228 279.786 764.088 279.996 763.948 280.234H767.224V281.046H763.43C763.052 281.592 762.674 282.096 762.282 282.53H764.088V281.62H765.068V282.53H767.252V283.37H765.068V284.434C765.768 284.364 766.468 284.28 767.168 284.21L767.182 285.008L765.068 285.246V286.604H764.088ZM770.542 287.696H763.472V288.83H770.542V287.696ZM763.472 290.748H770.542V289.586H763.472V290.748ZM762.478 292.064V286.87H771.564V292.036H770.542V291.574H763.472V292.064H762.478ZM773.272 282.418V283.272H771.634V286.576H770.668V283.272H768.792C768.708 284.406 768.414 285.68 767.686 286.59C767.518 286.45 767.112 286.17 766.902 286.072C767.784 284.952 767.896 283.454 767.896 282.306V280.22C769.436 280.094 771.27 279.842 772.306 279.492L772.866 280.276C771.816 280.598 770.248 280.822 768.834 280.934V282.32V282.418H773.272ZM783.072 290.734H785.508C786.194 290.734 786.306 290.412 786.39 288.508C786.628 288.69 787.09 288.872 787.384 288.942C787.244 291.168 786.922 291.742 785.578 291.742H782.974C781.532 291.742 781.154 291.378 781.154 290.132V285.358H780.86C780.286 288.06 778.886 290.636 775.302 292.078C775.148 291.812 774.854 291.42 774.602 291.224C777.892 289.978 779.236 287.752 779.824 285.358H774.784V284.336H780.006C780.174 283.3 780.216 282.236 780.258 281.242H775.652V280.234H786.46V281.242H781.28C781.252 282.236 781.182 283.3 781.028 284.336H787.258V285.358H782.218V290.132C782.218 290.622 782.358 290.734 783.072 290.734ZM790.478 287.01L793.586 286.492C793.572 286.772 793.6 287.178 793.642 287.402C789.764 288.102 789.26 288.228 788.938 288.396C788.882 288.186 788.7 287.668 788.588 287.388C788.896 287.318 789.246 286.996 789.68 286.492C789.96 286.212 790.534 285.54 791.164 284.658C789.386 284.854 789.05 284.924 788.84 285.036C788.77 284.812 788.616 284.28 788.476 283.986C788.728 283.944 788.98 283.622 789.274 283.174C789.582 282.726 790.59 280.99 791.15 279.38L792.2 279.814C791.584 281.242 790.772 282.712 789.96 283.874L791.822 283.706C792.13 283.23 792.438 282.712 792.704 282.222L793.642 282.796C792.718 284.294 791.598 285.792 790.478 287.01ZM788.728 291.294L788.56 290.23C789.834 290.02 791.752 289.614 793.614 289.236L793.698 290.202C791.948 290.608 790.1 291 788.728 291.294ZM799.536 287.682H795.448V290.524H799.536V287.682ZM794.44 292.064V286.73H800.572V292.008H799.536V291.476H795.448V292.064H794.44ZM801.146 282.152H797.996V284.322H800.922V285.316H794.09V284.322H796.932V282.152H793.726V281.144H796.932V279.282H797.996V281.144H801.146V282.152ZM805.318 284.588H808.468V283.146H805.318V284.588ZM805.318 280.864V282.292H808.468V280.864H805.318ZM812.724 282.292V280.864H809.546V282.292H812.724ZM812.724 284.588V283.146H809.546V284.588H812.724ZM815.104 287.626H810.414C811.702 288.914 813.704 290.09 815.468 290.678C815.23 290.888 814.908 291.294 814.754 291.546C812.976 290.832 810.918 289.474 809.546 287.99V292.078H808.468V288.06C807.124 289.586 805.08 290.916 803.26 291.602C803.12 291.364 802.784 290.958 802.56 290.748C804.38 290.16 806.368 288.956 807.6 287.626H802.91V286.66H808.468V285.484H804.268V279.954H813.83V285.484H809.546V286.66H815.104V287.626ZM818.198 292.498L817.89 291.756C818.968 291.308 819.584 290.65 819.654 289.698C819.57 289.712 819.5 289.712 819.416 289.712C818.842 289.712 818.366 289.376 818.366 288.718C818.366 288.06 818.856 287.71 819.43 287.71C820.2 287.71 820.62 288.34 820.62 289.32C820.62 290.832 819.668 291.98 818.198 292.498ZM834.326 281.662L833.612 282.39C833.192 281.802 832.268 280.892 831.54 280.234L832.212 279.618C832.94 280.234 833.892 281.102 834.326 281.662ZM833.724 289.628L835.152 288.564C835.222 288.844 835.404 289.236 835.516 289.432C833.178 291.238 832.814 291.546 832.604 291.812C832.506 291.574 832.24 291.14 832.058 290.93C832.324 290.776 832.716 290.356 832.716 289.74V284.658H830.63V283.664H833.724V289.628ZM836.916 289.152H841.284V288.018H836.916V289.152ZM841.284 286.212H836.916V287.29H841.284V286.212ZM842.278 285.4V290.902C842.278 291.434 842.166 291.7 841.788 291.854C841.382 292.008 840.766 292.022 839.772 292.008C839.73 291.756 839.59 291.378 839.464 291.112C840.178 291.14 840.85 291.14 841.018 291.126C841.228 291.126 841.284 291.07 841.284 290.888V289.908H836.916V292.064H835.936V285.4H842.278ZM839.604 283.804H843.37V284.602H834.942V283.804H838.582V282.824H835.698V282.068H838.582V281.186H835.362V280.388H838.582V279.296H839.604V280.388H842.964V281.186H839.604V282.068H842.544V282.824H839.604V283.804ZM854.612 286.996V284.504H847.346V286.996H854.612ZM855.662 283.524V287.976H846.352V283.524H850.37V279.282H851.406V280.78H856.698V281.76H851.406V283.524H855.662ZM845.582 292.064L844.63 291.602C845.372 290.972 846.086 289.852 846.534 288.816L847.514 289.068C847.052 290.16 846.338 291.336 845.582 292.064ZM848.774 289.194L849.768 289.11C849.95 289.992 850.104 291.14 850.118 291.812L849.082 291.952C849.082 291.252 848.956 290.09 848.774 289.194ZM851.644 289.208L852.582 288.998C853.016 289.838 853.464 290.972 853.632 291.672L852.624 291.91C852.484 291.224 852.064 290.062 851.644 289.208ZM854.486 289.082L855.396 288.732C856.11 289.614 856.908 290.776 857.258 291.56L856.278 291.952C855.956 291.182 855.186 289.978 854.486 289.082ZM865.574 285.708V290.272H868.836V286.772H869.886V292.078H868.836V291.28H860.114V286.772H861.192V290.272H864.51V285.708H858.966V284.672H864.51V282.474H859.988V281.452H864.51V279.296H865.574V281.452H870.11V282.474H865.574V284.672H871.076V285.708H865.574ZM877.166 285.162H881.058V281.2H877.166V284.574C877.166 284.77 877.166 284.966 877.166 285.162ZM885.23 285.162V286.17H882.122V292.092H881.058V286.17H877.124C876.928 288.354 876.214 290.524 873.652 292.134C873.456 291.896 873.078 291.532 872.826 291.364C875.15 289.936 875.864 288.06 876.06 286.17H872.784V285.162H876.102C876.116 284.952 876.116 284.77 876.116 284.56V281.2H873.302V280.206H884.796V281.2H882.122V285.162H885.23ZM890.438 283.118H888.856C888.604 284.336 888.31 285.54 888.044 286.534C888.52 286.87 889.01 287.234 889.486 287.626C889.948 286.394 890.27 284.882 890.438 283.118ZM890.844 282.124L891.446 282.222C891.278 284.756 890.9 286.744 890.256 288.298C890.872 288.83 891.404 289.376 891.754 289.838L891.11 290.678C890.802 290.244 890.34 289.74 889.822 289.236C889.15 290.496 888.282 291.406 887.232 292.05C887.092 291.812 886.812 291.42 886.616 291.224C887.61 290.678 888.436 289.796 889.066 288.55C888.38 287.962 887.638 287.388 886.952 286.912C887.274 285.918 887.61 284.546 887.918 283.118H886.644V282.152H888.1C888.268 281.172 888.422 280.206 888.52 279.352L889.5 279.408C889.388 280.262 889.234 281.2 889.038 282.152H890.676L890.844 282.124ZM897.62 287.36H893.448V290.538H897.62V287.36ZM892.482 292.078V286.422H898.628V292.05H897.62V291.462H893.448V292.078H892.482ZM896.346 281.704L897.158 281.312C898.11 282.53 899.09 284.14 899.524 285.218L898.628 285.666C898.516 285.386 898.362 285.036 898.18 284.686C893.028 285.078 892.412 285.134 892.006 285.302C891.964 285.078 891.796 284.588 891.656 284.308C891.936 284.252 892.216 283.916 892.566 283.412C892.93 282.922 894.078 281.046 894.778 279.268L895.842 279.59C895.1 281.186 894.19 282.796 893.266 284.07L897.704 283.79C897.298 283.062 896.808 282.334 896.346 281.704ZM904.48 281.802L903.78 282.586C903.276 281.956 902.226 280.976 901.4 280.29L902.044 279.604C902.884 280.262 903.962 281.2 904.48 281.802ZM903.584 289.488L904.9 288.424C904.998 288.69 905.18 289.096 905.32 289.278C903.038 291.182 902.674 291.504 902.478 291.798C902.366 291.588 902.086 291.21 901.904 291.056C902.156 290.846 902.576 290.398 902.576 289.712V284.672H900.616V283.664H903.584V289.488ZM906.034 284.532V279.702H907.056V284.532C907.056 287.206 906.902 289.866 905.544 292.064C905.32 291.868 904.858 291.588 904.564 291.462C905.88 289.432 906.034 287.01 906.034 284.532ZM908.96 290.286V280.374H909.94V290.286H908.96ZM911.858 279.646H912.88V291.882H911.858V279.646ZM915.022 288.438V288.368C914.952 288.13 914.826 287.738 914.714 287.514C914.994 287.444 915.288 287.108 915.652 286.59C915.876 286.324 916.352 285.596 916.884 284.714C915.442 284.91 915.134 284.994 914.952 285.092C914.896 284.868 914.728 284.392 914.602 284.112C914.84 284.056 915.05 283.706 915.33 283.23C915.61 282.782 916.478 280.948 916.94 279.254L917.906 279.688C917.388 281.172 916.66 282.754 915.904 283.972L917.388 283.804C917.654 283.328 917.892 282.824 918.116 282.32L918.998 282.81C918.256 284.308 917.332 285.82 916.394 287.066L918.886 286.576C918.872 286.856 918.872 287.248 918.9 287.458C915.736 288.144 915.302 288.284 915.022 288.438ZM918.746 288.746L918.914 289.544C917.514 290.132 916.072 290.734 914.938 291.196L914.686 290.188C915.694 289.852 917.22 289.292 918.746 288.746ZM920.566 287.696L921.532 287.962C921 289.124 920.16 290.482 919.306 291.378C919.124 291.196 918.788 290.93 918.578 290.79C919.376 289.978 920.174 288.704 920.566 287.696ZM920.748 285.89H922.834V284.168H921.448C921.21 284.77 920.986 285.358 920.748 285.89ZM926.726 286.842H923.828V290.846C923.828 291.434 923.702 291.7 923.324 291.868C922.918 292.036 922.274 292.05 921.308 292.05C921.266 291.77 921.126 291.378 921 291.098C921.714 291.112 922.372 291.112 922.568 291.098C922.764 291.084 922.834 291.028 922.834 290.846V286.842H920.986C920.328 286.842 919.866 286.926 919.754 287.052C919.698 286.842 919.53 286.366 919.418 286.114C919.67 286.044 919.894 285.54 920.188 284.84C920.258 284.7 920.342 284.476 920.454 284.168H919.264V283.202H920.79C920.93 282.796 921.084 282.348 921.21 281.872H919.04V280.92H921.476C921.63 280.36 921.756 279.786 921.854 279.212L922.89 279.408C922.764 279.898 922.638 280.416 922.498 280.92H927.006V281.872H922.232C922.092 282.32 921.938 282.768 921.798 283.202H923.828V285.89H926.726V286.842ZM924.836 288.074L925.662 287.71C926.278 288.69 927.048 290.034 927.426 290.804L926.544 291.252C926.194 290.454 925.452 289.082 924.836 288.074Z" fill="black" fill-opacity="0.85"/>
</g>
<defs>
<clipPath id="clip0_64_2507">
<rect width="168" height="130" fill="white" transform="translate(760 167)"/>
</clipPath>
</defs>
</svg>
