<svg width="102" height="102" viewBox="0 0 102 102" fill="none" xmlns="http://www.w3.org/2000/svg">
<path d="M10.0705 6H68L95 29V93.4888C95 94.8757 93.6253 96 91.9295 96H10.0705C8.37472 96 7 94.8757 7 93.4888V8.51116C7 7.1243 8.37472 6 10.0705 6Z" fill="#00C090"/>
<path d="M68 6V26.4501C68 27.8584 69.3552 29 71.0269 29H95L68 6Z" fill="#68DBBF"/>
<path d="M67.4363 38.6765L29.6059 76.6066C28.2463 77.9697 28.2489 80.1772 29.6121 81.537C30.9753 82.8968 33.1827 82.894 34.5426 81.5309L72.3728 43.6009C73.7327 42.2378 73.7299 40.0303 72.3667 38.6705C71.0035 37.3108 68.7961 37.3134 67.4363 38.6765Z" fill="white"/>
<path d="M29.6059 43.5012L67.4362 81.4312C68.7961 82.7943 71.0035 82.7971 72.3667 81.4372C73.7299 80.0775 73.7327 77.87 72.3728 76.5069L34.5425 38.5769C33.1827 37.2138 30.9752 37.211 29.6121 38.5707C28.2489 39.9306 28.2461 42.1381 29.6059 43.5012Z" fill="white"/>
</svg>
