<svg width="102" height="102" viewBox="0 0 102 102" fill="none" xmlns="http://www.w3.org/2000/svg">
<path d="M92.3332 90.7058H9.54398C8.4969 90.7132 7.48966 90.3048 6.7434 89.5703C5.99714 88.8358 5.57285 87.8352 5.56366 86.7881V22.491C5.56366 20.3026 7.37184 18.5733 9.54398 18.5733H92.3332C94.5563 18.5733 96.3135 20.3536 96.3135 22.491V86.7881C96.3135 88.9741 94.5053 90.7058 92.3332 90.7058Z" fill="#FFA000"/>
<path d="M49.776 37.1836H5.56362V15.7775C5.55666 13.4756 7.29066 11.6048 9.44194 11.5932H39.7035C41.4189 11.5932 42.9258 12.7894 43.4311 14.5814L49.776 37.1883V37.1836Z" fill="#FFA000"/>
<path d="M85.5409 86.0509H18.6614C16.5449 86.0509 14.8688 84.2914 14.8688 82.1795V29.4247C14.8688 27.2618 16.5912 25.5533 18.6614 25.5533H85.5409C87.6597 25.5533 89.3335 27.3151 89.3335 29.4247V82.1795C89.3798 84.2914 87.6597 86.0509 85.5409 86.0509Z" fill="white"/>
<path d="M92.3332 90.7058H9.54398C7.32084 90.7058 5.56366 88.9417 5.56366 86.8252V36.414C5.56366 34.2465 7.37184 32.5334 9.54398 32.5334H92.3332C94.5563 32.5334 96.3135 34.2975 96.3135 36.414V86.8252C96.3135 88.9927 94.5053 90.7058 92.3332 90.7058Z" fill="#FFCA28"/>
<path d="M36.2077 48.4361H14.5304C13.4594 48.4361 12.5437 47.5065 12.5437 46.3034C12.5437 45.1535 13.4107 44.1683 14.5304 44.1683H36.1567C37.2231 44.1683 38.1411 45.0979 38.1411 46.3034C38.1411 47.4532 37.2741 48.4384 36.2077 48.4384V48.4361ZM36.2077 62.7833H14.5304C13.4594 62.7833 12.5437 61.8514 12.5437 60.6483C12.5437 59.4428 13.4107 58.5109 14.5304 58.5109H36.1567C37.2231 58.5109 38.1411 59.4428 38.1411 60.6483C38.1411 61.8537 37.2741 62.7833 36.2077 62.7833Z" fill="#FFF8E1"/>
</svg>
