<svg width="155" height="234" viewBox="0 0 155 234" fill="none" xmlns="http://www.w3.org/2000/svg">
<g filter="url(#filter0_d_10_936)">
<path fill-rule="evenodd" clip-rule="evenodd" d="M77.79 221.01L9.01001 181.8V45.3L77.7 9.74C77.74 35.85 77.78 194.9 77.79 221.01Z" fill="#C29E4E"/>
<path fill-rule="evenodd" clip-rule="evenodd" d="M146.15 177.81C132.44 170.02 117.34 160.88 104.62 169.68C94.3901 176.75 88.53 187.78 77.79 193.6V84.51L146.15 45.19V177.81Z" fill="black"/>
<path fill-rule="evenodd" clip-rule="evenodd" d="M146.15 126.03C131.87 113.34 116 103.67 104.56 114.51C91.7301 126.67 86.94 143.91 77.79 151.48V84.51L146.15 45.19V126.03Z" fill="#5E533F"/>
<path fill-rule="evenodd" clip-rule="evenodd" d="M146.15 128.53C130.83 122.22 116 103.67 104.56 114.51C91.7301 126.67 86.94 143.91 77.79 151.48V133.45C83.53 130.3 86.6001 127.22 93.7801 118.94C113.69 95.97 123.38 104.52 146.15 105.24V128.54V128.53Z" fill="#2C1B10"/>
<path fill-rule="evenodd" clip-rule="evenodd" d="M146.15 89.06C125.21 96.58 123.21 90.09 108.3 95.74C95.6 100.55 94.05 113.31 77.78 120.66V84.51L146.14 45.19V89.06H146.15Z" fill="#A38C6A"/>
<path fill-rule="evenodd" clip-rule="evenodd" d="M77.79 151.48L131.92 120.24C121.79 111.63 112.81 107.52 105.07 114.06C93.26 124.04 88.61 140.59 77.79 151.48Z" fill="#A5C3D2"/>
<path fill-rule="evenodd" clip-rule="evenodd" d="M146.15 177.81C132.66 174.11 118.33 160.19 104.57 170.11C93.55 178.05 98.49 191.14 77.78 199.2V181.75L146.14 142.43V177.81H146.15Z" fill="#0095DA"/>
<path fill-rule="evenodd" clip-rule="evenodd" d="M146.15 70.31C132.66 75.35 122.65 82.2 107.64 90.59C96.84 96.63 89.83 102.25 77.72 106.73L77.78 84.52L146.15 45.2V70.32V70.31Z" fill="#0095DA"/>
<path fill-rule="evenodd" clip-rule="evenodd" d="M77.79 182.56L9.01001 153.31V112.03H9.02002H9.01001L77.79 151.48V182.56Z" fill="#414042"/>
<path fill-rule="evenodd" clip-rule="evenodd" d="M9.01001 156.03C15.76 154.18 20.24 159.41 26.88 163.99C33.53 168.58 45.22 168.71 51.86 173.99C62.37 182.35 55.07 188.4 77.79 199.19V181.74L9.01001 142.42V156.02V156.03Z" fill="#00AEEF"/>
<path fill-rule="evenodd" clip-rule="evenodd" d="M9.01001 142.43C22.93 143.29 23.29 155.46 32.53 158.66C41.48 161.76 52.41 161.37 62.18 158.52C67.85 156.87 73.7 155.68 77.78 151.47V84.5L9.01001 45.18V142.42V142.43Z" fill="#766B57"/>
<path fill-rule="evenodd" clip-rule="evenodd" d="M9.00998 144.83C22.93 145.69 20.91 155.84 29.89 159.73C40.45 164.31 53.06 162.95 62.83 160.1C68.5 158.45 73.71 155.68 77.78 151.47V133.44L77.75 133.46C73.19 135.96 49.55 153.46 36.96 137.88C31.99 131.73 18.96 122.02 9 118.4V144.82L9.00998 144.83Z" fill="#47260D"/>
<path fill-rule="evenodd" clip-rule="evenodd" d="M77.79 120.66C46.73 111.04 46.56 104.85 9.02002 90.96V45.29L77.7 9.74C77.72 24.08 77.77 70.18 77.78 120.66H77.79Z" fill="#BDA684"/>
<path fill-rule="evenodd" clip-rule="evenodd" d="M77.7599 106.73C40.3999 94.87 32.78 60.74 19.33 50.89L77.8 84.51L77.7599 106.73Z" fill="#00AEEF"/>
<path fill-rule="evenodd" clip-rule="evenodd" d="M146.15 45.19L77.79 84.51L9.01001 45.3L77.7 6.17C100.77 19.36 122.72 31.79 146.15 45.19Z" fill="url(#paint0_linear_10_936)"/>
<path fill-rule="evenodd" clip-rule="evenodd" d="M146.15 181.69L77.79 221.01V199.2C98.78 190.13 98.8601 162.43 109.87 154.49C123.63 144.58 132.65 174.11 146.15 177.81V181.69Z" fill="#A37E2F"/>
<path fill-rule="evenodd" clip-rule="evenodd" d="M20.58 51.89C25.14 52.91 51.07 41.4 53.69 36.66C58.97 27.09 83.35 22.34 94.38 15.69C88.86 12.55 83.31 9.38 77.7 6.17L9.01001 45.29L20.58 51.88V51.89Z" fill="#E0C7A2"/>
<path opacity="0.5" fill-rule="evenodd" clip-rule="evenodd" d="M120.84 56.68C121.73 56.68 122.45 57.5 122.45 58.51V80.34C122.45 81.34 121.72 82.17 120.84 82.17C119.95 82.17 119.22 81.35 119.22 80.34V58.51C119.22 57.5 119.95 56.68 120.84 56.68Z" fill="#231F20"/>
<path opacity="0.5" fill-rule="evenodd" clip-rule="evenodd" d="M106.96 65.1C107.85 65.1 108.57 65.92 108.57 66.93V88.76C108.57 89.77 107.84 90.59 106.96 90.59C106.07 90.59 105.35 89.77 105.35 88.76V66.93C105.35 65.93 106.08 65.1 106.96 65.1Z" fill="#231F20"/>
<path opacity="0.5" fill-rule="evenodd" clip-rule="evenodd" d="M93.4001 56.74C94.2901 56.74 95.0201 57.56 95.0201 58.57V80.4C95.0201 81.41 94.2901 82.23 93.4001 82.23C92.5101 82.23 91.79 81.41 91.79 80.4V58.57C91.79 57.56 92.5201 56.74 93.4001 56.74Z" fill="#231F20"/>
<path fill-rule="evenodd" clip-rule="evenodd" d="M107.05 67.74L123.45 58.39V56.29L107.07 47.81C107.07 54.04 107.05 61.52 107.05 67.75V67.74Z" fill="#414042"/>
<path fill-rule="evenodd" clip-rule="evenodd" d="M90.75 56.26L107.05 65.64L123.45 56.29L107.07 46.96C101.57 50.11 96.33 53.07 90.74 56.27L90.75 56.26Z" fill="#D1D3D4"/>
<path fill-rule="evenodd" clip-rule="evenodd" d="M90.75 58.37L107.05 67.74L107.06 65.64L90.75 56.26V58.37Z" fill="#6D6E71"/>
<path d="M116.05 52.01L116.73 51.54V51.56L116.75 51.58V51.6L116.77 51.62V51.64L116.78 51.66V51.68L116.79 51.7V51.72V51.74V51.76V51.78V51.82V51.84V51.86V51.88V51.9V51.92V51.94L116.78 51.96V51.98L116.76 52V52.02L116.74 52.04V52.06L116.71 52.08V52.1L116.68 52.11H116.67L116.65 52.14H116.63L116.61 52.16H116.59L116.57 52.18H116.55L116.53 52.2H116.51L116.49 52.21H116.47H116.45H116.43H116.41H116.39H116.37H116.35H116.33H116.31H116.29H116.27L116.25 52.2H116.23L116.21 52.19H116.19L116.17 52.17H116.15L116.13 52.15H116.11L116.09 52.13H116.07L116.06 52.1V52.08L116.03 52.06V52.04H116.02L116.05 52.01ZM107.06 38.71H107.73L116.72 51.54L116.04 52.01L107.05 39.18V38.7L107.06 38.71ZM107.73 38.71L107.06 39.18V39.16L107.04 39.14V39.12L107.02 39.1V39.08L107.01 39.06V39.04V39.02V39V38.98V38.96V38.94V38.9V38.88V38.86V38.84V38.82L107.02 38.8V38.78L107.03 38.76V38.74L107.05 38.72V38.7L107.07 38.68V38.66L107.1 38.64V38.62L107.13 38.6H107.15L107.17 38.57H107.19L107.21 38.55H107.23L107.25 38.53H107.27L107.29 38.51H107.31L107.33 38.5H107.35H107.37H107.39H107.41H107.43H107.45H107.47H107.49H107.51H107.53H107.55L107.57 38.51H107.59L107.61 38.52H107.63L107.65 38.54H107.67L107.69 38.56H107.71L107.73 38.58H107.74L107.76 38.61V38.63L107.79 38.65V38.67H107.8L107.73 38.71ZM97.9301 51.24L107.06 38.7L107.73 39.18L98.6 51.72L97.94 51.24H97.9301ZM97.9301 51.24L98.5901 51.72V51.74L98.5601 51.76V51.78L98.5301 51.79H98.51L98.4901 51.82H98.47L98.45 51.84H98.4301L98.41 51.86H98.39L98.3701 51.88H98.35L98.33 51.89H98.3101H98.29H98.2701H98.2501H98.23H98.2101H98.19H98.17H98.1501H98.13H98.11L98.0901 51.88H98.07L98.05 51.87H98.0301L98.01 51.85H97.9901L97.97 51.83H97.95L97.9301 51.8H97.92L97.9001 51.77V51.75L97.8701 51.73V51.71L97.85 51.69V51.67L97.83 51.65V51.63L97.8101 51.61V51.59L97.8 51.57V51.55V51.53V51.51V51.49V51.47V51.45V51.43V51.41V51.39V51.37V51.35L97.8101 51.33V51.31L97.82 51.29V51.27L97.8401 51.25V51.23L97.86 51.21L97.9301 51.24Z" fill="#58595B"/>
<path d="M115.45 44.67L115.17 43.9H115.19L115.21 43.89H115.23H115.25H115.27H115.29H115.31H115.33H115.35H115.37H115.39H115.41H115.43L115.45 43.9H115.47L115.49 43.91H115.51L115.53 43.93H115.55L115.57 43.95H115.59L115.6 43.97H115.61L115.62 44V44.02L115.65 44.04V44.06L115.67 44.08V44.1L115.69 44.12V44.14L115.71 44.16V44.18L115.72 44.2V44.22V44.24V44.26V44.28V44.3V44.32V44.34V44.36V44.38V44.4V44.42L115.71 44.44V44.46L115.69 44.48V44.5L115.67 44.52V44.54L115.65 44.56V44.58L115.62 44.6H115.61L115.6 44.63H115.58L115.56 44.66H115.54L115.52 44.68H115.5L115.48 44.7H115.46L115.44 44.72L115.45 44.67ZM107.28 47.54V46.76L115.18 43.89L115.46 44.66L107.55 47.53H107.28V47.54ZM107.27 46.76L107.55 47.53H107.53L107.51 47.54H107.49H107.47H107.45H107.43H107.41H107.39H107.37H107.35H107.33H107.31H107.29L107.27 47.53H107.25L107.23 47.52H107.21L107.19 47.5H107.17L107.15 47.48H107.14L107.12 47.46H107.11L107.1 47.43V47.41L107.08 47.39V47.37L107.06 47.35V47.33L107.04 47.31V47.29L107.02 47.27V47.25L107.01 47.23V47.21V47.19V47.17V47.15V47.13V47.11V47.07V47.05V47.03V47.01V46.99L107.02 46.97V46.95L107.04 46.93V46.91L107.06 46.89V46.87L107.08 46.85V46.83L107.11 46.82H107.13L107.14 46.79H107.15L107.17 46.77H107.19L107.21 46.75H107.23L107.25 46.73H107.27V46.76ZM99.55 44.07L107.53 46.76L107.27 47.54L99.29 44.85L99.55 44.07ZM99.55 44.07L99.29 44.85H99.27L99.25 44.84H99.23L99.21 44.82H99.19L99.17 44.8H99.15L99.14 44.78H99.13L99.12 44.75V44.73L99.09 44.71V44.69L99.07 44.67V44.65L99.05 44.63V44.61L99.03 44.59V44.57L99.02 44.55V44.53V44.51V44.49V44.47V44.45V44.43V44.41V44.39V44.37V44.35V44.33V44.31V44.29L99.04 44.27V44.25L99.06 44.23V44.21L99.08 44.19V44.17L99.11 44.15H99.12L99.14 44.12H99.15L99.17 44.09H99.19L99.21 44.07H99.23L99.25 44.05H99.27L99.29 44.03H99.31L99.33 44.02H99.35H99.37H99.39H99.41H99.43H99.45H99.47H99.49H99.51H99.53H99.55L99.57 44.03L99.55 44.07Z" fill="#58595B"/>
<path d="M114.98 46.08L115.65 45.61V45.63L115.67 45.65V45.67L115.69 45.69V45.71L115.7 45.73V45.75V45.77V45.79V45.81V45.83V45.85V45.89V45.91V45.93V45.95V45.97L115.69 45.99V46.01L115.68 46.03V46.05L115.66 46.07V46.09L115.64 46.11V46.13L115.61 46.15V46.17L115.58 46.18H115.57L115.55 46.21H115.53L115.51 46.23H115.49L115.47 46.25H115.45L115.43 46.27H115.41L115.39 46.28H115.37H115.35H115.33H115.31H115.29H115.27H115.25H115.23H115.21H115.19H115.17L115.15 46.27H115.13L115.11 46.26H115.09L115.07 46.24H115.05L115.03 46.22H115.01L114.99 46.2H114.98L114.97 46.17H114.96L114.95 46.14V46.12H114.94L114.98 46.08ZM107.74 34.8L107.08 34.32H107.75L108 34.68L108.25 35.03L108.5 35.38L108.75 35.73L109 36.08L109.25 36.43L109.5 36.78L109.75 37.13L110 37.48L110.25 37.83L110.5 38.18L110.75 38.53L111 38.88L111.25 39.23L111.5 39.58L111.75 39.93L112 40.28L112.25 40.63L112.5 40.98L112.75 41.33L113 41.68L113.25 42.03L113.5 42.38L113.75 42.73L114 43.08L114.25 43.43L114.5 43.78L114.75 44.13L115 44.48L115.25 44.83L115.5 45.18L115.75 45.53L115.08 46L114.83 45.65L114.58 45.3L114.33 44.95L114.08 44.6L113.83 44.25L113.58 43.9L113.33 43.55L113.08 43.2L112.83 42.85L112.58 42.5L112.33 42.15L112.08 41.8L111.83 41.45L111.58 41.1L111.33 40.75L111.08 40.4L110.83 40.05L110.58 39.7L110.33 39.35L110.08 39L109.83 38.65L109.58 38.3L109.33 37.95L109.08 37.6L108.83 37.25L108.58 36.9L108.33 36.55L108.08 36.2L107.83 35.85L107.58 35.5L107.33 35.15L107.08 34.8H107.75H107.74ZM107.75 34.33L107.08 34.8V34.78L107.06 34.76V34.74L107.04 34.72V34.7L107.03 34.68V34.66V34.64V34.62V34.6V34.58V34.56V34.52V34.5V34.48V34.46V34.44L107.04 34.42V34.4L107.05 34.38V34.36L107.07 34.34V34.32L107.09 34.3V34.28L107.12 34.26V34.24L107.15 34.23H107.16L107.17 34.2H107.19L107.21 34.18H107.23L107.25 34.16H107.27L107.29 34.14H107.31L107.33 34.13H107.35H107.37H107.39H107.41H107.43H107.45H107.47H107.49H107.51H107.53H107.55L107.57 34.14H107.59L107.61 34.15H107.63L107.65 34.17H107.67L107.69 34.19H107.71L107.73 34.21H107.74L107.76 34.24V34.26L107.79 34.28V34.3H107.8L107.75 34.33ZM99.69 45.85L99.0301 45.37L99.2801 45.02L99.5301 44.67L99.7801 44.32L100.03 43.97L100.28 43.62L100.53 43.27L100.78 42.93L101.03 42.58L101.28 42.23L101.53 41.88L101.78 41.53L102.03 41.18L102.28 40.83L102.53 40.48L102.78 40.13L103.03 39.79L103.28 39.44L103.53 39.09L103.78 38.74L104.03 38.39L104.28 38.04L104.53 37.69L104.78 37.34L105.03 37L105.28 36.65L105.53 36.3L105.78 35.95L106.03 35.6L106.28 35.25L106.53 34.9L106.78 34.55L107.03 34.2L107.69 34.68L107.44 35.03L107.19 35.38L106.94 35.73L106.69 36.08L106.44 36.43L106.19 36.78L105.94 37.12L105.69 37.47L105.44 37.82L105.19 38.17L104.94 38.52L104.69 38.87L104.44 39.22L104.19 39.57L103.94 39.92L103.69 40.26L103.44 40.61L103.19 40.96L102.94 41.31L102.69 41.66L102.44 42.01L102.19 42.36L101.94 42.71L101.69 43.06L101.44 43.4L101.19 43.75L100.94 44.1L100.69 44.45L100.44 44.8L100.19 45.15L99.94 45.5L99.69 45.85ZM99.0301 45.37L99.69 45.85V45.87L99.66 45.89V45.91L99.63 45.92H99.6201L99.6 45.95H99.58L99.5601 45.97H99.54L99.5201 45.99H99.5001L99.48 46H99.4601L99.44 46.01H99.42H99.4001H99.38H99.36H99.3401H99.32H99.3H99.2801H99.26H99.2401H99.22L99.2 46H99.1801L99.16 45.99H99.14L99.1201 45.97H99.1L99.08 45.95H99.0601L99.04 45.92H99.0301L99.01 45.89V45.87L98.98 45.85V45.83L98.9601 45.81V45.79L98.94 45.77V45.75L98.92 45.73V45.71L98.91 45.69V45.67V45.65V45.63V45.61V45.59V45.57V45.55V45.53V45.51V45.49V45.47L98.92 45.45V45.43L98.9301 45.41V45.39L98.95 45.37V45.35L98.97 45.33L99.0301 45.37Z" fill="#58595B"/>
<path d="M114.51 39.64L114.23 38.87H114.25L114.27 38.86H114.29H114.31H114.33H114.35H114.37H114.39H114.41H114.43H114.45H114.47H114.49L114.51 38.87H114.53L114.55 38.88H114.57L114.59 38.9H114.61L114.63 38.92H114.65L114.66 38.94H114.67L114.68 38.97V38.99L114.71 39.01V39.03L114.73 39.05V39.07L114.75 39.09V39.11L114.77 39.13V39.15L114.78 39.17V39.19V39.21V39.23V39.25V39.27V39.29V39.31V39.33V39.35V39.37V39.39L114.77 39.41V39.43L114.76 39.45V39.47L114.74 39.49V39.51L114.72 39.53V39.55L114.7 39.57H114.69L114.68 39.6H114.67L114.65 39.63H114.63L114.61 39.65H114.59L114.57 39.67H114.55L114.53 39.69L114.51 39.64ZM107.29 42.17L107.55 41.39H107.28L107.5 41.31L107.72 41.23L107.94 41.15L108.16 41.07L108.38 40.99L108.6 40.91L108.82 40.83L109.04 40.75L109.26 40.67L109.48 40.59L109.7 40.51L109.92 40.43L110.14 40.35L110.36 40.27L110.58 40.19L110.8 40.11L111.02 40.03L111.24 39.95L111.46 39.87L111.68 39.79L111.9 39.71L112.12 39.63L112.34 39.55L112.56 39.47L112.78 39.39L113 39.31L113.22 39.23L113.44 39.15L113.66 39.07L113.88 38.99L114.1 38.91L114.32 38.83L114.6 39.6L114.38 39.68L114.16 39.76L113.94 39.84L113.72 39.92L113.5 40L113.28 40.08L113.06 40.16L112.84 40.24L112.62 40.32L112.4 40.4L112.18 40.48L111.96 40.56L111.74 40.64L111.52 40.72L111.3 40.8L111.08 40.88L110.86 40.96L110.64 41.04L110.42 41.12L110.2 41.2L109.98 41.28L109.76 41.36L109.54 41.44L109.32 41.52L109.1 41.6L108.88 41.68L108.66 41.76L108.44 41.84L108.22 41.92L108 42L107.78 42.08L107.56 42.16H107.29V42.17ZM107.28 41.39L107.56 42.16H107.54L107.52 42.17H107.5H107.48H107.46H107.44H107.42H107.4H107.38H107.36H107.34H107.32H107.3L107.28 42.16H107.26L107.24 42.14H107.22L107.2 42.12H107.18L107.16 42.1H107.14L107.13 42.08H107.11L107.1 42.05V42.03L107.07 42.01V41.99L107.05 41.97V41.95L107.03 41.93V41.91L107.01 41.89V41.87L107 41.85V41.83V41.81V41.79V41.77V41.75V41.73V41.71V41.69V41.67V41.65V41.63L107.01 41.61V41.59L107.03 41.57V41.55L107.05 41.53V41.51L107.07 41.49V41.47L107.09 41.45H107.1L107.11 41.42H107.12L107.14 41.39H107.16L107.18 41.37H107.2L107.22 41.35H107.24L107.26 41.33L107.28 41.39ZM100.25 39.79L100.51 39.01L100.73 39.08L100.95 39.15L101.17 39.22L101.39 39.29L101.61 39.36L101.83 39.43L102.05 39.5L102.27 39.57L102.49 39.64L102.71 39.71L102.93 39.78L103.15 39.85L103.37 39.92L103.59 39.99L103.81 40.06L104.03 40.13L104.25 40.2L104.47 40.27L104.69 40.34L104.91 40.41L105.13 40.48L105.35 40.55L105.57 40.62L105.79 40.69L106.01 40.76L106.23 40.83L106.45 40.9L106.67 40.97L106.89 41.04L107.11 41.11L107.33 41.18L107.55 41.25L107.29 42.03L107.07 41.96L106.85 41.89L106.63 41.82L106.41 41.75L106.19 41.68L105.97 41.61L105.75 41.54L105.53 41.47L105.31 41.4L105.09 41.33L104.87 41.26L104.65 41.19L104.43 41.12L104.21 41.05L103.99 40.98L103.77 40.91L103.55 40.84L103.33 40.77L103.11 40.7L102.89 40.63L102.67 40.56L102.45 40.49L102.23 40.42L102.01 40.35L101.79 40.28L101.57 40.21L101.35 40.14L101.13 40.07L100.91 40L100.69 39.93L100.47 39.86L100.25 39.79ZM100.51 39.01L100.25 39.79H100.23L100.21 39.78H100.19L100.17 39.76H100.15L100.13 39.74H100.11L100.09 39.72H100.08L100.06 39.69V39.67L100.04 39.65V39.63L100.02 39.61V39.59L100 39.57V39.55L99.98 39.53V39.51L99.97 39.49V39.47V39.45V39.43V39.41V39.39V39.37V39.35V39.33V39.31V39.29V39.27L99.98 39.25V39.23L99.99 39.21V39.19L100.01 39.17V39.15L100.03 39.13V39.11L100.05 39.09H100.06L100.07 39.06H100.08L100.1 39.03H100.12L100.14 39.01H100.16L100.18 38.99H100.2L100.22 38.97H100.24L100.26 38.96H100.28H100.3H100.32H100.34H100.36H100.38H100.4H100.42H100.44H100.46H100.48L100.5 38.97L100.51 39.01Z" fill="#58595B"/>
<path d="M113.91 40.15L114.58 39.68V39.7L114.6 39.72V39.74L114.62 39.76V39.78L114.64 39.8V39.82V39.84V39.86V39.88V39.9V39.92V39.96V39.98V40V40.02V40.04L114.63 40.06V40.08L114.62 40.1V40.12L114.6 40.14V40.16L114.58 40.18V40.2L114.55 40.22V40.24L114.52 40.25H114.5L114.48 40.28H114.46L114.44 40.3H114.42L114.4 40.32H114.38L114.36 40.34H114.34L114.32 40.35H114.3H114.28H114.26H114.24H114.22H114.2H114.18H114.16H114.14H114.12H114.1L114.08 40.34H114.06L114.04 40.33H114.02L114 40.31H113.98L113.96 40.29H113.94L113.92 40.27H113.9L113.89 40.24L113.87 40.22V40.2L113.85 40.18L113.91 40.15ZM107.75 30.42L107.09 29.94H107.76L107.97 30.25L108.18 30.55L108.39 30.85L108.6 31.16L108.81 31.46L109.02 31.77L109.23 32.07L109.44 32.37L109.65 32.67L109.86 32.97L110.07 33.27L110.28 33.57L110.49 33.87L110.7 34.17L110.91 34.47L111.12 34.77L111.33 35.07L111.54 35.37L111.75 35.68L111.96 35.98L112.17 36.28L112.38 36.58L112.59 36.88L112.8 37.18L113.01 37.48L113.22 37.78L113.43 38.08L113.64 38.38L113.85 38.68L114.06 38.99L114.27 39.29L114.48 39.59L113.81 40.06L113.6 39.76L113.39 39.46L113.18 39.16L112.97 38.86L112.76 38.55L112.55 38.25L112.34 37.95L112.13 37.65L111.92 37.35L111.71 37.05L111.5 36.75L111.29 36.45L111.08 36.15L110.87 35.85L110.66 35.55L110.45 35.25L110.24 34.94L110.03 34.64L109.82 34.34L109.61 34.04L109.4 33.74L109.19 33.44L108.98 33.14L108.77 32.84L108.56 32.54L108.35 32.24L108.14 31.94L107.93 31.64L107.72 31.34L107.51 31.04L107.3 30.73L107.09 30.43H107.76L107.75 30.42ZM107.76 29.94L107.09 30.41V30.39L107.07 30.37V30.35L107.05 30.33V30.31L107.03 30.29V30.27V30.25V30.23V30.21V30.19V30.17V30.13V30.11V30.09V30.07V30.05V30.03V30.01L107.04 29.99V29.97L107.06 29.95V29.93L107.08 29.91V29.89L107.1 29.87V29.85L107.13 29.84H107.15L107.17 29.81H107.19L107.21 29.79H107.23L107.25 29.77H107.27L107.29 29.75H107.31L107.33 29.74H107.35H107.37H107.39H107.41H107.43H107.45H107.47H107.49H107.51H107.53H107.55L107.57 29.75H107.59L107.61 29.76H107.63L107.65 29.78H107.67L107.69 29.8H107.71L107.73 29.82H107.75L107.76 29.85H107.77L107.78 29.88V29.9H107.79L107.76 29.94ZM100.79 39.98L100.13 39.5L100.35 39.2L100.57 38.9L100.79 38.6L101.01 38.3L101.23 38L101.45 37.7L101.67 37.4L101.89 37.1L102.11 36.8L102.33 36.5L102.55 36.2L102.77 35.9L102.99 35.6L103.21 35.3L103.43 35L103.65 34.7L103.87 34.4L104.09 34.1L104.31 33.8L104.53 33.5L104.75 33.2L104.97 32.9L105.19 32.6L105.41 32.3L105.63 32L105.85 31.7L106.07 31.4L106.29 31.1L106.51 30.8L106.73 30.5L106.95 30.2L107.17 29.9L107.83 30.38L107.61 30.68L107.39 30.98L107.17 31.28L106.95 31.58L106.73 31.88L106.51 32.18L106.29 32.48L106.07 32.78L105.85 33.08L105.63 33.38L105.41 33.68L105.19 33.98L104.97 34.28L104.75 34.58L104.53 34.88L104.31 35.18L104.09 35.48L103.87 35.78L103.65 36.08L103.43 36.38L103.21 36.68L102.99 36.98L102.77 37.28L102.55 37.58L102.33 37.88L102.11 38.18L101.89 38.48L101.67 38.78L101.45 39.08L101.23 39.38L101.01 39.68L100.79 39.98ZM100.13 39.5L100.79 39.98V40L100.76 40.02V40.04L100.73 40.05H100.71L100.69 40.08H100.67L100.65 40.1H100.63L100.61 40.12H100.59L100.57 40.14H100.55L100.53 40.15H100.51H100.49H100.47H100.45H100.43H100.41H100.39H100.37H100.35H100.33H100.31L100.29 40.14H100.27L100.25 40.13H100.23L100.21 40.11H100.19L100.17 40.09H100.15L100.13 40.06H100.12L100.11 40.03V40.01L100.08 39.99V39.97L100.06 39.95V39.93L100.04 39.91V39.89L100.03 39.87V39.85L100.02 39.83V39.81V39.79V39.77V39.75V39.73V39.71V39.69V39.67V39.65V39.63V39.61L100.03 39.59V39.57L100.04 39.55V39.53L100.06 39.51V39.49L100.08 39.47L100.13 39.5Z" fill="#58595B"/>
<path d="M113.58 34.61L113.3 33.84H113.32L113.34 33.83H113.36H113.38H113.4H113.42H113.44H113.46H113.48H113.5H113.52H113.54H113.56L113.58 33.84H113.6L113.62 33.86H113.64L113.66 33.88H113.68L113.7 33.9H113.72L113.73 33.92H113.75L113.76 33.95H113.77L113.78 33.98V34L113.8 34.02V34.04L113.82 34.06V34.08L113.84 34.1V34.12L113.85 34.14V34.16V34.18V34.2V34.22V34.24V34.26V34.28V34.3V34.32V34.34V34.36L113.84 34.38V34.4L113.82 34.42V34.44L113.8 34.46V34.48L113.78 34.5V34.52L113.76 34.54H113.75L113.74 34.57H113.73L113.71 34.6H113.69L113.67 34.62H113.65L113.63 34.64H113.61L113.59 34.66L113.58 34.61ZM107.3 36.79L107.56 36.01H107.29L107.48 35.95L107.67 35.88L107.86 35.81L108.05 35.74L108.24 35.67L108.43 35.6L108.62 35.53L108.81 35.46L109 35.39L109.19 35.32L109.38 35.25L109.57 35.18L109.76 35.11L109.95 35.04L110.14 34.97L110.33 34.9L110.52 34.83L110.71 34.76L110.9 34.69L111.09 34.62L111.28 34.55L111.47 34.48L111.66 34.41L111.85 34.34L112.04 34.27L112.23 34.2L112.42 34.13L112.61 34.06L112.8 33.99L112.99 33.92L113.18 33.85L113.37 33.78L113.65 34.55L113.46 34.62L113.27 34.69L113.08 34.76L112.89 34.83L112.7 34.9L112.51 34.97L112.32 35.04L112.13 35.11L111.94 35.18L111.75 35.25L111.56 35.32L111.37 35.39L111.18 35.46L110.99 35.53L110.8 35.6L110.61 35.67L110.42 35.74L110.23 35.81L110.04 35.88L109.85 35.95L109.66 36.02L109.47 36.09L109.28 36.16L109.09 36.23L108.9 36.3L108.71 36.37L108.52 36.44L108.33 36.51L108.14 36.58L107.95 36.65L107.76 36.72L107.57 36.79H107.3ZM107.29 36.02L107.57 36.79H107.55L107.53 36.8H107.51H107.49H107.47H107.45H107.43H107.41H107.39H107.37H107.35H107.33H107.31L107.29 36.79H107.27L107.25 36.77H107.23L107.21 36.75H107.19L107.17 36.73H107.15L107.13 36.71H107.12L107.11 36.68V36.66L107.08 36.64V36.62L107.06 36.6V36.58L107.04 36.56V36.54L107.02 36.52V36.5L107.01 36.48V36.46V36.44V36.42V36.4V36.34V36.32V36.3V36.28V36.26L107.02 36.24V36.22L107.03 36.2V36.18L107.05 36.16V36.14L107.07 36.12V36.1L107.09 36.08H107.1L107.11 36.05H107.13L107.15 36.02H107.17L107.19 36H107.21L107.23 35.98H107.25L107.27 35.96L107.29 36.02ZM101.2 34.74L101.46 33.96L101.65 34.02L101.84 34.08L102.03 34.14L102.22 34.2L102.41 34.26L102.6 34.32L102.79 34.38L102.98 34.44L103.17 34.5L103.36 34.56L103.55 34.62L103.74 34.68L103.93 34.74L104.12 34.8L104.31 34.86L104.5 34.92L104.69 34.98L104.88 35.04L105.07 35.1L105.26 35.16L105.45 35.22L105.64 35.28L105.83 35.34L106.02 35.4L106.21 35.46L106.4 35.52L106.59 35.58L106.78 35.64L106.97 35.7L107.16 35.76L107.35 35.82L107.54 35.88L107.28 36.66L107.09 36.6L106.9 36.54L106.71 36.48L106.52 36.42L106.33 36.36L106.14 36.3L105.95 36.24L105.76 36.18L105.57 36.12L105.38 36.06L105.19 36L105 35.94L104.81 35.88L104.62 35.82L104.43 35.76L104.24 35.7L104.05 35.64L103.86 35.58L103.67 35.52L103.48 35.46L103.29 35.4L103.1 35.34L102.91 35.28L102.72 35.22L102.53 35.16L102.34 35.1L102.15 35.04L101.96 34.98L101.77 34.92L101.58 34.86L101.39 34.8L101.2 34.74ZM101.46 33.96L101.2 34.74H101.18L101.16 34.72H101.14L101.12 34.7H101.1L101.08 34.68H101.06L101.04 34.65H101.03L101.02 34.62H101.01L101 34.59V34.57L100.98 34.55V34.53L100.96 34.51V34.49L100.94 34.47V34.45L100.93 34.43V34.41V34.39V34.37V34.35V34.33V34.31V34.29V34.27V34.25V34.23V34.21L100.94 34.19V34.17L100.95 34.15V34.13L100.97 34.11V34.09L100.99 34.07V34.05L101.01 34.03H101.02L101.04 34H101.05L101.06 33.97H101.08L101.1 33.95H101.12L101.14 33.93H101.16L101.18 33.91H101.2L101.22 33.9H101.24H101.26H101.28H101.3H101.32H101.34H101.36H101.38H101.4H101.42H101.44L101.46 33.91V33.96Z" fill="#58595B"/>
<path d="M112.84 34.22L113.51 33.75V33.77L113.53 33.79V33.81L113.55 33.83V33.85L113.56 33.87V33.89L113.57 33.91V33.93V33.95V33.97V33.99V34.05V34.07V34.09V34.11V34.13L113.56 34.15V34.17L113.54 34.19V34.21L113.52 34.23V34.25L113.5 34.27V34.29L113.47 34.31L113.45 34.33H113.44L113.42 34.36H113.4L113.38 34.38H113.36L113.34 34.4H113.32L113.3 34.42H113.28L113.26 34.43H113.24H113.22H113.2H113.18H113.16H113.14H113.12H113.1H113.08H113.06H113.04L113.02 34.42H113L112.98 34.41H112.96L112.94 34.39H112.92L112.9 34.37H112.88L112.86 34.35H112.84L112.83 34.32V34.3L112.8 34.28V34.26H112.79L112.84 34.22ZM107.77 26.03L107.11 25.55H107.78L107.96 25.81L108.14 26.07L108.32 26.33L108.5 26.59L108.68 26.85L108.86 27.11L109.04 27.37L109.22 27.63L109.4 27.89L109.58 28.15L109.76 28.41L109.94 28.67L110.12 28.93L110.3 29.19L110.48 29.45L110.66 29.7L110.84 29.96L111.02 30.22L111.2 30.48L111.38 30.74L111.56 31L111.74 31.26L111.92 31.52L112.1 31.78L112.28 32.04L112.46 32.3L112.64 32.56L112.82 32.82L113 33.08L113.18 33.34L113.36 33.6L113.54 33.86L112.87 34.33L112.69 34.07L112.51 33.81L112.33 33.55L112.15 33.29L111.97 33.03L111.79 32.77L111.61 32.51L111.43 32.25L111.25 31.99L111.07 31.73L110.89 31.47L110.71 31.21L110.53 30.95L110.35 30.69L110.17 30.43L109.99 30.18L109.81 29.92L109.63 29.66L109.45 29.4L109.27 29.14L109.09 28.88L108.91 28.62L108.73 28.36L108.55 28.1L108.37 27.84L108.19 27.58L108.01 27.32L107.83 27.06L107.65 26.8L107.47 26.54L107.29 26.28L107.11 26.02H107.78L107.77 26.03ZM107.77 25.55L107.1 26.02V26L107.08 25.98V25.96L107.06 25.94V25.92L107.05 25.9V25.88V25.86V25.84V25.82V25.8V25.78V25.72V25.7V25.68V25.66V25.64L107.06 25.62V25.6L107.08 25.58V25.56L107.1 25.54V25.52L107.12 25.5V25.48L107.15 25.46H107.16L107.17 25.43H107.19L107.21 25.4H107.23L107.25 25.38H107.27L107.29 25.36H107.31L107.33 25.35H107.35L107.37 25.34H107.39H107.41H107.43H107.45H107.47H107.49H107.51H107.53H107.55H107.57H107.59L107.61 25.35H107.63L107.65 25.37H107.67L107.69 25.39H107.71L107.73 25.41H107.75L107.76 25.44H107.77L107.78 25.47V25.49L107.81 25.51L107.77 25.55ZM101.89 34.11L101.23 33.63L101.41 33.38L101.59 33.13L101.77 32.88L101.95 32.63L102.13 32.38L102.31 32.13L102.49 31.88L102.67 31.63L102.85 31.38L103.03 31.13L103.21 30.88L103.39 30.63L103.57 30.38L103.75 30.13L103.93 29.88L104.12 29.63L104.3 29.38L104.48 29.13L104.67 28.88L104.85 28.63L105.03 28.38L105.21 28.13L105.39 27.88L105.57 27.63L105.75 27.38L105.93 27.13L106.11 26.88L106.29 26.63L106.47 26.38L106.65 26.13L106.84 25.88L107.02 25.63L107.68 26.11L107.5 26.36L107.32 26.61L107.14 26.86L106.96 27.11L106.78 27.36L106.6 27.61L106.42 27.86L106.24 28.11L106.06 28.36L105.88 28.61L105.7 28.86L105.52 29.11L105.34 29.36L105.16 29.61L104.98 29.86L104.79 30.11L104.61 30.36L104.42 30.61L104.24 30.86L104.06 31.11L103.88 31.36L103.7 31.61L103.52 31.86L103.34 32.11L103.16 32.36L102.98 32.61L102.8 32.86L102.61 33.11L102.43 33.36L102.25 33.61L102.07 33.86L101.89 34.11ZM101.22 33.62L101.88 34.1V34.12L101.85 34.14L101.83 34.16H101.82L101.8 34.19H101.78L101.76 34.21H101.74L101.72 34.23H101.7L101.68 34.25H101.66L101.64 34.26H101.62H101.6H101.58H101.56H101.54H101.52H101.5H101.48H101.46H101.44H101.42H101.4H101.38L101.36 34.25H101.34L101.32 34.23H101.3L101.28 34.21H101.26L101.24 34.19H101.22L101.2 34.16H101.19L101.18 34.13V34.11L101.16 34.09V34.07L101.14 34.05V34.03L101.12 34.01V33.99L101.11 33.97V33.95V33.93V33.91V33.89V33.87V33.85V33.81V33.79V33.77V33.75V33.73L101.12 33.71V33.69L101.13 33.67V33.65L101.15 33.63V33.61L101.17 33.59L101.22 33.62Z" fill="#58595B"/>
<path d="M112.63 29.58L112.35 28.81H112.37L112.39 28.8H112.41H112.43H112.45H112.47H112.49H112.51H112.53H112.55H112.57H112.59H112.61L112.63 28.81H112.65L112.67 28.83H112.69L112.71 28.85H112.73L112.75 28.87H112.77L112.78 28.89H112.8L112.81 28.92V28.94L112.84 28.96V28.98L112.86 29V29.02L112.88 29.04V29.06L112.9 29.08V29.1L112.91 29.12V29.14V29.16V29.18V29.2V29.22V29.24V29.26V29.28V29.3V29.32V29.34L112.9 29.36V29.38L112.89 29.4V29.42L112.87 29.44V29.46L112.85 29.48V29.5L112.83 29.52H112.82L112.81 29.55H112.8L112.78 29.58H112.76L112.74 29.6H112.72L112.7 29.62H112.68L112.66 29.64L112.63 29.58ZM107.31 31.42L107.57 30.64H107.3L107.46 30.59L107.62 30.53L107.78 30.47L107.94 30.41L108.1 30.35L108.26 30.29L108.42 30.23L108.58 30.17L108.74 30.11L108.9 30.05L109.06 29.99L109.22 29.93L109.38 29.87L109.54 29.81L109.7 29.75L109.86 29.69L110.02 29.63L110.18 29.57L110.34 29.51L110.5 29.45L110.66 29.39L110.82 29.33L110.98 29.27L111.14 29.21L111.3 29.15L111.46 29.09L111.62 29.03L111.78 28.97L111.94 28.91L112.1 28.85L112.26 28.79L112.42 28.73L112.7 29.5L112.54 29.56L112.38 29.62L112.22 29.68L112.06 29.74L111.9 29.8L111.74 29.86L111.58 29.92L111.42 29.98L111.26 30.04L111.1 30.1L110.94 30.16L110.78 30.22L110.62 30.28L110.46 30.34L110.3 30.4L110.14 30.46L109.98 30.52L109.82 30.58L109.66 30.64L109.5 30.7L109.34 30.76L109.18 30.82L109.02 30.88L108.86 30.94L108.7 31L108.54 31.06L108.38 31.12L108.22 31.18L108.06 31.24L107.9 31.3L107.74 31.36L107.58 31.42H107.31ZM107.3 30.64L107.58 31.41H107.56L107.54 31.42H107.52H107.5H107.48H107.46H107.44H107.42H107.4H107.38H107.36H107.34H107.32L107.3 31.41H107.28L107.26 31.4H107.24L107.22 31.38H107.2L107.18 31.36H107.17L107.15 31.34H107.14L107.13 31.31H107.12L107.11 31.28V31.26L107.09 31.24V31.22L107.07 31.2V31.18L107.05 31.16V31.14L107.04 31.12V31.1V31.08V31.06V31.04V30.98V30.96V30.94V30.92V30.9L107.05 30.88V30.86L107.06 30.84V30.82L107.08 30.8V30.78L107.1 30.76V30.74L107.12 30.72H107.13L107.14 30.69H107.16L107.18 30.66H107.2L107.22 30.64H107.24L107.26 30.62H107.28L107.3 30.6V30.64ZM102.15 29.69L102.41 28.91L102.57 28.96L102.73 29.01L102.89 29.06L103.05 29.11L103.21 29.16L103.37 29.21L103.53 29.26L103.69 29.31L103.85 29.36L104.01 29.41L104.17 29.46L104.33 29.51L104.49 29.56L104.65 29.61L104.81 29.66L104.97 29.71L105.13 29.76L105.29 29.81L105.45 29.86L105.61 29.91L105.77 29.96L105.93 30.01L106.09 30.06L106.25 30.11L106.41 30.16L106.57 30.21L106.73 30.26L106.89 30.31L107.05 30.36L107.21 30.41L107.37 30.46L107.53 30.51L107.27 31.29L107.11 31.24L106.95 31.19L106.79 31.14L106.63 31.09L106.47 31.04L106.31 30.99L106.15 30.94L105.99 30.89L105.83 30.84L105.67 30.79L105.51 30.74L105.35 30.69L105.19 30.64L105.03 30.59L104.87 30.54L104.71 30.49L104.55 30.44L104.39 30.39L104.23 30.34L104.07 30.29L103.91 30.24L103.75 30.19L103.59 30.14L103.43 30.09L103.27 30.04L103.11 29.99L102.95 29.94L102.79 29.89L102.63 29.84L102.47 29.79L102.31 29.74L102.15 29.69ZM102.41 28.91L102.15 29.69H102.13L102.11 29.67H102.09L102.07 29.65H102.05L102.03 29.63H102.01L101.99 29.61H101.98L101.97 29.58H101.96L101.95 29.55V29.53L101.93 29.51V29.49L101.91 29.47V29.45L101.9 29.43V29.41L101.89 29.39V29.37V29.35V29.33V29.31V29.23V29.21V29.19V29.17V29.15L101.9 29.13V29.11L101.92 29.09V29.07L101.94 29.05V29.03L101.96 29.01V28.99L101.99 28.98H102L102.02 28.95H102.04L102.06 28.93H102.08L102.1 28.91H102.12L102.14 28.89H102.16L102.18 28.88H102.2L102.22 28.87H102.24H102.26H102.28H102.3H102.34H102.36H102.38H102.4H102.42L102.44 28.88L102.41 28.91Z" fill="#58595B"/>
<path d="M111.78 28.3L112.45 27.83V27.85L112.47 27.87V27.89L112.49 27.91V27.93L112.5 27.95V27.97L112.51 27.99V28.01V28.03V28.05V28.07V28.11V28.13V28.15V28.17V28.19V28.21V28.23L112.5 28.25V28.27L112.48 28.29V28.31L112.46 28.33V28.35L112.44 28.37H112.43L112.42 28.4H112.4L112.38 28.43H112.36L112.34 28.45H112.32L112.3 28.47H112.28L112.26 28.49H112.24L112.22 28.5H112.2H112.18H112.16H112.14H112.12H112.1H112.08H112.06H112.04H112.02H112L111.98 28.49H111.96L111.94 28.48H111.92L111.9 28.46H111.88L111.86 28.44H111.84L111.82 28.42H111.8L111.79 28.39V28.37L111.76 28.35V28.33H111.75L111.78 28.3ZM107.78 21.64L107.12 21.16H107.79L107.94 21.37L108.09 21.58L108.24 21.79L108.39 22L108.54 22.21L108.69 22.42L108.84 22.63L108.99 22.84L109.14 23.05L109.29 23.26L109.43 23.47L109.58 23.68L109.73 23.89L109.88 24.1L110.03 24.31L110.18 24.52L110.33 24.73L110.48 24.94L110.63 25.15L110.78 25.36L110.93 25.57L111.08 25.78L111.23 25.99L111.38 26.2L111.53 26.41L111.68 26.62L111.83 26.83L111.98 27.04L112.13 27.25L112.28 27.46L112.43 27.67L112.58 27.88L111.91 28.35L111.76 28.14L111.61 27.93L111.46 27.72L111.31 27.51L111.16 27.3L111.02 27.09L110.87 26.88L110.73 26.67L110.58 26.46L110.43 26.25L110.28 26.04L110.13 25.83L109.98 25.62L109.83 25.41L109.68 25.2L109.53 24.99L109.39 24.78L109.24 24.57L109.09 24.36L108.94 24.15L108.79 23.94L108.64 23.73L108.49 23.52L108.34 23.31L108.19 23.1L108.05 22.89L107.9 22.68L107.76 22.47L107.61 22.26L107.46 22.05L107.31 21.84L107.16 21.63H107.83L107.78 21.64ZM107.78 21.17L107.11 21.64V21.62L107.09 21.6V21.58L107.07 21.56V21.54L107.06 21.52V21.5L107.05 21.48V21.46V21.44V21.42V21.4V21.36V21.34V21.32V21.3V21.28L107.06 21.26V21.24L107.07 21.22V21.2L107.09 21.18V21.16L107.11 21.14V21.12L107.14 21.1V21.08L107.17 21.07H107.19L107.21 21.04H107.23L107.25 21.02H107.27L107.29 21H107.31L107.33 20.98H107.35L107.37 20.97H107.39H107.41H107.43H107.45H107.47H107.49H107.51H107.53H107.55H107.57H107.59L107.61 20.98H107.63L107.65 20.99H107.67L107.69 21.01H107.71L107.73 21.03H107.75L107.77 21.05H107.78L107.79 21.08H107.8L107.81 21.11V21.13H107.82L107.78 21.17ZM102.98 28.23L102.32 27.75L102.47 27.54L102.62 27.33L102.77 27.12L102.92 26.91L103.07 26.7L103.22 26.49L103.37 26.28L103.52 26.07L103.67 25.86L103.82 25.65L103.97 25.44L104.12 25.23L104.27 25.02L104.42 24.81L104.57 24.6L104.72 24.39L104.87 24.18L105.02 23.97L105.17 23.76L105.32 23.55L105.47 23.34L105.62 23.13L105.77 22.92L105.92 22.71L106.07 22.5L106.22 22.29L106.37 22.08L106.52 21.87L106.67 21.66L106.82 21.45L106.97 21.24L107.12 21.03L107.78 21.51L107.63 21.72L107.48 21.93L107.33 22.14L107.18 22.35L107.03 22.56L106.88 22.77L106.73 22.98L106.58 23.19L106.43 23.4L106.28 23.61L106.13 23.82L105.98 24.03L105.83 24.24L105.68 24.45L105.53 24.66L105.38 24.87L105.23 25.08L105.08 25.29L104.93 25.5L104.78 25.71L104.63 25.92L104.48 26.13L104.33 26.34L104.18 26.55L104.03 26.76L103.88 26.97L103.73 27.18L103.58 27.39L103.43 27.6L103.28 27.81L103.13 28.02L102.98 28.23ZM102.32 27.75L102.98 28.23V28.25L102.95 28.27H102.94L102.93 28.3H102.92L102.9 28.33H102.88L102.86 28.35H102.84L102.82 28.37H102.8L102.78 28.39H102.76L102.74 28.4H102.72H102.7H102.68H102.66H102.64H102.62H102.6H102.58H102.56H102.54H102.52L102.5 28.39H102.48L102.46 28.38H102.44L102.42 28.36H102.4L102.38 28.34H102.36L102.35 28.31H102.33L102.32 28.28V28.26L102.29 28.24V28.22L102.27 28.2V28.18L102.25 28.16V28.14L102.23 28.12V28.1L102.22 28.08V28.06V28.04V28.02V28V27.92V27.9V27.88V27.86V27.84L102.23 27.82V27.8L102.25 27.78V27.76L102.27 27.74V27.72L102.32 27.75Z" fill="#58595B"/>
<path d="M111.7 24.56L111.42 23.79H111.44L111.46 23.78H111.48H111.5H111.52H111.54H111.56H111.58H111.6H111.62H111.64H111.66H111.68L111.7 23.79H111.72L111.74 23.8H111.76L111.78 23.82H111.8L111.82 23.84H111.84L111.85 23.86H111.87L111.88 23.89V23.91L111.9 23.93V23.95L111.92 23.97V23.99L111.94 24.01V24.03L111.96 24.05V24.07L111.97 24.09V24.11V24.13V24.15V24.17V24.19V24.21V24.25V24.27V24.29L111.96 24.31V24.33L111.95 24.35V24.37L111.93 24.39V24.41L111.91 24.43V24.45L111.89 24.47V24.49L111.86 24.5H111.85L111.83 24.53H111.81L111.79 24.55H111.77L111.75 24.57H111.73L111.71 24.59H111.69L111.7 24.56ZM107.32 26.05L107.58 25.27H107.31L107.44 25.23L107.57 25.18L107.7 25.13L107.83 25.08L107.96 25.03L108.09 24.98L108.22 24.93L108.35 24.88L108.48 24.83L108.61 24.78L108.74 24.73L108.87 24.68L109 24.63L109.13 24.58L109.26 24.53L109.39 24.48L109.52 24.43L109.65 24.38L109.78 24.33L109.91 24.28L110.04 24.23L110.17 24.18L110.3 24.13L110.43 24.08L110.56 24.03L110.69 23.98L110.82 23.93L110.95 23.88L111.08 23.83L111.21 23.78L111.34 23.73L111.47 23.68L111.75 24.45L111.62 24.5L111.49 24.55L111.36 24.6L111.23 24.65L111.1 24.7L110.97 24.75L110.84 24.8L110.71 24.85L110.58 24.9L110.45 24.95L110.32 25L110.19 25.05L110.06 25.1L109.93 25.15L109.8 25.2L109.67 25.25L109.54 25.3L109.41 25.35L109.28 25.4L109.15 25.45L109.02 25.5L108.89 25.55L108.76 25.6L108.63 25.65L108.5 25.7L108.37 25.75L108.24 25.8L108.11 25.85L107.98 25.9L107.85 25.95L107.72 26L107.59 26.05H107.32ZM107.31 25.27L107.59 26.04H107.57L107.55 26.05H107.53H107.51H107.49H107.47H107.45H107.43H107.41H107.39H107.37H107.35H107.33L107.31 26.04H107.29L107.27 26.03H107.25L107.23 26.01H107.21L107.2 25.99H107.18L107.17 25.97H107.16L107.15 25.94V25.92L107.12 25.9V25.88L107.1 25.86V25.84L107.08 25.82V25.8L107.06 25.78V25.76L107.05 25.74V25.72V25.7V25.68V25.66V25.64V25.62V25.6V25.58V25.56V25.54V25.52L107.06 25.5V25.48L107.07 25.46V25.44L107.09 25.42V25.4L107.11 25.38V25.36L107.13 25.34H107.14L107.15 25.31H107.16L107.18 25.28H107.2L107.22 25.26H107.24L107.26 25.24H107.28L107.3 25.22L107.31 25.27ZM103.1 24.63L103.36 23.85L103.49 23.89L103.62 23.93L103.75 23.97L103.88 24.01L104.01 24.05L104.14 24.09L104.27 24.13L104.4 24.17L104.53 24.21L104.66 24.25L104.79 24.29L104.92 24.33L105.05 24.37L105.18 24.41L105.31 24.45L105.44 24.49L105.57 24.53L105.7 24.57L105.83 24.61L105.96 24.65L106.09 24.69L106.22 24.73L106.35 24.77L106.48 24.81L106.61 24.85L106.74 24.89L106.87 24.93L107 24.97L107.13 25.01L107.26 25.05L107.39 25.09L107.52 25.13L107.26 25.91L107.13 25.87L107 25.83L106.87 25.79L106.74 25.75L106.61 25.71L106.48 25.67L106.35 25.63L106.22 25.59L106.09 25.55L105.96 25.51L105.83 25.47L105.7 25.43L105.57 25.39L105.44 25.35L105.31 25.31L105.18 25.27L105.05 25.23L104.92 25.19L104.79 25.15L104.66 25.11L104.53 25.07L104.4 25.03L104.27 24.99L104.14 24.95L104.01 24.91L103.88 24.87L103.75 24.83L103.62 24.79L103.49 24.75L103.36 24.71L103.23 24.67L103.1 24.63ZM103.36 23.85L103.1 24.63H103.08L103.06 24.62H103.04L103.02 24.6H103L102.98 24.58H102.96L102.95 24.56H102.94L102.93 24.53H102.92L102.91 24.5V24.48L102.89 24.46V24.44L102.87 24.42V24.4L102.86 24.38V24.36L102.85 24.34V24.32V24.3V24.28V24.26V24.24V24.22V24.2V24.18V24.16V24.14V24.12L102.86 24.1V24.08L102.87 24.06V24.04L102.89 24.02V24L102.91 23.98V23.96L102.94 23.94H102.95L102.96 23.91H102.97L102.99 23.88H103.01L103.03 23.86H103.05L103.07 23.84H103.09L103.11 23.82H103.13L103.15 23.81H103.17H103.19H103.21H103.23H103.25H103.27H103.29H103.31H103.33H103.35H103.37L103.39 23.82L103.36 23.85Z" fill="#58595B"/>
<path d="M110.71 22.37L111.38 21.9V21.92L111.4 21.94V21.96L111.42 21.98V22L111.43 22.02V22.04L111.44 22.06V22.08V22.1V22.12V22.14V22.18V22.2V22.22V22.24V22.26L111.43 22.28V22.3L111.42 22.32V22.34L111.4 22.36V22.38L111.38 22.4V22.42L111.36 22.44V22.46L111.33 22.48H111.31L111.29 22.51H111.27L111.25 22.53H111.23L111.21 22.55H111.19L111.17 22.57H111.15L111.13 22.58H111.11H111.09H111.07H111.05H111.03H111.01H110.99H110.97H110.95H110.93H110.91L110.89 22.57H110.87L110.85 22.56H110.83L110.81 22.54H110.79L110.77 22.52H110.75L110.74 22.5H110.72L110.71 22.47V22.45L110.68 22.43V22.41H110.67L110.71 22.37ZM107.13 16.77H107.8L111.38 21.89L110.71 22.36L107.13 17.24V16.76V16.77ZM107.8 16.78L107.13 17.25V17.23L107.11 17.21V17.19L107.09 17.17V17.15L107.08 17.13V17.11L107.07 17.09V17.07V17.05V17.03V17.01V16.97V16.95V16.93V16.91V16.89V16.87V16.85L107.09 16.83V16.81L107.11 16.79V16.77L107.13 16.75V16.73L107.16 16.71V16.69L107.19 16.68H107.2L107.22 16.65H107.24L107.26 16.63H107.28L107.3 16.61H107.32L107.34 16.59H107.36L107.38 16.58H107.4H107.42H107.44H107.46H107.48H107.5H107.52H107.54H107.56H107.58H107.6L107.62 16.59H107.64L107.66 16.6H107.68L107.7 16.62H107.72L107.74 16.64H107.76L107.78 16.66H107.8L107.81 16.69V16.71L107.84 16.73V16.75H107.85L107.8 16.78ZM103.41 21.88L107.12 16.78L107.79 17.26L104.08 22.36L103.41 21.88ZM103.41 21.88L104.08 22.36V22.38L104.05 22.4H104.04L104.03 22.43H104.01L103.99 22.46H103.97L103.95 22.48H103.93L103.91 22.5H103.89L103.87 22.52H103.85L103.83 22.53H103.81H103.79H103.77H103.75H103.73H103.71H103.69H103.67H103.65H103.63H103.61L103.59 22.52H103.57L103.55 22.5H103.53L103.51 22.48H103.49L103.47 22.46H103.45L103.43 22.43H103.41L103.4 22.4V22.38L103.37 22.36V22.34L103.35 22.32V22.3L103.33 22.28V22.26L103.31 22.24V22.22L103.3 22.2V22.18V22.16V22.14V22.12V22.06V22.04V22.02V22V21.98L103.31 21.96V21.94L103.32 21.92V21.9L103.34 21.88V21.86L103.36 21.84L103.41 21.88Z" fill="#58595B"/>
<path d="M110.76 19.53L110.48 18.76H110.5L110.52 18.75H110.54H110.56H110.58H110.6H110.62H110.64H110.66H110.68H110.7H110.72H110.74L110.76 18.76H110.78L110.8 18.77H110.82L110.84 18.79H110.86L110.88 18.81H110.89L110.91 18.83H110.92L110.93 18.86V18.88L110.96 18.9V18.92L110.98 18.94V18.96L111 18.98V19L111.02 19.02V19.04L111.03 19.06V19.08V19.1V19.12V19.14V19.16V19.18V19.2V19.22V19.24V19.26V19.28L111.02 19.3V19.32L111.01 19.34V19.36L110.99 19.38V19.4L110.97 19.42V19.44L110.95 19.46H110.94L110.93 19.49H110.91L110.89 19.52H110.87L110.85 19.54H110.83L110.81 19.56H110.79L110.77 19.58L110.76 19.53ZM107.33 20.68V19.9L110.47 18.76L110.75 19.53L107.6 20.67H107.33V20.68ZM107.32 19.9L107.6 20.67H107.58L107.56 20.68H107.54H107.52H107.5H107.48H107.46H107.44H107.42H107.4H107.38H107.36H107.34L107.32 20.67H107.3L107.28 20.66H107.26L107.24 20.64H107.22L107.2 20.62H107.18L107.17 20.6H107.15L107.14 20.57V20.55L107.11 20.53V20.51L107.09 20.49V20.47L107.07 20.45V20.43L107.05 20.41V20.39L107.04 20.37V20.35V20.33V20.31V20.29V20.27V20.25V20.23V20.21V20.19V20.17V20.15L107.05 20.13V20.11L107.06 20.09V20.07L107.08 20.05V20.03L107.1 20.01V19.99L107.12 19.98V19.96L107.15 19.95H107.17L107.18 19.92H107.2L107.22 19.9H107.24L107.26 19.88H107.28L107.3 19.86L107.32 19.9ZM104.31 18.8L107.59 19.9L107.33 20.68L104.05 19.58L104.31 18.8ZM104.31 18.8L104.05 19.58H104.03L104.01 19.57H103.99L103.97 19.55H103.95L103.93 19.53H103.91L103.89 19.51H103.87L103.86 19.48V19.46L103.84 19.44V19.42L103.82 19.4V19.38L103.8 19.36V19.34L103.78 19.32V19.3L103.77 19.28V19.26V19.24V19.22V19.2V19.18V19.16V19.14V19.12V19.1V19.08V19.06L103.78 19.04V19.02L103.79 19V18.98L103.81 18.96V18.94L103.83 18.92V18.9L103.85 18.88H103.86L103.87 18.85H103.88L103.9 18.82H103.92L103.94 18.8H103.96L103.98 18.78H104L104.02 18.76H104.04L104.06 18.75H104.08H104.1H104.12H104.14H104.16H104.18H104.2H104.22H104.24H104.26H104.28L104.3 18.76L104.31 18.8Z" fill="#58595B"/>
<path fill-rule="evenodd" clip-rule="evenodd" d="M106.71 8.71C106.71 7.64 108.11 7.74 108.11 8.71V55.24C108.11 56.17 106.71 56.17 106.71 55.24V8.71Z" fill="#58595B"/>
<path d="M108.98 8.07L107.91 8.2V8.18V8.16V8.14V8.12V8.1V8.08V8.06V8.04V8.02L107.93 8V7.98L107.95 7.96V7.94L107.98 7.92V7.9L108.01 7.88L108.03 7.86L108.05 7.84L108.07 7.82H108.09L108.11 7.79H108.13L108.15 7.76H108.17L108.19 7.74H108.21L108.23 7.72H108.25L108.28 7.71H108.31L108.34 7.7H108.37H108.4H108.43H108.46H108.49H108.52H108.55H108.58H108.6L108.63 7.71H108.66L108.68 7.72H108.7L108.72 7.74H108.74L108.76 7.76H108.78L108.8 7.78H108.82L108.84 7.81L108.86 7.83L108.88 7.85L108.9 7.87L108.92 7.89V7.91L108.95 7.93V7.95L108.97 7.97V7.99L108.99 8.01V8.03L109 8.05V8.07H108.98ZM116.96 56.68L107.91 8.19L108.98 8.06L118.03 56.55L116.96 56.68ZM116.96 56.68L118.03 56.55V56.57V56.59V56.63V56.65V56.67V56.69V56.71L118.02 56.73V56.75L118 56.77V56.79L117.98 56.81V56.83L117.95 56.85V56.87L117.92 56.89L117.9 56.91L117.88 56.93H117.86L117.84 56.96H117.82L117.8 56.99H117.78L117.76 57.01H117.74L117.72 57.03H117.69L117.66 57.04H117.63L117.6 57.05H117.57H117.54H117.51H117.48H117.45H117.42H117.39H117.36H117.33L117.3 57.04H117.28L117.26 57.03H117.24L117.22 57.01H117.2L117.18 56.99H117.16L117.14 56.97H117.12L117.1 56.94H117.08L117.06 56.91L117.04 56.89L117.02 56.87V56.85L116.99 56.83V56.81L116.97 56.79V56.77L116.95 56.75V56.73L116.94 56.71V56.69L116.96 56.68Z" fill="#6D6E71"/>
<path d="M105.83 8.02V8L105.84 7.98V7.96L105.86 7.94V7.92L105.88 7.9V7.88L105.9 7.86L105.92 7.84L105.94 7.82L105.96 7.8L105.98 7.78L106 7.76H106.02L106.04 7.73H106.06L106.08 7.71H106.1L106.12 7.69H106.14L106.16 7.67H106.18L106.21 7.66H106.23L106.26 7.65H106.29H106.32H106.35H106.38H106.41H106.44H106.47H106.5H106.53L106.56 7.66H106.58L106.61 7.67H106.63L106.65 7.69H106.67L106.69 7.71H106.71L106.73 7.73H106.75L106.77 7.76L106.79 7.78L106.81 7.8L106.83 7.82V7.84L106.86 7.86V7.88L106.88 7.9V7.92L106.9 7.94V7.96L106.92 7.98V8L106.93 8.02V8.04V8.06V8.13V8.15L105.86 8.02H105.83ZM97.85 56.64L96.78 56.51L105.83 8.02L106.9 8.15L97.85 56.64ZM97.85 56.64V56.66V56.68V56.7L97.83 56.72V56.74L97.81 56.76V56.78L97.78 56.8V56.82L97.75 56.84L97.73 56.86L97.71 56.88L97.69 56.9H97.67L97.65 56.93H97.63L97.61 56.96H97.59L97.57 56.98H97.55L97.53 57H97.51L97.49 57.01H97.46L97.43 57.02H97.4H97.37H97.34H97.31H97.28H97.25H97.22H97.19H97.16L97.13 57.01H97.1L97.08 57H97.05L97.03 56.98H97.01L96.99 56.96H96.97L96.95 56.93H96.93L96.91 56.9H96.89L96.87 56.87L96.85 56.85V56.83L96.82 56.81V56.79L96.8 56.77V56.75L96.78 56.73V56.71L96.77 56.69V56.67L96.76 56.65V56.63V56.61V56.54V56.52L97.83 56.65L97.85 56.64Z" fill="#6D6E71"/>
<path d="M115.57 44.66L114.87 44.22V44.2L114.89 44.18V44.16L114.92 44.14H114.93L114.94 44.11H114.96L114.98 44.09H115L115.02 44.07H115.04L115.06 44.05H115.08L115.1 44.04H115.12L115.14 44.03H115.16H115.18H115.2H115.22H115.26H115.28H115.3H115.32H115.34L115.36 44.04H115.38L115.4 44.05H115.42L115.44 44.07H115.46L115.48 44.09H115.5L115.52 44.12H115.53L115.54 44.15V44.17L115.57 44.19V44.21L115.59 44.23V44.25L115.61 44.27V44.29L115.63 44.31V44.33L115.64 44.35V44.37V44.39V44.41V44.43V44.47V44.49V44.51V44.53V44.55V44.57V44.59L115.63 44.61V44.63L115.61 44.65V44.67L115.59 44.69L115.57 44.66ZM107.12 56.9V56.46L114.88 44.21L115.58 44.65L107.82 56.9H107.13H107.12ZM107.12 56.46L107.82 56.9V56.92L107.8 56.94V56.96L107.77 56.98H107.76L107.75 57.01H107.73L107.71 57.03H107.69L107.67 57.05H107.65L107.63 57.07H107.61L107.59 57.08H107.57L107.55 57.09H107.53H107.51H107.49H107.47H107.43H107.41H107.39H107.37H107.35L107.33 57.08H107.31L107.29 57.07H107.27L107.25 57.05H107.23L107.21 57.03H107.19L107.17 57H107.15L107.14 56.97V56.95L107.11 56.93V56.91L107.09 56.89V56.87L107.07 56.85V56.83L107.05 56.81V56.79L107.04 56.77V56.75V56.73V56.71V56.69V56.67V56.65V56.63V56.61V56.59V56.57V56.55V56.53V56.51L107.05 56.49V56.47L107.07 56.45V56.43H107.08L107.12 56.46ZM99.9399 44.21L107.81 56.46L107.12 56.9L99.25 44.65L99.9399 44.21ZM99.9399 44.21L99.25 44.65V44.63L99.2299 44.61V44.59L99.21 44.57V44.55L99.2 44.53V44.51V44.49V44.47V44.45V44.43V44.41V44.39V44.37V44.35V44.33V44.31L99.21 44.29V44.27L99.2199 44.25V44.23L99.24 44.21V44.19L99.2599 44.17V44.15L99.28 44.13V44.11L99.31 44.1H99.3199L99.34 44.07H99.36L99.3799 44.05H99.4L99.42 44.03H99.4399L99.46 44.01H99.4799L99.5 44H99.52H99.5399H99.56H99.58H99.5999H99.62H99.64H99.6599H99.68H99.7H99.7199L99.74 44.01H99.7599L99.78 44.02H99.8L99.8199 44.04H99.84L99.86 44.06H99.8799L99.9 44.08H99.92L99.93 44.11H99.9399L99.95 44.14V44.16L99.9699 44.18L99.9399 44.21Z" fill="#808285"/>
<path d="M116.2 51.98L116.44 51.19H116.46L116.48 51.21H116.5L116.52 51.23H116.54L116.56 51.25H116.58L116.6 51.27H116.62L116.63 51.3H116.64L116.65 51.33V51.35L116.67 51.37V51.39L116.69 51.41V51.43L116.71 51.45V51.47L116.72 51.49V51.51L116.73 51.53V51.55V51.57V51.59V51.61V51.65V51.67V51.69V51.71V51.73L116.72 51.75V51.77L116.7 51.79V51.81L116.68 51.83V51.85L116.66 51.87V51.89L116.64 51.91H116.62L116.61 51.94H116.59L116.57 51.96H116.55L116.53 51.98H116.51L116.49 52H116.47L116.45 52.01H116.43L116.41 52.02H116.39H116.37H116.35H116.33H116.31H116.29H116.27H116.25H116.23H116.21H116.19L116.2 51.98ZM107.36 48.46H107.59L116.44 51.2L116.2 51.99L107.35 49.25V48.46H107.36ZM107.6 48.46L107.36 49.25H107.34L107.32 49.24H107.3L107.28 49.22H107.26L107.24 49.2H107.22L107.21 49.18H107.19L107.18 49.15H107.17L107.16 49.12V49.1L107.14 49.08V49.06L107.12 49.04V49.02L107.1 49V48.98L107.09 48.96V48.94L107.08 48.92V48.9V48.88V48.86V48.84V48.8V48.78V48.76V48.74V48.72L107.09 48.7V48.68L107.11 48.66V48.64L107.13 48.62V48.6L107.15 48.58V48.56L107.18 48.54H107.19L107.2 48.51H107.21L107.23 48.49H107.25L107.27 48.47H107.29L107.31 48.45H107.33L107.35 48.44H107.37L107.39 48.43H107.41H107.43H107.45H107.47H107.49H107.51H107.53H107.55H107.57H107.59H107.61L107.6 48.46ZM98.15 51.09L107.36 48.46L107.59 49.25L98.38 51.88L98.15 51.09ZM98.15 51.09L98.38 51.88H98.36H98.34H98.32H98.3H98.28H98.26H98.24H98.22H98.2H98.18H98.16L98.14 51.87H98.12L98.1 51.86H98.08L98.06 51.84H98.04L98.02 51.82H98L97.98 51.8H97.96L97.95 51.77H97.94L97.93 51.74V51.72L97.91 51.7V51.68L97.89 51.66V51.64L97.87 51.62V51.6L97.86 51.58V51.56L97.85 51.54V51.52V51.5V51.42V51.4V51.38V51.36V51.34L97.86 51.32V51.3L97.88 51.28V51.26L97.9 51.24V51.22L97.92 51.2V51.18L97.95 51.17H97.96L97.97 51.14H97.99L98 51.12H98.02L98.04 51.1H98.06L98.08 51.08H98.1L98.12 51.06H98.14L98.15 51.09Z" fill="#808285"/>
<path d="M114.42 38.38L113.72 37.94V37.92L113.74 37.9V37.88L113.77 37.87H113.78L113.79 37.84H113.81L113.83 37.82H113.85L113.87 37.8H113.89L113.91 37.78H113.93L113.95 37.77H113.97L113.99 37.76H114.01H114.03H114.05H114.07H114.09H114.11H114.13H114.15H114.17H114.19H114.21L114.23 37.77H114.25L114.27 37.79H114.29L114.31 37.81H114.33L114.35 37.83H114.37L114.38 37.86V37.88L114.41 37.9V37.92L114.43 37.94V37.96L114.45 37.98V38L114.47 38.02V38.04L114.49 38.06V38.08V38.1V38.12V38.14V38.16V38.18V38.2V38.22V38.24V38.26V38.28V38.3V38.32L114.48 38.34V38.36L114.46 38.38V38.4L114.44 38.42L114.42 38.38ZM107.09 48.85L107.78 48.4H107.08L107.29 48.07L107.5 47.74L107.71 47.41L107.92 47.08L108.13 46.75L108.34 46.42L108.55 46.09L108.76 45.76L108.97 45.43L109.18 45.1L109.39 44.77L109.6 44.44L109.81 44.11L110.02 43.78L110.23 43.45L110.44 43.12L110.65 42.79L110.86 42.46L111.07 42.13L111.28 41.8L111.49 41.47L111.7 41.14L111.91 40.81L112.12 40.48L112.33 40.15L112.54 39.82L112.75 39.49L112.96 39.16L113.17 38.83L113.38 38.5L113.59 38.17L113.8 37.84L114.5 38.28L114.29 38.61L114.08 38.94L113.87 39.27L113.66 39.6L113.45 39.93L113.24 40.26L113.03 40.59L112.82 40.92L112.61 41.25L112.4 41.58L112.19 41.91L111.98 42.24L111.77 42.57L111.56 42.9L111.35 43.23L111.14 43.56L110.93 43.89L110.72 44.22L110.51 44.55L110.3 44.88L110.09 45.21L109.88 45.54L109.67 45.87L109.46 46.2L109.25 46.53L109.04 46.86L108.83 47.19L108.62 47.52L108.41 47.85L108.2 48.18L107.99 48.51L107.78 48.84H107.08L107.09 48.85ZM107.09 48.41L107.79 48.85V48.87L107.77 48.89V48.91L107.74 48.92H107.72L107.71 48.95H107.69L107.67 48.97H107.65L107.63 48.99H107.61L107.59 49.01H107.57L107.55 49.02H107.53L107.51 49.03H107.49H107.47H107.45H107.43H107.39H107.37H107.35H107.33H107.31L107.29 49.02H107.27L107.25 49.01H107.23L107.21 48.99H107.19L107.17 48.97H107.15L107.13 48.94H107.11L107.1 48.91H107.09L107.08 48.88V48.86L107.06 48.84V48.82L107.04 48.8V48.78L107.02 48.76V48.74L107.01 48.72V48.7V48.68V48.66V48.64V48.62V48.6V48.58V48.56V48.54V48.52V48.5L107.02 48.48V48.46L107.03 48.44V48.42L107.05 48.4V48.38H107.06L107.09 48.41ZM100.37 38.39L101.06 37.94L101.27 38.27L101.48 38.6L101.69 38.93L101.9 39.26L102.11 39.59L102.32 39.92L102.53 40.25L102.74 40.58L102.95 40.91L103.16 41.24L103.37 41.57L103.58 41.9L103.79 42.23L104 42.56L104.21 42.89L104.42 43.22L104.63 43.55L104.84 43.88L105.05 44.21L105.26 44.54L105.47 44.87L105.68 45.2L105.89 45.53L106.1 45.86L106.31 46.19L106.52 46.52L106.73 46.85L106.94 47.18L107.15 47.51L107.36 47.84L107.57 48.17L107.78 48.5L107.09 48.95L106.88 48.62L106.67 48.29L106.46 47.96L106.25 47.63L106.04 47.3L105.83 46.97L105.62 46.64L105.41 46.31L105.2 45.98L104.99 45.65L104.78 45.32L104.57 44.99L104.36 44.66L104.15 44.33L103.94 44L103.73 43.67L103.52 43.34L103.31 43.01L103.1 42.68L102.89 42.35L102.68 42.02L102.47 41.69L102.26 41.36L102.05 41.03L101.84 40.7L101.63 40.37L101.42 40.04L101.21 39.71L101 39.38L100.79 39.05L100.58 38.72L100.37 38.39ZM101.06 37.94L100.37 38.39V38.37L100.35 38.35V38.33L100.33 38.31V38.29L100.32 38.27V38.25V38.23V38.21V38.19V38.17V38.15V38.13V38.11V38.09V38.07V38.05L100.33 38.03V38.01L100.34 37.99V37.97L100.36 37.95V37.93L100.38 37.91V37.89L100.4 37.87V37.85L100.43 37.84H100.44L100.46 37.81H100.48L100.5 37.79H100.52L100.54 37.77H100.56L100.58 37.75H100.6L100.62 37.74H100.64H100.66H100.68H100.7H100.72H100.74H100.76H100.78H100.8H100.82H100.84L100.86 37.75H100.88L100.9 37.76H100.92L100.94 37.78H100.96L100.98 37.8H101L101.02 37.82H101.03L101.04 37.85V37.87L101.07 37.89V37.91L101.1 37.93L101.06 37.94Z" fill="#808285"/>
<path d="M114.89 44.67L115.13 43.88H115.15L115.17 43.89H115.19L115.21 43.91H115.23L115.25 43.93H115.27L115.29 43.95H115.3L115.31 43.98V44L115.34 44.02V44.04L115.36 44.06V44.08L115.38 44.1V44.12L115.4 44.14V44.16L115.41 44.18V44.2L115.42 44.22V44.24V44.26V44.28V44.3V44.34V44.36V44.38V44.4V44.42L115.41 44.44V44.46L115.39 44.48V44.5L115.37 44.52V44.54L115.35 44.56V44.58L115.32 44.6H115.31L115.29 44.63H115.27L115.26 44.66H115.24L115.22 44.68H115.2L115.18 44.7H115.16L115.14 44.71H115.12L115.1 44.72H115.08H115.06H115.04H115.02H115H114.98H114.96H114.94H114.92H114.9H114.88L114.89 44.67ZM107.56 42.33L107.33 41.54H107.56L107.79 41.62L108.03 41.69L108.27 41.76L108.51 41.83L108.75 41.9L108.99 41.97L109.23 42.04L109.47 42.11L109.71 42.18L109.95 42.25L110.19 42.32L110.43 42.39L110.67 42.46L110.91 42.53L111.15 42.6L111.39 42.67L111.63 42.74L111.86 42.81L112.1 42.88L112.34 42.95L112.58 43.02L112.82 43.09L113.06 43.16L113.3 43.23L113.54 43.3L113.78 43.37L114.02 43.44L114.26 43.51L114.5 43.58L114.74 43.65L114.98 43.72L115.22 43.79L114.98 44.58L114.74 44.51L114.5 44.44L114.26 44.37L114.02 44.3L113.78 44.23L113.54 44.16L113.3 44.09L113.06 44.02L112.82 43.95L112.58 43.88L112.34 43.81L112.1 43.74L111.86 43.67L111.62 43.6L111.38 43.53L111.14 43.46L110.9 43.39L110.66 43.32L110.42 43.25L110.18 43.18L109.95 43.11L109.71 43.04L109.47 42.97L109.23 42.9L108.99 42.83L108.76 42.76L108.52 42.69L108.28 42.62L108.04 42.55L107.8 42.48L107.56 42.41L107.32 42.34H107.55L107.56 42.33ZM107.57 41.54L107.33 42.33H107.31L107.29 42.32H107.27L107.25 42.3H107.23L107.21 42.28H107.19L107.17 42.26H107.16L107.14 42.23H107.13L107.12 42.2V42.18L107.1 42.16V42.14L107.08 42.12V42.1L107.06 42.08V42.06L107.05 42.04V42.02V42V41.98V41.96V41.94V41.92V41.88V41.86V41.84V41.82V41.8L107.06 41.78V41.76L107.08 41.74V41.72L107.1 41.7V41.68L107.12 41.66V41.64L107.15 41.63H107.16L107.17 41.6H107.18L107.2 41.58H107.22L107.24 41.56H107.26L107.28 41.54H107.3L107.32 41.53H107.34L107.36 41.52H107.38H107.4H107.42H107.44H107.46H107.48H107.5H107.52H107.54H107.56H107.58L107.57 41.54ZM99.69 44.58L99.4601 43.79L99.7101 43.72L99.9601 43.65L100.21 43.58L100.46 43.51L100.71 43.44L100.96 43.37L101.21 43.3L101.46 43.23L101.71 43.16L101.96 43.09L102.21 43.02L102.46 42.95L102.71 42.88L102.96 42.81L103.21 42.74L103.46 42.67L103.71 42.6L103.96 42.53L104.21 42.46L104.46 42.39L104.71 42.32L104.96 42.25L105.21 42.18L105.46 42.11L105.71 42.04L105.96 41.97L106.21 41.9L106.46 41.83L106.71 41.76L106.96 41.69L107.21 41.62L107.46 41.55L107.69 42.34L107.44 42.41L107.19 42.48L106.94 42.55L106.69 42.62L106.44 42.69L106.19 42.76L105.94 42.83L105.69 42.9L105.44 42.97L105.19 43.04L104.94 43.11L104.69 43.18L104.44 43.25L104.19 43.32L103.94 43.39L103.69 43.46L103.44 43.53L103.19 43.6L102.94 43.67L102.69 43.74L102.44 43.81L102.19 43.88L101.94 43.95L101.69 44.02L101.44 44.09L101.19 44.16L100.94 44.23L100.69 44.3L100.44 44.37L100.19 44.44L99.94 44.51L99.69 44.58ZM99.4601 43.79L99.69 44.58H99.67H99.6501H99.63H99.61H99.5901H99.57H99.55H99.5301H99.51H99.4901H99.47L99.45 44.57H99.4301L99.41 44.56H99.39L99.3701 44.54H99.35L99.33 44.52H99.3101L99.29 44.5H99.2801L99.2701 44.47H99.26L99.2501 44.44V44.42L99.23 44.4V44.38L99.2101 44.36V44.34L99.19 44.32V44.3L99.1801 44.28V44.26V44.24V44.22V44.2V44.12V44.1V44.08V44.06V44.04L99.19 44.02V44L99.2 43.98V43.96L99.22 43.94V43.92L99.2401 43.9V43.88L99.2701 43.86H99.2801L99.3 43.83H99.3101L99.33 43.81H99.35L99.3701 43.79H99.39L99.41 43.77H99.4301L99.45 43.75H99.47L99.4601 43.79Z" fill="#808285"/>
<path d="M113.26 32.11L112.56 31.67V31.65L112.58 31.63V31.61L112.61 31.59H112.62L112.63 31.56H112.65L112.67 31.54H112.69L112.71 31.52H112.73L112.75 31.5H112.77L112.79 31.49H112.81L112.83 31.48H112.85H112.87H112.89H112.91H112.95H112.97H112.99H113.01H113.03L113.05 31.49H113.07L113.09 31.5H113.11L113.13 31.52H113.15L113.17 31.54H113.19L113.21 31.57H113.23L113.24 31.6H113.25L113.26 31.63V31.65L113.28 31.67V31.69L113.3 31.71V31.73L113.32 31.75V31.77L113.33 31.79V31.81V31.83V31.85V31.87V31.89V31.91V31.95V31.97V31.99V32.01V32.03L113.32 32.05V32.07L113.3 32.09V32.11L113.28 32.13L113.26 32.11ZM107.07 40.79L107.76 40.34H107.06L107.23 40.07L107.4 39.8L107.57 39.53L107.74 39.26L107.91 38.99L108.08 38.72L108.25 38.45L108.42 38.18L108.59 37.91L108.76 37.64L108.93 37.37L109.1 37.1L109.27 36.83L109.44 36.56L109.61 36.29L109.78 36.02L109.95 35.75L110.12 35.48L110.29 35.21L110.46 34.94L110.63 34.67L110.8 34.4L110.97 34.13L111.14 33.86L111.31 33.59L111.48 33.32L111.65 33.05L111.82 32.78L111.99 32.51L112.16 32.24L112.33 31.97L112.5 31.7L113.2 32.14L113.03 32.41L112.86 32.68L112.69 32.95L112.52 33.22L112.35 33.49L112.18 33.76L112.01 34.03L111.84 34.3L111.67 34.57L111.5 34.84L111.33 35.11L111.16 35.38L110.99 35.65L110.82 35.92L110.65 36.19L110.48 36.46L110.31 36.73L110.14 37L109.97 37.27L109.8 37.54L109.63 37.81L109.46 38.08L109.29 38.35L109.12 38.62L108.95 38.89L108.78 39.16L108.61 39.43L108.44 39.7L108.27 39.97L108.1 40.24L107.93 40.51L107.76 40.78H107.07V40.79ZM107.07 40.35L107.77 40.79V40.81L107.75 40.83V40.85L107.72 40.86H107.71L107.7 40.89H107.68L107.66 40.91H107.64L107.62 40.93H107.6L107.58 40.95H107.56L107.54 40.96H107.52L107.5 40.97H107.48H107.46H107.44H107.42H107.38H107.36H107.34H107.32H107.3L107.28 40.96H107.26L107.24 40.94H107.22L107.2 40.92H107.18L107.16 40.9H107.14L107.12 40.87H107.11L107.1 40.84V40.82L107.07 40.8V40.78L107.05 40.76V40.74L107.03 40.72V40.7L107.01 40.68V40.66L107 40.64V40.62V40.6V40.58V40.56V40.48V40.46V40.44V40.42V40.4L107.01 40.38V40.36L107.03 40.34V40.32L107.05 40.3L107.07 40.35ZM101.49 32.11L102.18 31.67L102.35 31.94L102.52 32.21L102.69 32.48L102.86 32.75L103.03 33.02L103.2 33.29L103.38 33.56L103.55 33.83L103.72 34.1L103.89 34.37L104.06 34.64L104.23 34.91L104.4 35.18L104.57 35.45L104.74 35.72L104.91 35.99L105.08 36.26L105.25 36.53L105.42 36.8L105.6 37.07L105.77 37.34L105.94 37.61L106.11 37.88L106.28 38.15L106.45 38.42L106.62 38.69L106.79 38.96L106.96 39.23L107.13 39.5L107.3 39.77L107.48 40.04L107.65 40.31L106.96 40.76L106.79 40.49L106.62 40.22L106.44 39.95L106.27 39.68L106.09 39.41L105.92 39.14L105.75 38.87L105.58 38.6L105.41 38.33L105.24 38.06L105.06 37.79L104.89 37.52L104.72 37.25L104.55 36.98L104.38 36.71L104.2 36.44L104.03 36.17L103.86 35.9L103.68 35.63L103.51 35.36L103.34 35.09L103.17 34.82L103 34.55L102.83 34.28L102.66 34.01L102.49 33.74L102.31 33.47L102.14 33.2L101.97 32.93L101.79 32.66L101.62 32.39L101.45 32.12L101.49 32.11ZM102.18 31.67L101.49 32.11V32.09L101.47 32.07V32.05L101.45 32.03V32.01L101.44 31.99V31.97V31.95V31.93V31.91V31.89V31.87V31.85V31.83V31.81V31.79V31.77V31.75V31.73L101.45 31.71V31.69L101.47 31.67V31.65L101.49 31.63V31.61L101.51 31.59V31.57L101.54 31.56H101.56L101.57 31.53H101.59L101.61 31.51H101.63L101.65 31.49H101.67L101.69 31.47H101.71L101.73 31.46H101.75H101.77H101.79H101.81H101.83H101.85H101.87H101.89H101.91H101.93H101.95L101.97 31.47H101.99L102.01 31.48H102.03L102.05 31.5H102.07L102.09 31.52H102.11L102.13 31.54H102.15L102.16 31.57V31.59L102.19 31.61V31.63L102.21 31.65L102.18 31.67Z" fill="#808285"/>
<path d="M113.57 37.36L113.81 36.57H113.83L113.85 36.58H113.87L113.89 36.6H113.91L113.93 36.62H113.95L113.97 36.64H113.99L114 36.67H114.01L114.02 36.7V36.72L114.04 36.74V36.76L114.06 36.78V36.8L114.08 36.82V36.84L114.09 36.86V36.88L114.1 36.9V36.92V36.94V36.96V36.98V37.02V37.04V37.06V37.08V37.1L114.09 37.12V37.14L114.07 37.16V37.18L114.05 37.2V37.22L114.03 37.24V37.26L114 37.28H113.99L113.98 37.31H113.97L113.95 37.33H113.93L113.91 37.35H113.89L113.87 37.37H113.85L113.83 37.39H113.81L113.79 37.4H113.77H113.75H113.73H113.71H113.69H113.67H113.65H113.63H113.61H113.59H113.57V37.36ZM107.53 35.42L107.3 34.63H107.53L107.73 34.69L107.93 34.75L108.13 34.81L108.33 34.87L108.53 34.93L108.72 34.99L108.92 35.05L109.12 35.11L109.32 35.17L109.52 35.23L109.72 35.29L109.92 35.35L110.12 35.41L110.32 35.47L110.52 35.53L110.72 35.59L110.92 35.65L111.12 35.71L111.32 35.77L111.52 35.83L111.72 35.89L111.92 35.95L112.12 36.01L112.32 36.07L112.52 36.13L112.72 36.19L112.92 36.25L113.12 36.31L113.32 36.37L113.52 36.43L113.72 36.49L113.92 36.55L113.68 37.34L113.48 37.28L113.28 37.22L113.08 37.16L112.88 37.1L112.68 37.04L112.48 36.98L112.28 36.92L112.08 36.86L111.88 36.8L111.68 36.74L111.48 36.68L111.28 36.62L111.08 36.56L110.88 36.5L110.68 36.44L110.48 36.38L110.28 36.32L110.08 36.26L109.88 36.2L109.68 36.14L109.48 36.08L109.28 36.02L109.08 35.96L108.89 35.9L108.69 35.84L108.49 35.78L108.29 35.72L108.09 35.66L107.89 35.6L107.69 35.54L107.49 35.48L107.29 35.42H107.52H107.53ZM107.54 34.63L107.3 35.42H107.28L107.26 35.41H107.24L107.22 35.39H107.2L107.18 35.37H107.16L107.15 35.35H107.13L107.12 35.32H107.11L107.1 35.29V35.27L107.08 35.25V35.23L107.06 35.21V35.19L107.04 35.17V35.15L107.03 35.13V35.11L107.02 35.09V35.07V35.05V35.03V35.01V34.99V34.97V34.95V34.93V34.91L107.03 34.89V34.87L107.04 34.85V34.83L107.06 34.81V34.79L107.08 34.77V34.75L107.11 34.73V34.71L107.14 34.7H107.16L107.17 34.67H107.19L107.21 34.65H107.23L107.25 34.63H107.27L107.29 34.61H107.31L107.33 34.6H107.35H107.37H107.39H107.41H107.43H107.45H107.47H107.49H107.51H107.53H107.55L107.57 34.61L107.54 34.63ZM101 37.28L100.77 36.49L100.97 36.43L101.18 36.37L101.39 36.31L101.59 36.25L101.8 36.19L102 36.13L102.21 36.07L102.41 36.01L102.61 35.95L102.82 35.89L103.03 35.83L103.23 35.77L103.44 35.71L103.64 35.65L103.84 35.59L104.05 35.53L104.25 35.47L104.46 35.41L104.66 35.35L104.86 35.29L105.06 35.23L105.26 35.17L105.46 35.11L105.66 35.05L105.86 34.99L106.06 34.93L106.26 34.87L106.46 34.81L106.66 34.75L106.86 34.69L107.06 34.63L107.26 34.57L107.49 35.36L107.29 35.42L107.09 35.48L106.89 35.54L106.68 35.6L106.48 35.66L106.28 35.72L106.08 35.78L105.88 35.84L105.68 35.9L105.48 35.96L105.28 36.02L105.08 36.08L104.88 36.14L104.68 36.2L104.48 36.26L104.28 36.32L104.08 36.38L103.88 36.44L103.67 36.5L103.46 36.56L103.26 36.62L103.06 36.68L102.85 36.74L102.65 36.8L102.44 36.86L102.24 36.92L102.03 36.98L101.82 37.04L101.62 37.1L101.42 37.16L101.21 37.22L101.01 37.28H101ZM100.78 36.49L101.01 37.28H100.99H100.97H100.95H100.93H100.91H100.89H100.87H100.85H100.83H100.81H100.79L100.77 37.27H100.75L100.73 37.26H100.71L100.69 37.24H100.67L100.65 37.22H100.63L100.62 37.2H100.6L100.59 37.17H100.58L100.57 37.14V37.12L100.55 37.1V37.08L100.53 37.06V37.04L100.51 37.02V37L100.5 36.98V36.96L100.49 36.94V36.92V36.9V36.88V36.86V36.84V36.82V36.8V36.78V36.76L100.5 36.74V36.72L100.51 36.7V36.68L100.53 36.66V36.64L100.55 36.62V36.6L100.57 36.58H100.58L100.59 36.55H100.6L100.62 36.52H100.64L100.66 36.5H100.68L100.7 36.48H100.72L100.74 36.46H100.76L100.78 36.45V36.49Z" fill="#808285"/>
<path d="M112.11 25.84L111.41 25.4V25.38L111.43 25.36V25.34L111.46 25.32H111.47L111.48 25.29H111.5L111.52 25.27H111.54L111.56 25.25H111.58L111.6 25.23H111.62L111.64 25.22H111.66L111.68 25.21H111.7H111.72H111.74H111.76H111.78H111.8H111.82H111.84H111.86H111.88H111.9L111.92 25.22H111.94L111.96 25.24H111.98L112 25.26H112.02L112.04 25.28H112.06L112.08 25.31H112.09L112.1 25.34V25.36L112.13 25.38V25.4L112.15 25.42V25.44L112.17 25.46V25.48L112.18 25.5V25.52L112.19 25.54V25.56V25.58V25.6V25.62V25.66V25.68V25.7V25.72V25.74V25.76V25.78L112.17 25.8V25.82L112.15 25.84V25.86H112.14L112.11 25.84ZM107.04 32.74L107.73 32.29H107.03L107.17 32.08L107.31 31.87L107.45 31.65L107.59 31.43L107.73 31.21L107.87 30.99L108.01 30.77L108.15 30.56L108.29 30.34L108.43 30.12L108.57 29.9L108.71 29.68L108.85 29.47L108.99 29.25L109.13 29.03L109.27 28.81L109.41 28.59L109.55 28.37L109.69 28.16L109.83 27.94L109.97 27.72L110.11 27.5L110.25 27.28L110.39 27.06L110.53 26.84L110.67 26.62L110.81 26.41L110.95 26.19L111.09 25.97L111.23 25.75L111.37 25.53L111.51 25.31L112.21 25.75L112.07 25.97L111.93 26.19L111.79 26.41L111.65 26.62L111.51 26.84L111.37 27.06L111.23 27.28L111.09 27.5L110.95 27.72L110.81 27.94L110.67 28.16L110.53 28.37L110.39 28.59L110.25 28.81L110.11 29.03L109.97 29.25L109.83 29.47L109.69 29.68L109.55 29.9L109.41 30.12L109.27 30.34L109.13 30.56L108.99 30.77L108.85 30.99L108.71 31.21L108.57 31.43L108.43 31.65L108.29 31.87L108.15 32.08L108.01 32.3L107.87 32.52L107.73 32.74H107.04ZM107.04 32.3L107.74 32.74V32.76L107.72 32.78V32.8L107.69 32.81H107.67L107.66 32.84H107.64L107.62 32.86H107.6L107.58 32.88H107.56L107.54 32.9H107.52L107.5 32.91H107.48L107.46 32.92H107.44H107.42H107.4H107.38H107.36H107.34H107.32H107.3H107.28H107.26H107.24L107.22 32.91H107.2L107.18 32.89H107.16L107.14 32.87H107.12L107.1 32.85H107.08L107.07 32.82H107.06L107.05 32.79V32.77L107.03 32.75V32.73L107.01 32.71V32.69L106.99 32.67V32.65L106.98 32.63V32.61L106.97 32.59V32.57V32.55V32.53V32.51V32.47V32.45V32.43V32.41V32.39L106.98 32.37V32.35L106.99 32.33V32.31L107.01 32.29V32.27H107.02L107.04 32.3ZM102.61 25.84L103.3 25.4L103.44 25.62L103.58 25.84L103.72 26.06L103.86 26.28L104 26.5L104.14 26.72L104.28 26.94L104.42 27.16L104.56 27.38L104.7 27.6L104.84 27.82L104.98 28.04L105.12 28.26L105.26 28.48L105.4 28.7L105.54 28.92L105.68 29.14L105.82 29.36L105.96 29.58L106.1 29.8L106.24 30.02L106.38 30.24L106.52 30.46L106.66 30.68L106.8 30.9L106.94 31.12L107.08 31.34L107.22 31.56L107.36 31.78L107.5 32L107.64 32.22L107.78 32.44L107.09 32.89L106.95 32.67L106.81 32.45L106.67 32.23L106.53 32.01L106.39 31.79L106.25 31.57L106.11 31.35L105.97 31.13L105.83 30.91L105.69 30.69L105.55 30.47L105.41 30.25L105.27 30.03L105.13 29.81L104.99 29.59L104.85 29.37L104.71 29.15L104.57 28.93L104.43 28.71L104.29 28.49L104.15 28.27L104.01 28.05L103.87 27.83L103.73 27.61L103.59 27.39L103.45 27.17L103.31 26.95L103.17 26.73L103.03 26.51L102.89 26.29L102.75 26.07L102.61 25.85V25.84ZM103.3 25.39L102.61 25.83V25.81L102.59 25.79V25.77L102.57 25.75V25.73L102.56 25.71V25.69V25.67V25.65V25.63V25.61V25.59V25.57V25.55V25.53V25.51V25.49V25.47V25.45L102.57 25.43V25.41L102.59 25.39V25.37L102.61 25.35V25.33L102.63 25.31V25.29L102.66 25.28H102.68L102.69 25.25H102.71L102.73 25.23H102.75L102.77 25.21H102.79L102.81 25.19H102.83L102.85 25.18H102.87H102.89H102.91H102.93H102.95H102.97H102.99H103.01H103.03H103.05H103.07L103.09 25.19H103.11L103.13 25.2H103.15L103.17 25.22H103.19L103.21 25.24H103.23L103.24 25.26H103.26L103.28 25.29H103.29L103.3 25.32V25.34L103.32 25.36L103.3 25.39Z" fill="#808285"/>
<path d="M112.26 30.04L112.5 29.25H112.52L112.54 29.26H112.56L112.58 29.28H112.6L112.62 29.3H112.64L112.66 29.32H112.67L112.68 29.35H112.69L112.7 29.38V29.4L112.72 29.42V29.44L112.74 29.46V29.48L112.76 29.5V29.52L112.77 29.54V29.56V29.58V29.6V29.62V29.64V29.66V29.7V29.72V29.74V29.76V29.78L112.76 29.8V29.82L112.74 29.84V29.86L112.72 29.88V29.9L112.7 29.92V29.94L112.67 29.96H112.66L112.65 29.99H112.63L112.62 30.01H112.6L112.58 30.03H112.56L112.54 30.05H112.52L112.5 30.07H112.48L112.46 30.08H112.44H112.42H112.4H112.38H112.36H112.34H112.32H112.3H112.28H112.26H112.24L112.26 30.04ZM107.51 28.5L107.28 27.71H107.51L107.67 27.76L107.83 27.81L107.99 27.86L108.15 27.91L108.31 27.96L108.47 28.01L108.63 28.06L108.79 28.11L108.95 28.16L109.11 28.21L109.27 28.26L109.43 28.31L109.59 28.36L109.75 28.41L109.91 28.46L110.07 28.51L110.23 28.56L110.39 28.61L110.55 28.66L110.7 28.71L110.86 28.76L111.02 28.81L111.18 28.86L111.34 28.91L111.5 28.96L111.66 29.01L111.82 29.06L111.98 29.11L112.14 29.16L112.3 29.21L112.45 29.26L112.61 29.31L112.37 30.1L112.21 30.05L112.05 30L111.89 29.95L111.73 29.9L111.57 29.85L111.41 29.8L111.25 29.75L111.09 29.7L110.93 29.65L110.77 29.6L110.61 29.55L110.45 29.5L110.29 29.45L110.13 29.4L109.97 29.35L109.81 29.3L109.65 29.25L109.49 29.2L109.33 29.15L109.17 29.1L109.01 29.05L108.85 29L108.69 28.95L108.53 28.9L108.37 28.85L108.21 28.8L108.05 28.75L107.89 28.7L107.73 28.65L107.57 28.6L107.41 28.55L107.25 28.5H107.48H107.51ZM107.52 27.71L107.28 28.5H107.26L107.24 28.49H107.22L107.2 28.47H107.18L107.16 28.45H107.14L107.12 28.43H107.11L107.1 28.4V28.38L107.07 28.36V28.34L107.05 28.32V28.3L107.03 28.28V28.26L107.01 28.24V28.22L107 28.2V28.18L106.99 28.16V28.14V28.12V28.1V28.08V28.04V28.02V28V27.98V27.96L107 27.94V27.92L107.02 27.9V27.88L107.04 27.86V27.84L107.06 27.82V27.8L107.09 27.79H107.1L107.11 27.76H107.13L107.15 27.74H107.17L107.19 27.72H107.21L107.23 27.7H107.25L107.27 27.68H107.29L107.31 27.67H107.33H107.35H107.37H107.39H107.41H107.43H107.45H107.47H107.49H107.51H107.53L107.52 27.71ZM102.32 29.98L102.1 29.19L102.26 29.14L102.42 29.09L102.58 29.04L102.74 28.99L102.9 28.94L103.06 28.89L103.22 28.84L103.38 28.79L103.54 28.74L103.7 28.69L103.86 28.64L104.02 28.59L104.18 28.54L104.34 28.49L104.5 28.44L104.66 28.39L104.82 28.34L104.98 28.29L105.14 28.24L105.3 28.19L105.46 28.14L105.62 28.09L105.78 28.04L105.94 27.99L106.1 27.94L106.26 27.89L106.42 27.84L106.58 27.79L106.74 27.74L106.9 27.69L107.06 27.64L107.22 27.59L107.45 28.38L107.29 28.43L107.13 28.48L106.97 28.53L106.81 28.58L106.65 28.63L106.49 28.68L106.33 28.73L106.17 28.78L106.01 28.83L105.85 28.88L105.69 28.93L105.53 28.98L105.37 29.03L105.21 29.08L105.05 29.13L104.89 29.18L104.73 29.23L104.57 29.28L104.41 29.33L104.25 29.38L104.09 29.43L103.93 29.48L103.77 29.53L103.61 29.58L103.45 29.63L103.29 29.68L103.13 29.73L102.97 29.78L102.81 29.83L102.65 29.88L102.49 29.93L102.33 29.98H102.32ZM102.09 29.19L102.31 29.98H102.29H102.27H102.25H102.23H102.21H102.19H102.17H102.15H102.13H102.11H102.09L102.07 29.97H102.05L102.03 29.96H102.01L101.99 29.94H101.97L101.95 29.92H101.93L101.91 29.9H101.9L101.89 29.87H101.88L101.87 29.84V29.82L101.85 29.8V29.78L101.83 29.76V29.74L101.81 29.72V29.7L101.8 29.68V29.66V29.64V29.62V29.6V29.58V29.56V29.54V29.52V29.5V29.48V29.46L101.81 29.44V29.42L101.82 29.4V29.38L101.84 29.36V29.34L101.86 29.32V29.3L101.88 29.28H101.89L101.9 29.25H101.91L101.92 29.22H101.94L101.96 29.2H101.98L102 29.18H102.02L102.04 29.16H102.06L102.08 29.15L102.09 29.19Z" fill="#808285"/>
<path d="M110.96 19.57L110.26 19.13V19.11L110.29 19.09V19.07L110.32 19.06H110.34L110.36 19.03H110.37L110.39 19.01H110.41L110.43 18.99H110.45L110.47 18.97H110.49L110.51 18.96H110.53L110.55 18.95H110.57H110.59H110.61H110.63H110.65H110.67H110.69H110.71H110.73H110.75H110.77L110.79 18.96H110.81L110.83 18.98H110.85L110.87 19H110.89L110.91 19.02H110.93L110.94 19.05H110.95L110.96 19.08V19.1L110.99 19.12V19.14L111.01 19.16V19.18L111.03 19.2V19.22L111.04 19.24V19.26L111.05 19.28V19.3V19.32V19.34V19.36V19.4V19.42V19.44V19.46V19.48L111.04 19.5V19.52L111.03 19.54V19.56L111.01 19.58V19.6L110.96 19.57ZM107.02 24.68V24.24L110.26 19.12L110.96 19.56L107.72 24.68H107.02ZM107.02 24.24L107.72 24.68V24.7L107.69 24.72V24.74L107.66 24.76H107.64L107.63 24.79H107.61L107.59 24.81H107.57L107.55 24.83H107.53L107.51 24.85H107.49L107.47 24.86H107.45L107.43 24.87H107.41H107.39H107.37H107.35H107.33H107.31H107.29H107.27H107.25H107.23H107.21L107.19 24.86H107.17L107.15 24.84H107.13L107.11 24.82H107.09L107.07 24.8H107.05L107.04 24.77H107.02L107.01 24.74V24.72L106.99 24.7V24.68L106.97 24.66V24.64L106.95 24.62V24.6L106.94 24.58V24.56L106.93 24.54V24.52V24.5V24.48V24.46V24.42V24.4V24.38V24.36V24.34L106.94 24.32V24.3L106.95 24.28V24.26L106.97 24.24V24.22H106.98L107.02 24.24ZM104.42 19.12L107.71 24.24L107.02 24.68L103.73 19.56L104.42 19.11V19.12ZM104.42 19.12L103.73 19.57V19.55L103.71 19.53V19.51L103.69 19.49V19.47L103.68 19.45V19.43V19.41V19.39V19.37V19.35V19.33V19.31V19.29V19.27V19.25V19.23L103.69 19.21V19.19L103.7 19.17V19.15L103.72 19.13V19.11L103.74 19.09V19.07L103.77 19.05V19.03L103.8 19.02H103.82L103.83 18.99H103.85L103.87 18.97H103.89L103.91 18.95H103.93L103.95 18.93H103.97L103.99 18.92H104.01H104.03H104.05H104.07H104.09H104.11H104.13H104.15H104.17H104.19H104.21L104.23 18.93H104.25L104.27 18.94H104.29L104.31 18.96H104.33L104.35 18.98H104.37L104.39 19H104.41L104.42 19.03V19.05L104.45 19.07V19.09L104.48 19.11L104.42 19.12Z" fill="#808285"/>
<path d="M110.95 22.73L111.19 21.94H111.21L111.23 21.95H111.25L111.27 21.97H111.29L111.31 21.99H111.33L111.35 22.01H111.37L111.38 22.04V22.06L111.41 22.08V22.1L111.43 22.12V22.14L111.45 22.16V22.18L111.47 22.2V22.22L111.48 22.24V22.26V22.28V22.3V22.32V22.34V22.36V22.4V22.42V22.44V22.46V22.48L111.47 22.5V22.52L111.45 22.54V22.56L111.43 22.58V22.6L111.41 22.62V22.64L111.38 22.65H111.37L111.36 22.68H111.35L111.33 22.71H111.31L111.29 22.73H111.27L111.25 22.75H111.23L111.21 22.77H111.19L111.17 22.78H111.15H111.13H111.11H111.09H111.07H111.05H111.03H111.01H110.99H110.97H110.95V22.73ZM107.26 20.79H107.49L111.19 21.94L110.95 22.73L107.25 21.59V20.8L107.26 20.79ZM107.49 20.8L107.25 21.59H107.23L107.21 21.58H107.19L107.17 21.56H107.15L107.13 21.54H107.11L107.09 21.52H107.08L107.07 21.49H107.06L107.05 21.46V21.44L107.03 21.42V21.4L107.01 21.38V21.36L106.99 21.34V21.32L106.98 21.3V21.28V21.26V21.24V21.22V21.2V21.18V21.16V21.14V21.12V21.1V21.08V21.06V21.04L107 21.02V21L107.02 20.98V20.96L107.04 20.94V20.92L107.06 20.9V20.88L107.09 20.87H107.11L107.12 20.84H107.14L107.15 20.82H107.17L107.19 20.8H107.21L107.23 20.78H107.25L107.27 20.77H107.29H107.31H107.33H107.35H107.37H107.39H107.41H107.43H107.45H107.47H107.49L107.51 20.78L107.49 20.8ZM103.41 21.89L107.26 20.79L107.48 21.58L103.63 22.68L103.41 21.89ZM103.41 21.89L103.63 22.68H103.61H103.59H103.57H103.55H103.53H103.51H103.49H103.47H103.45H103.43H103.41L103.39 22.67H103.37L103.35 22.66H103.33L103.31 22.64H103.29L103.27 22.62H103.26L103.24 22.6H103.23L103.22 22.57H103.21L103.2 22.54V22.52L103.18 22.5V22.48L103.16 22.46V22.44L103.14 22.42V22.4L103.13 22.38V22.36V22.34V22.32V22.3V22.28V22.26V22.24V22.22V22.2V22.18V22.16L103.14 22.14V22.12L103.15 22.1V22.08L103.17 22.06V22.04L103.19 22.02V22L103.21 21.98H103.22L103.23 21.95H103.24L103.26 21.92H103.28L103.3 21.9H103.32L103.34 21.88H103.36L103.38 21.86H103.4L103.42 21.85L103.41 21.89Z" fill="#808285"/>
<path d="M107.91 8.13H106.83V8.11V8.09V8.07V8.05V8.03L106.84 8.01V7.99L106.86 7.97V7.95L106.88 7.93V7.91L106.91 7.89V7.87L106.94 7.85L106.96 7.83H106.98L107 7.8H107.02L107.04 7.77H107.06L107.08 7.75H107.1L107.12 7.73H107.14L107.16 7.71H107.19L107.22 7.7H107.25H107.28H107.31H107.34H107.37H107.4H107.43H107.46H107.49H107.52H107.55L107.58 7.71H107.6L107.62 7.73H107.64L107.66 7.75H107.68L107.7 7.77H107.72L107.74 7.8L107.76 7.82H107.78L107.8 7.85L107.82 7.87V7.89L107.85 7.91V7.93L107.87 7.95V7.97L107.89 7.99V8.01L107.9 8.03V8.05L107.91 8.07V8.09V8.11V8.13ZM107 62.33L106.84 8.14H107.92L108.08 62.33H107ZM107 62.33H108.08V62.35V62.37V62.39V62.41V62.43L108.07 62.45V62.47L108.05 62.49V62.51L108.03 62.53V62.55L108 62.57V62.59L107.97 62.61L107.95 62.63H107.93L107.91 62.66H107.89L107.87 62.69H107.85L107.83 62.71H107.81L107.79 62.73H107.77L107.75 62.75H107.73L107.7 62.76H107.67H107.64H107.61H107.58H107.55H107.52H107.49H107.46H107.43H107.4H107.37L107.34 62.75H107.32L107.3 62.73H107.28L107.26 62.71H107.24L107.22 62.69H107.2L107.18 62.66H107.16L107.14 62.63L107.12 62.61L107.1 62.59L107.08 62.57V62.55L107.05 62.53V62.51L107.03 62.49V62.47L107.01 62.45V62.43L107 62.41V62.39V62.37V62.35V62.33Z" fill="#939598"/>
<path fill-rule="evenodd" clip-rule="evenodd" d="M107.37 11.16L102.69 8.48V7.67L107.37 10.35V11.16Z" fill="#58595B"/>
<path fill-rule="evenodd" clip-rule="evenodd" d="M107.37 11.16L112.06 8.48V7.67L107.37 10.35V11.16Z" fill="#939598"/>
<path fill-rule="evenodd" clip-rule="evenodd" d="M102.69 7.67L107.37 10.35L112.06 7.67L107.36 5L102.69 7.67Z" fill="#BCBEC0"/>
<path fill-rule="evenodd" clip-rule="evenodd" d="M107.37 9.77L104.02 7.85V7.27L107.37 9.18V9.77Z" fill="#58595B"/>
<path fill-rule="evenodd" clip-rule="evenodd" d="M107.37 9.77L110.73 7.85V7.27L107.37 9.18V9.77Z" fill="#939598"/>
<path fill-rule="evenodd" clip-rule="evenodd" d="M104.02 7.27L107.37 9.18L110.73 7.27L107.37 5.36L104.02 7.27Z" fill="#BCBEC0"/>
<path fill-rule="evenodd" clip-rule="evenodd" d="M107.46 8.21C108.13 8.21 108.68 7.81 108.68 7.32C108.68 6.83 108.13 6.43 107.46 6.43C106.79 6.43 106.24 6.83 106.24 7.32C106.24 7.81 106.78 8.21 107.46 8.21Z" fill="#58595B"/>
<path fill-rule="evenodd" clip-rule="evenodd" d="M106.58 67.95V137.83C106.58 138.3 106.97 138.69 107.44 138.69C107.91 138.69 108.3 138.3 108.3 137.83V66.96L106.58 67.95Z" fill="#6D6E71"/>
</g>
<defs>
<filter id="filter0_d_10_936" x="0.4" y="0.4" width="154.35" height="233.21" filterUnits="userSpaceOnUse" color-interpolation-filters="sRGB">
<feFlood flood-opacity="0" result="BackgroundImageFix"/>
<feColorMatrix in="SourceAlpha" type="matrix" values="0 0 0 0 0 0 0 0 0 0 0 0 0 0 0 0 0 0 127 0" result="hardAlpha"/>
<feOffset dy="4"/>
<feGaussianBlur stdDeviation="4.3"/>
<feComposite in2="hardAlpha" operator="out"/>
<feColorMatrix type="matrix" values="0 0 0 0 0 0 0 0 0 1 0 0 0 0 0.983333 0 0 0 0.25 0"/>
<feBlend mode="normal" in2="BackgroundImageFix" result="effect1_dropShadow_10_936"/>
<feBlend mode="normal" in="SourceGraphic" in2="effect1_dropShadow_10_936" result="shape"/>
</filter>
<linearGradient id="paint0_linear_10_936" x1="77.58" y1="-29.35" x2="77.58" y2="120.03" gradientUnits="userSpaceOnUse">
<stop stop-color="#00AEEF"/>
<stop offset="1" stop-color="white"/>
</linearGradient>
</defs>
</svg>
