<svg width="155" height="233" viewBox="0 0 155 233" fill="none" xmlns="http://www.w3.org/2000/svg">
<g filter="url(#filter0_d_10_854)">
<path fill-rule="evenodd" clip-rule="evenodd" d="M77.16 220.01L145.94 180.8V44.3L77.26 8.74C77.22 34.85 77.19 193.9 77.17 220.01H77.16Z" fill="#A37E2F"/>
<path fill-rule="evenodd" clip-rule="evenodd" d="M8.81 180.69L77.16 220.01L77.17 83.51L8.81 44.19V180.69Z" fill="#C29E4E"/>
<path fill-rule="evenodd" clip-rule="evenodd" d="M8.81 176.81C22.52 169.02 37.62 159.88 50.34 168.68C60.57 175.75 66.43 186.78 77.17 192.6V83.51L8.81 44.19V176.81Z" fill="#414042"/>
<path fill-rule="evenodd" clip-rule="evenodd" d="M8.81 134.86C23.09 122.17 38.96 102.68 50.4 113.51C63.24 125.67 68.02 142.74 77.17 150.3V83.5L8.81 44.18V134.85V134.86Z" fill="#47260D"/>
<path fill-rule="evenodd" clip-rule="evenodd" d="M8.81 114.5C22.3 110.8 37.5 93.97 49.97 103.49C60.76 111.73 69.36 123.34 77.17 127.96V83.51L8.81 44.19V114.49V114.5Z" fill="#766B57"/>
<path fill-rule="evenodd" clip-rule="evenodd" d="M78.02 150.97L24.6 120.25C34.73 111.64 42.66 106.97 50.4 113.51C62.21 123.49 67.2 140.07 78.02 150.97Z" fill="#A5C3D2"/>
<path fill-rule="evenodd" clip-rule="evenodd" d="M8.81 176.81C22.3 173.11 36.62 159.19 50.39 169.11C61.41 177.05 69.37 193.58 77.18 198.2V180.75L8.82001 141.43V176.81H8.81Z" fill="#00AEEF"/>
<path fill-rule="evenodd" clip-rule="evenodd" d="M8.81 101.36C22.3 97.66 36.01 86.93 50.69 96.45C60.85 103.04 69.36 112.28 77.18 116.91V83.51L8.82001 44.19V101.36H8.81Z" fill="#BDA684"/>
<path fill-rule="evenodd" clip-rule="evenodd" d="M77.2 181.55L145.94 152.31V111.03L77.21 150.21L77.2 181.55Z" fill="black"/>
<path fill-rule="evenodd" clip-rule="evenodd" d="M145.53 152.31C132.04 148.61 119.58 167.34 104.83 175.72C92.88 182.51 91.87 190.85 77.17 198.2V180.75L145.53 141.43V152.3V152.31Z" fill="#0095DA"/>
<path fill-rule="evenodd" clip-rule="evenodd" d="M145.54 152.31L104.83 175.72C88.58 174.19 82.62 159.31 77.17 150.31V83.51L145.53 44.19V152.31H145.54Z" fill="#2C1B10"/>
<path fill-rule="evenodd" clip-rule="evenodd" d="M77.2 127.97C103.39 143.46 120.01 135.94 145.95 122.38V44.3L77.26 8.74C77.24 23.08 77.22 77.49 77.2 127.97Z" fill="#5E533F"/>
<path fill-rule="evenodd" clip-rule="evenodd" d="M77.2 116.91C97.63 123.45 119.28 116.54 145.94 102.9V44.3L77.21 83.48V116.91H77.2Z" fill="#A38C6A"/>
<path fill-rule="evenodd" clip-rule="evenodd" d="M8.81 44.19L77.17 83.51L145.95 44.3L77.26 5.17C54.19 18.36 32.24 30.79 8.81 44.19Z" fill="#86C634"/>
<path fill-rule="evenodd" clip-rule="evenodd" d="M48.37 66.95V136.83C48.37 137.3 47.98 137.69 47.51 137.69C47.04 137.69 46.65 137.3 46.65 136.83V65.96L48.37 66.95Z" fill="#6D6E71"/>
<path d="M38.24 54.57L38.91 55.04V55.06L38.88 55.08V55.1L38.85 55.11H38.83L38.81 55.14H38.79L38.77 55.16H38.75L38.73 55.18H38.71L38.69 55.2H38.67L38.65 55.21H38.63H38.61H38.59H38.57H38.55H38.53H38.51H38.49H38.47H38.45H38.43L38.41 55.2H38.39L38.37 55.18H38.35L38.33 55.16H38.31L38.29 55.14H38.27L38.25 55.11H38.24L38.23 55.08V55.06L38.2 55.04V55.02L38.18 55V54.98L38.16 54.96V54.94L38.14 54.92V54.9L38.13 54.88V54.86V54.84V54.82V54.8V54.78V54.76V54.74V54.72V54.7V54.68V54.66L38.14 54.64V54.62L38.15 54.6V54.58L38.17 54.56V54.54L38.19 54.52L38.24 54.57ZM47.89 41.74V42.22L38.91 55.05L38.24 54.58L47.23 41.75H47.9L47.89 41.74ZM47.9 42.22L47.23 41.75V41.73L47.26 41.71V41.69L47.29 41.67H47.31L47.33 41.64H47.35L47.37 41.62H47.39L47.41 41.6H47.43L47.45 41.58H47.47L47.49 41.57H47.51H47.53H47.55H47.57H47.59H47.61H47.63H47.65H47.67H47.69H47.71L47.73 41.58H47.75L47.77 41.59H47.79L47.81 41.61H47.83L47.85 41.63H47.87L47.89 41.66H47.91L47.92 41.69H47.93L47.94 41.72V41.74L47.96 41.76V41.78L47.98 41.8V41.82L48 41.84V41.86L48.01 41.88V41.9V41.92V41.94V41.96V41.98V42V42.02V42.04V42.06V42.08V42.1L48 42.12V42.14L47.99 42.16V42.18L47.97 42.2V42.22L47.95 42.24L47.9 42.22ZM56.36 54.76L47.23 42.22L47.89 41.74L57.02 54.28L56.36 54.76ZM56.36 54.76L57.02 54.28V54.3L57.04 54.32V54.34L57.06 54.36V54.38L57.08 54.4V54.42L57.09 54.44V54.46V54.48V54.5V54.52V54.54V54.56V54.58V54.6V54.62V54.64V54.66L57.08 54.68V54.7L57.06 54.72V54.74L57.04 54.76V54.78L57.02 54.8V54.82L56.99 54.84V54.86L56.96 54.87H56.94L56.92 54.9H56.9L56.88 54.92H56.86L56.84 54.94H56.82L56.8 54.96H56.78L56.76 54.97H56.74H56.72H56.7H56.68H56.64H56.62H56.6H56.58H56.56H56.54H56.52L56.5 54.96H56.48L56.46 54.94H56.44L56.42 54.92H56.4L56.38 54.9H56.36L56.35 54.87V54.85L56.32 54.83V54.81L56.36 54.76Z" fill="#58595B"/>
<path d="M39.79 46.93L39.51 47.7H39.49L39.47 47.68H39.45L39.43 47.66H39.41L39.39 47.64H39.37L39.35 47.61H39.34L39.33 47.58V47.56L39.31 47.54V47.52L39.29 47.5V47.48L39.27 47.46V47.44L39.26 47.42V47.4L39.25 47.38V47.36V47.34V47.32V47.3V47.28V47.26V47.24V47.22V47.2V47.18V47.16L39.26 47.14V47.12L39.28 47.1V47.08L39.3 47.06V47.04L39.32 47.02V47L39.35 46.98H39.36L39.37 46.95H39.39L39.41 46.93H39.43L39.45 46.91H39.47L39.49 46.89H39.51L39.53 46.87H39.55L39.57 46.86H39.59H39.61H39.63H39.65H39.67H39.69H39.71H39.73H39.75H39.77H39.79L39.81 46.87L39.79 46.93ZM47.68 50.57H47.41L39.5 47.7L39.78 46.93L47.69 49.8V50.58L47.68 50.57ZM47.41 50.57L47.69 49.8H47.71L47.73 49.82H47.75L47.77 49.84H47.79L47.81 49.86H47.83L47.85 49.89H47.86L47.87 49.92V49.94L47.89 49.96V49.98L47.91 50V50.02L47.93 50.04V50.06L47.94 50.08V50.1L47.95 50.12V50.14V50.16V50.18V50.2V50.22V50.24V50.26V50.28V50.3V50.32V50.34L47.94 50.36V50.38L47.92 50.4V50.42L47.9 50.44V50.46L47.88 50.48V50.5L47.85 50.51H47.84L47.83 50.54H47.81L47.79 50.57H47.77L47.75 50.59H47.73L47.71 50.61H47.69L47.67 50.63H47.65L47.63 50.64H47.61H47.59H47.57H47.55H47.53H47.51H47.49H47.47H47.45H47.43H47.41L47.39 50.63L47.41 50.57ZM55.67 47.88L47.69 50.57L47.43 49.79L55.41 47.1L55.67 47.88ZM55.67 47.88L55.41 47.1H55.43L55.45 47.09H55.47H55.49H55.51H55.53H55.57H55.59H55.61H55.63H55.65L55.67 47.1H55.69L55.71 47.11H55.73L55.75 47.13H55.77L55.79 47.15H55.81L55.83 47.17H55.85L55.86 47.2H55.87L55.88 47.23V47.25L55.9 47.27V47.29L55.92 47.31V47.33L55.94 47.35V47.37L55.95 47.39V47.41V47.43V47.45V47.47V47.49V47.51V47.53V47.55V47.57V47.59V47.61L55.94 47.63V47.65L55.93 47.67V47.69L55.91 47.71V47.73L55.89 47.75V47.77L55.87 47.79H55.86L55.85 47.82H55.84L55.82 47.85H55.8L55.78 47.87H55.76L55.74 47.89H55.72L55.7 47.91H55.68L55.67 47.88Z" fill="#58595B"/>
<path d="M39.3 48.64L39.97 49.11V49.13L39.94 49.15V49.17L39.91 49.18H39.89L39.87 49.21H39.85L39.83 49.23H39.81L39.79 49.25H39.77L39.75 49.27H39.73L39.71 49.28H39.69H39.67H39.65H39.63H39.61H39.59H39.57H39.55H39.53H39.51H39.49L39.47 49.27H39.45L39.43 49.26H39.41L39.39 49.24H39.37L39.35 49.22H39.33L39.31 49.19H39.29L39.28 49.16V49.14L39.25 49.12V49.1L39.23 49.08V49.06L39.21 49.04V49.02L39.19 49V48.98L39.18 48.96V48.94V48.92V48.9V48.88V48.86V48.84V48.82V48.8V48.78V48.76V48.74L39.19 48.72V48.7L39.2 48.68V48.66L39.22 48.64V48.62L39.24 48.6L39.3 48.64ZM47.88 37.35L47.22 37.83H47.89L47.64 38.18L47.39 38.53L47.14 38.88L46.89 39.23L46.64 39.58L46.39 39.93L46.14 40.28L45.89 40.63L45.64 40.98L45.39 41.33L45.14 41.68L44.89 42.03L44.64 42.38L44.39 42.73L44.14 43.08L43.89 43.43L43.64 43.78L43.39 44.13L43.14 44.48L42.89 44.83L42.64 45.18L42.39 45.53L42.14 45.88L41.89 46.23L41.64 46.58L41.39 46.93L41.14 47.28L40.89 47.63L40.64 47.98L40.39 48.33L40.14 48.68L39.89 49.03L39.22 48.56L39.47 48.21L39.72 47.86L39.97 47.51L40.22 47.16L40.47 46.81L40.72 46.46L40.97 46.11L41.22 45.76L41.47 45.41L41.72 45.06L41.97 44.71L42.22 44.36L42.47 44.01L42.72 43.66L42.97 43.31L43.22 42.96L43.47 42.61L43.72 42.26L43.97 41.91L44.22 41.56L44.47 41.21L44.72 40.86L44.97 40.51L45.22 40.16L45.47 39.81L45.72 39.46L45.97 39.11L46.22 38.76L46.47 38.41L46.72 38.06L46.97 37.71L47.22 37.36H47.89L47.88 37.35ZM47.89 37.83L47.22 37.36V37.34L47.25 37.32V37.3L47.28 37.28H47.3L47.32 37.25H47.34L47.36 37.23H47.38L47.4 37.21H47.42L47.44 37.19H47.46L47.48 37.18H47.5H47.52H47.54H47.56H47.58H47.6H47.62H47.64H47.66H47.68H47.7L47.72 37.19H47.74L47.76 37.2H47.78L47.8 37.22H47.82L47.84 37.24H47.86L47.88 37.27H47.89L47.9 37.3H47.91L47.92 37.33V37.35L47.94 37.37V37.39L47.96 37.41V37.43L47.98 37.45V37.47L47.99 37.49V37.51V37.53V37.55V37.57V37.59V37.61V37.63V37.65V37.67V37.69V37.71L47.98 37.73V37.75L47.97 37.77V37.79L47.95 37.81V37.83L47.93 37.85L47.89 37.83ZM55.93 48.4L55.27 48.88L55.02 48.53L54.77 48.18L54.52 47.83L54.27 47.48L54.02 47.14L53.77 46.79L53.52 46.44L53.27 46.09L53.02 45.74L52.77 45.39L52.52 45.04L52.27 44.69L52.02 44.34L51.77 44L51.52 43.65L51.27 43.3L51.02 42.96L50.77 42.61L50.52 42.26L50.27 41.91L50.02 41.56L49.77 41.22L49.52 40.87L49.27 40.52L49.02 40.17L48.77 39.82L48.52 39.47L48.27 39.12L48.02 38.77L47.77 38.42L47.52 38.07L47.27 37.73L47.93 37.25L48.18 37.6L48.43 37.95L48.68 38.3L48.93 38.64L49.18 38.99L49.43 39.34L49.68 39.69L49.93 40.04L50.18 40.39L50.43 40.74L50.68 41.09L50.93 41.44L51.18 41.78L51.43 42.13L51.68 42.48L51.93 42.82L52.18 43.17L52.43 43.52L52.68 43.87L52.93 44.21L53.18 44.56L53.43 44.91L53.68 45.26L53.93 45.61L54.18 45.96L54.43 46.31L54.68 46.66L54.93 47.01L55.18 47.35L55.43 47.7L55.68 48.04L55.93 48.39V48.4ZM55.26 48.89L55.92 48.41V48.43L55.94 48.45V48.47L55.96 48.49V48.51L55.98 48.53V48.55L55.99 48.57V48.59V48.61V48.63V48.65V48.69V48.71V48.73V48.75V48.77V48.79V48.81L55.98 48.83V48.85L55.96 48.87V48.89L55.94 48.91V48.93L55.92 48.95V48.97L55.89 48.99H55.87L55.85 49.02H55.83L55.81 49.04H55.79L55.77 49.06H55.75L55.73 49.08H55.71L55.69 49.09H55.67H55.65H55.63H55.61H55.59H55.57H55.55H55.53H55.51H55.49H55.47H55.45H55.43L55.41 49.08H55.39L55.37 49.06H55.35L55.33 49.04H55.31L55.29 49.02H55.27L55.26 48.99H55.25L55.24 48.96V48.94L55.26 48.89Z" fill="#58595B"/>
<path d="M40.73 41.9L40.45 42.67H40.43L40.41 42.65H40.39L40.37 42.63H40.35L40.33 42.61H40.31L40.29 42.58H40.28L40.27 42.55V42.53L40.24 42.51V42.49L40.22 42.47V42.45L40.2 42.43V42.41L40.19 42.39V42.37L40.18 42.35V42.33V42.31V42.29V42.27V42.25V42.23V42.21V42.19V42.17V42.15V42.13L40.19 42.11V42.09L40.21 42.07V42.05L40.23 42.03V42.01L40.25 41.99V41.97L40.28 41.96H40.29L40.31 41.93H40.33L40.35 41.91H40.37L40.39 41.89H40.41L40.43 41.87H40.45L40.47 41.85H40.49L40.51 41.84H40.53H40.55H40.57H40.59H40.61H40.63H40.65H40.67H40.69H40.71H40.73L40.75 41.85L40.73 41.9ZM47.41 44.42L47.67 45.2H47.4L47.18 45.12L46.96 45.04L46.74 44.96L46.52 44.88L46.3 44.8L46.08 44.72L45.86 44.64L45.64 44.56L45.42 44.48L45.2 44.4L44.98 44.32L44.76 44.24L44.54 44.16L44.32 44.08L44.1 44L43.88 43.92L43.66 43.84L43.44 43.76L43.22 43.68L43 43.6L42.78 43.52L42.56 43.44L42.34 43.36L42.12 43.28L41.9 43.2L41.68 43.12L41.46 43.04L41.24 42.96L41.02 42.88L40.8 42.8L40.58 42.72L40.36 42.64L40.64 41.87L40.86 41.95L41.08 42.03L41.3 42.11L41.52 42.19L41.74 42.27L41.96 42.35L42.18 42.43L42.4 42.51L42.62 42.59L42.84 42.67L43.06 42.75L43.28 42.83L43.5 42.91L43.72 42.99L43.94 43.07L44.16 43.15L44.38 43.23L44.6 43.31L44.82 43.39L45.04 43.47L45.26 43.55L45.48 43.63L45.7 43.71L45.92 43.79L46.14 43.87L46.36 43.95L46.58 44.03L46.8 44.11L47.02 44.19L47.24 44.27L47.46 44.35L47.68 44.43H47.41V44.42ZM47.4 45.2L47.68 44.43H47.7L47.72 44.45H47.74L47.76 44.47H47.78L47.8 44.49H47.82L47.84 44.52H47.85L47.86 44.55H47.87L47.88 44.58V44.6L47.9 44.62V44.64L47.92 44.66V44.68L47.93 44.7V44.72L47.94 44.74V44.76V44.78V44.8V44.82V44.84V44.86V44.88V44.9V44.92V44.94V44.96L47.93 44.98V45L47.91 45.02V45.04L47.89 45.06V45.08L47.87 45.1V45.12L47.84 45.14H47.83L47.82 45.17H47.81L47.79 45.19H47.77L47.75 45.21H47.73L47.71 45.23H47.69L47.67 45.24H47.65L47.63 45.25H47.61H47.59H47.57H47.55H47.53H47.51H47.49H47.47H47.45H47.43H47.41L47.39 45.24L47.4 45.2ZM54.45 42.05L54.71 42.83L54.49 42.9L54.27 42.97L54.05 43.04L53.83 43.11L53.61 43.18L53.39 43.25L53.17 43.32L52.95 43.39L52.73 43.46L52.51 43.53L52.29 43.6L52.07 43.67L51.85 43.74L51.63 43.81L51.41 43.88L51.19 43.95L50.97 44.02L50.75 44.09L50.53 44.16L50.31 44.23L50.09 44.3L49.87 44.37L49.65 44.44L49.43 44.51L49.21 44.58L48.99 44.65L48.77 44.72L48.55 44.79L48.33 44.86L48.11 44.93L47.89 45L47.67 45.07L47.41 44.29L47.63 44.22L47.85 44.15L48.07 44.08L48.29 44.01L48.51 43.94L48.73 43.87L48.95 43.8L49.17 43.73L49.39 43.66L49.61 43.59L49.83 43.52L50.05 43.45L50.27 43.38L50.49 43.31L50.71 43.24L50.93 43.17L51.15 43.1L51.37 43.03L51.59 42.96L51.81 42.89L52.03 42.82L52.25 42.75L52.47 42.68L52.69 42.61L52.91 42.54L53.13 42.47L53.35 42.4L53.57 42.33L53.79 42.26L54.01 42.19L54.23 42.12L54.45 42.05ZM54.71 42.83L54.45 42.05H54.47L54.49 42.04H54.51H54.53H54.55H54.57H54.61H54.63H54.65H54.67H54.69L54.71 42.05H54.73L54.75 42.07H54.77L54.79 42.09H54.81L54.83 42.11H54.85L54.87 42.13H54.89L54.9 42.16H54.91L54.92 42.19V42.21L54.94 42.23V42.25L54.96 42.27V42.29L54.98 42.31V42.33L54.99 42.35V42.37V42.39V42.41V42.43V42.45V42.47V42.49V42.51V42.53V42.55V42.57L54.98 42.59V42.61L54.97 42.63V42.65L54.95 42.67V42.69L54.93 42.71V42.73L54.91 42.75H54.9L54.89 42.78H54.88L54.86 42.81H54.84L54.82 42.83H54.8L54.78 42.85H54.76L54.74 42.87H54.72L54.71 42.83Z" fill="#58595B"/>
<path d="M40.37 42.72L41.04 43.19V43.21L41.01 43.23V43.25L40.98 43.26H40.97L40.95 43.29H40.93L40.91 43.31H40.89L40.87 43.33H40.85L40.83 43.35H40.81L40.79 43.36H40.77H40.75H40.73H40.71H40.69H40.67H40.65H40.63H40.61H40.59H40.57L40.55 43.35H40.53L40.51 43.34H40.49L40.47 43.32H40.45L40.43 43.3H40.41L40.39 43.27H40.37L40.36 43.24V43.22L40.33 43.2V43.18L40.31 43.16V43.14L40.29 43.12V43.1L40.27 43.08V43.06L40.26 43.04V43.02V43V42.98V42.96V42.94V42.92V42.9V42.88V42.86V42.84V42.82L40.27 42.8V42.78L40.28 42.76V42.74L40.3 42.72V42.7L40.32 42.68L40.37 42.72ZM47.87 32.97L47.21 33.45H47.88L47.67 33.75L47.46 34.05L47.25 34.35L47.04 34.65L46.83 34.95L46.62 35.25L46.41 35.55L46.2 35.85L45.99 36.15L45.78 36.46L45.57 36.76L45.36 37.06L45.15 37.36L44.94 37.66L44.73 37.96L44.52 38.26L44.31 38.56L44.1 38.86L43.89 39.16L43.68 39.46L43.47 39.76L43.26 40.06L43.05 40.36L42.84 40.66L42.63 40.96L42.42 41.26L42.21 41.56L42 41.86L41.79 42.16L41.58 42.46L41.37 42.76L41.16 43.06L40.49 42.59L40.7 42.29L40.91 41.99L41.12 41.69L41.33 41.39L41.54 41.09L41.75 40.79L41.96 40.48L42.17 40.18L42.38 39.88L42.59 39.58L42.8 39.28L43.01 38.98L43.22 38.68L43.43 38.38L43.64 38.08L43.85 37.78L44.06 37.48L44.27 37.18L44.48 36.88L44.69 36.58L44.9 36.27L45.11 35.97L45.32 35.67L45.53 35.37L45.74 35.07L45.95 34.77L46.16 34.47L46.37 34.17L46.58 33.87L46.79 33.57L47 33.27L47.21 32.96H47.88L47.87 32.97ZM47.87 33.45L47.2 32.98V32.96L47.23 32.94V32.92L47.26 32.9H47.28L47.3 32.87H47.32L47.34 32.85H47.36L47.38 32.83H47.4L47.42 32.81H47.44L47.46 32.8H47.48H47.5H47.52H47.54H47.56H47.58H47.6H47.62H47.64H47.66H47.68L47.7 32.81H47.72L47.74 32.82H47.76L47.78 32.84H47.8L47.82 32.86H47.84L47.86 32.89H47.88L47.89 32.92V32.94L47.92 32.96V32.98L47.94 33V33.02L47.96 33.04V33.06L47.98 33.08V33.1L47.99 33.12V33.14V33.16V33.18V33.2V33.22V33.24V33.26V33.28V33.3V33.32V33.34L47.98 33.36V33.38L47.97 33.4V33.42L47.95 33.44V33.46L47.93 33.48L47.87 33.45ZM54.83 42.53L54.17 43.01L53.95 42.71L53.73 42.41L53.51 42.11L53.29 41.81L53.07 41.51L52.85 41.21L52.63 40.91L52.41 40.61L52.19 40.31L51.97 40.01L51.75 39.71L51.53 39.41L51.31 39.11L51.09 38.81L50.87 38.51L50.65 38.21L50.43 37.91L50.21 37.61L49.99 37.31L49.77 37.01L49.55 36.71L49.33 36.41L49.11 36.11L48.89 35.81L48.67 35.51L48.45 35.21L48.23 34.91L48.01 34.61L47.79 34.31L47.57 34.01L47.35 33.71L47.13 33.41L47.79 32.93L48.01 33.23L48.23 33.53L48.45 33.83L48.67 34.13L48.89 34.43L49.11 34.73L49.33 35.03L49.55 35.33L49.77 35.63L49.99 35.93L50.21 36.23L50.43 36.53L50.65 36.83L50.87 37.13L51.09 37.43L51.31 37.73L51.53 38.03L51.75 38.33L51.97 38.63L52.19 38.93L52.41 39.23L52.63 39.53L52.85 39.83L53.07 40.13L53.29 40.43L53.51 40.73L53.73 41.03L53.95 41.33L54.17 41.63L54.39 41.93L54.61 42.23L54.83 42.53ZM54.17 43.01L54.83 42.53V42.55L54.85 42.57V42.59L54.87 42.61V42.63L54.88 42.65V42.67L54.89 42.69V42.71V42.73V42.75V42.77V42.79V42.81V42.83V42.85V42.87V42.89V42.91L54.88 42.93V42.95L54.86 42.97V42.99L54.84 43.01V43.03L54.82 43.05V43.07L54.79 43.09H54.78L54.76 43.12H54.74L54.72 43.15H54.7L54.68 43.17H54.66L54.64 43.19H54.62L54.6 43.21H54.58L54.56 43.22H54.54H54.52H54.5H54.48H54.46H54.44H54.42H54.4H54.38H54.36H54.34L54.32 43.21H54.3L54.28 43.19H54.26L54.24 43.17H54.22L54.2 43.15H54.18L54.16 43.12H54.15L54.14 43.09V43.07L54.11 43.05L54.17 43.01Z" fill="#58595B"/>
<path d="M41.67 36.87L41.39 37.64H41.37L41.35 37.62H41.33L41.31 37.6H41.29L41.27 37.58H41.25L41.23 37.55H41.22L41.21 37.52V37.5L41.19 37.48V37.46L41.17 37.44V37.42L41.15 37.4V37.38L41.14 37.36V37.34L41.13 37.32V37.3V37.28V37.26V37.24V37.22V37.2V37.18V37.16V37.14V37.12V37.1L41.14 37.08V37.06L41.16 37.04V37.02L41.18 37V36.98L41.2 36.96V36.94L41.23 36.92H41.24L41.25 36.89H41.27L41.29 36.87H41.31L41.33 36.85H41.35L41.37 36.83H41.39L41.41 36.82H41.43L41.45 36.81H41.47H41.49H41.51H41.53H41.55H41.57H41.59H41.61H41.63H41.65H41.67L41.69 36.82L41.67 36.87ZM47.4 39.05L47.66 39.83H47.39L47.2 39.76L47.01 39.69L46.82 39.62L46.63 39.55L46.44 39.48L46.25 39.41L46.06 39.34L45.87 39.27L45.68 39.2L45.49 39.13L45.3 39.06L45.11 38.99L44.92 38.92L44.73 38.85L44.54 38.78L44.35 38.71L44.16 38.64L43.97 38.57L43.78 38.5L43.59 38.43L43.4 38.36L43.21 38.29L43.02 38.22L42.83 38.15L42.64 38.08L42.45 38.01L42.26 37.94L42.07 37.87L41.88 37.8L41.69 37.73L41.5 37.66L41.31 37.59L41.59 36.82L41.78 36.89L41.97 36.96L42.16 37.03L42.35 37.1L42.54 37.17L42.73 37.24L42.92 37.31L43.11 37.38L43.3 37.45L43.49 37.52L43.68 37.59L43.87 37.66L44.06 37.73L44.25 37.8L44.44 37.87L44.63 37.94L44.82 38.01L45.01 38.08L45.2 38.15L45.39 38.22L45.58 38.29L45.77 38.36L45.96 38.43L46.15 38.5L46.34 38.57L46.53 38.64L46.72 38.71L46.91 38.78L47.1 38.85L47.29 38.92L47.48 38.99L47.67 39.06H47.4V39.05ZM47.39 39.83L47.67 39.06H47.69L47.71 39.08H47.73L47.75 39.1H47.77L47.79 39.12H47.81L47.83 39.15H47.84L47.85 39.18V39.2L47.88 39.22V39.24L47.9 39.26V39.28L47.92 39.3V39.32L47.94 39.34V39.36L47.95 39.38V39.4V39.42V39.44V39.46V39.48V39.5V39.52V39.54V39.56V39.58V39.6L47.94 39.62V39.64L47.92 39.66V39.68L47.9 39.7V39.72L47.88 39.74V39.76L47.85 39.78H47.84L47.83 39.81H47.81L47.79 39.83H47.77L47.75 39.85H47.73L47.71 39.87H47.69L47.67 39.89H47.65L47.63 39.9H47.61H47.59H47.57H47.55H47.53H47.51H47.49H47.47H47.45H47.43H47.41L47.39 39.89V39.83ZM53.5 36.99L53.76 37.77L53.57 37.83L53.38 37.89L53.19 37.95L53 38.01L52.81 38.07L52.62 38.13L52.43 38.19L52.24 38.25L52.05 38.31L51.86 38.37L51.67 38.43L51.48 38.49L51.29 38.55L51.1 38.61L50.91 38.67L50.72 38.73L50.53 38.79L50.34 38.85L50.15 38.91L49.96 38.97L49.77 39.03L49.58 39.09L49.39 39.15L49.2 39.21L49.01 39.27L48.82 39.33L48.63 39.39L48.44 39.45L48.25 39.51L48.06 39.57L47.87 39.63L47.68 39.69L47.42 38.91L47.61 38.85L47.8 38.79L47.99 38.73L48.18 38.67L48.37 38.61L48.56 38.55L48.75 38.49L48.94 38.43L49.13 38.37L49.32 38.31L49.51 38.25L49.7 38.19L49.89 38.13L50.08 38.07L50.27 38.01L50.46 37.95L50.65 37.89L50.84 37.83L51.03 37.77L51.22 37.71L51.41 37.65L51.6 37.59L51.79 37.53L51.98 37.46L52.17 37.4L52.36 37.34L52.55 37.28L52.74 37.22L52.93 37.16L53.12 37.1L53.31 37.04L53.5 36.98V36.99ZM53.76 37.77L53.5 36.99H53.52L53.54 36.98H53.56H53.58H53.6H53.62H53.66H53.68H53.7H53.72H53.74L53.76 36.99H53.78L53.8 37H53.82L53.84 37.02H53.86L53.88 37.04H53.9L53.92 37.06H53.93L53.94 37.09H53.95L53.96 37.12V37.14L53.98 37.16V37.18L54 37.2V37.22L54.02 37.24V37.26L54.03 37.28V37.3V37.32V37.34V37.36V37.38V37.4V37.42V37.44V37.46V37.48V37.5L54.02 37.52V37.54L54.01 37.56V37.58L53.99 37.6V37.62L53.97 37.64V37.66L53.95 37.68V37.7L53.92 37.71H53.91L53.89 37.74H53.87L53.85 37.76H53.83L53.81 37.78H53.79L53.77 37.8H53.75L53.76 37.77Z" fill="#58595B"/>
<path d="M41.44 36.79L42.11 37.26V37.28L42.08 37.3V37.32L42.05 37.33H42.03L42.01 37.36H41.99L41.97 37.38H41.95L41.93 37.4H41.91L41.89 37.42H41.87L41.85 37.43H41.83H41.81H41.79H41.77H41.75H41.73H41.71H41.69H41.67H41.65H41.63L41.61 37.42H41.59L41.57 37.41H41.55L41.53 37.39H41.51L41.49 37.37H41.47L41.45 37.34H41.43L41.42 37.31V37.29L41.39 37.27V37.25L41.37 37.23V37.21L41.35 37.19V37.17L41.33 37.15V37.13L41.32 37.11V37.09V37.07V37.05V37.03V37.01V36.99V36.97V36.95V36.93V36.91V36.89L41.33 36.87V36.85L41.34 36.83V36.81L41.36 36.79V36.77L41.38 36.75L41.44 36.79ZM47.86 28.58L47.2 29.06H47.87L47.69 29.31L47.51 29.57L47.33 29.83L47.15 30.09L46.97 30.35L46.79 30.61L46.61 30.87L46.43 31.13L46.25 31.39L46.07 31.65L45.89 31.91L45.71 32.17L45.53 32.43L45.35 32.69L45.17 32.95L44.99 33.21L44.81 33.46L44.63 33.72L44.45 33.98L44.27 34.24L44.09 34.5L43.91 34.76L43.73 35.02L43.55 35.28L43.37 35.54L43.19 35.8L43.01 36.06L42.83 36.32L42.65 36.58L42.47 36.84L42.29 37.1L42.11 37.36L41.44 36.89L41.62 36.63L41.8 36.37L41.98 36.11L42.16 35.85L42.34 35.59L42.52 35.33L42.7 35.07L42.88 34.81L43.06 34.55L43.24 34.29L43.42 34.03L43.6 33.77L43.78 33.51L43.96 33.25L44.14 32.99L44.32 32.73L44.5 32.48L44.68 32.22L44.86 31.96L45.04 31.7L45.22 31.44L45.4 31.18L45.58 30.92L45.76 30.66L45.94 30.4L46.12 30.14L46.3 29.88L46.48 29.62L46.66 29.36L46.84 29.1L47.02 28.84L47.2 28.58H47.87H47.86ZM47.86 29.06L47.19 28.59V28.57L47.22 28.55V28.53L47.25 28.52H47.27L47.29 28.49H47.31L47.33 28.47H47.35L47.37 28.45H47.39L47.41 28.43H47.43L47.45 28.42H47.47H47.49H47.51H47.53H47.55H47.57H47.59H47.61H47.63H47.65H47.67L47.69 28.43H47.71L47.73 28.44H47.75L47.77 28.46H47.79L47.81 28.48H47.83L47.85 28.51H47.87L47.88 28.54H47.89L47.9 28.57V28.59L47.92 28.61V28.63L47.94 28.65V28.67L47.96 28.69V28.71L47.97 28.73V28.75V28.77V28.79V28.81V28.83V28.85V28.87V28.89V28.91V28.93V28.95L47.96 28.97V28.99L47.95 29.01V29.03L47.93 29.05V29.07L47.91 29.09L47.86 29.06ZM53.74 36.66L53.08 37.14L52.9 36.89L52.72 36.64L52.54 36.39L52.36 36.14L52.18 35.89L52 35.64L51.82 35.39L51.64 35.14L51.46 34.89L51.28 34.64L51.1 34.39L50.92 34.14L50.74 33.89L50.56 33.64L50.37 33.39L50.19 33.14L50.01 32.89L49.83 32.64L49.65 32.39L49.47 32.14L49.29 31.89L49.11 31.64L48.93 31.39L48.75 31.14L48.57 30.89L48.39 30.64L48.21 30.39L48.03 30.14L47.85 29.89L47.67 29.64L47.49 29.39L47.31 29.14L47.97 28.66L48.15 28.91L48.33 29.16L48.51 29.41L48.69 29.66L48.87 29.91L49.05 30.16L49.23 30.41L49.41 30.66L49.59 30.91L49.77 31.16L49.95 31.41L50.13 31.66L50.31 31.91L50.49 32.16L50.67 32.41L50.85 32.66L51.03 32.91L51.21 33.16L51.39 33.41L51.57 33.66L51.75 33.91L51.93 34.16L52.11 34.41L52.29 34.66L52.47 34.91L52.65 35.16L52.83 35.41L53.01 35.66L53.19 35.91L53.37 36.16L53.55 36.41L53.73 36.66H53.74ZM53.07 37.14L53.73 36.66V36.68L53.75 36.7V36.72L53.77 36.74V36.76L53.78 36.78V36.8L53.79 36.82V36.84V36.86V36.88V36.9V36.94V36.96V36.98V37V37.02V37.04V37.06L53.78 37.08V37.1L53.76 37.12V37.14L53.74 37.16V37.18L53.72 37.2V37.22L53.69 37.23L53.67 37.25H53.65L53.63 37.28H53.61L53.59 37.3H53.57L53.55 37.32H53.53L53.51 37.34H53.49L53.47 37.35H53.45H53.43H53.41H53.39H53.35H53.33H53.31H53.29H53.27H53.25H53.23L53.21 37.34H53.19L53.17 37.32H53.15L53.13 37.3H53.11L53.09 37.28H53.07L53.06 37.25V37.23L53.03 37.21V37.19L53.07 37.14Z" fill="#58595B"/>
<path d="M42.6 31.85L42.32 32.62H42.3L42.28 32.6H42.26L42.24 32.58H42.22L42.2 32.56H42.18L42.16 32.53H42.15L42.14 32.5V32.48L42.12 32.46V32.44L42.1 32.42V32.4L42.08 32.38V32.36L42.07 32.34V32.32L42.06 32.3V32.28V32.26V32.24V32.22V32.2V32.18V32.16V32.14V32.12V32.1V32.08L42.07 32.06V32.04L42.09 32.02V32L42.11 31.98V31.96L42.13 31.94V31.92L42.16 31.9H42.17L42.18 31.87H42.19L42.21 31.85H42.23L42.25 31.83H42.27L42.29 31.81H42.31L42.33 31.8H42.35L42.37 31.79H42.39H42.41H42.43H42.45H42.47H42.49H42.51H42.53H42.55H42.57H42.59L42.61 31.8L42.6 31.85ZM47.39 33.68L47.65 34.46H47.38L47.22 34.4L47.06 34.34L46.9 34.28L46.74 34.22L46.58 34.16L46.42 34.1L46.26 34.04L46.1 33.98L45.94 33.92L45.78 33.86L45.62 33.8L45.46 33.74L45.3 33.68L45.14 33.62L44.98 33.56L44.82 33.5L44.66 33.44L44.5 33.38L44.34 33.32L44.18 33.26L44.02 33.2L43.86 33.14L43.7 33.08L43.54 33.02L43.38 32.96L43.22 32.9L43.06 32.84L42.9 32.78L42.74 32.72L42.58 32.66L42.42 32.6L42.26 32.54L42.54 31.77L42.7 31.83L42.86 31.89L43.02 31.95L43.18 32.01L43.34 32.07L43.5 32.13L43.66 32.19L43.82 32.25L43.98 32.31L44.14 32.37L44.3 32.43L44.46 32.49L44.62 32.55L44.78 32.61L44.94 32.67L45.1 32.73L45.26 32.79L45.42 32.85L45.58 32.91L45.74 32.97L45.9 33.03L46.06 33.09L46.22 33.15L46.38 33.21L46.54 33.27L46.7 33.33L46.86 33.39L47.02 33.45L47.18 33.51L47.34 33.57L47.5 33.63L47.66 33.69H47.39V33.68ZM47.38 34.45L47.66 33.68H47.68L47.7 33.7H47.72L47.74 33.72H47.76L47.78 33.74H47.8L47.82 33.77H47.83L47.84 33.8V33.82L47.86 33.84V33.86L47.88 33.88V33.9L47.9 33.92V33.94L47.91 33.96V33.98L47.92 34V34.02V34.04V34.06V34.08V34.1V34.12V34.14V34.16V34.18V34.2V34.22L47.91 34.24V34.26L47.89 34.28V34.3L47.87 34.32V34.34L47.85 34.36V34.38L47.82 34.4H47.81L47.8 34.43H47.78L47.76 34.46H47.74L47.72 34.48H47.7L47.68 34.5H47.66L47.64 34.52H47.62L47.6 34.53H47.58H47.56H47.54H47.52H47.5H47.48H47.46H47.44H47.42H47.4H47.38L47.36 34.52L47.38 34.45ZM52.55 31.94L52.81 32.72L52.65 32.77L52.49 32.82L52.33 32.87L52.17 32.92L52.01 32.97L51.85 33.02L51.69 33.07L51.53 33.12L51.37 33.17L51.21 33.22L51.05 33.27L50.89 33.32L50.73 33.37L50.57 33.42L50.41 33.47L50.25 33.52L50.09 33.57L49.93 33.62L49.77 33.67L49.61 33.72L49.45 33.77L49.29 33.82L49.13 33.87L48.97 33.92L48.81 33.97L48.65 34.02L48.49 34.07L48.33 34.12L48.17 34.17L48.01 34.22L47.85 34.27L47.69 34.32L47.43 33.54L47.59 33.49L47.75 33.44L47.91 33.39L48.07 33.34L48.23 33.29L48.39 33.24L48.55 33.19L48.71 33.14L48.87 33.09L49.03 33.04L49.19 32.99L49.35 32.94L49.51 32.89L49.67 32.84L49.83 32.79L49.99 32.74L50.15 32.69L50.31 32.64L50.47 32.59L50.63 32.54L50.79 32.49L50.95 32.44L51.11 32.39L51.27 32.34L51.43 32.29L51.59 32.24L51.75 32.19L51.91 32.14L52.07 32.09L52.23 32.04L52.39 31.99L52.55 31.94ZM52.81 32.72L52.55 31.94H52.57L52.59 31.93H52.61H52.63H52.65H52.67H52.71H52.73H52.75H52.77H52.79L52.81 31.94H52.83L52.85 31.95H52.87L52.89 31.97H52.91L52.93 31.99H52.95L52.97 32.01H52.99L53 32.04H53.01L53.02 32.07V32.09L53.04 32.11V32.13L53.06 32.15V32.17L53.08 32.19V32.21L53.09 32.23V32.25V32.27V32.29V32.31V32.33V32.35V32.37V32.39V32.41V32.43V32.45L53.08 32.47V32.49L53.07 32.51V32.53L53.05 32.55V32.57L53.03 32.59V32.61L53.01 32.63H53L52.99 32.66H52.97L52.95 32.69H52.93L52.91 32.71H52.89L52.87 32.73H52.85L52.83 32.75H52.81V32.72Z" fill="#58595B"/>
<path d="M42.51 30.86L43.18 31.33V31.35L43.15 31.37V31.39L43.12 31.4H43.11L43.09 31.43H43.07L43.05 31.45H43.03L43.01 31.47H42.99L42.97 31.49H42.95L42.93 31.5H42.91H42.89H42.87H42.85H42.83H42.81H42.79H42.77H42.75H42.73H42.71H42.69H42.67L42.65 31.49H42.63L42.61 31.47H42.59L42.57 31.45H42.55L42.53 31.42H42.51L42.5 31.39V31.37L42.47 31.35V31.33L42.45 31.31V31.29L42.43 31.27V31.25L42.41 31.23V31.21L42.4 31.19V31.17V31.15V31.13V31.11V31.09V31.07V31.05V31.03V31.01V30.99V30.97L42.41 30.95V30.93L42.42 30.91V30.89L42.44 30.87V30.85L42.46 30.83L42.51 30.86ZM47.84 24.2L47.18 24.68H47.85L47.7 24.88L47.55 25.09L47.4 25.3L47.25 25.51L47.1 25.72L46.95 25.93L46.8 26.14L46.65 26.35L46.5 26.56L46.35 26.77L46.2 26.98L46.05 27.19L45.9 27.4L45.75 27.61L45.6 27.82L45.45 28.03L45.3 28.24L45.15 28.45L45 28.66L44.85 28.87L44.7 29.08L44.55 29.29L44.4 29.5L44.25 29.71L44.1 29.92L43.95 30.13L43.8 30.34L43.65 30.55L43.5 30.76L43.35 30.97L43.2 31.18L43.05 31.39L42.38 30.92L42.53 30.71L42.68 30.5L42.83 30.29L42.98 30.08L43.13 29.87L43.28 29.66L43.43 29.45L43.58 29.24L43.73 29.03L43.88 28.82L44.03 28.61L44.18 28.4L44.33 28.19L44.48 27.98L44.63 27.77L44.78 27.56L44.93 27.35L45.08 27.14L45.23 26.93L45.38 26.72L45.53 26.51L45.68 26.3L45.83 26.09L45.98 25.88L46.13 25.67L46.28 25.46L46.43 25.25L46.58 25.04L46.73 24.83L46.88 24.62L47.03 24.41L47.18 24.2H47.85H47.84ZM47.85 24.67L47.18 24.2V24.18L47.21 24.16V24.14L47.24 24.13H47.26L47.28 24.1H47.3L47.32 24.08H47.34L47.36 24.06H47.38L47.4 24.04H47.42L47.44 24.03H47.46H47.48H47.5H47.52H47.54H47.56H47.58H47.6H47.62H47.64H47.66L47.68 24.04H47.7L47.72 24.05H47.74L47.76 24.07H47.78L47.8 24.09H47.82L47.84 24.12H47.86L47.87 24.15V24.17L47.9 24.19V24.21L47.92 24.23V24.25L47.94 24.27V24.29L47.96 24.31V24.33L47.97 24.35V24.37V24.39V24.41V24.43V24.45V24.47V24.49V24.51V24.53V24.55V24.57L47.96 24.59V24.61L47.95 24.63V24.65L47.93 24.67V24.69L47.91 24.71L47.85 24.67ZM52.64 30.79L51.98 31.27L51.83 31.06L51.68 30.85L51.53 30.64L51.38 30.43L51.23 30.22L51.08 30.01L50.93 29.8L50.78 29.59L50.63 29.38L50.48 29.17L50.33 28.96L50.18 28.75L50.03 28.54L49.88 28.34L49.73 28.13L49.58 27.92L49.43 27.71L49.28 27.5L49.13 27.29L48.98 27.08L48.83 26.87L48.68 26.66L48.53 26.45L48.38 26.24L48.23 26.03L48.08 25.82L47.93 25.61L47.78 25.4L47.63 25.19L47.48 24.98L47.33 24.77L47.18 24.56L47.84 24.08L47.99 24.29L48.14 24.5L48.29 24.71L48.44 24.92L48.59 25.13L48.74 25.34L48.89 25.55L49.04 25.76L49.19 25.97L49.34 26.18L49.49 26.39L49.64 26.6L49.79 26.81L49.94 27.02L50.09 27.23L50.24 27.44L50.39 27.65L50.54 27.86L50.69 28.07L50.84 28.28L50.99 28.49L51.14 28.7L51.29 28.91L51.44 29.12L51.59 29.33L51.74 29.54L51.89 29.75L52.04 29.96L52.19 30.17L52.34 30.38L52.49 30.59L52.64 30.8V30.79ZM51.98 31.27L52.64 30.79V30.81L52.66 30.83V30.85L52.68 30.87V30.89L52.69 30.91V30.93L52.7 30.95V30.97V30.99V31.01V31.03V31.05V31.07V31.09V31.11V31.13V31.15V31.17L52.69 31.19V31.21L52.67 31.23V31.25L52.65 31.27V31.29L52.63 31.31V31.33L52.6 31.35H52.59L52.57 31.38H52.55L52.53 31.41H52.51L52.49 31.43H52.47L52.45 31.45H52.43L52.41 31.47H52.39L52.37 31.48H52.35H52.33H52.31H52.29H52.27H52.25H52.23H52.21H52.19H52.17H52.15L52.13 31.47H52.11L52.09 31.45H52.07L52.05 31.43H52.03L52.01 31.41H51.99L51.97 31.38H51.95L51.94 31.35V31.33L51.91 31.31L51.98 31.27Z" fill="#58595B"/>
<path d="M43.54 26.82L43.26 27.59H43.24L43.22 27.57H43.2L43.18 27.55H43.16L43.14 27.53H43.12L43.1 27.5H43.09L43.08 27.47V27.45L43.06 27.43V27.41L43.04 27.39V27.37L43.02 27.35V27.33L43 27.31V27.29L42.99 27.27V27.25V27.23V27.21V27.19V27.17V27.15V27.13V27.11V27.09V27.07V27.05L43 27.03V27.01L43.02 26.99V26.97L43.04 26.95V26.93L43.06 26.91V26.89L43.09 26.87H43.1L43.11 26.84H43.13L43.15 26.82H43.17L43.19 26.8H43.21L43.23 26.78H43.25L43.27 26.76H43.29L43.31 26.75H43.33H43.35H43.37H43.39H43.41H43.43H43.45H43.47H43.49H43.51H43.53L43.55 26.76L43.54 26.82ZM47.38 28.3L47.64 29.08H47.37L47.24 29.03L47.11 28.98L46.98 28.93L46.85 28.88L46.72 28.83L46.59 28.78L46.46 28.73L46.33 28.68L46.2 28.63L46.07 28.58L45.94 28.53L45.81 28.48L45.68 28.43L45.55 28.38L45.42 28.33L45.29 28.28L45.16 28.23L45.03 28.18L44.9 28.13L44.77 28.08L44.64 28.03L44.51 27.98L44.38 27.93L44.25 27.88L44.12 27.83L43.99 27.78L43.86 27.73L43.73 27.68L43.6 27.63L43.47 27.58L43.34 27.53L43.21 27.48L43.49 26.71L43.62 26.76L43.75 26.81L43.88 26.86L44.01 26.91L44.14 26.96L44.27 27.01L44.4 27.06L44.53 27.11L44.66 27.16L44.79 27.21L44.92 27.26L45.05 27.31L45.18 27.36L45.31 27.41L45.44 27.46L45.57 27.51L45.7 27.56L45.83 27.61L45.96 27.66L46.09 27.71L46.22 27.76L46.35 27.81L46.48 27.86L46.61 27.91L46.74 27.96L46.87 28.01L47 28.06L47.13 28.11L47.26 28.16L47.39 28.21L47.52 28.26L47.65 28.31H47.38V28.3ZM47.37 29.08L47.65 28.31H47.67L47.69 28.33H47.71L47.73 28.35H47.75L47.77 28.37H47.79L47.81 28.4H47.82L47.83 28.43V28.45L47.85 28.47V28.49L47.87 28.51V28.53L47.89 28.55V28.57L47.9 28.59V28.61L47.91 28.63V28.65V28.67V28.69V28.71V28.73V28.75V28.77V28.79V28.81V28.83V28.85L47.9 28.87V28.89L47.88 28.91V28.93L47.86 28.95V28.97L47.84 28.99V29.01L47.81 29.02H47.8L47.79 29.05H47.77L47.75 29.07H47.73L47.71 29.09H47.69L47.67 29.11H47.65L47.63 29.12H47.61L47.59 29.13H47.57H47.55H47.53H47.51H47.49H47.47H47.45H47.43H47.41H47.39H47.37L47.35 29.12L47.37 29.08ZM51.6 26.89L51.86 27.67L51.73 27.71L51.6 27.75L51.47 27.79L51.34 27.83L51.21 27.87L51.08 27.91L50.95 27.95L50.82 27.99L50.69 28.03L50.56 28.07L50.43 28.11L50.3 28.15L50.17 28.19L50.04 28.23L49.91 28.27L49.78 28.31L49.65 28.35L49.52 28.39L49.39 28.43L49.26 28.47L49.13 28.51L49 28.55L48.87 28.59L48.74 28.63L48.61 28.67L48.48 28.71L48.35 28.75L48.22 28.79L48.09 28.83L47.96 28.87L47.83 28.91L47.7 28.95L47.44 28.17L47.57 28.13L47.7 28.09L47.83 28.05L47.96 28.01L48.09 27.97L48.22 27.93L48.35 27.89L48.48 27.85L48.61 27.81L48.74 27.77L48.87 27.73L49 27.69L49.13 27.65L49.26 27.61L49.39 27.57L49.52 27.53L49.65 27.49L49.78 27.45L49.91 27.41L50.04 27.37L50.17 27.33L50.3 27.29L50.43 27.25L50.56 27.21L50.69 27.17L50.82 27.13L50.95 27.09L51.08 27.05L51.21 27.01L51.34 26.97L51.47 26.93L51.6 26.89ZM51.86 27.67L51.6 26.89H51.62L51.64 26.88H51.66H51.68H51.7H51.72H51.76H51.78H51.8H51.82H51.84L51.86 26.89H51.88L51.9 26.9H51.92L51.94 26.92H51.96L51.98 26.94H52L52.02 26.96H52.04L52.05 26.99H52.06L52.07 27.02V27.04L52.09 27.06V27.08L52.11 27.1V27.12L52.13 27.14V27.16L52.14 27.18V27.2V27.22V27.24V27.26V27.28V27.3V27.32V27.34V27.36V27.38V27.4L52.13 27.42V27.44L52.12 27.46V27.48L52.1 27.5V27.52L52.08 27.54V27.56L52.06 27.58H52.05L52.04 27.61H52.02L52 27.64H51.98L51.96 27.66H51.94L51.92 27.68H51.9L51.88 27.7H51.86V27.67Z" fill="#58595B"/>
<path d="M43.58 24.93L44.25 25.4V25.42L44.22 25.44V25.46L44.19 25.47H44.17L44.1499 25.5H44.13L44.11 25.52H44.09L44.07 25.54H44.05L44.03 25.56H44.0099L43.99 25.57H43.97H43.95H43.9299H43.91H43.89H43.8699H43.85H43.83H43.81H43.7899H43.77L43.75 25.56H43.7299L43.71 25.55H43.69L43.67 25.53H43.6499L43.63 25.51H43.61L43.59 25.48H43.57L43.56 25.45V25.43L43.53 25.41V25.39L43.5099 25.37V25.35L43.49 25.33V25.31L43.47 25.29V25.27L43.46 25.25V25.23V25.21V25.19V25.17V25.15V25.13V25.11V25.09V25.07V25.05V25.03V25.01V24.99L43.47 24.97V24.95L43.49 24.93V24.91L43.5099 24.89L43.58 24.93ZM47.83 19.81V20.29L44.25 25.41L43.58 24.94L47.17 19.82H47.84L47.83 19.81ZM47.84 20.29L47.17 19.82V19.8L47.2 19.78V19.76L47.2299 19.75H47.25L47.27 19.72H47.2899L47.31 19.7H47.33L47.35 19.68H47.3699L47.39 19.66H47.41L47.4299 19.65H47.45H47.47H47.49H47.5099H47.53H47.55H47.57H47.59H47.61H47.63H47.6499L47.67 19.66H47.69L47.71 19.67H47.7299L47.75 19.69H47.77L47.7899 19.71H47.81L47.83 19.74H47.85L47.86 19.77H47.8699L47.88 19.8V19.82L47.8999 19.84V19.86L47.92 19.88V19.9L47.94 19.92V19.94L47.95 19.96V19.98V20V20.02V20.04V20.06V20.08V20.1V20.12V20.14V20.16V20.18L47.94 20.2V20.22L47.9299 20.24V20.26L47.91 20.28V20.3L47.89 20.32L47.84 20.29ZM50.88 25.4L47.17 20.3L47.84 19.82L51.55 24.92L50.88 25.4ZM50.88 25.4L51.55 24.92V24.94L51.57 24.96V24.98L51.59 25V25.02L51.6 25.04V25.06L51.61 25.08V25.1V25.12V25.14V25.16V25.18V25.2V25.22V25.24V25.26V25.28V25.3L51.6 25.32V25.34L51.58 25.36V25.38L51.56 25.4V25.42L51.5399 25.44V25.46L51.5099 25.48V25.5L51.4799 25.51H51.46L51.44 25.54H51.42L51.3999 25.56H51.38L51.36 25.58H51.34L51.32 25.6H51.3L51.28 25.61H51.2599H51.24H51.22H51.2H51.16H51.14H51.1199H51.1H51.08L51.06 25.6H51.0399L51.02 25.59H51L50.9799 25.57H50.96L50.94 25.55H50.92L50.8999 25.53H50.88L50.8699 25.5V25.48L50.84 25.46V25.44L50.88 25.4Z" fill="#58595B"/>
<path d="M44.4799 21.79L44.1999 22.56H44.1799L44.1599 22.54H44.1399L44.1199 22.52H44.0999L44.0799 22.5H44.0599L44.0399 22.47H44.0299L44.0199 22.44V22.42L43.9999 22.4V22.38L43.9799 22.36V22.34L43.9599 22.32V22.3L43.9499 22.28V22.26L43.9399 22.24V22.22V22.2V22.18V22.16V22.14V22.12V22.1V22.08V22.06V22.04V22.02L43.9499 22V21.98L43.9699 21.96V21.94L43.9899 21.92V21.9L44.0099 21.88V21.86L44.0399 21.84H44.0499L44.0599 21.81H44.0799L44.0999 21.79H44.1199L44.1399 21.77H44.1599L44.1799 21.75H44.1999L44.2199 21.74H44.2399L44.2599 21.73H44.2799H44.2999H44.3199H44.3399H44.3599H44.3799H44.3999H44.4199H44.4399H44.4599H44.4799L44.4999 21.74L44.4799 21.79ZM47.6199 23.71H47.3499L44.1999 22.56L44.4799 21.79L47.6299 22.93V23.71H47.6199ZM47.3499 23.71L47.6299 22.94H47.6499L47.6699 22.96H47.6899L47.7099 22.98H47.7299L47.7499 23H47.7699L47.7899 23.03H47.7999L47.8099 23.06V23.08L47.8299 23.1V23.12L47.8499 23.14V23.16L47.8699 23.18V23.2L47.8799 23.22V23.24L47.8899 23.26V23.28V23.3V23.32V23.34V23.36V23.38V23.4V23.42V23.44V23.46V23.48L47.8799 23.5V23.52L47.8599 23.54V23.56L47.8399 23.58V23.6L47.8199 23.62V23.64L47.7899 23.66H47.7799L47.7699 23.69H47.7499L47.7299 23.71H47.7099L47.6899 23.73H47.6699L47.6499 23.75H47.6299L47.6099 23.76H47.5899L47.5699 23.77H47.5499H47.5299H47.5099H47.4899H47.4699H47.4499H47.4299H47.4099H47.3899H47.3699H47.3499L47.3299 23.76L47.3499 23.71ZM50.9099 22.61L47.6299 23.71L47.3699 22.93L50.6499 21.83L50.9099 22.61ZM50.9099 22.61L50.6499 21.83H50.6699L50.6899 21.82H50.7099H50.7299H50.7499H50.7699H50.8099H50.8299H50.8499H50.8699H50.8899L50.9099 21.83H50.9299L50.9499 21.84H50.9699L50.9899 21.86H51.0099L51.0299 21.88H51.0499L51.0699 21.9H51.0799L51.0899 21.93H51.0999L51.1099 21.96V21.98L51.1299 22V22.02L51.1499 22.04V22.06L51.1699 22.08V22.1L51.1799 22.12V22.14V22.16V22.18V22.2V22.22V22.24V22.26V22.28V22.3V22.32V22.34L51.1699 22.36V22.38L51.1599 22.4V22.42L51.1399 22.44V22.46L51.1199 22.48V22.5L51.0999 22.52H51.0899L51.0799 22.55H51.0699L51.0499 22.58H51.0299L51.0099 22.6H50.9899L50.9699 22.62H50.9499L50.9299 22.64H50.9099V22.61Z" fill="#58595B"/>
<path fill-rule="evenodd" clip-rule="evenodd" d="M48.25 11.75C48.25 10.68 46.85 10.78 46.85 11.75V58.28C46.85 59.21 48.25 59.21 48.25 58.28V11.75Z" fill="#58595B"/>
<path d="M45.98 11.1V11.08L45.99 11.06V11.04L46.01 11.02V11L46.03 10.98V10.96L46.06 10.94V10.92L46.09 10.9L46.11 10.88L46.13 10.86L46.15 10.84H46.17L46.19 10.81H46.21L46.23 10.79H46.25L46.27 10.77H46.29L46.31 10.75H46.33L46.35 10.73H46.37L46.4 10.72H46.43H46.46H46.49H46.52H46.55H46.58H46.61H46.64H46.67L46.7 10.73H46.73L46.76 10.75H46.78L46.8 10.77H46.82L46.84 10.79H46.86L46.88 10.82H46.9L46.92 10.85L46.94 10.87L46.96 10.89L46.98 10.91V10.93L47.01 10.95V10.97L47.03 10.99V11.01L47.05 11.03V11.05L47.07 11.07V11.09L47.08 11.11V11.13V11.15V11.17V11.19V11.21V11.23L46.01 11.1H45.98ZM38 59.72L36.93 59.6L45.98 11.11L47.05 11.24L38 59.73V59.72ZM38 59.72V59.74L37.99 59.76V59.78L37.97 59.8V59.82L37.95 59.84V59.86L37.93 59.88V59.9L37.9 59.92L37.88 59.94L37.86 59.96L37.84 59.98H37.82L37.8 60.01H37.78L37.76 60.03H37.74L37.72 60.05H37.7L37.68 60.07H37.66L37.64 60.08H37.62L37.59 60.09H37.56H37.53H37.5H37.47H37.44H37.41H37.38H37.35H37.32L37.29 60.08H37.26L37.24 60.07H37.22L37.2 60.05H37.18L37.16 60.03H37.14L37.12 60.01H37.1L37.08 59.98L37.06 59.96L37.04 59.94L37.02 59.92V59.9L36.99 59.88V59.86L36.97 59.84V59.82L36.95 59.8V59.78L36.93 59.76V59.74L36.92 59.72V59.7V59.68V59.66V59.64V59.62V59.6L37.99 59.72H38Z" fill="#6D6E71"/>
<path d="M49.13 11.06L48.06 11.18V11.16V11.14V11.1V11.08V11.06V11.04V11.02L48.07 11V10.98L48.09 10.96V10.94L48.11 10.92V10.9L48.14 10.88L48.16 10.86L48.18 10.84L48.2 10.82L48.22 10.8H48.24L48.26 10.77H48.28L48.3 10.74H48.32L48.34 10.72H48.36L48.38 10.7H48.4L48.43 10.68H48.46L48.49 10.67H48.52H48.55H48.58H48.61H48.64H48.67H48.7H48.73H48.76L48.78 10.68H48.81L48.83 10.69H48.85L48.87 10.71H48.89L48.91 10.73H48.93L48.95 10.75H48.97L48.99 10.78H49.01L49.03 10.81L49.05 10.83L49.07 10.85V10.87L49.1 10.89V10.91L49.12 10.93V10.95L49.14 10.97V10.99L49.15 11.01V11.03L49.13 11.06ZM57.11 59.67L48.06 11.18L49.13 11.06L58.18 59.55L57.11 59.67ZM57.11 59.67L58.18 59.55V59.57V59.59V59.63V59.65V59.67V59.69V59.71L58.17 59.73V59.75L58.15 59.77V59.79L58.13 59.81V59.83L58.1 59.85V59.87L58.07 59.89L58.05 59.91L58.03 59.93H58.01L57.99 59.96H57.97L57.95 59.98H57.93L57.91 60H57.89L57.87 60.02H57.85L57.82 60.03H57.79L57.76 60.04H57.73H57.7H57.67H57.64H57.61H57.58H57.55H57.52H57.49L57.47 60.03H57.45L57.43 60.02H57.41L57.39 60H57.37L57.35 59.98H57.33L57.31 59.96H57.29L57.27 59.93L57.25 59.91L57.23 59.89L57.21 59.87L57.19 59.85V59.83L57.16 59.81V59.79L57.14 59.77V59.75L57.12 59.73V59.71L57.11 59.69V59.67Z" fill="#6D6E71"/>
<path d="M40.08 47.25L39.38 47.69V47.67L39.36 47.65V47.63L39.34 47.61V47.59L39.33 47.57V47.55V47.53V47.51V47.49V47.47V47.45V47.43V47.41V47.39V47.37V47.35L39.34 47.33V47.31L39.35 47.29V47.27L39.3699 47.25V47.23L39.39 47.21V47.19L39.41 47.17V47.15L39.44 47.14H39.46L39.4799 47.11H39.5L39.52 47.09H39.5399L39.56 47.07H39.58L39.6 47.05H39.6199L39.64 47.04H39.66H39.6799H39.7H39.72H39.74H39.7599H39.78H39.8H39.82H39.84H39.86L39.88 47.05H39.8999L39.92 47.06H39.94L39.96 47.08H39.9799L40 47.1H40.02L40.0399 47.13H40.06L40.07 47.16V47.18L40.1 47.2V47.22L40.1199 47.24L40.08 47.25ZM47.84 59.94H47.1499L39.39 47.69L40.09 47.25L47.85 59.5V59.94H47.84ZM47.1499 59.94L47.85 59.5V59.52L47.8699 59.54V59.56L47.89 59.58V59.6L47.8999 59.62V59.64V59.66V59.68V59.7V59.72V59.74V59.76V59.78V59.8V59.82V59.84L47.89 59.86V59.88L47.88 59.9V59.92L47.86 59.94V59.96L47.84 59.98V60L47.82 60.02V60.04L47.7899 60.05H47.77L47.75 60.08H47.7299L47.71 60.1H47.69L47.67 60.12H47.6499L47.63 60.14H47.61L47.59 60.15H47.57H47.55H47.53H47.5099H47.49H47.47H47.45H47.4299H47.41H47.39H47.3699L47.35 60.14H47.33L47.31 60.13H47.2899L47.27 60.11H47.25L47.2299 60.09H47.21L47.19 60.07H47.17L47.16 60.04V60.02L47.13 60V59.98L47.11 59.96L47.1499 59.94ZM55.71 47.69L47.84 59.94L47.1499 59.49L55.02 47.24L55.71 47.68V47.69ZM55.71 47.69L55.02 47.25V47.23L55.0399 47.21V47.19L55.07 47.17H55.08L55.1 47.14H55.1199L55.14 47.12H55.16L55.1799 47.1H55.2L55.22 47.08H55.24L55.2599 47.07H55.28L55.3 47.06H55.32H55.34H55.36H55.38H55.42H55.44H55.46H55.4799H55.5L55.52 47.07H55.5399L55.56 47.09H55.58L55.6 47.11H55.6199L55.64 47.13H55.66L55.6799 47.16H55.7L55.71 47.19V47.21L55.74 47.23V47.25L55.7599 47.27V47.29L55.78 47.31V47.33L55.8 47.35V47.37L55.81 47.39V47.41V47.43V47.45V47.47V47.49V47.51V47.53V47.55V47.57V47.59V47.61L55.8 47.63V47.65L55.78 47.67V47.69L55.7599 47.71V47.73L55.71 47.69Z" fill="#808285"/>
<path d="M38.51 54.23L38.75 55.02H38.73L38.71 55.03H38.69H38.67H38.65H38.63H38.61H38.59H38.57H38.55H38.53H38.51H38.49L38.47 55.02H38.45L38.43 55H38.41L38.39 54.98H38.37L38.35 54.96H38.33L38.32 54.93H38.31L38.3 54.9V54.88L38.28 54.86V54.84L38.26 54.82V54.8L38.24 54.78V54.76L38.23 54.74V54.72L38.22 54.7V54.68V54.66V54.64V54.62V54.6V54.58V54.56V54.54V54.52V54.5V54.48L38.23 54.46V54.44L38.25 54.42V54.4L38.27 54.38V54.36L38.29 54.34V54.32L38.32 54.31H38.33L38.35 54.28H38.37L38.39 54.26H38.41L38.43 54.24H38.45L38.47 54.22H38.49L38.51 54.21V54.23ZM47.6 51.49V52.28L38.76 55.02L38.52 54.23L47.37 51.49H47.6ZM47.6 52.28L47.36 51.49H47.38L47.4 51.48H47.42H47.44H47.46H47.48H47.5H47.52H47.54H47.56H47.58H47.6H47.62L47.64 51.49H47.66L47.68 51.51H47.7L47.72 51.53H47.74L47.76 51.55H47.78L47.79 51.58H47.8L47.81 51.61V51.63L47.83 51.65V51.67L47.85 51.69V51.71L47.87 51.73V51.75L47.88 51.77V51.79L47.89 51.81V51.83V51.85V51.87V51.89V51.91V51.93V51.95V51.97V51.99V52.01V52.03L47.88 52.05V52.07L47.86 52.09V52.11L47.84 52.13V52.15L47.82 52.17V52.19L47.79 52.2H47.78L47.76 52.23H47.74L47.72 52.25H47.7L47.68 52.27H47.66L47.64 52.29H47.62L47.6 52.31V52.28ZM56.58 54.92L47.37 52.29L47.6 51.5L56.81 54.13L56.58 54.92ZM56.58 54.92L56.81 54.13H56.83L56.85 54.14H56.87L56.89 54.16H56.91L56.93 54.18H56.95L56.97 54.2H56.99L57 54.23H57.01L57.02 54.26V54.28L57.04 54.3V54.32L57.06 54.34V54.36L57.08 54.38V54.4L57.09 54.42V54.44L57.1 54.46V54.48V54.5V54.52V54.54V54.58V54.6V54.62V54.64V54.66L57.09 54.68V54.7L57.07 54.72V54.74L57.05 54.76V54.78L57.03 54.8V54.82L57.01 54.84H57L56.99 54.87H56.98L56.96 54.9H56.94L56.92 54.92H56.9L56.88 54.94H56.86L56.84 54.96H56.82L56.8 54.97H56.78H56.76H56.74H56.72H56.7H56.68H56.66H56.64H56.62H56.6H56.58V54.92Z" fill="#808285"/>
<path d="M41.24 40.98L40.54 41.42V41.4L40.52 41.38V41.36L40.5 41.34V41.32L40.49 41.3V41.28V41.26V41.24V41.22V41.2V41.18V41.16V41.14V41.12V41.1V41.08L40.5 41.06V41.04L40.51 41.02V41L40.53 40.98V40.96L40.55 40.94V40.92L40.57 40.9V40.88L40.6 40.87H40.62L40.64 40.84H40.66L40.68 40.82H40.7L40.72 40.8H40.74L40.76 40.78H40.78L40.8 40.77H40.82H40.84H40.86H40.88H40.9H40.92H40.94H40.96H40.98H41H41.02L41.04 40.78H41.06L41.08 40.79H41.1L41.12 40.81H41.14L41.16 40.83H41.18L41.2 40.85H41.22L41.23 40.88V40.9L41.26 40.92V40.94L41.28 40.96L41.24 40.98ZM47.17 51.44L47.86 51.89H47.16L46.95 51.56L46.74 51.23L46.53 50.9L46.32 50.57L46.11 50.24L45.9 49.91L45.69 49.58L45.48 49.25L45.27 48.92L45.06 48.59L44.85 48.26L44.64 47.93L44.43 47.6L44.22 47.27L44.01 46.94L43.8 46.61L43.59 46.28L43.38 45.95L43.17 45.62L42.96 45.29L42.75 44.96L42.54 44.63L42.33 44.3L42.12 43.97L41.91 43.64L41.7 43.31L41.49 42.98L41.28 42.65L41.07 42.32L40.86 41.99L40.65 41.66L40.44 41.33L41.14 40.89L41.35 41.22L41.56 41.55L41.77 41.88L41.98 42.21L42.19 42.54L42.4 42.87L42.61 43.2L42.82 43.53L43.03 43.86L43.24 44.19L43.45 44.52L43.66 44.85L43.87 45.18L44.08 45.51L44.29 45.84L44.5 46.17L44.71 46.5L44.92 46.83L45.13 47.16L45.34 47.49L45.55 47.82L45.76 48.15L45.97 48.48L46.18 48.81L46.39 49.14L46.6 49.47L46.81 49.8L47.02 50.13L47.23 50.46L47.44 50.79L47.65 51.12L47.86 51.45H47.17V51.44ZM47.17 51.88L47.87 51.44V51.46L47.89 51.48V51.5L47.91 51.52V51.54L47.92 51.56V51.58V51.6V51.62V51.64V51.66V51.68V51.7V51.72V51.74V51.76V51.78L47.91 51.8V51.82L47.9 51.84V51.86L47.88 51.88V51.9L47.86 51.92V51.94L47.84 51.96V51.98L47.81 51.99H47.8L47.78 52.02H47.76L47.74 52.04H47.72L47.7 52.06H47.68L47.66 52.08H47.64L47.62 52.09H47.6H47.58H47.56H47.54H47.52H47.5H47.48H47.46H47.44H47.42H47.4L47.38 52.08H47.36L47.34 52.07H47.32L47.3 52.05H47.28L47.26 52.03H47.24L47.22 52.01H47.2L47.19 51.98V51.96L47.16 51.94V51.92L47.14 51.9L47.17 51.88ZM53.9 40.98L54.59 41.43L54.38 41.76L54.17 42.09L53.96 42.42L53.75 42.75L53.54 43.08L53.33 43.41L53.12 43.74L52.91 44.07L52.7 44.4L52.49 44.73L52.28 45.06L52.07 45.39L51.86 45.72L51.65 46.05L51.44 46.38L51.23 46.71L51.02 47.04L50.81 47.37L50.6 47.7L50.39 48.03L50.18 48.36L49.97 48.69L49.76 49.02L49.55 49.35L49.34 49.68L49.13 50.01L48.92 50.34L48.71 50.67L48.5 51L48.29 51.33L48.08 51.66L47.87 51.99L47.18 51.54L47.39 51.21L47.6 50.88L47.81 50.55L48.02 50.22L48.23 49.89L48.44 49.56L48.65 49.23L48.86 48.9L49.07 48.57L49.28 48.24L49.49 47.91L49.7 47.58L49.91 47.25L50.12 46.92L50.33 46.59L50.54 46.26L50.75 45.93L50.96 45.6L51.17 45.27L51.38 44.94L51.59 44.61L51.8 44.28L52.01 43.95L52.22 43.62L52.43 43.29L52.64 42.96L52.85 42.63L53.06 42.3L53.27 41.97L53.48 41.64L53.69 41.31L53.9 40.98ZM54.59 41.42L53.9 40.97V40.95L53.92 40.93V40.91L53.95 40.89H53.96L53.98 40.86H54L54.02 40.84H54.04L54.06 40.82H54.08L54.1 40.8H54.12L54.14 40.79H54.16H54.18H54.2H54.22H54.24H54.26H54.3H54.32H54.34H54.36H54.38L54.4 40.8H54.42L54.44 40.82H54.46L54.48 40.84H54.5L54.52 40.86H54.54L54.56 40.89H54.58L54.59 40.92V40.94L54.62 40.96V40.98L54.64 41V41.02L54.66 41.04V41.06L54.68 41.08V41.1L54.69 41.12V41.14V41.16V41.18V41.2V41.22V41.24V41.26V41.28V41.3V41.32V41.34L54.68 41.36V41.38L54.66 41.4V41.42L54.64 41.44V41.46L54.59 41.42Z" fill="#808285"/>
<path d="M39.83 46.92L40.07 47.71H40.05L40.03 47.72H40.01H39.99H39.97H39.95H39.93H39.91H39.89H39.87H39.85H39.83H39.81L39.79 47.71H39.77L39.75 47.69H39.73L39.71 47.67H39.69L39.67 47.65H39.65L39.64 47.62H39.63L39.62 47.59V47.57L39.6 47.55V47.53L39.58 47.51V47.49L39.56 47.47V47.45L39.55 47.43V47.41L39.54 47.39V47.37V47.35V47.33V47.31V47.29V47.27V47.25V47.23V47.21V47.19V47.17L39.55 47.15V47.13L39.57 47.11V47.09L39.59 47.07V47.05L39.61 47.03V47.01L39.64 47H39.65L39.67 46.97H39.69L39.71 46.95H39.73L39.75 46.93H39.77L39.79 46.91H39.81L39.83 46.9V46.92ZM47.62 44.57L47.39 45.36H47.62L47.38 45.43L47.14 45.5L46.9 45.57L46.66 45.64L46.42 45.71L46.18 45.78L45.94 45.85L45.7 45.92L45.46 45.99L45.22 46.06L44.98 46.13L44.74 46.2L44.5 46.27L44.26 46.34L44.02 46.41L43.78 46.48L43.54 46.55L43.3 46.62L43.06 46.69L42.82 46.76L42.58 46.83L42.34 46.9L42.1 46.97L41.86 47.04L41.62 47.11L41.38 47.18L41.14 47.25L40.9 47.32L40.66 47.39L40.42 47.46L40.18 47.53L39.94 47.6L39.7 46.81L39.94 46.74L40.18 46.67L40.42 46.6L40.66 46.53L40.9 46.46L41.14 46.39L41.38 46.32L41.62 46.25L41.86 46.18L42.1 46.11L42.34 46.04L42.58 45.97L42.82 45.9L43.06 45.83L43.3 45.76L43.54 45.69L43.78 45.62L44.02 45.55L44.26 45.48L44.5 45.41L44.74 45.34L44.98 45.27L45.22 45.2L45.46 45.13L45.7 45.06L45.94 44.99L46.18 44.92L46.42 44.85L46.66 44.78L46.9 44.71L47.14 44.64L47.38 44.57H47.61H47.62ZM47.63 45.36L47.39 44.57H47.41L47.43 44.56H47.45H47.47H47.49H47.51H47.53H47.55H47.57H47.59H47.61H47.63H47.65L47.67 44.57H47.69L47.71 44.59H47.73L47.75 44.61H47.77L47.79 44.63H47.8L47.81 44.66H47.82L47.83 44.69V44.71L47.85 44.73V44.75L47.87 44.77V44.79L47.89 44.81V44.83L47.9 44.85V44.87L47.91 44.89V44.91V44.93V44.95V44.97V44.99V45.01V45.03V45.05V45.07V45.09V45.11L47.9 45.13V45.15L47.88 45.17V45.19L47.86 45.21V45.23L47.84 45.25H47.83L47.82 45.28H47.81L47.79 45.31H47.77L47.75 45.33H47.73L47.71 45.35H47.69L47.67 45.37H47.65L47.63 45.38V45.36ZM55.5 46.82L55.27 47.61L55.02 47.54L54.77 47.47L54.52 47.4L54.27 47.33L54.02 47.26L53.77 47.19L53.52 47.12L53.27 47.05L53.02 46.98L52.77 46.91L52.52 46.84L52.27 46.77L52.02 46.7L51.77 46.63L51.52 46.56L51.27 46.49L51.02 46.42L50.77 46.35L50.52 46.28L50.27 46.21L50.02 46.14L49.77 46.07L49.52 46L49.27 45.93L49.02 45.86L48.77 45.79L48.52 45.72L48.27 45.65L48.02 45.58L47.77 45.51L47.52 45.44L47.27 45.37L47.5 44.58L47.75 44.65L48 44.72L48.25 44.79L48.5 44.86L48.75 44.93L49 45L49.25 45.07L49.5 45.14L49.75 45.21L50 45.28L50.25 45.35L50.5 45.42L50.75 45.49L51 45.56L51.25 45.63L51.5 45.7L51.75 45.77L52 45.84L52.25 45.91L52.5 45.98L52.75 46.05L53 46.12L53.25 46.19L53.5 46.26L53.75 46.33L54 46.4L54.25 46.47L54.5 46.54L54.75 46.61L55 46.68L55.25 46.75L55.5 46.82ZM55.27 47.62L55.5 46.83H55.52L55.54 46.84H55.56L55.58 46.86H55.6L55.62 46.88H55.64L55.66 46.9H55.68L55.69 46.93H55.7L55.71 46.96V46.98L55.73 47V47.02L55.75 47.04V47.06L55.77 47.08V47.1L55.78 47.12V47.14L55.79 47.16V47.18V47.2V47.22V47.24V47.28V47.3V47.32V47.34V47.36L55.78 47.38V47.4L55.76 47.42V47.44L55.74 47.46V47.48L55.72 47.5V47.52L55.7 47.54H55.69L55.68 47.57H55.66L55.64 47.6H55.62L55.6 47.62H55.58L55.56 47.64H55.54L55.52 47.66H55.5L55.48 47.67H55.46H55.44H55.42H55.4H55.38H55.36H55.34H55.32H55.3H55.28H55.26L55.27 47.62Z" fill="#808285"/>
<path d="M42.39 34.7L41.69 35.14V35.12L41.67 35.1V35.08L41.6499 35.06V35.04L41.64 35.02V35V34.98V34.96V34.94V34.92V34.9V34.88V34.86V34.84V34.82V34.8L41.6499 34.78V34.76L41.66 34.74V34.72L41.6799 34.7V34.68L41.7 34.66V34.64L41.72 34.62V34.6L41.75 34.59H41.77L41.7899 34.56H41.81L41.83 34.54H41.85L41.8699 34.52H41.89L41.91 34.5H41.9299L41.95 34.49H41.97H41.99H42.0099H42.03H42.05H42.07H42.09H42.11H42.13H42.1499H42.17L42.19 34.5H42.21L42.2299 34.51H42.25L42.27 34.53H42.2899L42.31 34.55H42.33L42.35 34.57H42.3699L42.38 34.6H42.39L42.3999 34.63V34.65L42.42 34.67L42.39 34.7ZM47.2 43.38L47.89 43.82H47.2L47.03 43.55L46.86 43.28L46.69 43.01L46.52 42.74L46.35 42.47L46.1799 42.2L46.0099 41.93L45.84 41.66L45.67 41.39L45.5 41.12L45.33 40.85L45.16 40.58L44.99 40.31L44.82 40.04L44.6499 39.77L44.4799 39.5L44.31 39.23L44.14 38.96L43.97 38.69L43.8 38.42L43.63 38.15L43.46 37.88L43.2899 37.61L43.1199 37.34L42.95 37.07L42.78 36.8L42.61 36.53L42.44 36.26L42.27 35.99L42.1 35.72L41.9299 35.45L41.7599 35.18L42.46 34.74L42.63 35.01L42.8 35.28L42.97 35.55L43.14 35.82L43.31 36.09L43.4799 36.36L43.6499 36.63L43.82 36.9L43.99 37.17L44.16 37.44L44.33 37.71L44.5 37.98L44.67 38.25L44.84 38.52L45.0099 38.79L45.1799 39.06L45.35 39.33L45.52 39.6L45.69 39.87L45.86 40.14L46.03 40.41L46.2 40.68L46.3699 40.95L46.5399 41.22L46.71 41.49L46.88 41.76L47.05 42.03L47.22 42.3L47.39 42.57L47.56 42.84L47.7299 43.11L47.8999 43.38H47.21H47.2ZM47.2 43.83L47.8999 43.39V43.41L47.92 43.43V43.45L47.94 43.47V43.49L47.95 43.51V43.53V43.55V43.57V43.59V43.61V43.63V43.65V43.67V43.69V43.71V43.73L47.94 43.75V43.77L47.9299 43.79V43.81L47.91 43.83V43.85L47.89 43.87V43.89L47.86 43.91V43.93L47.83 43.94H47.82L47.8 43.97H47.78L47.7599 43.99H47.74L47.72 44.01H47.7L47.6799 44.03H47.66L47.64 44.04H47.6199H47.6H47.58H47.56H47.5399H47.52H47.5H47.4799H47.46H47.44H47.42L47.3999 44.03H47.38L47.36 44.02H47.34L47.32 44H47.3L47.28 43.98H47.2599L47.24 43.95H47.22L47.21 43.92V43.9L47.1799 43.88V43.86L47.16 43.84L47.2 43.83ZM52.78 34.7L53.47 35.15L53.3 35.42L53.13 35.69L52.96 35.96L52.7899 36.23L52.6199 36.5L52.45 36.77L52.27 37.04L52.1 37.31L51.9299 37.58L51.7599 37.85L51.59 38.12L51.42 38.39L51.25 38.66L51.08 38.93L50.91 39.2L50.74 39.47L50.57 39.74L50.39 40.01L50.22 40.28L50.05 40.55L49.88 40.82L49.71 41.09L49.5399 41.36L49.3699 41.63L49.2 41.9L49.02 42.17L48.85 42.44L48.6799 42.71L48.5099 42.98L48.34 43.25L48.17 43.52L48 43.79L47.31 43.35L47.4799 43.08L47.6499 42.81L47.82 42.54L47.99 42.27L48.16 42L48.33 41.73L48.5099 41.46L48.6799 41.19L48.85 40.92L49.03 40.65L49.2 40.38L49.3699 40.11L49.5399 39.84L49.71 39.57L49.88 39.3L50.05 39.03L50.22 38.76L50.3999 38.49L50.57 38.22L50.74 37.95L50.91 37.68L51.08 37.41L51.25 37.14L51.42 36.87L51.59 36.6L51.7599 36.33L51.9299 36.06L52.1 35.79L52.28 35.52L52.45 35.25L52.6199 34.98L52.7899 34.71L52.78 34.7ZM53.47 35.15L52.78 34.7V34.68L52.8 34.66V34.64L52.83 34.63H52.84L52.86 34.6H52.88L52.8999 34.58H52.92L52.94 34.56H52.96L52.9799 34.54H53L53.02 34.53H53.0399L53.06 34.52H53.08H53.1H53.1199H53.14H53.1799H53.2H53.22H53.24H53.2599L53.28 34.53H53.3L53.32 34.54H53.34L53.36 34.56H53.38L53.3999 34.58H53.42L53.44 34.61H53.46L53.47 34.64V34.66L53.5 34.68V34.7L53.52 34.72V34.74L53.5399 34.76V34.78L53.56 34.8V34.82L53.57 34.84V34.86V34.88V34.9V34.92V34.94V34.96V34.98V35V35.02V35.04V35.06L53.56 35.08V35.1L53.55 35.12V35.14L53.53 35.16V35.18L53.47 35.15Z" fill="#808285"/>
<path d="M41.14 39.6L41.38 40.39H41.36L41.34 40.4H41.32H41.3H41.28H41.26H41.24H41.22H41.2H41.18H41.16H41.14H41.12L41.1 40.39H41.08L41.06 40.37H41.04L41.02 40.35H41L40.98 40.33H40.97L40.95 40.3H40.94L40.93 40.27V40.25L40.91 40.23V40.21L40.89 40.19V40.17L40.87 40.15V40.13L40.86 40.11V40.09L40.85 40.07V40.05V40.03V40.01V39.99V39.97V39.95V39.93V39.91V39.89V39.87V39.85L40.86 39.83V39.81L40.88 39.79V39.77L40.9 39.75V39.73L40.92 39.71V39.69L40.95 39.68H40.96L40.98 39.65H41L41.02 39.63H41.04L41.06 39.61H41.08L41.1 39.59H41.12L41.14 39.57V39.6ZM47.65 37.66L47.42 38.45H47.65L47.45 38.51L47.25 38.57L47.05 38.63L46.85 38.69L46.65 38.75L46.45 38.81L46.25 38.87L46.05 38.93L45.85 38.99L45.65 39.05L45.45 39.11L45.25 39.17L45.05 39.23L44.85 39.29L44.65 39.35L44.45 39.41L44.25 39.47L44.05 39.53L43.85 39.59L43.65 39.65L43.45 39.71L43.25 39.77L43.05 39.83L42.85 39.89L42.65 39.95L42.45 40.01L42.25 40.07L42.05 40.13L41.85 40.19L41.65 40.25L41.45 40.31L41.25 40.37L41.01 39.58L41.21 39.52L41.41 39.46L41.61 39.4L41.81 39.34L42.01 39.28L42.21 39.22L42.41 39.16L42.61 39.1L42.81 39.04L43.01 38.98L43.21 38.92L43.41 38.86L43.61 38.8L43.81 38.74L44.01 38.68L44.21 38.62L44.41 38.56L44.61 38.5L44.81 38.44L45.01 38.38L45.21 38.32L45.41 38.26L45.61 38.2L45.81 38.14L46.01 38.08L46.21 38.02L46.41 37.96L46.61 37.9L46.81 37.84L47.01 37.78L47.21 37.72L47.41 37.66H47.64H47.65ZM47.66 38.45L47.42 37.66H47.44L47.46 37.65H47.48H47.5H47.52H47.54H47.56H47.58H47.6H47.62H47.64H47.66H47.68L47.7 37.66H47.72L47.74 37.68H47.76L47.78 37.7H47.8L47.82 37.72H47.84L47.85 37.75H47.86L47.87 37.78V37.8L47.89 37.82V37.84L47.91 37.86V37.88L47.93 37.9V37.92L47.94 37.94V37.96L47.95 37.98V38V38.02V38.04V38.06V38.08V38.1V38.12V38.14V38.16V38.18V38.2L47.94 38.22V38.24L47.92 38.26V38.28L47.9 38.3V38.32L47.88 38.34V38.36L47.85 38.37H47.84L47.82 38.4H47.8L47.78 38.42H47.76L47.74 38.44H47.72L47.7 38.46H47.68L47.66 38.47V38.45ZM54.18 39.53L53.95 40.32L53.75 40.26L53.55 40.2L53.35 40.14L53.15 40.08L52.95 40.02L52.75 39.96L52.55 39.9L52.35 39.84L52.15 39.78L51.95 39.72L51.75 39.66L51.55 39.6L51.35 39.54L51.15 39.48L50.95 39.42L50.75 39.36L50.55 39.3L50.35 39.24L50.15 39.18L49.95 39.12L49.75 39.06L49.55 39L49.35 38.94L49.15 38.88L48.95 38.82L48.75 38.76L48.55 38.7L48.35 38.64L48.15 38.58L47.95 38.52L47.75 38.46L47.55 38.4L47.78 37.61L47.98 37.67L48.18 37.73L48.38 37.79L48.58 37.85L48.79 37.91L48.99 37.97L49.2 38.03L49.4 38.09L49.6 38.15L49.8 38.21L50 38.27L50.2 38.33L50.4 38.39L50.6 38.45L50.8 38.51L51 38.57L51.2 38.63L51.4 38.69L51.6 38.75L51.8 38.81L52 38.87L52.2 38.93L52.4 38.99L52.6 39.05L52.8 39.11L53 39.17L53.2 39.23L53.4 39.29L53.6 39.35L53.8 39.41L54 39.47L54.2 39.53H54.18ZM53.96 40.32L54.19 39.53H54.21L54.23 39.54H54.25L54.27 39.56H54.29L54.31 39.58H54.33L54.35 39.6H54.37L54.39 39.63H54.4L54.41 39.66V39.68L54.43 39.7V39.72L54.45 39.74V39.76L54.47 39.78V39.8L54.48 39.82V39.84L54.49 39.86V39.88V39.9V39.92V39.94V39.98V40V40.02V40.04V40.06L54.48 40.08V40.1L54.46 40.12V40.14L54.44 40.16V40.18L54.42 40.2V40.22L54.4 40.24V40.26L54.37 40.27H54.35L54.33 40.3H54.31L54.29 40.32H54.27L54.25 40.34H54.23L54.21 40.36H54.19L54.17 40.37H54.15H54.13H54.11H54.09H54.07H54.05H54.03H54.01H53.99H53.97H53.95L53.96 40.32Z" fill="#808285"/>
<path d="M43.55 28.43L42.85 28.87V28.85L42.83 28.83V28.81L42.81 28.79V28.77L42.8 28.75V28.73V28.71V28.69V28.67V28.65V28.63V28.61V28.59V28.57V28.55V28.53L42.81 28.51V28.49L42.82 28.47V28.45L42.84 28.43V28.41L42.86 28.39V28.37L42.88 28.35H42.89L42.9 28.32H42.92L42.94 28.29H42.96L42.98 28.27H43L43.02 28.25H43.04L43.06 28.23H43.08L43.1 28.22H43.12H43.14H43.16H43.18H43.2H43.22H43.24H43.26H43.28H43.3H43.32L43.34 28.23H43.36L43.38 28.24H43.4L43.42 28.26H43.44L43.46 28.28H43.48L43.5 28.3H43.52L43.53 28.33V28.35L43.56 28.37V28.39L43.58 28.41L43.55 28.43ZM47.22 35.33L47.91 35.77H47.22L47.08 35.55L46.94 35.33L46.8 35.11L46.66 34.9L46.52 34.68L46.38 34.46L46.24 34.24L46.1 34.02L45.96 33.8L45.82 33.59L45.68 33.37L45.54 33.15L45.4 32.93L45.26 32.71L45.12 32.5L44.98 32.28L44.84 32.06L44.7 31.84L44.56 31.62L44.42 31.4L44.28 31.19L44.14 30.97L44 30.75L43.86 30.53L43.72 30.31L43.58 30.09L43.44 29.87L43.3 29.65L43.16 29.44L43.02 29.22L42.88 29L42.74 28.78L43.44 28.34L43.58 28.55L43.72 28.77L43.86 28.99L44 29.21L44.14 29.43L44.28 29.64L44.42 29.86L44.56 30.08L44.7 30.3L44.84 30.52L44.98 30.74L45.12 30.96L45.26 31.18L45.4 31.39L45.54 31.61L45.68 31.83L45.82 32.05L45.96 32.27L46.1 32.49L46.24 32.7L46.38 32.92L46.52 33.13L46.66 33.35L46.8 33.57L46.94 33.78L47.08 34L47.22 34.22L47.36 34.44L47.5 34.66L47.64 34.88L47.78 35.09L47.92 35.31H47.23L47.22 35.33ZM47.22 35.77L47.92 35.33V35.35L47.94 35.37V35.39L47.96 35.41V35.43L47.97 35.45V35.47V35.49V35.51V35.53V35.55V35.57V35.59V35.61V35.63V35.65V35.67L47.96 35.69V35.71L47.95 35.73V35.75L47.93 35.77V35.79L47.91 35.81V35.83L47.89 35.85V35.87L47.86 35.88H47.84L47.82 35.91H47.8L47.78 35.93H47.76L47.74 35.95H47.72L47.7 35.97H47.68L47.66 35.98H47.64H47.62H47.6H47.58H47.56H47.54H47.52H47.5H47.48H47.46H47.44L47.42 35.97H47.4L47.38 35.96H47.36L47.34 35.94H47.32L47.3 35.92H47.28L47.26 35.9H47.24L47.23 35.87V35.85L47.2 35.83V35.81L47.18 35.79L47.22 35.77ZM51.66 28.43L52.35 28.87L52.21 29.09L52.07 29.31L51.93 29.53L51.79 29.75L51.65 29.96L51.51 30.18L51.37 30.4L51.23 30.62L51.09 30.84L50.95 31.06L50.81 31.28L50.67 31.5L50.53 31.72L50.39 31.94L50.25 32.16L50.11 32.38L49.97 32.6L49.83 32.82L49.69 33.04L49.55 33.26L49.41 33.48L49.27 33.7L49.13 33.92L48.99 34.14L48.85 34.36L48.71 34.58L48.57 34.8L48.43 35.02L48.29 35.24L48.15 35.46L48.01 35.68L47.87 35.9L47.18 35.46L47.32 35.24L47.46 35.02L47.6 34.8L47.74 34.58L47.88 34.36L48.02 34.14L48.16 33.92L48.3 33.7L48.44 33.48L48.58 33.26L48.72 33.04L48.86 32.82L49 32.6L49.14 32.38L49.28 32.16L49.42 31.94L49.56 31.73L49.7 31.51L49.84 31.29L49.98 31.07L50.12 30.85L50.26 30.63L50.4 30.41L50.54 30.19L50.68 29.97L50.82 29.75L50.96 29.53L51.1 29.31L51.24 29.09L51.38 28.87L51.52 28.65L51.66 28.43ZM52.35 28.87L51.66 28.43V28.41L51.68 28.39V28.37L51.71 28.36H51.72L51.74 28.33H51.76L51.78 28.31H51.8L51.82 28.29H51.84L51.86 28.27H51.88L51.9 28.26H51.92L51.94 28.25H51.96H51.98H52H52.02H52.06H52.08H52.1H52.12H52.14L52.16 28.26H52.18L52.2 28.27H52.22L52.24 28.29H52.26L52.28 28.31H52.3L52.32 28.34H52.34L52.35 28.37V28.39L52.38 28.41V28.43L52.4 28.45V28.47L52.42 28.49V28.51L52.44 28.53V28.55L52.45 28.57V28.59V28.61V28.63V28.65V28.67V28.69V28.71V28.73V28.75V28.77V28.79L52.44 28.81V28.83L52.43 28.85V28.87L52.41 28.89V28.91L52.35 28.87Z" fill="#808285"/>
<path d="M42.46 32.29L42.7 33.08H42.68L42.66 33.09H42.64H42.62H42.6H42.58H42.56H42.54H42.52H42.5H42.48H42.46H42.44L42.42 33.08H42.4L42.38 33.06H42.36L42.34 33.04H42.32L42.3 33.02H42.28L42.27 32.99H42.26L42.25 32.96V32.94L42.23 32.92V32.9L42.21 32.88V32.86L42.19 32.84V32.82L42.18 32.8V32.78L42.17 32.76V32.74V32.72V32.7V32.68V32.66V32.64V32.62V32.6V32.58V32.56V32.54L42.18 32.52V32.5L42.2 32.48V32.46L42.22 32.44V32.42L42.24 32.4V32.38L42.27 32.37H42.28L42.3 32.34H42.32L42.34 32.32H42.36L42.38 32.3H42.4L42.42 32.28H42.44L42.46 32.27V32.29ZM47.68 30.74L47.45 31.53H47.68L47.52 31.57L47.36 31.62L47.2 31.67L47.04 31.72L46.88 31.77L46.72 31.82L46.56 31.87L46.4 31.92L46.24 31.97L46.08 32.02L45.92 32.07L45.76 32.12L45.6 32.17L45.44 32.22L45.28 32.27L45.12 32.32L44.96 32.37L44.8 32.42L44.64 32.47L44.48 32.52L44.32 32.57L44.16 32.62L44 32.67L43.84 32.72L43.68 32.77L43.52 32.82L43.36 32.87L43.2 32.92L43.04 32.97L42.88 33.02L42.72 33.07L42.56 33.12L42.32 32.33L42.48 32.28L42.64 32.23L42.8 32.18L42.96 32.13L43.12 32.08L43.28 32.03L43.44 31.98L43.6 31.93L43.76 31.88L43.92 31.83L44.08 31.78L44.24 31.73L44.4 31.68L44.56 31.63L44.72 31.58L44.88 31.53L45.04 31.48L45.2 31.43L45.36 31.38L45.52 31.33L45.68 31.28L45.84 31.23L46 31.18L46.16 31.13L46.32 31.08L46.48 31.03L46.64 30.98L46.8 30.93L46.96 30.88L47.12 30.83L47.28 30.78L47.44 30.73H47.67L47.68 30.74ZM47.68 31.53L47.44 30.74H47.46L47.48 30.73H47.5H47.52H47.54H47.56H47.58H47.6H47.62H47.64H47.66H47.68H47.7L47.72 30.74H47.74L47.76 30.76H47.78L47.8 30.78H47.82L47.84 30.8H47.85L47.87 30.83H47.88L47.89 30.86V30.88L47.91 30.9V30.92L47.93 30.94V30.96L47.95 30.98V31L47.96 31.02V31.04L47.97 31.06V31.08V31.1V31.12V31.14V31.16V31.18V31.2V31.22V31.24V31.26V31.28L47.96 31.3V31.32L47.94 31.34V31.36L47.92 31.38V31.4L47.9 31.42V31.44L47.87 31.45H47.86L47.84 31.48H47.82L47.8 31.5H47.78L47.76 31.52H47.74L47.72 31.54H47.7L47.68 31.55V31.53ZM52.87 32.23L52.64 33.02L52.48 32.97L52.32 32.92L52.16 32.87L52 32.82L51.84 32.77L51.68 32.72L51.52 32.67L51.36 32.62L51.2 32.57L51.04 32.52L50.88 32.47L50.72 32.42L50.56 32.37L50.4 32.32L50.24 32.27L50.08 32.22L49.92 32.17L49.76 32.12L49.6 32.07L49.44 32.02L49.28 31.97L49.12 31.92L48.96 31.87L48.8 31.82L48.64 31.77L48.48 31.72L48.32 31.67L48.16 31.62L48 31.57L47.84 31.52L47.68 31.47L47.52 31.42L47.75 30.63L47.91 30.68L48.07 30.73L48.23 30.78L48.39 30.83L48.55 30.88L48.71 30.93L48.87 30.98L49.03 31.03L49.19 31.08L49.35 31.13L49.51 31.18L49.67 31.23L49.83 31.28L49.99 31.33L50.15 31.38L50.31 31.43L50.47 31.48L50.63 31.53L50.79 31.58L50.95 31.63L51.11 31.68L51.27 31.73L51.43 31.78L51.59 31.83L51.75 31.88L51.91 31.93L52.07 31.98L52.23 32.03L52.39 32.08L52.55 32.13L52.71 32.18L52.87 32.23ZM52.64 33.02L52.87 32.23H52.89L52.91 32.24H52.93L52.95 32.26H52.97L52.99 32.28H53.01L53.03 32.3H53.05L53.06 32.33H53.07L53.08 32.36V32.38L53.1 32.4V32.42L53.12 32.44V32.46L53.14 32.48V32.5L53.15 32.52V32.54L53.16 32.56V32.58V32.6V32.62V32.64V32.68V32.7V32.72V32.74V32.76L53.15 32.78V32.8L53.13 32.82V32.84L53.11 32.86V32.88L53.09 32.9V32.92L53.07 32.94H53.06L53.05 32.97H53.04L53.02 33H53L52.98 33.02H52.96L52.94 33.04H52.92L52.9 33.06H52.88L52.86 33.07H52.84H52.82H52.8H52.78H52.76H52.74H52.72H52.7H52.68H52.66H52.64V33.02Z" fill="#808285"/>
<path d="M44.7 22.16L44 22.6V22.58L43.9799 22.56V22.54L43.96 22.52V22.5L43.95 22.48V22.46V22.44V22.42V22.4V22.38V22.36V22.34V22.32V22.3V22.28V22.26L43.96 22.24V22.22L43.97 22.2V22.18L43.99 22.16V22.14L44.0099 22.12V22.1L44.03 22.08V22.06L44.06 22.05H44.08L44.1 22.02H44.1199L44.14 22H44.16L44.1799 21.98H44.2L44.22 21.96H44.24L44.2599 21.95H44.28H44.3H44.32H44.34H44.36H44.38H44.3999H44.42H44.44H44.46H44.4799L44.5 21.96H44.52L44.5399 21.97H44.56L44.58 21.99H44.6L44.6199 22.01H44.64L44.66 22.03H44.6799L44.69 22.06V22.08L44.72 22.1V22.12L44.74 22.14L44.7 22.16ZM47.94 27.72H47.25L44.0099 22.6L44.71 22.16L47.95 27.28V27.72H47.94ZM47.25 27.72L47.95 27.28V27.3L47.97 27.32V27.34L47.99 27.36V27.38L48 27.4V27.42V27.44V27.46V27.48V27.5V27.52V27.54V27.56V27.58V27.6V27.62L47.99 27.64V27.66L47.9799 27.68V27.7L47.96 27.72V27.74L47.94 27.76V27.78L47.92 27.8V27.82L47.89 27.83H47.8699L47.85 27.86H47.83L47.81 27.88H47.7899L47.77 27.9H47.75L47.7299 27.92H47.71L47.69 27.93H47.67H47.6499H47.63H47.61H47.59H47.57H47.55H47.53H47.5099H47.49H47.47L47.45 27.92H47.4299L47.41 27.91H47.39L47.3699 27.89H47.35L47.33 27.87H47.31L47.2899 27.85H47.27L47.2599 27.82V27.8L47.2299 27.78V27.76L47.21 27.74L47.25 27.72ZM51.2299 22.6L47.94 27.72L47.25 27.27L50.5399 22.15L51.2299 22.6ZM51.2299 22.6L50.5399 22.15V22.13L50.56 22.11V22.09L50.59 22.07H50.61L50.63 22.04H50.6499L50.67 22.02H50.69L50.71 22H50.7299L50.75 21.98H50.77L50.7899 21.97H50.81L50.83 21.96H50.85H50.8699H50.89H50.91H50.95H50.97H50.99H51.0099H51.03L51.05 21.97H51.07L51.09 21.98H51.11L51.13 22H51.1499L51.17 22.02H51.19L51.21 22.05H51.2299L51.24 22.08V22.1L51.27 22.12V22.14L51.2899 22.16V22.18L51.31 22.2V22.22L51.33 22.24V22.26L51.34 22.28V22.3V22.32V22.34V22.36V22.38V22.4V22.42V22.44V22.46V22.48V22.5L51.33 22.52V22.54L51.31 22.56V22.58L51.2899 22.6V22.62L51.2299 22.6Z" fill="#808285"/>
<path d="M43.77 24.98L44.01 25.77H43.99L43.97 25.78H43.95H43.93H43.91H43.89H43.87H43.85H43.83H43.81H43.79H43.77H43.75L43.73 25.77H43.71L43.69 25.75H43.67L43.65 25.73H43.63L43.61 25.71H43.59L43.58 25.68H43.57L43.56 25.65V25.63L43.54 25.61V25.59L43.52 25.57V25.55L43.5 25.53V25.51L43.48 25.49V25.47L43.47 25.45V25.43V25.41V25.39V25.37V25.35V25.33V25.31V25.29V25.27V25.25V25.23L43.48 25.21V25.19L43.5 25.17V25.15L43.52 25.13V25.11L43.54 25.09H43.55L43.56 25.06H43.57L43.59 25.03H43.61L43.63 25.01H43.65L43.67 24.99H43.69L43.71 24.97H43.73L43.75 24.96L43.77 24.98ZM47.7 23.83V24.62L44.01 25.76L43.77 24.97L47.47 23.83H47.7ZM47.71 24.62L47.47 23.83H47.49L47.51 23.82H47.53H47.55H47.57H47.59H47.61H47.63H47.65H47.67H47.69H47.71H47.73L47.75 23.83H47.77L47.79 23.85H47.81L47.83 23.87H47.85L47.87 23.89H47.89L47.9 23.92H47.91L47.92 23.95V23.97L47.94 23.99V24.01L47.96 24.03V24.05L47.98 24.07V24.09L48 24.11V24.13L48.01 24.15V24.17V24.19V24.21V24.23V24.25V24.27V24.29V24.31V24.33V24.35V24.37L48 24.39V24.41L47.98 24.43V24.45L47.96 24.47V24.49L47.94 24.51V24.53L47.91 24.54H47.9L47.89 24.57H47.87L47.85 24.59H47.83L47.81 24.61H47.79L47.77 24.63H47.75L47.73 24.65L47.71 24.62ZM51.33 25.72L47.48 24.62L47.71 23.83L51.56 24.93L51.33 25.72ZM51.33 25.72L51.56 24.93H51.58L51.6 24.94H51.62L51.64 24.96H51.66L51.68 24.98H51.7L51.72 25H51.74L51.75 25.03H51.76L51.77 25.06V25.08L51.79 25.1V25.12L51.81 25.14V25.16L51.83 25.18V25.2L51.84 25.22V25.24L51.85 25.26V25.28V25.3V25.32V25.34V25.38V25.4V25.42V25.44V25.46L51.84 25.48V25.5L51.82 25.52V25.54L51.8 25.56V25.58L51.78 25.6V25.62L51.76 25.64H51.75L51.74 25.67H51.72L51.7 25.69H51.68L51.66 25.71H51.64L51.62 25.73H51.6L51.58 25.75H51.56L51.54 25.76H51.52H51.5H51.48H51.46H51.44H51.42H51.4H51.38H51.36H51.34H51.32L51.33 25.72Z" fill="#808285"/>
<path d="M47.04 11.17V11.15V11.13V11.11V11.09V11.07L47.05 11.05V11.03L47.07 11.01V10.99L47.09 10.97V10.95L47.12 10.93L47.14 10.91L47.16 10.89L47.18 10.87H47.2L47.22 10.84H47.24L47.26 10.81H47.28L47.3 10.79H47.32L47.34 10.77H47.36L47.38 10.75H47.4L47.43 10.74H47.46H47.49H47.52H47.55H47.58H47.61H47.64H47.67H47.7H47.73H47.76L47.78 10.75H47.8L47.82 10.77H47.84L47.86 10.79H47.88L47.9 10.81H47.92L47.94 10.84H47.96L47.98 10.87L48 10.89L48.02 10.91L48.04 10.93V10.95L48.07 10.97V10.99L48.09 11.01V11.03L48.11 11.05V11.07L48.12 11.09V11.11V11.13V11.15V11.17H47.04ZM47.96 65.36H46.88L47.04 11.17H48.12L47.96 65.36ZM47.96 65.36V65.38V65.4V65.42V65.44V65.46L47.95 65.48V65.5L47.93 65.52V65.54L47.91 65.56V65.58L47.88 65.6V65.62L47.85 65.64L47.83 65.66H47.81L47.79 65.69H47.77L47.75 65.72H47.73L47.71 65.74H47.69L47.67 65.76H47.65L47.63 65.78H47.61L47.58 65.79H47.55H47.52H47.49H47.46H47.43H47.4H47.37H47.34H47.31H47.28H47.25L47.23 65.78H47.21L47.19 65.76H47.17L47.15 65.74H47.13L47.11 65.72H47.09L47.07 65.69H47.05L47.03 65.66L47.01 65.64L46.99 65.62V65.6L46.96 65.58V65.56L46.93 65.54V65.52L46.91 65.5V65.48L46.89 65.46V65.44L46.88 65.42V65.4V65.38V65.36H47.96Z" fill="#939598"/>
<path fill-rule="evenodd" clip-rule="evenodd" d="M47.59 14.19L52.27 11.52V10.7L47.59 13.38V14.19Z" fill="#58595B"/>
<path fill-rule="evenodd" clip-rule="evenodd" d="M47.59 14.19L42.9 11.52V10.7L47.59 13.38V14.19Z" fill="#939598"/>
<path fill-rule="evenodd" clip-rule="evenodd" d="M52.27 10.7L47.59 13.38L42.9 10.7L47.59 8.03L52.27 10.7Z" fill="#BCBEC0"/>
<path fill-rule="evenodd" clip-rule="evenodd" d="M47.59 12.8L50.94 10.88V10.3L47.59 12.22V12.8Z" fill="#58595B"/>
<path fill-rule="evenodd" clip-rule="evenodd" d="M47.59 12.8L44.23 10.88V10.3L47.59 12.22V12.8Z" fill="#939598"/>
<path fill-rule="evenodd" clip-rule="evenodd" d="M50.94 10.3L47.59 12.22L44.23 10.3L47.59 8.39L50.94 10.3Z" fill="#BCBEC0"/>
<path fill-rule="evenodd" clip-rule="evenodd" d="M47.5 11.24C48.17 11.24 48.72 10.84 48.72 10.35C48.72 9.86 48.17 9.46 47.5 9.46C46.83 9.46 46.28 9.86 46.28 10.35C46.28 10.84 46.83 11.24 47.5 11.24Z" fill="#58595B"/>
<path fill-rule="evenodd" clip-rule="evenodd" d="M87.76 11.16C79.46 14.82 68.32 18.77 66.92 21.9C64.44 27.44 79.52 26.49 83.11 27.59C90.11 29.74 44.6 60 76.57 60C86.92 60 101.26 46.23 109.29 56.21C111.24 58.64 113.59 60.28 116.19 61.28L145.95 44.31L87.77 11.17L87.76 11.16Z" fill="#E0C7A2"/>
<path fill-rule="evenodd" clip-rule="evenodd" d="M88.24 57.43C85.37 57.43 83.04 58.91 83.04 60.74C83.04 62.57 85.37 64.05 88.24 64.05C91.11 64.05 93.44 62.57 93.44 60.74C93.44 58.91 91.11 57.43 88.24 57.43Z" fill="#689F1B"/>
<path fill-rule="evenodd" clip-rule="evenodd" d="M84.15 50.53C86.79 48.5 90.65 49.05 92.75 51.76C94.86 54.47 94.42 58.31 91.78 60.34C89.14 62.37 85.28 61.82 83.17 59.11C81.06 56.4 81.5 52.56 84.14 50.53H84.15Z" fill="#446616"/>
<path fill-rule="evenodd" clip-rule="evenodd" d="M84.61 50.7C86.74 49.06 89.86 49.51 91.56 51.69C93.26 53.88 92.91 56.98 90.78 58.61C88.65 60.25 85.54 59.8 83.83 57.62C82.13 55.43 82.48 52.34 84.61 50.7Z" fill="#4E7F16"/>
<path fill-rule="evenodd" clip-rule="evenodd" d="M84.56 50.63C86.29 49.3 88.82 49.66 90.2 51.44C91.58 53.21 91.3 55.73 89.56 57.06C87.83 58.39 85.3 58.03 83.92 56.25C82.54 54.47 82.82 51.96 84.56 50.63Z" fill="#6DA51C"/>
<path fill-rule="evenodd" clip-rule="evenodd" d="M75.59 26.72C72.72 26.72 70.39 28.2 70.39 30.03C70.39 31.86 72.72 33.34 75.59 33.34C78.46 33.34 80.79 31.86 80.79 30.03C80.79 28.2 78.46 26.72 75.59 26.72Z" fill="#689F1B"/>
<path fill-rule="evenodd" clip-rule="evenodd" d="M71.5 19.81C74.14 17.78 78 18.33 80.1 21.04C82.21 23.75 81.77 27.59 79.13 29.62C76.49 31.65 72.63 31.1 70.52 28.39C68.41 25.68 68.85 21.84 71.49 19.81H71.5Z" fill="#446616"/>
<path fill-rule="evenodd" clip-rule="evenodd" d="M71.9601 19.98C74.0901 18.34 77.2001 18.79 78.9101 20.97C80.6101 23.16 80.2601 26.26 78.1301 27.89C76.0001 29.53 72.8901 29.08 71.1801 26.9C69.4801 24.71 69.8301 21.61 71.9601 19.98Z" fill="#4E7F16"/>
<path fill-rule="evenodd" clip-rule="evenodd" d="M71.91 19.92C73.64 18.59 76.17 18.95 77.55 20.73C78.93 22.5 78.65 25.02 76.91 26.35C75.18 27.68 72.65 27.32 71.27 25.54C69.89 23.76 70.17 21.25 71.91 19.92Z" fill="#6DA51C"/>
<path fill-rule="evenodd" clip-rule="evenodd" d="M71.72 32.22C69.54 32.22 67.78 33.34 67.78 34.73C67.78 36.12 69.55 37.24 71.72 37.24C73.89 37.24 75.66 36.12 75.66 34.73C75.66 33.34 73.89 32.22 71.72 32.22Z" fill="#689F1B"/>
<path fill-rule="evenodd" clip-rule="evenodd" d="M68.61 26.99C70.62 25.45 73.54 25.87 75.14 27.92C76.74 29.97 76.41 32.89 74.4 34.43C72.39 35.97 69.47 35.55 67.87 33.5C66.27 31.45 66.6 28.53 68.61 26.99Z" fill="#446616"/>
<path fill-rule="evenodd" clip-rule="evenodd" d="M68.96 27.11C70.58 25.87 72.94 26.2 74.23 27.86C75.52 29.52 75.26 31.87 73.64 33.11C72.02 34.35 69.66 34.02 68.37 32.36C67.08 30.7 67.35 28.35 68.96 27.11Z" fill="#4E7F16"/>
<path fill-rule="evenodd" clip-rule="evenodd" d="M68.93 27.06C70.25 26.05 72.16 26.32 73.21 27.67C74.26 29.02 74.04 30.93 72.73 31.94C71.41 32.95 69.5 32.68 68.45 31.33C67.4 29.98 67.62 28.07 68.93 27.06Z" fill="#6DA51C"/>
</g>
<defs>
<filter id="filter0_d_10_854" x="0.209997" y="0.569998" width="154.34" height="232.04" filterUnits="userSpaceOnUse" color-interpolation-filters="sRGB">
<feFlood flood-opacity="0" result="BackgroundImageFix"/>
<feColorMatrix in="SourceAlpha" type="matrix" values="0 0 0 0 0 0 0 0 0 0 0 0 0 0 0 0 0 0 127 0" result="hardAlpha"/>
<feOffset dy="4"/>
<feGaussianBlur stdDeviation="4.3"/>
<feComposite in2="hardAlpha" operator="out"/>
<feColorMatrix type="matrix" values="0 0 0 0 0 0 0 0 0 1 0 0 0 0 0.983333 0 0 0 0.25 0"/>
<feBlend mode="normal" in2="BackgroundImageFix" result="effect1_dropShadow_10_854"/>
<feBlend mode="normal" in="SourceGraphic" in2="effect1_dropShadow_10_854" result="shape"/>
</filter>
</defs>
</svg>
