<svg width="27" height="32" viewBox="0 0 27 32" fill="none" xmlns="http://www.w3.org/2000/svg">
<g clip-path="url(#clip0_10_1777)">
<path d="M15.65 4.12999C21.86 0.549995 26.91 3.41999 26.93 10.55C26.95 17.68 21.93 26.37 15.73 29.95C9.51996 33.53 4.47996 30.66 4.45996 23.52C4.43996 16.39 9.44996 7.69999 15.66 4.11999L15.65 4.12999Z" fill="#F2C819"/>
<path d="M-2.92975e-05 20.44C-2.92975e-05 20.44 -2.92975e-05 20.38 -2.92975e-05 20.34C-2.92975e-05 20.27 -2.92975e-05 20.2 -2.92975e-05 20.13C-2.92975e-05 20.05 -2.92975e-05 19.97 0.0099707 19.89C0.0099707 19.83 0.0199707 19.77 0.0199707 19.7C0.0199707 19.63 0.0299707 19.55 0.0399707 19.48C0.0399707 19.43 0.0399707 19.39 0.0499707 19.34C0.0499707 19.24 0.0699707 19.13 0.0799707 19.03C0.0799707 18.97 0.0899707 18.91 0.0999707 18.85C0.0999707 18.83 0.0999707 18.81 0.0999707 18.79C0.119971 18.6 0.149971 18.41 0.179971 18.23C0.179971 18.23 0.179971 18.23 0.179971 18.22C0.179971 18.19 0.179971 18.17 0.189971 18.14C0.219971 17.98 0.239971 17.82 0.269971 17.67C0.269971 17.64 0.279971 17.61 0.289971 17.58C0.299971 17.5 0.319971 17.43 0.339971 17.35C0.359971 17.26 0.379971 17.17 0.399971 17.08C0.409971 17.03 0.419971 16.98 0.439971 16.93C0.459971 16.85 0.479971 16.77 0.499971 16.68C0.509971 16.62 0.529971 16.55 0.539971 16.49C0.559971 16.41 0.579971 16.34 0.599971 16.26C0.619971 16.18 0.639971 16.09 0.669971 16.01C0.679971 15.97 0.689971 15.93 0.699971 15.89C0.729971 15.78 0.759971 15.67 0.789971 15.57C0.809971 15.5 0.829971 15.43 0.849971 15.36C0.849971 15.34 0.859971 15.32 0.869971 15.3C0.929971 15.11 0.989971 14.91 1.05997 14.72C1.05997 14.7 1.06997 14.69 1.07997 14.67C1.13997 14.5 1.19997 14.33 1.25997 14.16C1.25997 14.13 1.27997 14.11 1.28997 14.08C1.30997 14.02 1.33997 13.95 1.35997 13.89C1.38997 13.8 1.42997 13.71 1.45997 13.61C1.47997 13.55 1.50997 13.49 1.52997 13.43C1.55997 13.36 1.58997 13.29 1.61997 13.22C1.63997 13.17 1.65997 13.12 1.67997 13.06C1.71997 12.96 1.76997 12.85 1.80997 12.75C1.82997 12.69 1.85997 12.64 1.87997 12.58C1.87997 12.56 1.89997 12.54 1.90997 12.52C1.98997 12.34 2.06997 12.16 2.15997 11.98C2.15997 11.98 2.15997 11.96 2.16997 11.96C2.18997 11.91 2.21997 11.86 2.23997 11.81C2.30997 11.67 2.36997 11.53 2.43997 11.39C2.44997 11.37 2.45997 11.35 2.46997 11.33C2.52997 11.22 2.58997 11.1 2.63997 10.99C2.68997 10.9 2.72997 10.81 2.77997 10.72C2.77997 10.7 2.79997 10.69 2.80997 10.67C2.96997 10.38 3.12997 10.09 3.29997 9.8C3.30997 9.78 3.32997 9.75 3.33997 9.73C3.35997 9.7 3.36997 9.68 3.38997 9.65C3.62997 9.25 3.86997 8.85 4.12997 8.47C4.13997 8.45 4.15997 8.43 4.16997 8.41C4.18997 8.37 4.21997 8.34 4.23997 8.31C4.44997 8 4.65997 7.7 4.87997 7.4C5.03997 7.19 5.19997 6.98 5.35997 6.77C5.35997 6.77 5.36997 6.75 5.37997 6.74C5.49997 6.59 5.61997 6.44 5.73997 6.29C5.75997 6.26 5.77997 6.23 5.80997 6.21C5.94997 6.04 6.09997 5.87 6.23997 5.7C6.23997 5.7 6.24997 5.68 6.25997 5.68C6.29997 5.63 6.34997 5.58 6.38997 5.53C6.47997 5.43 6.57997 5.32 6.66997 5.22C6.68997 5.2 6.70997 5.18 6.71997 5.16C6.77997 5.09 6.84997 5.03 6.90997 4.96C6.97997 4.89 7.04997 4.81 7.11997 4.74C7.14997 4.71 7.16997 4.69 7.19997 4.66C7.26997 4.59 7.33997 4.52 7.40997 4.45C7.46997 4.39 7.52997 4.33 7.58997 4.27C7.61997 4.24 7.65997 4.21 7.68997 4.17C7.76997 4.1 7.83997 4.03 7.91997 3.96C7.96997 3.91 8.02997 3.86 8.07997 3.81C8.11997 3.77 8.15997 3.74 8.20997 3.7C8.28997 3.63 8.35997 3.56 8.43997 3.5C8.48997 3.46 8.52997 3.42 8.57997 3.38C8.62997 3.34 8.67997 3.3 8.72997 3.25C8.80997 3.19 8.87997 3.13 8.95997 3.06C8.99997 3.03 9.03997 2.99 9.07997 2.96C9.13997 2.91 9.20997 2.86 9.26997 2.81C9.33997 2.76 9.40997 2.7 9.47997 2.65C9.50997 2.63 9.53997 2.61 9.56997 2.58C9.65997 2.52 9.73997 2.46 9.82997 2.39C9.88997 2.35 9.94997 2.3 10.01 2.26C10.03 2.25 10.04 2.24 10.06 2.23C10.22 2.12 10.38 2.02 10.54 1.91C10.55 1.91 10.56 1.9 10.57 1.89C10.71 1.8 10.86 1.71 11.01 1.62C11.05 1.6 11.08 1.58 11.12 1.56C11.24 1.49 11.36 1.42 11.48 1.36C11.53 1.34 11.57 1.31 11.61 1.29C11.67 1.26 11.73 1.23 11.79 1.19C11.84 1.17 11.88 1.14 11.93 1.12C12.01 1.08 12.08 1.05 12.16 1.01C12.21 0.979998 12.27 0.959998 12.32 0.929998C12.34 0.919998 12.36 0.909998 12.39 0.899998C12.54 0.829998 12.69 0.769998 12.84 0.709998C12.99 0.649998 13.14 0.589998 13.29 0.539998C13.31 0.539998 13.33 0.529998 13.35 0.519998C13.4 0.499998 13.46 0.479998 13.51 0.469998C13.59 0.449998 13.66 0.419998 13.74 0.399998C13.78 0.389998 13.82 0.379998 13.85 0.369998C13.92 0.349998 13.98 0.329998 14.05 0.319998C14.1 0.309998 14.15 0.289998 14.2 0.279998C14.25 0.269998 14.31 0.259998 14.36 0.239998C14.43 0.219998 14.49 0.209998 14.56 0.199998C14.59 0.199998 14.63 0.179998 14.66 0.179998C14.72 0.169998 14.78 0.159998 14.84 0.149998C14.92 0.139998 14.99 0.119998 15.07 0.109998C15.1 0.109998 15.12 0.109998 15.15 0.0999976C15.21 0.0999976 15.27 0.0899976 15.34 0.0799976C15.42 0.0799976 15.5 0.0599976 15.58 0.0599976C15.6 0.0599976 15.63 0.0599976 15.65 0.0599976C15.7 0.0599976 15.76 0.0599976 15.81 0.0599976C15.91 0.0599976 16 0.0599976 16.1 0.0599976C16.13 0.0599976 16.15 0.0599976 16.18 0.0599976C16.22 0.0599976 16.26 0.0599976 16.3 0.0599976C16.42 0.0599976 16.54 0.0599976 16.65 0.0799976C16.69 0.0799976 16.72 0.0799976 16.76 0.0799976C16.79 0.0799976 16.81 0.0799976 16.84 0.0899976C17.02 0.109998 17.19 0.129998 17.37 0.169998C17.38 0.169998 17.4 0.169998 17.41 0.169998C17.41 0.169998 17.41 0.169998 17.42 0.169998C17.46 0.169998 17.49 0.189998 17.52 0.189998C17.63 0.209998 17.73 0.239998 17.84 0.269998C17.89 0.279998 17.94 0.299998 17.99 0.319998C18.06 0.339998 18.12 0.359998 18.19 0.379998C18.21 0.379998 18.22 0.389998 18.24 0.399998C18.34 0.439998 18.44 0.479998 18.54 0.519998C18.59 0.539998 18.64 0.559998 18.68 0.579998C18.82 0.649998 18.96 0.719998 19.1 0.799998L23.55 3.39C23.41 3.31 23.27 3.24 23.13 3.17C23.08 3.15 23.03 3.13 22.99 3.11C22.89 3.07 22.79 3.03 22.69 2.99C22.61 2.96 22.52 2.93 22.44 2.91C22.39 2.89 22.34 2.88 22.29 2.86C22.19 2.83 22.08 2.81 21.97 2.78C21.93 2.78 21.9 2.76 21.86 2.75C21.84 2.75 21.82 2.75 21.8 2.75C21.63 2.72 21.45 2.69 21.27 2.67C21.21 2.67 21.15 2.66 21.09 2.65C20.97 2.65 20.86 2.64 20.74 2.63C20.67 2.63 20.61 2.63 20.54 2.63C20.45 2.63 20.35 2.63 20.25 2.63C20.17 2.63 20.1 2.63 20.02 2.64C19.94 2.64 19.86 2.66 19.78 2.66C19.69 2.66 19.6 2.68 19.51 2.69C19.44 2.7 19.36 2.71 19.28 2.73C19.18 2.75 19.09 2.76 18.99 2.78C18.92 2.79 18.86 2.81 18.79 2.82C18.69 2.84 18.58 2.87 18.48 2.9C18.41 2.92 18.35 2.94 18.28 2.95C18.17 2.98 18.05 3.02 17.94 3.06C17.89 3.08 17.83 3.09 17.78 3.11C17.61 3.17 17.44 3.23 17.27 3.3C17.1 3.37 16.93 3.44 16.75 3.52C16.7 3.54 16.64 3.57 16.59 3.6C16.47 3.66 16.35 3.72 16.22 3.78C16.16 3.81 16.1 3.84 16.04 3.88C15.88 3.97 15.71 4.05 15.55 4.15C15.37 4.26 15.19 4.37 15.01 4.48C15 4.48 14.99 4.5 14.97 4.5C14.79 4.61 14.62 4.73 14.44 4.85C14.38 4.89 14.32 4.94 14.26 4.98C14.14 5.06 14.03 5.15 13.91 5.23C13.84 5.28 13.77 5.34 13.7 5.39C13.6 5.47 13.49 5.55 13.39 5.63C13.31 5.69 13.24 5.75 13.16 5.82C13.06 5.9 12.96 5.98 12.87 6.07C12.79 6.14 12.71 6.2 12.64 6.27C12.54 6.35 12.45 6.44 12.36 6.53C12.28 6.6 12.21 6.67 12.13 6.75C12.03 6.84 11.94 6.93 11.84 7.03C11.77 7.1 11.7 7.17 11.63 7.24C11.53 7.34 11.43 7.44 11.34 7.54C11.28 7.61 11.21 7.67 11.15 7.74C11.04 7.86 10.93 7.98 10.82 8.11C10.77 8.16 10.73 8.21 10.68 8.26C10.52 8.44 10.37 8.62 10.22 8.8C10.2 8.83 10.17 8.86 10.15 8.88C10.02 9.04 9.88997 9.19 9.76997 9.35C9.60997 9.56 9.44997 9.77 9.28997 9.98C9.06997 10.28 8.85997 10.58 8.64997 10.89C8.60997 10.95 8.56997 11 8.53997 11.06C8.27997 11.45 8.03997 11.84 7.79997 12.24C7.76997 12.29 7.73997 12.34 7.70997 12.39C7.53997 12.68 7.37997 12.96 7.21997 13.26C7.15997 13.37 7.10997 13.47 7.04997 13.58C6.98997 13.69 6.92997 13.8 6.87997 13.92C6.79997 14.08 6.71997 14.24 6.64997 14.4C6.62997 14.45 6.59997 14.5 6.57997 14.55C6.47997 14.76 6.38997 14.96 6.29997 15.17C6.27997 15.23 6.24997 15.28 6.22997 15.34C6.15997 15.49 6.09997 15.65 6.03997 15.8C6.00997 15.87 5.97997 15.94 5.94997 16.01C5.88997 16.16 5.82997 16.31 5.77997 16.46C5.75997 16.52 5.72997 16.59 5.70997 16.65C5.63997 16.85 5.56997 17.05 5.49997 17.24C5.49997 17.26 5.48997 17.27 5.47997 17.29C5.40997 17.51 5.33997 17.72 5.26997 17.94C5.24997 18.01 5.22997 18.08 5.20997 18.15C5.16997 18.3 5.11997 18.45 5.07997 18.59C5.05997 18.67 5.03997 18.75 5.01997 18.84C4.97997 18.98 4.94997 19.12 4.91997 19.26C4.89997 19.34 4.87997 19.42 4.85997 19.51C4.82997 19.65 4.79997 19.8 4.76997 19.94C4.74997 20.01 4.73997 20.09 4.71997 20.16C4.67997 20.35 4.64997 20.53 4.61997 20.72C4.61997 20.75 4.61997 20.77 4.60997 20.8C4.57997 21.01 4.54997 21.22 4.51997 21.44C4.51997 21.5 4.50997 21.56 4.49997 21.62C4.47997 21.77 4.46997 21.92 4.44997 22.07C4.44997 22.14 4.43997 22.21 4.42997 22.29C4.41997 22.43 4.40997 22.58 4.39997 22.72C4.39997 22.79 4.39997 22.86 4.39997 22.92C4.39997 23.12 4.38997 23.32 4.38997 23.52C4.38997 23.73 4.38997 23.94 4.40997 24.14C4.40997 24.2 4.40997 24.25 4.41997 24.31C4.41997 24.45 4.43997 24.59 4.44997 24.72C4.44997 24.8 4.46997 24.88 4.46997 24.95C4.47997 25.06 4.49997 25.18 4.50997 25.29C4.51997 25.37 4.52997 25.45 4.54997 25.53C4.56997 25.63 4.57997 25.74 4.59997 25.84C4.61997 25.93 4.62997 26.02 4.64997 26.11C4.66997 26.2 4.68997 26.29 4.70997 26.38C4.73997 26.48 4.75997 26.59 4.78997 26.69C4.80997 26.77 4.82997 26.85 4.85997 26.92C4.89997 27.04 4.93997 27.16 4.97997 27.28C4.99997 27.34 5.01997 27.41 5.04997 27.47C5.11997 27.67 5.19997 27.86 5.28997 28.04C5.35997 28.18 5.41997 28.32 5.49997 28.45C5.56997 28.58 5.64997 28.71 5.72997 28.84C5.83997 29.02 5.96997 29.19 6.09997 29.35C6.12997 29.39 6.15997 29.43 6.18997 29.46C6.30997 29.61 6.43997 29.75 6.57997 29.89C6.57997 29.89 6.59997 29.91 6.60997 29.92C6.74997 30.06 6.90997 30.19 7.05997 30.31C7.09997 30.34 7.13997 30.37 7.16997 30.4C7.32997 30.52 7.48997 30.63 7.65997 30.73L3.20997 28.14C3.03997 28.04 2.87997 27.93 2.71997 27.81C2.67997 27.78 2.63997 27.75 2.60997 27.72C2.44997 27.6 2.29997 27.47 2.15997 27.33C2.14997 27.33 2.13997 27.31 2.12997 27.3C1.99997 27.17 1.86997 27.02 1.73997 26.87C1.70997 26.83 1.67997 26.79 1.64997 26.75C1.51997 26.59 1.39997 26.42 1.27997 26.24C1.27997 26.24 1.27997 26.24 1.26997 26.23C1.18997 26.11 1.11997 25.99 1.04997 25.86C0.979971 25.73 0.909971 25.6 0.849971 25.47C0.849971 25.47 0.849971 25.46 0.849971 25.45C0.759971 25.27 0.679971 25.08 0.609971 24.88C0.609971 24.86 0.599971 24.85 0.589971 24.83C0.569971 24.78 0.559971 24.74 0.539971 24.69C0.499971 24.57 0.459971 24.45 0.419971 24.33C0.419971 24.3 0.399971 24.27 0.389971 24.24C0.379971 24.19 0.369971 24.15 0.349971 24.1C0.319971 24 0.289971 23.9 0.269971 23.79C0.259971 23.75 0.249971 23.71 0.239971 23.66C0.229971 23.61 0.219971 23.56 0.209971 23.52C0.189971 23.43 0.169971 23.34 0.159971 23.25C0.159971 23.2 0.139971 23.16 0.129971 23.11C0.129971 23.06 0.109971 23 0.109971 22.94C0.0999707 22.86 0.0799707 22.78 0.0699707 22.69C0.0699707 22.65 0.0599707 22.61 0.0499707 22.57C0.0499707 22.5 0.0399707 22.43 0.0299707 22.36C0.0299707 22.28 0.0099707 22.21 0.0099707 22.13C0.0099707 22.1 0.0099707 22.07 0.0099707 22.04C0.0099707 21.94 -2.92975e-05 21.83 -0.0100293 21.72C-0.0100293 21.66 -0.0100293 21.61 -0.0200293 21.55C-0.0200293 21.54 -0.0200293 21.52 -0.0200293 21.51C-0.0200293 21.33 -0.0300293 21.15 -0.0300293 20.97C-0.0300293 20.96 -0.0300293 20.95 -0.0300293 20.94C-0.0300293 20.77 -0.0300293 20.6 -0.0300293 20.43L-2.92975e-05 20.44Z" fill="#C19D05"/>
</g>
<defs>
<clipPath id="clip0_10_1777">
<rect width="26.93" height="31.5" fill="white"/>
</clipPath>
</defs>
</svg>
