<svg width="55" height="50" viewBox="0 0 55 50" fill="none" xmlns="http://www.w3.org/2000/svg">
<g clip-path="url(#clip0_10_1769)">
<path d="M6.98567 30.5012C7.0447 30.4685 7.09718 30.4489 7.14965 30.4162C7.90398 25.5627 11.2951 20.2775 15.3685 17.9358C16.5361 17.2621 17.6511 16.9023 18.6547 16.8042C19.2451 14.8092 20.124 12.7488 21.2916 10.7276C23.666 6.62631 26.7817 3.46697 29.904 1.67471C33.0262 -0.124082 36.1485 -0.555793 38.5361 0.804751L42.8127 3.28382C43.8622 3.87906 44.6756 4.77519 45.2659 5.88717C46.4007 5.73018 47.424 5.89371 48.2635 6.38429L52.5402 8.86336C52.5402 8.86336 52.5271 8.86336 52.5271 8.85682C54.0423 9.72678 54.9869 11.591 54.9934 14.2401C55.0065 19.3095 51.5957 25.4319 47.26 28.3492L11.3017 49.0517C9.23552 50.2422 7.37923 50.2749 6.0936 49.3788C6.17231 49.4311 6.23791 49.49 6.32318 49.5358L2.04649 47.0567C0.7871 46.3176 -1.99319e-05 44.7673 -1.99319e-05 42.563C-0.0131386 38.1281 3.11566 32.7252 6.98567 30.5012Z" fill="#ABE0DA"/>
<path d="M34.1872 4.14705C31.065 5.94584 27.9493 9.10518 25.5748 13.1999C24.4073 15.2211 23.5283 17.2815 22.938 19.2766C21.9278 19.3681 20.8128 19.7344 19.6518 20.4082C15.5784 22.7564 12.1872 28.0351 11.4329 32.8885C11.3739 32.9212 11.3214 32.9409 11.2689 32.9736C7.39893 35.1975 4.27013 40.607 4.28324 45.0353C4.29636 49.4702 7.44484 51.2624 11.3148 49.0319L47.2731 28.3294C51.6154 25.4121 55.0262 19.2962 55.0066 14.2203C54.9934 8.90241 51.2153 6.75694 46.5713 9.4257C46.4925 9.47148 46.4138 9.53035 46.3417 9.57614C46.04 6.71115 44.8658 4.42177 42.8259 3.264C40.4383 1.91 37.316 2.34171 34.1938 4.13396L34.1872 4.14705Z" fill="#94CCC3"/>
</g>
<defs>
<clipPath id="clip0_10_1769">
<rect width="55" height="50" fill="white"/>
</clipPath>
</defs>
</svg>
