<svg width="370" height="63" viewBox="0 0 370 63" fill="none" xmlns="http://www.w3.org/2000/svg">
<path d="M39.7294 56.3456V54.81H40.4933L40.5641 54.7444L40.5956 48.5625V48.4654L40.5615 48.3656L40.3882 48.3315H39.7294V45.5595L39.9 45.6592L40.2465 45.8929L40.698 46.2604L41.1836 46.662L41.6693 47.0951L42.1208 47.4968L42.3281 47.6962L42.4672 47.8643L42.5723 47.9981L42.6406 48.0979L42.6746 48.2659V48.3998L42.7088 54.9124V55.314L42.6405 55.4137L40.6613 57.1174H40.5956L39.7267 56.3483L39.7294 56.3456ZM39.7294 35.0385V34.272L40.0077 33.9045L40.32 33.3795L40.4933 32.9779L40.6324 32.6445L40.8056 32.2429L40.9789 31.8413L41.0839 31.542L41.1889 31.3084L41.2939 30.975L41.3622 30.7414L41.433 30.4421L41.538 30.1429V30.03L41.6089 29.8961L41.7139 29.7964L41.853 29.6625L42.0262 29.5969L42.1654 29.4971H42.1995L42.2625 29.5286H42.3308V29.7281L42.2258 29.8279L42.1575 29.9617L42.1234 30.1298L42.0892 30.2977L41.9843 30.5314L41.8793 30.765L41.8451 30.8648V30.975L41.8793 31.0406L41.9134 31.1404L41.9475 31.2086L42.0184 31.2743H42.0867L42.1575 31.3084L42.2258 31.2743H42.2941L42.399 31.2086H42.5723L42.6406 31.2743L42.8138 31.3084H43.0211L43.1944 31.2743H43.3676L43.575 31.1745L43.7824 31.1404L44.1289 30.9067L44.4754 30.7729L44.625 30.6653H44.9033L44.9716 30.7309V30.765L45.0424 30.8989V31.1325L44.9715 31.2008L44.8324 31.4344L44.6933 31.5341L44.5883 31.7021L44.4832 31.836L44.415 32.004L44.3467 32.172L44.625 32.3348L44.9715 32.5027V32.5684L44.9374 32.6681L44.8691 32.7022L44.8009 32.7364L44.6959 32.802H44.5909L44.3468 32.8676L44.1394 32.9333L43.8953 33.033L43.6538 33.1328H43.3729L43.3125 33.1039H43.2705L43.1996 33.075L43.1655 33.0409L43.1314 32.9411V32.7364L43.1997 32.6681L43.3729 32.4686L43.5461 32.2691L43.6144 32.1352L43.6485 32.0355L43.6144 32.0014L43.575 31.9673L43.5067 31.9331L43.4437 31.8675H43.1996L42.8873 31.9331L42.5749 31.9673L42.4017 32.0329L42.3334 32.1327V32.3321L42.3675 32.3978L42.4017 32.5316V32.7311L42.3675 32.865L42.2625 32.9648L42.1575 33.0645L42.0525 33.1301L41.9134 33.1643H41.5328L41.3937 33.1301L41.2886 33.096L41.2204 32.8335V32.571H41.1863L41.118 32.7049L41.0472 32.8728L40.8398 33.2063L40.6324 33.5396L40.5274 33.7732L40.3882 33.9728L40.2491 34.2064L40.1441 34.4059L39.9368 34.7051L39.7635 35.007L39.7294 35.0411V35.0385ZM44.1735 27.993H44.3126L44.4177 28.0613H44.4859V28.1269L44.52 28.161V28.329L44.4859 28.3946L44.4176 28.4944L44.3126 28.5941L44.2418 28.728L44.1027 28.8277L43.9635 28.8934L43.7902 28.959L43.617 29.0246L43.3729 29.0588L42.9555 29.127L42.5749 29.1611H42.1601L42.021 29.0614L41.7769 28.896L41.6719 28.8304L41.6036 28.7306L41.5695 28.6624V28.5941L41.6745 28.5258L41.8136 28.4603L41.9869 28.4261L42.0919 28.3605L42.231 28.2949L42.4043 28.2292L42.5775 28.1951H42.9581L43.1314 28.161H43.3387L43.5488 28.0875H43.7929L43.8375 28.0613H43.9425L44.0816 28.0271L44.1866 27.993H44.1735ZM48.4785 28.2555L48.5835 28.2896L48.6518 28.3237L48.6859 28.35H48.72V28.518L48.6518 28.6178L48.5468 28.7175L48.4418 28.7831L48.2344 28.9511L48.0271 29.0509L47.922 29.1848L47.7829 29.4473L47.6096 29.6809L47.5414 29.8804L47.5755 29.946L47.6096 30.0458L47.6779 30.1114L47.7488 30.1875L47.8537 30.3555L47.922 30.4894V30.8228L47.9561 31.1561L47.9903 31.4186L48.0375 31.6339V31.8334L48.0034 32.0959L47.9693 32.1641L47.9351 32.2639L47.8669 32.3295L47.8328 32.3951L47.7277 32.4608L47.6228 32.5605L47.5178 32.6261L47.3787 32.6603L47.2395 32.6944H46.8117L46.7434 32.6603L46.7093 32.6261V32.5028L46.8142 32.403L46.9875 32.3374L47.0558 32.1694L47.124 32.0355L47.2973 31.836L47.3656 31.6365L47.3996 31.3031L47.3655 30.975V30.6311L47.2973 30.5314H47.1922L47.1582 30.597H47.124L47.0557 30.6626L46.9875 30.7283L46.8142 30.8962L46.6751 31.0642L46.6043 31.1299H46.4992L46.3943 31.164H46.0819L45.9086 31.1299H45.8377L45.7695 31.0642L45.7012 31.0301L45.675 30.933L45.78 30.8333L45.9191 30.7335L46.2315 30.5996L46.5098 30.4317L46.683 30.2636L46.8563 30.0641L47.0295 29.8961L47.2028 29.6625L47.3419 29.463L47.5151 29.2294L47.6543 28.9958L47.7934 28.7621L47.8617 28.6624L47.9666 28.5285L48.0717 28.4629L48.1766 28.3973L48.2816 28.3316L48.4207 28.2975H48.4916V28.2607L48.4785 28.2555ZM51.7756 28.4235L51.6023 28.4576L51.4973 28.5233L51.2899 28.6571L51.1166 28.8566L51.0116 28.9564L50.9067 29.022L50.8016 29.0876L50.6625 29.1375H50.5575L50.4892 29.1034L50.421 29.0693V28.9616L50.3501 28.896L50.316 28.8304L50.2819 28.7962H50.2136L50.0404 28.8304L49.9012 28.896L49.7963 28.9616L49.728 29.0273L49.6598 29.0929L49.6125 29.1375L49.5784 29.2714V29.3711L49.6125 29.5286V29.6284L49.5784 29.7623L49.5101 29.8961L49.476 29.9959L49.4078 30.0615L49.3395 30.1271L49.2345 30.1928L49.0613 30.2925L48.888 30.3581H48.8591L48.825 30.4579L48.7541 30.5235H48.72L48.7541 30.5891L48.7883 30.6547H49.2057L49.2739 30.7204L49.308 30.7545L49.35 30.8989V32.025L49.3159 32.1589L49.35 32.3348L49.3841 32.4345L49.4524 32.5684L49.5915 32.6681L49.7648 32.7364L49.9012 32.8125L50.0745 32.8466H50.2477L50.526 32.8808H51.0116L51.219 32.9149H51.9147L52.122 32.8808L52.3294 32.8151L52.5 32.7705L52.6732 32.7049L52.9515 32.571L53.1956 32.4371L53.4398 32.3374L53.6813 32.1379L53.9254 31.9699L54.1328 31.8019L54.306 31.5682L54.5134 31.3688L54.6525 31.2034L54.7916 31.0695L54.8966 30.9697L54.9649 30.87V30.765L54.999 30.6653V30.5996L54.9649 30.534V30.4317L54.8966 30.3634L54.7916 30.1954L54.7207 30.0274L54.6867 29.7938L54.6525 29.5601V28.7622L54.6184 28.6283L54.6 28.5285L54.5659 28.4288H54.3375L54.2692 28.4971L54.2351 28.5968L54.201 28.7648V28.9276L54.2404 29.1376V29.5707L54.2063 29.8332L54.1721 30.0957V30.3582L54.2063 30.5261L54.2404 30.7598V31.0591L54.2063 31.1588L54.1013 31.2927L53.9963 31.4607L53.823 31.5604L53.6157 31.7284L53.2324 31.962L52.8859 32.1616L52.7468 32.2272L52.6418 32.2613H52.4711L52.332 32.3269H51.324L51.1508 32.2613L50.9775 32.2351L50.8043 32.1694L50.6625 32.1011L50.5234 31.9673L50.4184 31.9332L50.3134 31.8675L50.2451 31.7993L50.1769 31.6996L50.1375 31.5657L50.1034 31.4659V31.1326L50.1375 30.8989V30.731L50.1716 30.4973L50.2767 30.3293L50.4158 30.1298L50.6625 30.0301L50.8699 29.8962L51.0431 29.7964L51.3555 29.534L51.6337 29.2347L51.8411 29.1008L52.0144 28.967L52.0827 28.8672L52.1509 28.8016L52.2559 28.7018L52.3268 28.6021V28.56L52.2559 28.526L52.1876 28.4918L52.0144 28.4235H51.7755L51.7756 28.4235ZM46.9508 45.6225L49.9012 48.2607H49.9354V48.3262L46.1869 48.3919V50.7544H49.9354V52.8544H46.1869V55.0909H49.9354L46.914 57.6949L44.0685 55.2247V48.1976L46.956 45.6251L46.9508 45.6225ZM53.928 45.8561H54.1013L56.8103 48.3945L56.8444 48.5284V49.2293L56.8785 49.7543V50.3213L56.8444 50.8462H55.1775V48.5625H53.34V55.0752L53.4791 55.1093H53.9307L54.1039 55.0752L55.1801 55.0411V52.8072H56.8811V54.9781L56.8129 55.112L56.6738 55.1802L56.5688 55.3141L56.4638 55.4138L56.0831 55.7472L55.7366 56.0806L55.356 56.4139L54.9728 56.7815L54.7654 56.9809L54.4189 57.3143L54.2457 57.4823L54.1065 57.6162L53.9674 57.7159L53.8939 57.7501H53.8598L53.7548 57.7159L53.6157 57.5821L53.5106 57.4823L53.4056 57.3825L53.1983 57.1831L52.9909 57.0151L52.8176 56.8155L52.5735 56.6476L52.2612 56.3483L51.9487 56.0464L51.6364 55.8128L51.3581 55.5136L51.324 55.4138V55.0463L51.3581 48.3342L51.4631 48.2344L51.5682 48.1005L52.1588 47.5755L52.7835 47.0505L53.3741 46.4835L53.928 45.8561ZM39.7294 34.2668V35.0359L39.6244 35.1698L39.5194 35.3693L39.4144 35.5372L39.2753 35.7053L39.0679 35.9678L38.8264 36.2302L38.7214 36.3641L38.6531 36.498L38.4799 36.6319V36.0097L38.5481 35.91L38.7214 35.6764L38.8946 35.4427L39.2779 34.9414L39.6244 34.4164L39.7294 34.2825V34.2668ZM39.7294 45.5542V48.3262H38.8946V54.7706L39.7267 54.8048V56.3404L38.7555 55.4715H38.7214V55.671L38.6872 55.8705L38.619 57.708H38.4799V46.5938L38.5481 46.494L39.1388 46.0267L39.6953 45.5254L39.7294 45.5595V45.5542ZM38.4799 33.6315V27.8566L38.514 27.8907L38.5875 27.9275L38.6558 28.0272L38.724 28.1611L38.7949 28.329V28.5285L38.8631 28.8961L38.8973 29.1953V29.597L38.9314 29.8306L38.9655 30.0301V30.2637L38.9997 30.4973L39.0337 30.731V30.9751L39.0679 31.1745L39.1388 31.3084V31.4423L39.2071 31.5001L39.1729 31.6339L39.1388 31.7337L39.0679 31.8675L39.0337 32.025L38.9655 32.2587L38.8946 32.5212L38.7896 32.7837L38.7188 33.0173L38.6505 33.3507L38.4773 33.6132L38.4799 33.6315ZM38.4799 27.8565V33.6315L38.409 33.6971L38.3382 33.7969L38.2331 33.831L38.1649 33.8651H37.9234L37.8551 33.831V33.8047L37.7501 33.6368L37.6819 33.4688L37.611 33.369L37.5375 33.2692V33.1039H37.6058L37.6767 33.0698H37.7449L37.884 33.0356H37.989L38.094 32.9673L38.1623 32.9018L38.1964 32.8361L38.2305 32.7364L38.2646 32.6366L38.2988 32.4686L38.3329 32.3348V31.9331L38.2646 31.6995L38.2357 31.5V30.7309L38.2016 30.597L38.1675 30.4631L38.1334 30.2006L38.0993 29.9381V29.4L38.0625 29.2294L38.0284 29.1375L37.9943 28.9695L37.9602 28.8356L37.926 28.6361L37.8577 28.5364L37.7187 28.4366H37.6137L37.4745 28.4025H37.1254V27.7594H37.1936L37.4378 27.7935L37.611 27.825H38.2358L38.3408 27.8591H38.4799L38.4799 27.8565ZM38.4799 35.994V36.6293L38.3749 36.75L38.1676 36.9836L37.9602 37.1831H37.7843L37.7501 37.1149V37.0125L37.7843 36.9784L37.9916 36.6791L38.199 36.4166L38.4064 36.1541L38.4773 36.0203L38.4799 35.994ZM38.4799 46.5806V57.7001H37.1254V47.775L37.1936 47.7094L37.4378 47.5099L37.9943 47.0085L38.4799 46.6069L38.4799 46.5806ZM37.1254 33.4242L37.2987 33.3585L37.3695 33.2588L37.4036 33.1249V33.0356L37.3695 32.9018L37.2987 32.8125L37.2304 32.7128L37.1254 32.6786V33.4478V33.4242ZM37.1254 32.3899V32.424L37.1936 32.4896L37.275 32.5684L37.3459 32.6681L37.4509 32.7022H37.5375L37.5716 32.6681H37.6058L37.6399 32.5684V32.5028L37.5349 32.3348L37.4299 32.1669L37.3616 31.9988L37.2908 31.8308L37.2225 31.7311L37.1543 31.6313L37.1201 31.5972V32.3978L37.1254 32.3899ZM37.1254 31.1535V31.1325L37.275 30.975L37.4141 30.7414L37.485 30.6075L37.5533 30.5078L37.5874 30.3739V30.2978H37.5376L37.5034 30.2636L37.4325 30.2295H37.401L37.3669 30.2636L37.3327 30.2978L37.2278 30.3634L37.1595 30.4631L37.1254 30.4972V31.1666V31.1535ZM37.1254 29.3501L37.1936 29.4158L37.2987 29.4499L37.3695 29.4158L37.4378 29.3816V29.1375L37.4036 29.0692L37.3695 28.9695L37.2987 28.9039L37.275 28.8277H37.1936L37.1254 28.7936V29.3606L37.1254 29.3501ZM37.1254 27.7462V28.3815H37.0886L36.75 28.4288L36.4718 28.4629L36.1935 28.5968H36.1174V28.1269L36.225 28.0875L36.4324 27.9878L36.6398 27.888L36.813 27.8224L37.0204 27.7567H37.1254V27.7462ZM37.1254 28.7805V29.3475L37.0125 29.295L36.8052 29.0955V28.9275L36.8393 28.8277L36.8734 28.7621L36.9784 28.7962H37.1175L37.1254 28.7805ZM37.1254 30.4841L37.0913 30.5183L37.0571 30.618L36.9889 30.6521H36.9154L36.8813 30.618L36.8471 30.5839L36.813 30.5183V30.3319L36.7789 30.1324L36.813 29.9644V29.8646L36.8471 29.7649V29.7308L36.708 29.5969L36.5348 29.4971L36.3956 29.2635L36.2565 29.0299L36.1515 28.9643H36.1174V30.1875H36.1515L36.1856 30.2216L36.225 30.2636L36.1909 30.2978L36.1568 30.3634L36.1226 30.3293V30.996L36.2277 30.8963L36.2985 30.828L36.4035 30.7624H36.4875L36.5216 30.828H36.5558L36.4875 30.975L36.3825 31.143L36.4875 31.2113L36.6266 31.311V31.5L36.5558 31.5656L36.4875 31.7336L36.3484 31.9673L36.2434 32.1667L36.1042 32.3348V33.4031H36.2434L36.5216 33.5029L36.7999 33.5685L36.939 33.5344L37.1122 33.4346V32.6681L36.9731 32.634H36.8471L36.75 32.6681L36.645 32.7022L36.54 32.7679H36.435L36.4009 32.7022H36.3615L36.3274 32.6681V32.6366L36.5689 32.2691L36.7763 31.9358H36.8104L36.8813 32.025L36.9495 32.0906L37.0545 32.2586L37.1254 32.3925V31.5997L37.0913 31.5341L37.0571 31.4684L37.0913 31.3005L37.1254 31.1665V30.4972V30.4841ZM37.1254 47.7488V57.7001H36.708L36.6739 48.1504L36.7789 48.0165L36.918 47.9167L37.1254 47.7488ZM36.1174 31.8202V31.5341H36.1514L36.2565 31.5682V31.7363L36.1882 31.8019L36.1174 31.8202ZM36.1174 28.1138V28.581L35.8049 28.749L35.5976 28.7831L35.4244 28.8173H35.2852L35.217 28.7831L35.1749 28.7621L35.1409 28.6965V28.6282L35.1749 28.5941L35.2091 28.5258L35.3482 28.4262L35.4874 28.3605L35.6265 28.3264L35.7656 28.2922L36.0097 28.1925L36.1147 28.1242L36.1174 28.1138ZM36.1174 28.9485V30.1875L36.0832 30.2216L36.0491 30.2873L36.0832 30.3214H36.1174V30.9881L36.0832 31.0223L35.91 31.2559L35.7709 31.5L35.7026 31.6339H35.91L36.0491 31.5656L36.1199 31.5315V31.8308L36.015 31.9305L35.8417 32.0303L35.3902 32.2639L35.1119 32.3636L34.9046 32.3978L34.7314 32.3636V32.1352L34.7996 32.1011L34.9046 31.9331L35.0437 31.8334L35.1487 31.6995L35.2878 31.5656L35.4269 31.4659L35.4952 31.2979V31.2008L35.4611 31.1666V31.1325L35.3561 31.0669L35.3193 30.975L35.2852 30.9409L35.2511 30.8752V30.8333L35.3193 30.6653L35.4244 30.5314V30.4317L35.3535 30.3634L35.2143 30.3293L35.1094 30.2951H35.0411L34.9702 30.261V30.1298L35.0043 30.0641L35.0385 29.9644L35.1434 29.8987L35.2485 29.8305L35.3535 29.7649L35.4584 29.7308L35.5635 29.6966H35.7708L35.9441 29.6625L36.0491 29.6284L36.0832 29.5943L36.1174 29.526L36.0832 29.4263L36.0123 29.2924L35.9782 29.1375L36.0123 29.0692L36.0832 28.9695H36.1174V28.9485ZM36.1174 32.3216L35.9441 32.4555L35.7709 32.6235L35.5976 32.7574L35.3535 32.8571L35.1802 33.0251L35.1461 33.0908V33.159L35.175 33.2692L35.2091 33.3034L35.2432 33.369H35.6606L35.9388 33.4031H36.1121V32.3348L36.1174 32.3216ZM33.7916 56.0989V46.83L35.2852 48.0979V54.6L35.1119 54.7995L34.9387 54.9675L34.314 55.5686L33.7889 56.0936L33.7916 56.0989ZM33.7916 32.823V32.025L33.8966 31.857L34.0016 31.689L34.0357 31.521L34.0699 31.2874V31.0249L34.1039 30.7624V30.5314L34.1381 30.2978V30.0641L34.1722 29.9644L34.2405 29.8987L34.3113 29.799L34.3796 29.7334L34.4846 29.7675L34.5187 29.8672L34.5528 30.0668V31.9699L34.5187 32.1379L34.4846 32.3374L34.4163 32.5369L34.3822 32.7049L34.3139 32.8046L34.209 32.9385L34.1039 33.0383L33.9648 33.0724H33.8965L33.8625 33.0356L33.7942 32.8677V32.8361L33.7916 32.823ZM33.7916 29.148V28.8277L33.8257 28.9616L33.7916 29.0955V29.1638V29.148ZM33.7916 28.8146V29.148L33.7574 29.1821L33.6866 29.316L33.6183 29.4158L33.5133 29.5155L33.4451 29.6152L33.2718 29.6494L33.1327 29.715L32.9253 29.8148L32.718 29.9145L32.5447 30.0825L32.4056 30.2505V30.4841L32.4739 30.5839L32.55 30.7309L32.6182 30.8306L32.6524 30.8989L32.6812 30.975V31.0406L32.6471 31.0748L32.613 31.1404L32.5447 31.1745H32.4397L32.1615 31.2086L31.8832 31.2743L31.7782 31.3084V29.9644L31.8491 29.8987L31.9541 29.7649L32.0249 29.6625L31.9909 29.6284L31.9567 29.5943H31.9173L31.8832 29.5601L31.7782 29.526V28.6283L31.8491 28.6624H32.2665L32.3374 28.6283H32.4056L32.5447 28.5941L32.7521 28.56L32.9594 28.5259L33.1327 28.56L33.3769 28.5941L33.5842 28.6283L33.6892 28.6624L33.7601 28.7621L33.7942 28.8277L33.7916 28.8146ZM33.7916 32.088V32.823L33.7574 32.655V32.235L33.7916 32.1011V32.088ZM33.7916 46.8169V56.1015L33.4083 56.5031L32.9568 56.9362L32.5395 57.3037L32.2271 57.5662L32.0539 57.666L31.7756 57.4035V54.6446H33.1301V48.3656H31.7782V46.0267L32.3032 45.5595L33.7968 46.8274L33.7916 46.8169ZM27.7856 7.4209L27.8906 7.45498L27.9589 7.48913V57.6818L27.9247 57.7159H26.0505L23.9662 38.4458L23.8875 57.6503L23.8533 57.7159H23.793L21.9528 57.75L21.8137 57.6817L21.7874 9.79386V9.65998L21.8137 9.49203L21.882 9.42638L22.05 9.2925L22.3335 9.18748L22.6117 9.05361L23.2024 8.79115L23.5489 8.6625L23.6538 8.62836L23.793 8.59427L23.8612 8.757V8.95652L25.8746 27.7909H25.9114L25.9454 8.09027V7.9879L25.9875 7.88811L26.0557 7.85402L26.1187 7.82253L26.2237 7.78838H26.2946L26.5729 7.68865L26.8511 7.6545L26.9167 7.61248H27.0558L27.1267 7.5784H27.1608L27.3682 7.51275L27.5756 7.47861L27.783 7.41302L27.7856 7.4209ZM31.7782 26.4233V26.6569H31.7441V27.1583L31.7099 27.4916L31.6759 27.9248V28.35L31.7099 28.4156L31.7441 28.5154V28.5837H31.7782V29.5181H31.6732L31.6049 29.5864L31.5341 29.6861L31.5 29.7649V29.8987L31.5341 29.925V29.9591L31.5682 30.0274H31.605L31.7099 29.9932L31.7808 29.9591V31.2953H31.7441L31.605 31.3609H31.5708L31.5 31.4344V33.9728L31.4659 34.1723V34.8731L31.5 35.1409V35.4742L31.4659 35.6738L31.4318 35.8076L31.3976 35.8759L31.3635 35.9415H31.1535L31.0826 35.8759L31.0485 35.8418L31.0144 35.7L30.975 35.574V35.2406L31.0091 34.9781L30.975 34.4059V31.9673L31.0091 31.8334V31.7336L30.975 31.6995V31.6339H30.6679L30.5996 31.5656L30.4947 31.5315H30.45L30.4159 31.4659V31.2664L30.45 31.2008L30.5209 31.1325L30.555 31.0669L30.66 30.9671L30.7991 30.9015L30.9382 30.7335L31.0774 30.5996L31.1115 30.4999L31.1456 30.366V29.8961L31.1115 29.8279H30.975L30.8359 29.862L30.6626 29.8961L30.4185 30.0641L30.2453 30.198L30.1061 30.2978L29.967 30.4317L29.862 30.5314L29.7937 30.6653L29.6888 30.8648L29.6179 31.0327L29.547 31.1666L29.5129 31.3661L29.4788 31.4344L29.4446 31.4685L29.3816 31.5H29.1743L29.106 31.4659L29.0719 31.4318L29.0036 31.332L28.8986 31.2638L28.7937 31.0301L28.7595 30.8963L28.8278 30.6626L28.896 30.4946L29.001 30.1954L29.0693 29.8279L29.1375 29.6625L29.2425 29.5286L29.3475 29.3606L29.4867 29.295L29.5916 29.1953H29.7649L29.799 29.2294L29.8673 29.3632L29.9014 29.5969V29.6625H29.925V29.6966H30.03L30.0983 29.5969L30.2033 29.5286L30.3424 29.4289L30.4474 29.3632L30.6207 29.2976L30.7598 29.1638L30.8989 29.0955L31.0039 28.9958L31.143 28.896L31.2113 28.7962L31.2454 28.5626V27.2265L31.2113 27.0585L31.2454 26.859V26.6569L31.2795 26.4889L31.3137 26.4233L31.3819 26.355L31.4528 26.2894L31.5 26.2238L31.605 26.25L31.71 26.2841L31.7441 26.3498V26.418H31.7783L31.7782 26.4233ZM31.7782 46.0267V48.3656L31.3267 48.3315L31.3609 54.6315H31.7782V57.4035L29.3134 55.041V48.1635L31.7782 46.0267ZM20.3542 10.1588L20.4251 10.2375L20.4593 10.3267V11.1274L20.391 57.6817L20.286 57.7159H20.1128L19.8345 57.75H18.9315L18.585 57.7159H18.375L18.3409 54.8782V32.1352L18.375 29.3291V23.6513L18.4118 20.8136V11.3636L18.4801 11.2875L18.585 11.2219L18.69 11.1562L18.7583 11.1222L19.0706 10.9541L19.3147 10.7625L19.6272 10.5945L19.8713 10.4265L20.1495 10.2926L20.3542 10.1588ZM16.779 32.6366L16.884 32.6707H16.989V32.7049L16.7449 32.8125L16.5375 32.9359L16.2592 33.1039L15.981 33.2719L15.7028 33.4714L15.4586 33.6394L15.2513 33.8074L15.078 33.9413L14.3483 34.5423L14.0359 34.8416L13.7235 35.175L13.3875 35.4742L13.1092 35.8418L12.831 36.1042L12.5528 36.4376L12.2063 36.8393L11.8939 37.2409L11.5474 37.6425L11.235 38.0441L10.9909 38.4458L10.7127 38.8789L10.4344 39.2464L10.2271 39.6795L9.975 40.1153L9.80175 40.5484L9.59442 40.9815L9.38702 41.4146L9.35287 41.6142L9.28465 41.8136L9.2505 42.0131L9.1875 42.2205L9.15342 42.4541L9.11927 42.6537L9.08513 42.8873V43.1209L9.05104 43.3545L9.0169 43.554V43.7877L8.98275 43.9871V44.4202L9.00115 44.8875L9.03529 45.3206L9.10617 45.7275L9.24527 46.2289L9.35029 46.4284L9.4894 46.6279L9.59442 46.7958L9.76502 46.9875L9.93827 47.0873L10.1115 47.2211L10.3189 47.2867L10.5 47.397L10.9174 47.4968L11.3689 47.6306L11.5421 47.7304L11.7862 47.7987L11.8125 47.8301L11.8808 47.8643L12.1275 47.964L12.684 48.2659L13.2405 48.6334L13.482 48.825L13.7261 49.0245L13.9703 49.2581L14.175 49.4681L14.4191 49.7018L14.6265 49.9354L14.8339 50.169L15.0071 50.4315L15.1804 50.694L15.3536 50.9565L15.4875 51.2715L15.6267 51.5707L15.6949 51.8044L15.7632 52.0039L15.8419 52.2375L15.876 52.5L15.9469 52.9725V53.9753L15.8419 54.4767L15.7736 54.7391L15.7054 54.9386L15.6371 55.1722L15.5637 55.3875L15.3195 55.8206L15.0413 56.2223L14.7289 56.5898L14.3824 56.9572L14.1041 57.2906L13.7576 57.5531L13.6526 57.6529L13.5477 57.7185H12.4399L11.9884 57.75H11.5369L11.0854 57.7159L10.3556 57.75H7.46817L6.70429 57.7159H5.25V57.6817L5.565 57.4875L5.80912 57.225L6.0874 56.9914L6.36567 56.7578L6.92215 56.2564L7.47862 55.755L8.03517 55.2536L8.62579 54.7522L8.904 54.4898H9.1875L9.32667 54.5239L9.43162 54.558L9.63902 54.5921H10.3898L10.5289 54.558L10.7021 54.4924L10.8754 54.4241L11.1537 54.2562L11.466 54.0566L11.6734 53.8571L11.8807 53.6235L11.9858 53.4555L12.0908 53.2219L12.159 52.9594L12.2273 52.6601L12.2614 52.3976V51.8726L12.1931 51.6101L12.1275 51.4028L12.0225 51.1691L11.9543 51.0037L11.8125 50.8043L11.7075 50.6048L11.5343 50.4368L11.256 50.1743L10.9778 49.9406L10.6995 49.707L10.3871 49.5075L10.1798 49.3736L9.975 49.266L9.76502 49.0875L9.55769 48.9877L9.24527 48.7987L8.89877 48.6334L8.58642 48.4313L8.274 48.2633L7.19777 47.4626L6.99044 47.2001L6.84863 46.9613L6.70952 46.662L6.6045 46.3995L6.53627 46.137L6.50212 45.8745L6.4339 45.5411L6.3656 45.2077V43.8559L6.4339 43.4884L6.46804 43.155L6.53627 42.7875L6.67537 42.4541L6.9195 41.7191L7.23192 40.9841L7.54427 40.2491L7.92492 39.5824L8.09817 39.249L8.27142 38.9498L8.44467 38.6505L8.652 38.388L8.89613 38.0205L9.20854 37.653L9.5209 37.3196L9.83325 36.9522L10.0065 36.7841L10.1797 36.5846L10.353 36.4166L10.5 36.2434L11.0565 35.742L11.5815 35.2406L12.138 34.8075L12.7287 34.3744L13.0069 34.2064L13.3193 34.0384L13.6999 33.7759L14.1172 33.5764L14.5346 33.3769L14.9153 33.1774L15.2959 33.0435L15.6424 32.9438L15.8497 32.8781L16.128 32.7784L16.3721 32.7128L16.6163 32.6786H16.674L16.779 32.6366Z" fill="white"/>
<path d="M30.3188 5.28412L30.975 5.24997H32.9202L33.5108 5.28412L34.1014 5.31826L34.692 5.38384L35.2485 5.44949L35.8391 5.54922L36.3956 5.64901L36.9522 5.74874L37.5086 5.84847L38.3407 6.04799L39.1755 6.21595L39.963 6.44962L40.7505 6.68322L41.6194 7.01662L42.4725 7.35001L43.3388 7.75422L44.1263 8.15584L44.9138 8.58897L45.7013 9.05624L46.4652 9.55766L47.25 10.093L47.9798 10.66L48.72 11.2297L49.4156 11.8308L50.0746 12.4661L50.7701 13.0987L51.3949 13.7654L52.0538 14.469L52.6444 15.1698L53.025 15.6712L53.3715 16.1384L53.6839 16.6634L53.9963 17.1648L54.2404 17.6399L54.5528 18.1124L54.7969 18.5797L55.0751 19.0469L55.3534 19.5483L55.5975 20.0497L55.8049 20.5169L56.0122 21.0419L56.2538 21.6824L56.4979 22.3492L56.6712 23.0159L56.8785 23.6853L57.0518 24.3206L57.225 24.9873L57.3642 25.654L57.4691 26.3549L57.5741 27.0558L57.6424 27.7908L57.6765 28.5258V29.2267L57.7107 29.526V29.7884L57.75 30.064V30.3633L57.6818 31.0642V31.7992L57.6477 32.5342L57.5794 33.2692L57.4061 34.1722L57.2329 35.1067L57.0255 36.0071L56.7814 36.8759L56.5031 37.7107L56.1908 38.5454L55.839 39.375L55.5266 40.2439L55.3534 40.5772L55.1801 40.9448L54.9728 41.3122L54.7995 41.6115L54.3821 42.3465L53.9647 43.0159L53.8256 43.1838L53.6865 43.3519L53.5815 43.5514L53.4424 43.7193L53.1641 44.121L52.8518 44.5541L52.5394 44.9557L52.1929 45.3573L51.9855 45.6592L51.7414 45.8928L51.534 46.1921L51.2925 46.4258L50.946 46.7932L50.5995 47.0925L50.4945 47.1266H50.421L50.2477 47.0268L50.1428 46.893L49.9012 46.725L49.6939 46.5255L49.4498 46.326L49.2057 46.158L49.1715 46.1239L49.1374 46.0897L49.1033 46.0556V46.0267H49.1374L49.2765 45.8273L49.4498 45.6592L49.623 45.4913L49.7621 45.3233L50.2137 44.8218L50.6651 44.3205L51.0825 43.8191L51.4658 43.2941L51.8464 42.7927L52.1588 42.3255L52.5 41.8189L52.8124 41.3175L53.1956 40.6822L53.508 40.0155L53.8125 39.3487L54.0908 38.7135L54.4032 37.9444L54.7155 37.2094L54.8546 36.8077L54.9938 36.4403L55.1329 36.0386L55.2012 35.637L55.4085 34.734L55.5818 33.7995L55.6868 32.8309L55.7917 31.8622L55.86 30.8936V29.8961L55.8259 28.8934L55.7576 27.8906L55.7235 27.2554L55.6185 26.6201L55.5266 25.9875L55.3534 25.3864L55.2484 24.9533L55.1434 24.5202L55.0384 24.0529L54.936 23.625L54.7969 23.2837L54.726 22.9162L54.6 22.575L54.495 22.2075L54.39 21.9739L54.285 21.7114L54.18 21.4488L54.075 21.2152L53.7285 20.4461L53.382 19.7111L52.9646 18.9761L52.584 18.2752L52.3399 17.8736L52.0275 17.4405L51.7125 17.0388L51.4343 16.6714L50.9434 16.0387L50.4578 15.4376L49.9327 14.8706L49.3763 14.2695L48.8198 13.7445L48.2292 13.2195L47.6044 12.6945L47.0138 12.2272L46.389 11.7259L45.7354 11.2612L45.0765 10.8281L44.415 10.395L43.7561 9.99337L43.0264 9.62589L42.3675 9.29249L41.6719 8.9591L41.2913 8.79114L40.95 8.66249L40.5667 8.52861L40.1809 8.40003L39.5903 8.18999L39.0337 8.02203L38.409 7.85401L37.8184 7.72014L37.2934 7.58626L36.708 7.45497L36.1174 7.35001L35.5268 7.25022L34.9362 7.15049L34.3481 7.08749L33.7575 7.02184H31.4318L31.1535 7.05599L30.8412 7.08749L30.5287 7.12164L30.2505 7.15572L29.7649 7.18987L29.2399 7.22401L28.7543 7.25809L28.2713 7.35001L27.7857 7.41559L27.2291 7.51539L26.7435 7.64926L26.25 7.75422L25.725 7.88809L25.2394 8.02197L24.7984 8.18999L24.2734 8.32387L23.8875 8.4236L23.541 8.59161L23.1945 8.75957L22.8139 8.89351L22.1182 9.22685L21.4227 9.56024L20.7637 9.89364L20.0682 10.2611L19.7663 10.4265L19.4539 10.626L19.1415 10.8255L18.8633 11.0591H18.7924V11.1274H18.7241L18.585 11.1615L18.5167 11.1956L18.4459 11.2612L18.4118 11.3269L18.3435 11.361L18.1361 11.4948L17.9262 11.6287L17.7188 11.7627L17.5088 11.9307L16.674 12.6001L15.8865 13.2668L15.1227 14.0018L14.3588 14.7368L14.0805 15.0387L13.8022 15.3721L13.5581 15.7054H13.5162V12.9648H13.5502L13.8967 12.5999L14.1409 12.3637L14.4191 12.1012L14.7 11.8964L14.9625 11.6628L15.225 11.4633L15.4613 11.2612L15.7054 11.0617L15.9127 10.8281L16.5375 10.3608L17.1623 9.89357L17.8211 9.44993L18.4459 9.0168L18.8265 8.81728L19.1625 8.66243L19.5563 8.48918L19.9028 8.25557L20.181 8.1217L20.5275 7.95368L20.8425 7.82245L21.1549 7.65443L21.9424 7.35518L22.7063 7.02178L23.4806 6.71995L24.3128 6.41805L24.6251 6.31832L25.0425 6.18703L25.2158 6.15295L25.389 6.1188L25.6331 6.05316H25.8064L25.9455 5.98493L26.1187 5.95078L26.3261 5.9167L26.5126 5.8852L26.6857 5.81955L26.8826 5.77495L27.1267 5.7408L27.3 5.71718L27.5074 5.68303L27.7857 5.61745L28.0298 5.5833H28.3763L28.5154 5.54916L28.6545 5.48357L28.8619 5.44943L29.0692 5.41528H29.3816L29.5549 5.3812L29.7281 5.34705L29.925 5.31814H30.1324L30.3057 5.28405L30.3188 5.28412ZM13.5187 47.3629L13.8994 47.7304L14.4244 48.1976L14.8339 48.5625L15.2512 48.9667L15.7028 49.3001L16.1201 49.6676L16.2934 49.8015L16.5375 49.9669L16.7108 50.1007L16.8499 50.2687H16.884L16.9182 50.1034V48.0375L16.8499 47.9692L16.7449 47.8695L16.6766 47.7356L16.5375 47.6306L16.2592 47.4626L16.0493 47.3287L15.75 47.0636L15.4717 46.8011L15.1594 46.5019L14.9153 46.2393L14.5346 45.8377L14.154 45.4361L13.8075 44.9689L13.5162 44.625V47.3629H13.5187ZM13.5187 15.7027L13.272 16.0387L12.6814 16.8L12.1275 17.5743L11.6052 18.375L11.0801 19.2098L10.6286 20.1127L10.1772 20.9816L9.79652 21.882L9.45002 22.8165L9.13766 23.7851L8.86462 24.7538L8.6205 25.725L8.44725 26.7619L8.30814 27.7646L8.20312 28.7674L8.16904 29.2923V29.7938L8.13754 30.2978L8.17162 30.8227V31.29L8.20577 31.7914L8.27406 32.2586L8.34229 32.7258L8.4 33.2377L8.48139 33.705L8.54968 34.1723L8.6205 34.65L8.79375 35.4375L8.82789 35.6055L8.89877 35.7761L8.92504 35.9415L8.95912 36.141L8.92504 36.2434L8.89089 36.3431L8.82789 36.4875L8.7596 36.5872L8.55227 36.7868L8.37902 36.9547L8.16904 37.275L7.92491 37.6083L7.85662 37.674L7.78839 37.7737L7.71752 37.8787V37.9444H7.64923L7.581 37.7107L7.51277 37.4771L7.44448 37.2435L7.37625 36.981L7.266 36.75L7.19777 36.5164L7.05866 36.015L6.9195 35.49L6.81454 34.965L6.70952 34.44L6.6045 33.915L6.53627 33.3375L6.46798 32.7705L6.43389 32.2455L6.3656 31.6444V28.8619L6.43389 27.7279L6.50218 27.1609L6.60714 26.5939L6.67543 26.0689L6.81448 25.5438L6.9195 25.0189L7.05866 24.4939L7.19777 23.9925L7.37102 23.4675L7.57835 22.8008L7.78839 22.05L8.06666 21.3491L8.31079 20.6482L8.48404 20.2808L8.68879 19.8791L8.89877 19.4775L9.14289 19.0759L9.48939 18.4091L9.87004 17.7082L10.2874 17.0415L10.7048 16.3406L11.1562 15.7736L11.6419 15.1725L12.1275 14.6028L12.6131 14.0359L12.9255 13.6683L13.2379 13.3009L13.5162 12.9675V15.7027H13.5187ZM13.5162 44.625V47.3629L13.4453 47.25L12.9938 46.7827L12.5082 46.2814L12.1275 45.7931L11.7101 45.2681L11.2928 44.7431L10.9121 44.2181L10.7389 43.9845L10.5 43.5881L10.3609 43.4202L10.2218 43.2206L10.1535 43.0868L10.1194 42.987L10.1824 42.7875L10.2165 42.6195L10.3556 42.1864L10.5 41.7874L10.6733 41.3858L10.8412 40.95L10.9804 41.0497L11.1537 41.2492L11.3295 41.475L11.5369 41.7742L11.9175 42.3859L12.1957 42.7875L12.8205 43.6563L13.4794 44.5567L13.5162 44.625Z" fill="#E02200"/>
<path d="M72.0581 58.3903C70.9368 58.3903 69.8155 57.9459 69 57.1595L69.9627 55.9972C70.563 56.5556 71.3559 56.9316 72.0921 56.9316C72.9642 56.9316 73.4286 56.5556 73.4286 55.963C73.4286 55.3362 72.9189 55.1424 72.1714 54.8234L71.0501 54.3447C70.2006 53.9915 69.3511 53.3077 69.3511 52.0769C69.3511 50.698 70.5517 49.6382 72.2507 49.6382C73.2247 49.6382 74.1988 50.0256 74.8784 50.7208L74.0289 51.7806C73.4965 51.3362 72.9416 51.0855 72.2507 51.0855C71.5144 51.0855 71.0387 51.416 71.0387 51.9744C71.0387 52.5783 71.639 52.7949 72.3526 53.0798L73.4512 53.547C74.4706 53.9687 75.1389 54.6182 75.1389 55.8376C75.1389 57.2165 73.9949 58.3903 72.0581 58.3903Z" fill="white" fill-opacity="0.8"/>
<path d="M77.5063 58.2308V51.849H79.16V58.2308H77.5063ZM78.3445 50.8234C77.7668 50.8234 77.3478 50.4359 77.3478 49.9117C77.3478 49.3647 77.7668 49 78.3445 49C78.9108 49 79.3299 49.3647 79.3299 49.9117C79.3299 50.4359 78.9108 50.8234 78.3445 50.8234Z" fill="white" fill-opacity="0.8"/>
<path d="M81.9656 58.2308V51.849H83.3248L83.438 52.6923H83.4833C84.0383 52.1453 84.6839 51.6895 85.5447 51.6895C86.9152 51.6895 87.5042 52.6467 87.5042 54.2536V58.2308H85.8392V54.4587C85.8392 53.4786 85.5674 53.1254 84.9444 53.1254C84.4234 53.1254 84.095 53.3761 83.6193 53.8433V58.2308H81.9656Z" fill="white" fill-opacity="0.8"/>
<path d="M92.8913 58.3903C91.3056 58.3903 89.8445 57.1595 89.8445 55.0513C89.8445 52.9202 91.3056 51.6895 92.8913 51.6895C94.4769 51.6895 95.938 52.9202 95.938 55.0513C95.938 57.1595 94.4769 58.3903 92.8913 58.3903ZM92.8913 57.0228C93.7521 57.0228 94.2391 56.2479 94.2391 55.0513C94.2391 53.8433 93.7521 53.057 92.8913 53.057C92.0305 53.057 91.5434 53.8433 91.5434 55.0513C91.5434 56.2479 92.0305 57.0228 92.8913 57.0228Z" fill="white" fill-opacity="0.8"/>
<path d="M98.3503 60.6809V51.849H99.7094L99.8227 52.51H99.868C100.4 52.0541 101.057 51.6895 101.737 51.6895C103.3 51.6895 104.229 52.9772 104.229 54.9373C104.229 57.1254 102.926 58.3903 101.533 58.3903C100.978 58.3903 100.446 58.1396 99.9586 57.6952L100.004 58.7436V60.6809H98.3503ZM101.159 57.0114C101.929 57.0114 102.518 56.3504 102.518 54.9601C102.518 53.7407 102.133 53.0684 101.261 53.0684C100.831 53.0684 100.446 53.2849 100.004 53.7293V56.5328C100.412 56.886 100.819 57.0114 101.159 57.0114Z" fill="white" fill-opacity="0.8"/>
<path d="M109.411 58.3903C107.644 58.3903 106.262 57.1481 106.262 55.0513C106.262 52.9772 107.701 51.6895 109.218 51.6895C110.963 51.6895 111.869 52.9772 111.869 54.7436C111.869 55.0513 111.835 55.359 111.79 55.5071H107.882C108.018 56.5556 108.697 57.1026 109.638 57.1026C110.159 57.1026 110.612 56.943 111.065 56.6581L111.631 57.6838C111.008 58.1168 110.204 58.3903 109.411 58.3903ZM107.859 54.4017H110.442C110.442 53.5356 110.057 52.9886 109.241 52.9886C108.573 52.9886 107.984 53.4672 107.859 54.4017Z" fill="white" fill-opacity="0.8"/>
<path d="M116.955 58.3903C115.199 58.3903 113.863 57.1595 113.863 55.0513C113.863 52.9202 115.381 51.6895 117.102 51.6895C117.884 51.6895 118.484 51.9972 118.948 52.396L118.156 53.4786C117.838 53.2051 117.544 53.057 117.182 53.057C116.219 53.057 115.562 53.8433 115.562 55.0513C115.562 56.2479 116.219 57.0228 117.136 57.0228C117.589 57.0228 118.02 56.8063 118.371 56.51L119.028 57.6154C118.427 58.151 117.657 58.3903 116.955 58.3903Z" fill="white" fill-opacity="0.8"/>
<path d="M126.547 54.755H128.541L128.292 53.8319C128.031 52.9544 127.805 51.9858 127.555 51.0741H127.51C127.295 51.9972 127.046 52.9544 126.796 53.8319L126.547 54.755ZM129.492 58.2308L128.903 56.0655H126.185L125.596 58.2308H123.897L126.581 49.7977H128.552L131.248 58.2308H129.492Z" fill="white" fill-opacity="0.8"/>
<path d="M133.248 58.2308V49.7977H134.925V58.2308H133.248Z" fill="white" fill-opacity="0.8"/>
<path d="M137.53 55.5641V54.3675H140.623V55.5641H137.53Z" fill="white" fill-opacity="0.8"/>
<path d="M143.218 58.2308V49.7977H145.97C147.827 49.7977 149.255 50.4473 149.255 52.4416C149.255 54.3675 147.816 55.2336 146.015 55.2336H144.894V58.2308H143.218ZM144.894 53.9003H145.902C147.057 53.9003 147.612 53.4103 147.612 52.4416C147.612 51.4615 147.001 51.1311 145.845 51.1311H144.894V53.9003Z" fill="white" fill-opacity="0.8"/>
<path d="M154.018 58.3903C152.433 58.3903 150.972 57.1595 150.972 55.0513C150.972 52.9202 152.433 51.6895 154.018 51.6895C155.604 51.6895 157.065 52.9202 157.065 55.0513C157.065 57.1595 155.604 58.3903 154.018 58.3903ZM154.018 57.0228C154.879 57.0228 155.366 56.2479 155.366 55.0513C155.366 53.8433 154.879 53.057 154.018 53.057C153.158 53.057 152.671 53.8433 152.671 55.0513C152.671 56.2479 153.158 57.0228 154.018 57.0228Z" fill="white" fill-opacity="0.8"/>
<path d="M160.442 58.2308L158.8 51.849H160.465L161.156 55.0057C161.28 55.6211 161.36 56.2365 161.473 56.8632H161.518C161.643 56.2365 161.756 55.6097 161.915 55.0057L162.674 51.849H164.157L164.95 55.0057C165.097 55.6211 165.211 56.2365 165.347 56.8632H165.403C165.516 56.2365 165.596 55.6211 165.72 55.0057L166.411 51.849H167.952L166.389 58.2308H164.429L163.761 55.4501C163.625 54.8462 163.523 54.265 163.398 53.5926H163.342C163.217 54.265 163.127 54.8576 162.991 55.4501L162.345 58.2308H160.442Z" fill="white" fill-opacity="0.8"/>
<path d="M172.85 58.3903C171.083 58.3903 169.701 57.1481 169.701 55.0513C169.701 52.9772 171.14 51.6895 172.657 51.6895C174.402 51.6895 175.308 52.9772 175.308 54.7436C175.308 55.0513 175.274 55.359 175.228 55.5071H171.321C171.457 56.5556 172.136 57.1026 173.076 57.1026C173.597 57.1026 174.05 56.943 174.504 56.6581L175.07 57.6838C174.447 58.1168 173.643 58.3903 172.85 58.3903ZM171.298 54.4017H173.881C173.881 53.5356 173.495 52.9886 172.68 52.9886C172.012 52.9886 171.423 53.4672 171.298 54.4017Z" fill="white" fill-opacity="0.8"/>
<path d="M177.698 58.2308V51.849H179.057L179.171 52.9772H179.216C179.68 52.1453 180.36 51.6895 181.017 51.6895C181.368 51.6895 181.572 51.7464 181.764 51.8262L181.47 53.2735C181.255 53.2051 181.073 53.1709 180.813 53.1709C180.315 53.1709 179.714 53.5014 179.352 54.4245V58.2308H177.698Z" fill="white" fill-opacity="0.8"/>
<path d="M186.27 58.3903C184.503 58.3903 183.122 57.1481 183.122 55.0513C183.122 52.9772 184.56 51.6895 186.078 51.6895C187.822 51.6895 188.728 52.9772 188.728 54.7436C188.728 55.0513 188.694 55.359 188.649 55.5071H184.741C184.877 56.5556 185.557 57.1026 186.497 57.1026C187.018 57.1026 187.471 56.943 187.924 56.6581L188.49 57.6838C187.867 58.1168 187.063 58.3903 186.27 58.3903ZM184.719 54.4017H187.301C187.301 53.5356 186.916 52.9886 186.1 52.9886C185.432 52.9886 184.843 53.4672 184.719 54.4017Z" fill="white" fill-opacity="0.8"/>
<path d="M193.35 58.3903C191.775 58.3903 190.756 57.1368 190.756 55.0513C190.756 52.9658 192.047 51.6895 193.418 51.6895C194.131 51.6895 194.573 51.963 195.026 52.3846L194.958 51.3818V49.1368H196.623V58.2308H195.275L195.139 57.5698H195.105C194.641 58.0256 194.007 58.3903 193.35 58.3903ZM193.78 57.0114C194.222 57.0114 194.596 56.8291 194.958 56.3504V53.547C194.573 53.1937 194.177 53.0684 193.78 53.0684C193.067 53.0684 192.466 53.7521 192.466 55.0285C192.466 56.3504 192.942 57.0114 193.78 57.0114Z" fill="white" fill-opacity="0.8"/>
<path d="M203.148 58.2308V49.7977H205.006L206.433 53.7407C206.614 54.265 206.773 54.8234 206.943 55.3704H206.999C207.181 54.8234 207.328 54.265 207.509 53.7407L208.902 49.7977H210.76V58.2308H209.231V54.7094C209.231 53.9117 209.355 52.7379 209.434 51.9402H209.389L208.71 53.9231L207.418 57.4672H206.456L205.153 53.9231L204.485 51.9402H204.44C204.519 52.7379 204.655 53.9117 204.655 54.7094V58.2308H203.148Z" fill="white" fill-opacity="0.8"/>
<path d="M216.349 58.3903C214.764 58.3903 213.303 57.1595 213.303 55.0513C213.303 52.9202 214.764 51.6895 216.349 51.6895C217.935 51.6895 219.396 52.9202 219.396 55.0513C219.396 57.1595 217.935 58.3903 216.349 58.3903ZM216.349 57.0228C217.21 57.0228 217.697 56.2479 217.697 55.0513C217.697 53.8433 217.21 53.057 216.349 53.057C215.489 53.057 215.002 53.8433 215.002 55.0513C215.002 56.2479 215.489 57.0228 216.349 57.0228Z" fill="white" fill-opacity="0.8"/>
<path d="M224.04 58.3903C222.465 58.3903 221.446 57.1368 221.446 55.0513C221.446 52.9658 222.737 51.6895 224.108 51.6895C224.821 51.6895 225.263 51.963 225.716 52.3846L225.648 51.3818V49.1368H227.313V58.2308H225.965L225.829 57.5698H225.795C225.331 58.0256 224.697 58.3903 224.04 58.3903ZM224.47 57.0114C224.912 57.0114 225.286 56.8291 225.648 56.3504V53.547C225.263 53.1937 224.867 53.0684 224.47 53.0684C223.757 53.0684 223.156 53.7521 223.156 55.0285C223.156 56.3504 223.632 57.0114 224.47 57.0114Z" fill="white" fill-opacity="0.8"/>
<path d="M232.869 58.3903C231.102 58.3903 229.72 57.1481 229.72 55.0513C229.72 52.9772 231.159 51.6895 232.677 51.6895C234.421 51.6895 235.327 52.9772 235.327 54.7436C235.327 55.0513 235.293 55.359 235.248 55.5071H231.34C231.476 56.5556 232.156 57.1026 233.096 57.1026C233.617 57.1026 234.07 56.943 234.523 56.6581L235.089 57.6838C234.466 58.1168 233.662 58.3903 232.869 58.3903ZM231.317 54.4017H233.9C233.9 53.5356 233.515 52.9886 232.699 52.9886C232.031 52.9886 231.442 53.4672 231.317 54.4017Z" fill="white" fill-opacity="0.8"/>
<path d="M239.28 58.3903C238.125 58.3903 237.717 57.6268 237.717 56.4416V49.1368H239.371V56.5214C239.371 56.8974 239.552 57.0228 239.711 57.0228C239.779 57.0228 239.824 57.0228 239.937 57L240.141 58.2422C239.949 58.3219 239.666 58.3903 239.28 58.3903Z" fill="white" fill-opacity="0.8"/>
<path d="M246.031 58.2308V49.7977H251.196V51.1994H247.707V53.3989H250.686V54.812H247.707V58.2308H246.031Z" fill="white" fill-opacity="0.8"/>
<path d="M255.98 58.3903C254.394 58.3903 252.933 57.1595 252.933 55.0513C252.933 52.9202 254.394 51.6895 255.98 51.6895C257.566 51.6895 259.027 52.9202 259.027 55.0513C259.027 57.1595 257.566 58.3903 255.98 58.3903ZM255.98 57.0228C256.841 57.0228 257.328 56.2479 257.328 55.0513C257.328 53.8433 256.841 53.057 255.98 53.057C255.119 53.057 254.632 53.8433 254.632 55.0513C254.632 56.2479 255.119 57.0228 255.98 57.0228Z" fill="white" fill-opacity="0.8"/>
<path d="M261.439 58.2308V51.849H262.798L262.911 52.9772H262.957C263.421 52.1453 264.101 51.6895 264.758 51.6895C265.109 51.6895 265.313 51.7464 265.505 51.8262L265.211 53.2735C264.995 53.2051 264.814 53.1709 264.554 53.1709C264.055 53.1709 263.455 53.5014 263.093 54.4245V58.2308H261.439Z" fill="white" fill-opacity="0.8"/>
<path d="M270.011 58.3903C268.244 58.3903 266.862 57.1481 266.862 55.0513C266.862 52.9772 268.301 51.6895 269.819 51.6895C271.563 51.6895 272.469 52.9772 272.469 54.7436C272.469 55.0513 272.435 55.359 272.39 55.5071H268.482C268.618 56.5556 269.298 57.1026 270.238 57.1026C270.759 57.1026 271.212 56.943 271.665 56.6581L272.231 57.6838C271.608 58.1168 270.804 58.3903 270.011 58.3903ZM268.459 54.4017H271.042C271.042 53.5356 270.657 52.9886 269.841 52.9886C269.173 52.9886 268.584 53.4672 268.459 54.4017Z" fill="white" fill-opacity="0.8"/>
<path d="M277.555 58.3903C275.799 58.3903 274.463 57.1595 274.463 55.0513C274.463 52.9202 275.981 51.6895 277.702 51.6895C278.484 51.6895 279.084 51.9972 279.548 52.396L278.756 53.4786C278.438 53.2051 278.144 53.057 277.782 53.057C276.819 53.057 276.162 53.8433 276.162 55.0513C276.162 56.2479 276.819 57.0228 277.736 57.0228C278.189 57.0228 278.62 56.8063 278.971 56.51L279.628 57.6154C279.027 58.151 278.257 58.3903 277.555 58.3903Z" fill="white" fill-opacity="0.8"/>
<path d="M283.282 58.3903C282.149 58.3903 281.402 57.5812 281.402 56.4986C281.402 55.1311 282.5 54.4131 285.049 54.1396C285.026 53.5128 284.754 53.0342 283.973 53.0342C283.384 53.0342 282.817 53.2963 282.229 53.6382L281.628 52.5328C282.376 52.0655 283.282 51.6895 284.279 51.6895C285.887 51.6895 286.714 52.6581 286.714 54.5043V58.2308H285.355L285.23 57.547H285.196C284.641 58.0256 284.007 58.3903 283.282 58.3903ZM283.826 57.0798C284.301 57.0798 284.652 56.8519 285.049 56.453V55.1652C283.508 55.3704 282.987 55.792 282.987 56.3618C282.987 56.8632 283.339 57.0798 283.826 57.0798Z" fill="white" fill-opacity="0.8"/>
<path d="M291.242 58.3903C290.393 58.3903 289.453 58.0142 288.83 57.49L289.589 56.4416C290.155 56.886 290.699 57.1368 291.288 57.1368C291.922 57.1368 292.205 56.8632 292.205 56.4644C292.205 55.9858 291.548 55.7692 290.88 55.5071C290.076 55.1994 289.147 54.7094 289.147 53.6496C289.147 52.4986 290.076 51.6895 291.503 51.6895C292.431 51.6895 293.134 52.0769 293.666 52.4758L292.919 53.49C292.465 53.1709 292.024 52.943 291.548 52.943C290.982 52.943 290.71 53.1937 290.71 53.5584C290.71 54.0256 291.333 54.1966 292.001 54.4473C292.839 54.7664 293.768 55.188 293.768 56.3732C293.768 57.49 292.896 58.3903 291.242 58.3903Z" fill="white" fill-opacity="0.8"/>
<path d="M298.114 58.3903C296.607 58.3903 296.03 57.433 296.03 55.9972V53.1709H295.135V51.9288L296.109 51.849L296.301 50.1396H297.695V51.849H299.258V53.1709H297.695V55.9972C297.695 56.7265 297.989 57.0684 298.555 57.0684C298.759 57.0684 299.008 57 299.178 56.9316L299.45 58.151C299.11 58.265 298.669 58.3903 298.114 58.3903Z" fill="white" fill-opacity="0.8"/>
<path d="M301.567 58.2308V51.849H303.221V58.2308H301.567ZM302.405 50.8234C301.828 50.8234 301.409 50.4359 301.409 49.9117C301.409 49.3647 301.828 49 302.405 49C302.972 49 303.391 49.3647 303.391 49.9117C303.391 50.4359 302.972 50.8234 302.405 50.8234Z" fill="white" fill-opacity="0.8"/>
<path d="M306.027 58.2308V51.849H307.386L307.499 52.6923H307.544C308.099 52.1453 308.745 51.6895 309.606 51.6895C310.976 51.6895 311.565 52.6467 311.565 54.2536V58.2308H309.9V54.4587C309.9 53.4786 309.628 53.1254 309.005 53.1254C308.484 53.1254 308.156 53.3761 307.68 53.8433V58.2308H306.027Z" fill="white" fill-opacity="0.8"/>
<path d="M316.533 61C315.038 61 313.883 60.4872 313.883 59.359C313.883 58.8234 314.211 58.3675 314.789 58.037V57.9801C314.46 57.7635 314.211 57.433 314.211 56.9088C314.211 56.4302 314.54 55.9858 314.914 55.7122V55.6667C314.483 55.3476 314.075 54.7436 314.075 54.0028C314.075 52.4986 315.287 51.6895 316.635 51.6895C316.986 51.6895 317.326 51.7578 317.587 51.849H319.874V53.0798H318.787C318.957 53.2963 319.082 53.6496 319.082 54.0484C319.082 55.4843 317.994 56.2137 316.635 56.2137C316.386 56.2137 316.091 56.1567 315.82 56.0655C315.638 56.2137 315.548 56.3618 315.548 56.6125C315.548 56.9544 315.797 57.1368 316.545 57.1368H317.621C319.15 57.1368 319.976 57.6154 319.976 58.7322C319.976 60.0199 318.651 61 316.533 61ZM316.635 55.1766C317.19 55.1766 317.621 54.755 317.621 54.0028C317.621 53.2507 317.201 52.8291 316.635 52.8291C316.069 52.8291 315.638 53.2507 315.638 54.0028C315.638 54.755 316.08 55.1766 316.635 55.1766ZM316.782 59.9402C317.734 59.9402 318.391 59.5185 318.391 59.0171C318.391 58.5613 318.017 58.4473 317.337 58.4473H316.567C316.182 58.4473 315.91 58.4131 315.684 58.3561C315.401 58.584 315.265 58.8348 315.265 59.0969C315.265 59.6325 315.854 59.9402 316.782 59.9402Z" fill="white" fill-opacity="0.8"/>
<path d="M328.304 58.3903C327.183 58.3903 326.061 57.9459 325.246 57.1595L326.209 55.9972C326.809 56.5556 327.602 56.9316 328.338 56.9316C329.21 56.9316 329.674 56.5556 329.674 55.963C329.674 55.3362 329.165 55.1424 328.417 54.8234L327.296 54.3447C326.446 53.9915 325.597 53.3077 325.597 52.0769C325.597 50.698 326.798 49.6382 328.496 49.6382C329.471 49.6382 330.445 50.0256 331.124 50.7208L330.275 51.7806C329.742 51.3362 329.187 51.0855 328.496 51.0855C327.76 51.0855 327.285 51.416 327.285 51.9744C327.285 52.5783 327.885 52.7949 328.598 53.0798L329.697 53.547C330.716 53.9687 331.385 54.6182 331.385 55.8376C331.385 57.2165 330.241 58.3903 328.304 58.3903Z" fill="white" fill-opacity="0.8"/>
<path d="M334.307 60.7949C333.933 60.7949 333.684 60.7493 333.435 60.6695L333.741 59.3818C333.854 59.416 334.035 59.4615 334.183 59.4615C334.828 59.4615 335.191 59.0513 335.372 58.4929L335.485 58.1168L333.016 51.849H334.692L335.7 54.812C335.893 55.3818 336.051 55.9972 336.233 56.6125H336.289C336.437 56.0199 336.595 55.4046 336.742 54.812L337.614 51.849H339.211L336.958 58.4245C336.403 59.9288 335.723 60.7949 334.307 60.7949Z" fill="white" fill-opacity="0.8"/>
<path d="M343.088 58.3903C342.238 58.3903 341.298 58.0142 340.675 57.49L341.434 56.4416C342 56.886 342.544 57.1368 343.133 57.1368C343.767 57.1368 344.05 56.8632 344.05 56.4644C344.05 55.9858 343.393 55.7692 342.725 55.5071C341.921 55.1994 340.992 54.7094 340.992 53.6496C340.992 52.4986 341.921 51.6895 343.348 51.6895C344.277 51.6895 344.979 52.0769 345.511 52.4758L344.764 53.49C344.311 53.1709 343.869 52.943 343.393 52.943C342.827 52.943 342.555 53.1937 342.555 53.5584C342.555 54.0256 343.178 54.1966 343.846 54.4473C344.685 54.7664 345.613 55.188 345.613 56.3732C345.613 57.49 344.741 58.3903 343.088 58.3903Z" fill="white" fill-opacity="0.8"/>
<path d="M349.959 58.3903C348.453 58.3903 347.875 57.433 347.875 55.9972V53.1709H346.98V51.9288L347.954 51.849L348.147 50.1396H349.54V51.849H351.103V53.1709H349.54V55.9972C349.54 56.7265 349.834 57.0684 350.401 57.0684C350.605 57.0684 350.854 57 351.024 56.9316L351.296 58.151C350.956 58.265 350.514 58.3903 349.959 58.3903Z" fill="white" fill-opacity="0.8"/>
<path d="M355.955 58.3903C354.188 58.3903 352.806 57.1481 352.806 55.0513C352.806 52.9772 354.245 51.6895 355.762 51.6895C357.506 51.6895 358.413 52.9772 358.413 54.7436C358.413 55.0513 358.379 55.359 358.333 55.5071H354.426C354.562 56.5556 355.241 57.1026 356.181 57.1026C356.702 57.1026 357.155 56.943 357.608 56.6581L358.175 57.6838C357.552 58.1168 356.748 58.3903 355.955 58.3903ZM354.403 54.4017H356.985C356.985 53.5356 356.6 52.9886 355.785 52.9886C355.117 52.9886 354.528 53.4672 354.403 54.4017Z" fill="white" fill-opacity="0.8"/>
<path d="M360.803 58.2308V51.849H362.162L362.275 52.7037H362.321C362.853 52.1453 363.442 51.6895 364.269 51.6895C365.175 51.6895 365.707 52.0997 366.013 52.8063C366.591 52.1909 367.202 51.6895 368.029 51.6895C369.377 51.6895 370 52.6467 370 54.2536V58.2308H368.335V54.4587C368.335 53.4786 368.052 53.1254 367.452 53.1254C367.089 53.1254 366.681 53.3647 366.228 53.8433V58.2308H364.563V54.4587C364.563 53.4786 364.28 53.1254 363.68 53.1254C363.318 53.1254 362.91 53.3647 362.457 53.8433V58.2308H360.803Z" fill="white" fill-opacity="0.8"/>
<path d="M81.7297 24.6523H87.8378V18.5353H81.7297V24.6523ZM72.2432 24.6523H78.3243V18.5353H72.2432V24.6523ZM81.7297 15.2065H91.2162V29.4036H87.8378V27.981H81.7297V36.8577H78.3243V27.981H72.2432V29.5458H69V15.2065H78.3243V10.2845H81.7297V15.2065Z" fill="white"/>
<path d="M114.027 31.8788V25.0506H103.216V31.8788H114.027ZM119 15.5479H106.054C105.27 17.6533 104.351 19.7871 103.27 21.8072H117.486V36.7439H114.027V35.1507H103.216V36.8577H99.9459V26.7292C98.8378 28.0948 97.6486 29.2613 96.2973 30.2856C95.7838 29.5174 94.7027 28.294 94.027 27.6681C97.9459 24.8514 100.784 20.0717 102.324 15.5479H95.2703V12.2192H119V15.5479Z" fill="white"/>
<path d="M138.892 32.9884H142.054C143.216 32.9884 143.405 31.8504 143.622 27.156C144.432 27.8388 145.865 28.5501 146.784 28.7777C146.432 34.2972 145.595 36.3741 142.378 36.3741H138.432C135.108 36.3741 134.162 35.1222 134.162 31.0253V28.0948C133.108 28.7777 132.108 29.3467 131.081 29.8588C130.649 29.2044 129.757 28.2086 128.973 27.5258V36.8577H125.568V21.921C124.892 22.7745 124.216 23.5427 123.541 24.254C123.135 23.4289 122.081 21.608 121.486 20.8114C124.189 18.2792 126.838 14.2677 128.324 10.1707L131.595 11.3087C130.865 13.1296 129.973 14.9789 128.973 16.7713V27.156C130.649 26.3024 132.432 25.2497 134.162 23.9125V10.7113H137.649V20.9821C139.811 18.9336 141.811 16.5722 143.405 13.9831L146.486 16.2023C143.973 19.8725 140.838 23.059 137.649 25.6196V31.0822C137.649 32.7323 137.811 32.9884 138.892 32.9884Z" fill="white"/>
<path d="M160.892 16.6291V15.0074H157.73V12.2192H160.892V10.313H163.946V12.2192H167.081V10.313H170.216V12.2192H173.243V15.0074H170.216V16.6291H167.081V15.0074H163.946V16.6291H160.892ZM158.108 24.8799L156.189 27.2413C155.892 26.4162 155.378 25.2213 154.811 24.0263V36.8293H151.757V27.2129C151.162 28.9768 150.459 30.5416 149.757 31.7366C149.432 30.7692 148.73 29.2329 148.216 28.3224C149.703 26.274 151 22.6607 151.757 19.4457V18.706H148.838V15.5764H151.757V10.2845H154.811V15.5764H157.243V18.6776H154.811V19.6733C155.622 20.8114 157.622 24.0548 158.108 24.8799ZM161.459 22.8883V24.1401H168.892V22.8883H161.459ZM161.459 19.4457V20.6976H168.892V19.4457H161.459ZM173.351 30.9115H168.622C169.838 32.4194 171.649 33.5005 174.054 34.0126C173.378 34.667 172.514 35.9473 172.081 36.8008C169.054 35.9189 167 34.1264 165.649 31.509C164.514 33.9557 162.324 35.7197 157.865 36.8577C157.595 36.0327 156.838 34.8093 156.243 34.1549C159.622 33.4436 161.405 32.3909 162.405 30.9115H157.243V28.1233H163.432C163.514 27.6112 163.595 27.0706 163.649 26.5016H158.486V17.1127H172V26.5016H166.811C166.757 27.0706 166.676 27.5827 166.595 28.1233H173.351V30.9115Z" fill="white"/>
<path d="M199.162 10.5975V22.746C199.162 24.3109 198.892 25.1075 197.865 25.5911C196.892 26.0464 195.514 26.1317 193.622 26.1317C193.486 25.2497 193.054 23.9694 192.676 23.1444C193.892 23.2013 195.189 23.2013 195.595 23.1728C195.973 23.1444 196.108 23.059 196.108 22.6891V10.5975H199.162ZM194.135 11.9062V21.5227H191.189V11.9062H194.135ZM182.243 17.2266H184.514V14.2392H182.243V17.2266ZM189.838 32.8177H200.324V35.9473H175.973V32.8177H186.541V30.5416H178.703V27.4689H186.514V25.6765H184.514V20.2139H182.027C181.595 22.5469 180.459 24.8799 177.784 26.4447C177.378 25.8188 176.243 24.5385 175.676 24.0832C177.676 23.0021 178.568 21.6365 178.973 20.2139H176.243V17.2266H179.297V14.2392H177.162V11.2803H189.432V14.2392H187.514V17.2266H190.054V20.2139H187.514V25.1928H189.838V27.4689H197.649V30.5416H189.838V32.8177Z" fill="white"/>
<path d="M214.892 16.4015H218.919C219.054 15.7471 219.162 15.0358 219.243 14.353H214.027V11.3656H227.892V14.353H222.676C222.459 15.0643 222.243 15.7471 222.027 16.4015H226.838V29.9157H223.703V19.4173H217.865V30.0295H214.892V16.4015ZM212.676 27.8957L210.297 27.3551C210.595 26.4162 210.919 25.1075 211.216 23.7987H209.595V33.216C209.595 34.8093 209.351 35.6913 208.324 36.2034C207.351 36.7155 206 36.8008 204.189 36.8008C204.081 35.8335 203.649 34.4679 203.216 33.5574C204.378 33.5859 205.622 33.5859 206 33.5859C206.378 33.5574 206.486 33.4721 206.486 33.1591V23.7987H202.459V20.8114H207.919C206.514 19.844 204.892 18.7345 203.595 17.9094L205.243 15.6902L207.405 17.0274C208.054 16.3161 208.784 15.3488 209.405 14.4099H203.108V11.4795H211.405L211.946 11.3087L213.865 12.7597C212.784 14.6944 211.162 16.9136 209.649 18.4499C210.432 18.9621 211.108 19.4457 211.622 19.844L210.919 20.8114H212.189L212.622 20.6976L214.568 21.1812C214 23.5427 213.27 26.2171 212.676 27.8957ZM222.27 20.8114V26.0464C222.27 29.745 221.189 34.0411 214.541 36.6586C214.135 35.9758 213.27 34.9231 212.541 34.3256C218.486 32.2487 219.27 28.6354 219.27 25.9895V20.8114H222.27ZM221.216 32.4194L223.297 30.4278C224.811 31.6797 226.973 33.529 228.054 34.6955L225.811 36.9715C224.865 35.7482 222.73 33.8135 221.216 32.4194Z" fill="white"/>
<path d="M239.405 14.1823V30.3709H237V11.7924H246.595V30.2002H244.081V14.1823H239.405ZM236.973 13.3003L235.027 16.0316C234.081 15.1781 232.054 13.8409 230.595 12.9874L232.486 10.5121C233.892 11.2518 235.946 12.4752 236.973 13.3003ZM235.865 20.7829L233.973 23.4858C233 22.6607 231 21.3804 229.568 20.5553L231.378 18.1085C232.784 18.8198 234.838 19.9863 235.865 20.7829ZM233.486 25.6765L236.081 27.4405C235.189 30.4847 234.027 33.7566 232.946 36.5448L230.027 34.8093C231.027 32.5901 232.432 29.0053 233.486 25.6765ZM242 31.9642L243.703 30.883C244.946 32.2487 246.432 34.0695 247.162 35.2929L245.108 36.6301C244.459 35.4636 243.081 33.5859 241.892 32.2202C241.108 34.0411 239.676 35.6913 237.243 36.8577C237 36.2887 236.27 35.2076 235.865 34.8093C240.108 32.7892 240.541 29.745 240.541 26.5869V15.7471H242.865V26.6438C242.865 28.3793 242.703 30.2287 242 31.9642ZM250.297 12.902V30.314H247.865V12.902H250.297ZM251.568 10.7397H254.081V33.4436C254.081 34.98 253.811 35.7482 252.946 36.2034C252.108 36.6586 250.784 36.7724 248.838 36.7439C248.73 36.0042 248.351 34.7808 248.027 33.9842C249.324 34.0411 250.595 34.0126 251 34.0126C251.405 34.0126 251.568 33.8704 251.568 33.4436V10.7397Z" fill="white"/>
<path d="M262.351 28.1802L265.595 29.432C264 31.5943 261.595 33.9273 259.649 35.3498C259 34.7239 257.649 33.6143 256.838 33.1022C258.892 31.9357 261.054 30.0011 262.351 28.1802ZM276.595 26.0464L271.027 26.53V33.1591C271.027 34.8093 270.703 35.6628 269.514 36.2034C268.351 36.7155 266.838 36.7439 264.838 36.7439C264.676 35.7482 264.135 34.3256 263.676 33.4436C265.054 33.5005 266.703 33.5005 267.162 33.5005C267.622 33.4721 267.757 33.3867 267.757 33.0453V26.8145C261.541 27.3551 260.378 27.5258 259.459 27.8957C259.324 27.2982 258.865 25.7334 258.541 24.9083C259.622 24.7661 260.649 24.2824 262.351 23.372C263.162 22.9737 264.622 22.177 266.405 21.0674C262.162 21.3519 261.27 21.5227 260.676 21.7787C260.541 21.1243 260.081 19.7018 259.757 18.8767C260.405 18.7914 261.027 18.393 261.811 17.7956C262.405 17.4257 263.784 16.3446 265.189 14.9789C263.108 15.1212 261.054 15.235 259.054 15.2919C259 14.4384 258.595 13.1012 258.297 12.333C264.892 12.0769 272.405 11.3372 276.973 10.1992L279.243 12.9874C276.459 13.6986 273.135 14.2107 269.649 14.5806C268.27 16.0032 266.703 17.3404 265.108 18.5353L270.514 18.2508C271.838 17.2835 273.135 16.2592 274.324 15.1781L276.649 17.3688C273.459 20.0148 269.946 22.2908 266.459 24.1401L274.595 23.5427C274.081 22.9452 273.568 22.3762 273.054 21.8641L275.486 20.5269C277.541 22.49 279.73 25.1644 280.784 26.9852L278.27 28.5785C277.865 27.8672 277.297 26.9852 276.595 26.0464ZM272.459 29.8588L275.081 28.0379C277.162 29.5743 279.892 31.7935 281.216 33.3583L278.378 35.3498C277.189 33.8419 274.568 31.4805 272.459 29.8588Z" fill="white"/>
<path d="M308.838 23.9125L306.162 25.4204C305.946 24.823 305.622 24.1401 305.27 23.4004C296.054 24.3962 294.703 24.5954 293.811 25.0221C293.649 24.197 293.135 22.49 292.865 21.7787C293.432 21.6365 294.216 21.3804 294.838 20.8398C295.297 20.3277 296.649 18.5353 297.757 16.9989H293.514V13.9831H299.514C299.243 13.1012 298.838 11.8778 298.459 10.9389L301.486 10.1423C302 11.1949 302.595 12.6175 302.838 13.471L301.108 13.9831H308.541V16.9989H301.513C300.541 18.393 299.432 19.9863 298.432 21.2666L303.784 20.8114C303.351 20.1001 302.919 19.4173 302.514 18.7914L304.973 17.5111C306.432 19.4742 308.108 22.1486 308.838 23.9125ZM289.162 24.9652L292.919 24.1401C292.811 25.079 292.838 26.4162 292.919 27.0991C286.486 28.6639 285.378 29.0622 284.649 29.5174C284.486 28.863 284 27.2413 283.622 26.3878C284.324 26.2171 284.919 25.6196 285.757 24.5669C286.135 24.1401 286.811 23.2013 287.649 21.9494C285.541 22.2055 284.892 22.3762 284.486 22.6038C284.297 21.8925 283.757 20.1855 283.351 19.2181C283.946 19.0759 284.378 18.4784 284.973 17.568C285.541 16.686 287.27 13.2434 288.189 10L291.459 11.5933C290.459 14.1254 289.027 16.8567 287.541 19.0474L289.486 18.8767C290.027 17.9378 290.541 16.942 291 15.9178L293.784 17.7671C292.459 20.2424 290.838 22.746 289.162 24.9652ZM292.865 29.1475L293.459 31.9926C290.432 33.3298 287.135 34.6955 284.514 35.7197L283.784 32.3625C286.054 31.6797 289.514 30.3709 292.865 29.1475ZM296.081 24.5669H299.243C299.027 30.5416 298.324 34.6386 293.405 37C293.027 36.1465 292.162 34.8377 291.459 34.2118C295.541 32.3909 295.919 29.4036 296.081 24.5669ZM304.757 33.529H305.676C306.108 33.529 306.216 32.9031 306.27 29.3182C306.919 29.8588 308.216 30.3994 309 30.627C308.757 35.0938 308.054 36.3741 306 36.3741H304.135C301.73 36.3741 301.162 35.4067 301.162 32.5616V24.5385H304.324V32.5332C304.324 33.4152 304.378 33.529 304.757 33.529Z" fill="white"/>
<rect x="313.4" y="9.95178" width="55.7" height="26.3" rx="4.5" stroke="white" stroke-opacity="0.5"/>
<path d="M323.4 28.4773H326.95C327.422 28.4724 327.879 28.4018 328.321 28.2655C328.768 28.1292 329.161 27.932 329.502 27.674C329.842 27.4208 330.114 27.1044 330.317 26.7246C330.52 26.3449 330.619 25.9067 330.614 25.4102C330.614 25.0937 330.563 24.7992 330.461 24.5265C330.365 24.2539 330.228 24.0081 330.05 23.789C329.883 23.5894 329.669 23.4068 329.41 23.2413C329.151 23.0757 328.882 22.9613 328.603 22.898V22.8761C328.872 22.7642 329.1 22.6449 329.288 22.5183C329.481 22.3917 329.657 22.2359 329.814 22.0509C329.966 21.8708 330.086 21.6663 330.172 21.4375C330.263 21.2087 330.312 20.9555 330.317 20.678C330.322 20.1815 330.223 19.7555 330.02 19.4001C329.817 19.0447 329.545 18.7526 329.205 18.5238C328.864 18.2949 328.476 18.127 328.039 18.0199C327.602 17.9079 327.155 17.8495 326.698 17.8446H323.4V28.4773ZM324.817 23.5042H327.064C327.364 23.5139 327.643 23.5626 327.902 23.6502C328.161 23.7379 328.387 23.862 328.58 24.0227C328.773 24.1882 328.923 24.3878 329.029 24.6215C329.141 24.8552 329.194 25.1229 329.189 25.4248C329.189 25.7217 329.128 25.9871 329.007 26.2208C328.89 26.4544 328.73 26.6516 328.527 26.8123C328.323 26.9729 328.09 27.0995 327.826 27.192C327.562 27.2796 327.282 27.3259 326.988 27.3308H324.817V23.5042ZM324.817 22.3796V18.9984H326.744C327.018 19.0033 327.285 19.0374 327.544 19.1007C327.808 19.164 328.042 19.2613 328.245 19.3928C328.443 19.5291 328.6 19.7019 328.717 19.9113C328.839 20.1206 328.9 20.3738 328.9 20.6707C328.9 20.9482 328.839 21.1917 328.717 21.401C328.595 21.6103 328.435 21.7856 328.237 21.9268C328.039 22.0728 327.813 22.1848 327.559 22.2627C327.305 22.3357 327.046 22.3747 326.782 22.3796H324.817Z" fill="white"/>
<path d="M336.426 28.6233C337.229 28.6233 337.901 28.47 338.445 28.1633C338.993 27.8517 339.405 27.4963 339.679 27.0971L338.818 26.4544C338.559 26.7758 338.234 27.0338 337.843 27.2285C337.452 27.4233 337.005 27.5206 336.502 27.5206C336.121 27.5206 335.774 27.4525 335.459 27.3162C335.144 27.1798 334.875 26.9924 334.651 26.7539C334.433 26.5299 334.26 26.2719 334.133 25.9798C334.011 25.6877 333.933 25.3493 333.897 24.9647V24.9136H339.786V24.3075C339.786 23.7573 339.712 23.2461 339.565 22.7739C339.422 22.3017 339.204 21.8903 338.91 21.5398C338.615 21.1941 338.244 20.9239 337.797 20.7292C337.356 20.5296 336.838 20.4297 336.243 20.4297C335.771 20.4297 335.309 20.5222 334.857 20.7072C334.41 20.8923 334.011 21.1576 333.661 21.5032C333.305 21.8538 333.021 22.2822 332.808 22.7885C332.594 23.29 332.488 23.8596 332.488 24.4973V24.804C332.488 25.3542 332.584 25.8629 332.777 26.3303C332.97 26.7977 333.239 27.2018 333.585 27.5425C333.93 27.8833 334.344 28.1487 334.826 28.3385C335.314 28.5284 335.847 28.6233 336.426 28.6233ZM336.243 21.5398C336.604 21.5398 336.914 21.603 337.173 21.7296C337.437 21.8562 337.655 22.0217 337.828 22.2262C338 22.4307 338.135 22.6741 338.232 22.9565C338.328 23.234 338.376 23.4944 338.376 23.7379V23.8036H333.943C333.999 23.4384 334.095 23.1171 334.232 22.8396C334.374 22.5573 334.547 22.3187 334.75 22.124C334.953 21.9341 335.182 21.7905 335.436 21.6931C335.69 21.5909 335.959 21.5398 336.243 21.5398Z" fill="white"/>
<path d="M345.491 18.6625H344.074V20.5758H341.911V21.6201H344.074V25.9141C344.074 26.4009 344.14 26.8171 344.272 27.1628C344.409 27.5036 344.595 27.7811 344.828 27.9953C345.062 28.2144 345.336 28.375 345.651 28.4773C345.971 28.5747 346.314 28.6233 346.68 28.6233C346.898 28.6233 347.116 28.6136 347.335 28.5941C347.558 28.5747 347.769 28.5454 347.967 28.5065C348.165 28.4724 348.348 28.431 348.515 28.3824C348.683 28.3288 348.825 28.2679 348.942 28.1998L348.744 27.2431C348.658 27.2626 348.546 27.287 348.409 27.3162C348.277 27.3405 348.135 27.3648 347.982 27.3892C347.825 27.4135 347.665 27.4354 347.502 27.4549C347.34 27.4695 347.182 27.4768 347.03 27.4768C346.822 27.4768 346.624 27.4525 346.436 27.4038C346.253 27.3551 346.09 27.2699 345.948 27.1482C345.806 27.0314 345.694 26.8731 345.613 26.6735C345.532 26.4739 345.491 26.2208 345.491 25.9141V21.6201H348.63V20.5758H345.491V18.6625Z" fill="white"/>
<path d="M356.941 28.4773H358.411V28.3604C358.319 28.1414 358.248 27.8858 358.197 27.5937C358.147 27.2967 358.121 27.0168 358.121 26.7539V23.0806C358.121 22.6376 358.038 22.2505 357.87 21.9195C357.702 21.5884 357.474 21.3109 357.184 21.087C356.89 20.8679 356.542 20.7048 356.141 20.5977C355.74 20.4857 355.305 20.4297 354.838 20.4297C354.325 20.4297 353.866 20.4979 353.459 20.6342C353.058 20.7705 352.718 20.9482 352.439 21.1673C352.154 21.3913 351.936 21.642 351.783 21.9195C351.636 22.197 351.56 22.4794 351.555 22.7666H352.972C352.972 22.6011 353.012 22.4429 353.094 22.2919C353.18 22.1361 353.299 22.0023 353.452 21.8903C353.604 21.7783 353.789 21.6882 354.008 21.6201C354.231 21.5519 354.483 21.5178 354.762 21.5178C355.062 21.5178 355.331 21.5544 355.569 21.6274C355.813 21.7004 356.019 21.8026 356.186 21.9341C356.354 22.0704 356.484 22.2335 356.575 22.4234C356.666 22.6132 356.712 22.8275 356.712 23.066V23.6867H355.173C354.599 23.6867 354.079 23.7403 353.612 23.8474C353.15 23.9545 352.753 24.1152 352.423 24.3294C352.093 24.5485 351.837 24.8211 351.654 25.1473C351.476 25.4735 351.387 25.8532 351.387 26.2865C351.387 26.6175 351.453 26.9267 351.585 27.2139C351.722 27.4963 351.915 27.7397 352.164 27.9442C352.408 28.1535 352.705 28.3191 353.056 28.4408C353.411 28.5625 353.807 28.6233 354.244 28.6233C354.513 28.6233 354.767 28.5966 355.006 28.543C355.244 28.4895 355.47 28.4164 355.684 28.3239C355.892 28.2314 356.082 28.1243 356.255 28.0026C356.433 27.8809 356.593 27.7519 356.735 27.6156C356.75 27.7811 356.773 27.9418 356.803 28.0975C356.839 28.2485 356.885 28.375 356.941 28.4773ZM354.45 27.4476C354.175 27.4476 353.934 27.4135 353.726 27.3454C353.518 27.2772 353.345 27.1823 353.208 27.0606C353.071 26.9437 352.967 26.8025 352.896 26.637C352.83 26.4715 352.797 26.2914 352.797 26.0966C352.797 25.8921 352.835 25.7096 352.911 25.5489C352.992 25.3883 353.109 25.2495 353.261 25.1327C353.475 24.9671 353.761 24.8454 354.122 24.7675C354.488 24.6848 354.914 24.6434 355.402 24.6434H356.712V26.2427C356.631 26.3985 356.519 26.5494 356.377 26.6954C356.235 26.8366 356.067 26.9632 355.874 27.0752C355.676 27.1871 355.458 27.2772 355.219 27.3454C354.98 27.4135 354.724 27.4476 354.45 27.4476Z" fill="white"/>
</svg>
