<svg width="50" height="46" viewBox="0 0 50 46" fill="none" xmlns="http://www.w3.org/2000/svg">
<g clip-path="url(#clip0_10_1773)">
<path d="M43.21 27.52C43.16 27.49 43.11 27.47 43.06 27.44C42.38 23.06 39.33 18.29 35.66 16.18C34.61 15.57 33.61 15.24 32.7 15.16C32.17 13.36 31.38 11.5 30.33 9.67C28.19 5.97 25.39 3.12 22.58 1.5C19.77 -0.12 16.96 -0.51 14.81 0.71L10.96 2.95C10.02 3.49 9.28002 4.29 8.75002 5.3C7.73002 5.16 6.81002 5.3 6.05002 5.75L2.20002 7.99C2.20002 7.99 2.20002 7.99 2.21002 7.99C0.850024 8.77 2.43603e-05 10.45 2.43603e-05 12.84C-0.00997564 17.42 3.06002 22.94 6.96002 25.57L39.32 44.25C41.18 45.32 42.85 45.35 44.01 44.55C43.94 44.6 43.88 44.65 43.81 44.69L47.66 42.45C48.79 41.79 49.5 40.39 49.5 38.4C49.51 34.4 46.7 29.52 43.21 27.51V27.52Z" fill="#94CCC3"/>
<path d="M18.73 3.74C21.54 5.36 24.34 8.21 26.48 11.91C27.53 13.73 28.32 15.59 28.85 17.4C29.76 17.48 30.76 17.81 31.81 18.42C35.48 20.54 38.53 25.3 39.21 29.68C39.26 29.71 39.31 29.73 39.36 29.76C42.84 31.77 45.66 36.65 45.65 40.65C45.64 44.65 42.8 46.27 39.32 44.26L6.96002 25.57C3.06002 22.94 -0.00997564 17.42 2.43603e-05 12.84C0.0100244 8.04 3.41002 6.1 7.59002 8.51C7.66002 8.55 7.73002 8.6 7.80002 8.64C8.07002 6.05 9.13002 3.99 10.96 2.94C13.11 1.72 15.92 2.11 18.73 3.73V3.74Z" fill="#ABE0DA"/>
</g>
<defs>
<clipPath id="clip0_10_1773">
<rect width="49.49" height="45.12" fill="white"/>
</clipPath>
</defs>
</svg>
