<svg width="18" height="18" viewBox="0 0 18 18" fill="none" xmlns="http://www.w3.org/2000/svg">
<path d="M6.66667 8.41667C6.51196 8.41667 6.36358 8.47812 6.25419 8.58752C6.14479 8.69692 6.08333 8.84529 6.08333 9C6.08333 9.15471 6.14479 9.30308 6.25419 9.41248C6.36358 9.52187 6.51196 9.58333 6.66667 9.58333C6.82138 9.58333 6.96975 9.52187 7.07915 9.41248C7.18854 9.30308 7.25 9.15471 7.25 9C7.25 8.84529 7.18854 8.69692 7.07915 8.58752C6.96975 8.47812 6.82138 8.41667 6.66667 8.41667ZM4.91667 9C4.91667 8.53587 5.10104 8.09075 5.42923 7.76256C5.75742 7.43437 6.20254 7.25 6.66667 7.25C7.1308 7.25 7.57591 7.43437 7.9041 7.76256C8.23229 8.09075 8.41667 8.53587 8.41667 9C8.41667 9.46413 8.23229 9.90925 7.9041 10.2374C7.57591 10.5656 7.1308 10.75 6.66667 10.75C6.20254 10.75 5.75742 10.5656 5.42923 10.2374C5.10104 9.90925 4.91667 9.46413 4.91667 9ZM12.9124 8.58758C13.0218 8.69697 13.0832 8.84532 13.0832 9C13.0832 9.15468 13.0218 9.30303 12.9124 9.41242L11.7457 10.5791C11.6357 10.6853 11.4884 10.7441 11.3354 10.7428C11.1825 10.7415 11.0362 10.6801 10.928 10.572C10.8199 10.4638 10.7585 10.3175 10.7572 10.1646C10.7559 10.0116 10.8147 9.86427 10.9209 9.75425L11.6752 9L10.9209 8.24575C10.8147 8.13573 10.7559 7.98838 10.7572 7.83543C10.7585 7.68248 10.8199 7.53618 10.928 7.42802C11.0362 7.31987 11.1825 7.25852 11.3354 7.25719C11.4884 7.25586 11.6357 7.31466 11.7457 7.42092L12.9124 8.58758Z" fill="white"/>
<path d="M12.7917 8.99999C12.7917 9.1547 12.7302 9.30307 12.6208 9.41247C12.5114 9.52186 12.363 9.58332 12.2083 9.58332H7.83333C7.67862 9.58332 7.53025 9.52186 7.42085 9.41247C7.31146 9.30307 7.25 9.1547 7.25 8.99999C7.25 8.84528 7.31146 8.69691 7.42085 8.58751C7.53025 8.47811 7.67862 8.41666 7.83333 8.41666H12.2083C12.363 8.41666 12.5114 8.47811 12.6208 8.58751C12.7302 8.69691 12.7917 8.84528 12.7917 8.99999Z" fill="white"/>
<path d="M1 2.58333C1 2.42862 1.06146 2.28025 1.17085 2.17085C1.28025 2.06146 1.42862 2 1.58333 2H6.83333C6.98804 2 7.13642 2.06146 7.24581 2.17085C7.35521 2.28025 7.41667 2.42862 7.41667 2.58333V5.20833C7.41664 5.36303 7.35517 5.51138 7.24578 5.62075C7.13639 5.73013 6.98803 5.79158 6.83333 5.79158C6.67864 5.79158 6.53028 5.73013 6.42089 5.62075C6.31149 5.51138 6.25002 5.36303 6.25 5.20833V3.16667H2.16667V14.8333H6.25V12.7917C6.24999 12.7151 6.26507 12.6392 6.29438 12.5684C6.32369 12.4976 6.36665 12.4333 6.42082 12.3791C6.47499 12.325 6.5393 12.282 6.61008 12.2527C6.68086 12.2233 6.75672 12.2082 6.83333 12.2082C6.90995 12.2082 6.98581 12.2233 7.05659 12.2527C7.12737 12.282 7.19168 12.325 7.24584 12.3791C7.30001 12.4333 7.34298 12.4976 7.37229 12.5684C7.4016 12.6392 7.41668 12.7151 7.41667 12.7917V15.4167C7.41667 15.5714 7.35521 15.7197 7.24581 15.8291C7.13642 15.9385 6.98804 16 6.83333 16H1.58333C1.42862 16 1.28025 15.9385 1.17085 15.8291C1.06146 15.7197 1 15.5714 1 15.4167V2.58333ZM17 15.4167C17 15.5714 16.9385 15.7197 16.8291 15.8291C16.7197 15.9385 16.5714 16 16.4167 16H11.1667C11.012 16 10.8636 15.9385 10.7542 15.8291C10.6448 15.7197 10.5833 15.5714 10.5833 15.4167V12.7917C10.5833 12.7151 10.5984 12.6392 10.6277 12.5684C10.657 12.4976 10.7 12.4333 10.7542 12.3791C10.8083 12.325 10.8726 12.282 10.9434 12.2527C11.0142 12.2233 11.0901 12.2082 11.1667 12.2082C11.2433 12.2082 11.3191 12.2233 11.3899 12.2527C11.4607 12.282 11.525 12.325 11.5792 12.3791C11.6333 12.4333 11.6763 12.4976 11.7056 12.5684C11.7349 12.6392 11.75 12.7151 11.75 12.7917V14.8333H15.8333V3.16667H11.75V5.20833C11.75 5.28495 11.7349 5.36081 11.7056 5.43159C11.6763 5.50238 11.6333 5.56669 11.5792 5.62087C11.525 5.67505 11.4607 5.71802 11.3899 5.74734C11.3191 5.77666 11.2433 5.79176 11.1667 5.79176C11.0901 5.79176 11.0142 5.77666 10.9434 5.74734C10.8726 5.71802 10.8083 5.67505 10.7542 5.62087C10.7 5.56669 10.657 5.50238 10.6277 5.43159C10.5984 5.36081 10.5833 5.28495 10.5833 5.20833V2.58333C10.5833 2.42862 10.6448 2.28025 10.7542 2.17085C10.8636 2.06146 11.012 2 11.1667 2H16.4167C16.5714 2 16.7197 2.06146 16.8291 2.17085C16.9385 2.28025 17 2.42862 17 2.58333V15.4167Z" fill="white"/>
</svg>
