<svg width="18" height="18" viewBox="0 0 18 18" fill="none" xmlns="http://www.w3.org/2000/svg">
<g clip-path="url(#clip0_1_331)">
<path d="M8.5455 4.11188C8.68474 4.03466 8.84134 3.99414 9.00056 3.99414C9.15978 3.99414 9.31638 4.03466 9.45562 4.11188L13.1287 6.15376C13.2748 6.23473 13.3965 6.35324 13.4813 6.49704C13.5662 6.64083 13.6111 6.80467 13.6114 6.97163V11.0385C13.6115 11.2059 13.5668 11.3702 13.4819 11.5144C13.397 11.6586 13.2751 11.7775 13.1287 11.8586L9.45337 13.9005C9.31413 13.9777 9.15753 14.0183 8.99831 14.0183C8.83909 14.0183 8.68249 13.9777 8.54325 13.9005L4.87125 11.8575C4.72491 11.7763 4.60297 11.6575 4.51809 11.5133C4.43322 11.369 4.38852 11.2047 4.38862 11.0374V6.97163C4.38862 6.63188 4.57425 6.31913 4.87125 6.15376L8.54662 4.11188H8.5455ZM9 5.40226L5.7375 7.21463V10.7955L8.99887 12.6079L12.2625 10.7944V7.21576L9 5.40226Z" fill="white"/>
<path d="M12.3908 6.34951C12.5474 6.26254 12.7322 6.24135 12.9044 6.29062C13.0767 6.33988 13.2223 6.45556 13.3093 6.6122C13.3963 6.76884 13.4175 6.95362 13.3682 7.12589C13.3189 7.29815 13.2033 7.44379 13.0466 7.53076L9.67388 9.40164L9.675 12.942C9.67497 13.1021 9.61805 13.257 9.5144 13.379C9.41074 13.5009 9.2671 13.5821 9.10913 13.608L9 13.6181C8.82098 13.6181 8.64929 13.547 8.5227 13.4204C8.39612 13.2938 8.325 13.1222 8.325 12.9431V9.40276L4.96463 7.53751C4.8246 7.45989 4.71672 7.33502 4.66025 7.1852C4.60379 7.03538 4.60241 6.87037 4.65638 6.71964L4.70138 6.61839C4.74453 6.54084 4.80255 6.47256 4.87212 6.41746C4.94169 6.36237 5.02144 6.32153 5.10681 6.29728C5.19218 6.27304 5.2815 6.26587 5.36964 6.27619C5.45779 6.2865 5.54303 6.31409 5.6205 6.35739L8.99775 8.23276L12.3896 6.34951H12.3908ZM3.375 0.450012C3.55402 0.450012 3.72571 0.521128 3.8523 0.647715C3.97888 0.774302 4.05 0.945991 4.05 1.12501V3.37501C4.05 3.55403 3.97888 3.72572 3.8523 3.85231C3.72571 3.9789 3.55402 4.05001 3.375 4.05001H1.125C0.94598 4.05001 0.774291 3.9789 0.647704 3.85231C0.521117 3.72572 0.450001 3.55403 0.450001 3.37501V1.12501C0.450001 0.945991 0.521117 0.774302 0.647704 0.647715C0.774291 0.521128 0.94598 0.450012 1.125 0.450012H3.375ZM2.7 1.80001H1.8V2.70001H2.7V1.80001ZM3.375 13.95C3.55402 13.95 3.72571 14.0211 3.8523 14.1477C3.97888 14.2743 4.05 14.446 4.05 14.625V16.875C4.05 17.054 3.97888 17.2257 3.8523 17.3523C3.72571 17.4789 3.55402 17.55 3.375 17.55H1.125C0.94598 17.55 0.774291 17.4789 0.647704 17.3523C0.521117 17.2257 0.450001 17.054 0.450001 16.875V14.625C0.450001 14.446 0.521117 14.2743 0.647704 14.1477C0.774291 14.0211 0.94598 13.95 1.125 13.95H3.375ZM2.7 15.3H1.8V16.2H2.7V15.3ZM16.875 0.450012C17.054 0.450012 17.2257 0.521128 17.3523 0.647715C17.4789 0.774302 17.55 0.945991 17.55 1.12501V3.37501C17.55 3.55403 17.4789 3.72572 17.3523 3.85231C17.2257 3.9789 17.054 4.05001 16.875 4.05001H14.625C14.446 4.05001 14.2743 3.9789 14.1477 3.85231C14.0211 3.72572 13.95 3.55403 13.95 3.37501V1.12501C13.95 0.945991 14.0211 0.774302 14.1477 0.647715C14.2743 0.521128 14.446 0.450012 14.625 0.450012H16.875ZM16.2 1.80001H15.3V2.70001H16.2V1.80001ZM16.875 13.95C17.054 13.95 17.2257 14.0211 17.3523 14.1477C17.4789 14.2743 17.55 14.446 17.55 14.625V16.875C17.55 17.054 17.4789 17.2257 17.3523 17.3523C17.2257 17.4789 17.054 17.55 16.875 17.55H14.625C14.446 17.55 14.2743 17.4789 14.1477 17.3523C14.0211 17.2257 13.95 17.054 13.95 16.875V14.625C13.95 14.446 14.0211 14.2743 14.1477 14.1477C14.2743 14.0211 14.446 13.95 14.625 13.95H16.875ZM16.2 15.3H15.3V16.2H16.2V15.3ZM12.375 1.57501C12.554 1.57501 12.7257 1.64613 12.8523 1.77272C12.9789 1.8993 13.05 2.07099 13.05 2.25001C13.05 2.42903 12.9789 2.60072 12.8523 2.72731C12.7257 2.8539 12.554 2.92501 12.375 2.92501H5.625C5.44598 2.92501 5.27429 2.8539 5.1477 2.72731C5.02112 2.60072 4.95 2.42903 4.95 2.25001C4.95 2.07099 5.02112 1.8993 5.1477 1.77272C5.27429 1.64613 5.44598 1.57501 5.625 1.57501H12.375ZM12.375 15.075C12.554 15.075 12.7257 15.1461 12.8523 15.2727C12.9789 15.3993 13.05 15.571 13.05 15.75C13.05 15.929 12.9789 16.1007 12.8523 16.2273C12.7257 16.3539 12.554 16.425 12.375 16.425H5.625C5.44598 16.425 5.27429 16.3539 5.1477 16.2273C5.02112 16.1007 4.95 15.929 4.95 15.75C4.95 15.571 5.02112 15.3993 5.1477 15.2727C5.27429 15.1461 5.44598 15.075 5.625 15.075H12.375ZM2.925 12.375C2.925 12.554 2.85388 12.7257 2.7273 12.8523C2.60071 12.9789 2.42902 13.05 2.25 13.05C2.07098 13.05 1.89929 12.9789 1.7727 12.8523C1.64612 12.7257 1.575 12.554 1.575 12.375V5.62501C1.575 5.44599 1.64612 5.2743 1.7727 5.14772C1.89929 5.02113 2.07098 4.95001 2.25 4.95001C2.42902 4.95001 2.60071 5.02113 2.7273 5.14772C2.85388 5.2743 2.925 5.44599 2.925 5.62501V12.375ZM16.425 12.375C16.425 12.554 16.3539 12.7257 16.2273 12.8523C16.1007 12.9789 15.929 13.05 15.75 13.05C15.571 13.05 15.3993 12.9789 15.2727 12.8523C15.1461 12.7257 15.075 12.554 15.075 12.375V5.62501C15.075 5.53637 15.0925 5.4486 15.1264 5.3667C15.1603 5.28481 15.21 5.21039 15.2727 5.14772C15.3354 5.08504 15.4098 5.03532 15.4917 5.00139C15.5736 4.96747 15.6614 4.95001 15.75 4.95001C15.8386 4.95001 15.9264 4.96747 16.0083 5.00139C16.0902 5.03532 16.1646 5.08504 16.2273 5.14772C16.29 5.21039 16.3397 5.28481 16.3736 5.3667C16.4075 5.4486 16.425 5.53637 16.425 5.62501V12.375Z" fill="white"/>
</g>
<defs>
<clipPath id="clip0_1_331">
<rect width="18" height="18" fill="white"/>
</clipPath>
</defs>
</svg>
